<svg xmlns="http://www.w3.org/2000/svg" xmlns:xlink="http://www.w3.org/1999/xlink" width="500" zoomAndPan="magnify" viewBox="0 0 375 374.999991" height="500" preserveAspectRatio="xMidYMid meet" version="1.0"><defs><clipPath id="13bcd4fd62"><path d="M 85.128906 333.804688 L 92.519531 333.804688 L 92.519531 341.195312 L 85.128906 341.195312 Z M 85.128906 333.804688 " clip-rule="nonzero"/></clipPath><clipPath id="518ca756e0"><path d="M 88.824219 333.804688 C 86.78125 333.804688 85.128906 335.460938 85.128906 337.5 C 85.128906 339.539062 86.78125 341.195312 88.824219 341.195312 C 90.863281 341.195312 92.519531 339.539062 92.519531 337.5 C 92.519531 335.460938 90.863281 333.804688 88.824219 333.804688 " clip-rule="nonzero"/></clipPath><clipPath id="5a10db7c5e"><path d="M 279.847656 333.804688 L 287.234375 333.804688 L 287.234375 341.195312 L 279.847656 341.195312 Z M 279.847656 333.804688 " clip-rule="nonzero"/></clipPath><clipPath id="00703e72f4"><path d="M 283.542969 333.804688 C 281.5 333.804688 279.847656 335.460938 279.847656 337.5 C 279.847656 339.539062 281.5 341.195312 283.542969 341.195312 C 285.582031 341.195312 287.234375 339.539062 287.234375 337.5 C 287.234375 335.460938 285.582031 333.804688 283.542969 333.804688 " clip-rule="nonzero"/></clipPath><clipPath id="b31a7697ef"><path d="M 258.230469 94.070312 L 287.480469 94.070312 L 287.480469 128.570312 L 258.230469 128.570312 Z M 258.230469 94.070312 " clip-rule="nonzero"/></clipPath><clipPath id="24213e269f"><path d="M 85.152344 109.644531 L 123.355469 109.644531 L 123.355469 140.394531 L 85.152344 140.394531 Z M 85.152344 109.644531 " clip-rule="nonzero"/></clipPath><clipPath id="68537d8259"><path d="M 116.496094 59 L 255.996094 59 L 255.996094 340.929688 L 116.496094 340.929688 Z M 116.496094 59 " clip-rule="nonzero"/></clipPath></defs><g clip-path="url(#13bcd4fd62)"><g clip-path="url(#518ca756e0)"><path fill="#ffffff" d="M 85.128906 333.804688 L 92.519531 333.804688 L 92.519531 341.195312 L 85.128906 341.195312 Z M 85.128906 333.804688 " fill-opacity="1" fill-rule="nonzero"/></g></g><g clip-path="url(#5a10db7c5e)"><g clip-path="url(#00703e72f4)"><path fill="#ffffff" d="M 279.847656 333.804688 L 287.234375 333.804688 L 287.234375 341.195312 L 279.847656 341.195312 Z M 279.847656 333.804688 " fill-opacity="1" fill-rule="nonzero"/></g></g><g clip-path="url(#b31a7697ef)"><path fill="#ffffff" d="M 276.382812 122.878906 C 276.183594 122.878906 276.019531 123.105469 276.019531 123.386719 C 276.019531 123.671875 276.183594 123.898438 276.382812 123.898438 C 276.578125 123.898438 276.742188 123.671875 276.742188 123.386719 C 276.742188 123.105469 276.582031 122.878906 276.382812 122.878906 Z M 279.664062 118.785156 C 279.574219 118.742188 279.394531 118.777344 279.300781 118.785156 C 279.039062 118.816406 278.78125 118.890625 278.535156 118.988281 C 278.5 119.003906 278.464844 119.019531 278.425781 119.039062 C 277.996094 119.238281 277.597656 119.519531 277.257812 119.851562 C 277.164062 119.945312 277.070312 120.042969 276.980469 120.144531 C 276.636719 120.539062 276.367188 121 276.261719 121.507812 C 276.226562 121.679688 276.207031 121.859375 276.210938 122.042969 C 276.210938 122.101562 276.226562 122.167969 276.257812 122.230469 C 276.296875 122.3125 276.359375 122.371094 276.46875 122.339844 C 276.539062 122.320312 276.582031 122.257812 276.625 122.203125 C 276.664062 122.148438 276.699219 122.089844 276.734375 122.03125 C 276.816406 121.871094 276.882812 121.699219 276.957031 121.53125 C 277.03125 121.363281 277.113281 121.199219 277.207031 121.035156 C 277.246094 120.96875 277.28125 120.90625 277.320312 120.847656 C 277.65625 120.332031 278.09375 119.875 278.597656 119.527344 C 278.921875 119.300781 279.277344 119.117188 279.664062 118.960938 C 279.773438 118.917969 279.757812 118.835938 279.664062 118.785156 Z M 285.332031 122.929688 C 285.332031 120.480469 283.535156 118.445312 281.1875 118.070312 C 280.941406 118.03125 280.691406 118.011719 280.433594 118.011719 C 280.429688 118.011719 280.425781 118.011719 280.421875 118.011719 C 280.007812 118.011719 279.613281 118.0625 279.238281 118.15625 C 277.875 118.492188 276.738281 119.40625 276.089844 120.613281 C 275.902344 120.964844 275.753906 121.347656 275.652344 121.742188 C 275.59375 121.988281 275.554688 122.234375 275.53125 122.488281 C 275.515625 122.628906 275.511719 122.78125 275.511719 122.921875 C 275.511719 125.632812 277.710938 127.839844 280.421875 127.839844 C 283.128906 127.839844 285.332031 125.636719 285.332031 122.929688 Z M 286.019531 122.929688 C 286.019531 126.019531 283.507812 128.53125 280.421875 128.53125 C 277.332031 128.53125 274.820312 126.019531 274.820312 122.929688 C 274.820312 122.84375 274.828125 122.757812 274.828125 122.675781 C 274.835938 122.4375 274.863281 122.199219 274.902344 121.972656 C 274.960938 121.625 275.050781 121.292969 275.167969 120.96875 C 275.890625 119.027344 277.664062 117.589844 279.792969 117.359375 C 279.996094 117.332031 280.203125 117.324219 280.410156 117.324219 C 280.550781 117.324219 280.6875 117.328125 280.828125 117.339844 C 281.0625 117.359375 281.300781 117.386719 281.527344 117.433594 C 284.09375 117.957031 286.019531 120.222656 286.019531 122.929688 Z M 264.925781 96.136719 C 264.925781 96.777344 265.445312 97.296875 266.085938 97.296875 C 266.722656 97.296875 267.242188 96.777344 267.242188 96.136719 C 267.242188 95.496094 266.722656 94.976562 266.085938 94.976562 C 265.449219 94.976562 264.925781 95.496094 264.925781 96.136719 Z M 264.4375 96.136719 C 264.4375 95.226562 265.179688 94.480469 266.089844 94.480469 C 267 94.480469 267.742188 95.226562 267.742188 96.136719 C 267.742188 97.046875 267 97.792969 266.089844 97.792969 C 265.179688 97.792969 264.4375 97.054688 264.4375 96.136719 Z M 261.640625 118.566406 L 261.347656 118.566406 C 261.238281 118.566406 261.148438 118.65625 261.148438 118.765625 C 261.148438 118.875 261.238281 118.964844 261.347656 118.964844 L 261.640625 118.964844 C 261.75 118.964844 261.835938 118.875 261.835938 118.765625 C 261.835938 118.65625 261.75 118.566406 261.640625 118.566406 Z M 258.722656 118.566406 L 258.433594 118.566406 C 258.324219 118.566406 258.234375 118.65625 258.234375 118.765625 C 258.234375 118.875 258.324219 118.964844 258.433594 118.964844 L 258.722656 118.964844 C 258.832031 118.964844 258.921875 118.875 258.921875 118.765625 C 258.921875 118.65625 258.832031 118.566406 258.722656 118.566406 Z M 260.925781 118.011719 L 261.144531 117.792969 C 261.183594 117.753906 261.183594 117.695312 261.144531 117.65625 C 261.105469 117.617188 261.046875 117.617188 261.007812 117.65625 L 260.789062 117.875 C 260.75 117.914062 260.75 117.972656 260.789062 118.011719 C 260.808594 118.03125 260.832031 118.042969 260.859375 118.042969 C 260.882812 118.039062 260.90625 118.027344 260.925781 118.011719 Z M 259.082031 119.582031 L 258.921875 119.742188 C 258.882812 119.78125 258.882812 119.839844 258.921875 119.878906 C 258.941406 119.902344 258.964844 119.910156 258.992188 119.910156 C 259.015625 119.910156 259.039062 119.902344 259.058594 119.878906 L 259.21875 119.722656 C 259.257812 119.683594 259.257812 119.621094 259.21875 119.582031 C 259.179688 119.542969 259.121094 119.542969 259.082031 119.582031 Z M 260.992188 119.582031 C 260.953125 119.542969 260.890625 119.542969 260.851562 119.582031 C 260.8125 119.621094 260.8125 119.683594 260.851562 119.722656 L 261.011719 119.878906 C 261.03125 119.902344 261.054688 119.910156 261.078125 119.910156 C 261.105469 119.910156 261.128906 119.902344 261.148438 119.878906 C 261.1875 119.839844 261.1875 119.78125 261.148438 119.742188 Z M 259.058594 117.652344 C 259.019531 117.613281 258.960938 117.613281 258.921875 117.652344 C 258.882812 117.691406 258.882812 117.75 258.921875 117.789062 L 259.140625 118.007812 C 259.160156 118.027344 259.183594 118.039062 259.210938 118.039062 C 259.234375 118.039062 259.257812 118.027344 259.277344 118.007812 C 259.316406 117.96875 259.316406 117.910156 259.277344 117.867188 Z M 260.035156 119.878906 C 259.925781 119.878906 259.835938 119.96875 259.835938 120.078125 L 259.835938 120.371094 C 259.835938 120.480469 259.925781 120.570312 260.035156 120.570312 C 260.144531 120.570312 260.234375 120.480469 260.234375 120.371094 L 260.234375 120.078125 C 260.234375 119.96875 260.144531 119.878906 260.035156 119.878906 Z M 260.035156 116.960938 C 259.925781 116.960938 259.835938 117.050781 259.835938 117.160156 L 259.835938 117.460938 C 259.835938 117.570312 259.925781 117.660156 260.035156 117.660156 C 260.144531 117.660156 260.234375 117.570312 260.234375 117.460938 L 260.234375 117.160156 C 260.234375 117.050781 260.144531 116.960938 260.035156 116.960938 Z M 287.28125 110.105469 L 286.988281 110.105469 C 286.878906 110.105469 286.792969 110.195312 286.792969 110.304688 C 286.792969 110.410156 286.878906 110.5 286.988281 110.5 L 287.28125 110.5 C 287.390625 110.5 287.480469 110.410156 287.480469 110.304688 C 287.472656 110.195312 287.390625 110.105469 287.28125 110.105469 Z M 284.367188 110.105469 L 284.074219 110.105469 C 283.964844 110.105469 283.875 110.195312 283.875 110.304688 C 283.875 110.410156 283.964844 110.5 284.074219 110.5 L 284.367188 110.5 C 284.472656 110.5 284.5625 110.410156 284.5625 110.304688 C 284.5625 110.195312 284.472656 110.105469 284.367188 110.105469 Z M 286.566406 109.550781 L 286.785156 109.332031 C 286.824219 109.292969 286.824219 109.234375 286.785156 109.191406 C 286.746094 109.152344 286.6875 109.152344 286.648438 109.191406 L 286.429688 109.410156 C 286.390625 109.449219 286.390625 109.511719 286.429688 109.550781 C 286.449219 109.570312 286.472656 109.578125 286.5 109.578125 C 286.523438 109.578125 286.546875 109.570312 286.566406 109.550781 Z M 284.632812 111.445312 C 284.65625 111.445312 284.683594 111.4375 284.703125 111.417969 L 284.859375 111.257812 C 284.898438 111.21875 284.898438 111.160156 284.859375 111.121094 C 284.820312 111.082031 284.761719 111.082031 284.722656 111.121094 L 284.5625 111.277344 C 284.523438 111.320312 284.523438 111.378906 284.5625 111.417969 C 284.582031 111.4375 284.609375 111.445312 284.632812 111.445312 Z M 286.628906 111.121094 C 286.589844 111.082031 286.527344 111.082031 286.488281 111.121094 C 286.449219 111.160156 286.449219 111.21875 286.488281 111.257812 L 286.648438 111.417969 C 286.667969 111.4375 286.691406 111.445312 286.71875 111.445312 C 286.742188 111.445312 286.765625 111.4375 286.785156 111.417969 C 286.824219 111.378906 286.824219 111.320312 286.785156 111.277344 Z M 284.921875 109.410156 L 284.703125 109.191406 C 284.664062 109.152344 284.601562 109.152344 284.5625 109.191406 C 284.523438 109.234375 284.523438 109.292969 284.5625 109.332031 L 284.78125 109.550781 C 284.800781 109.570312 284.824219 109.578125 284.851562 109.578125 C 284.875 109.578125 284.898438 109.570312 284.921875 109.550781 C 284.960938 109.511719 284.960938 109.449219 284.921875 109.410156 Z M 285.675781 111.417969 C 285.570312 111.417969 285.480469 111.507812 285.480469 111.617188 L 285.480469 111.910156 C 285.480469 112.015625 285.570312 112.105469 285.675781 112.105469 C 285.785156 112.105469 285.875 112.015625 285.875 111.910156 L 285.875 111.617188 C 285.871094 111.507812 285.78125 111.417969 285.675781 111.417969 Z M 285.871094 108.699219 C 285.871094 108.589844 285.78125 108.5 285.671875 108.5 C 285.5625 108.5 285.472656 108.589844 285.472656 108.699219 L 285.472656 109 C 285.472656 109.109375 285.5625 109.199219 285.671875 109.199219 C 285.78125 109.199219 285.871094 109.109375 285.871094 109 Z M 266.199219 110.886719 C 266.054688 110.867188 265.910156 110.921875 265.792969 111.050781 C 265.679688 111.175781 265.601562 111.34375 265.570312 111.535156 C 265.511719 111.9375 265.695312 112.300781 265.980469 112.339844 C 266 112.34375 266.019531 112.34375 266.039062 112.34375 C 266.308594 112.34375 266.558594 112.066406 266.613281 111.695312 C 266.667969 111.292969 266.484375 110.933594 266.199219 110.886719 Z M 267.375 109.015625 C 267.585938 108.6875 267.828125 108.378906 268.085938 108.09375 C 268.707031 107.410156 269.46875 106.839844 270.316406 106.4375 C 270.855469 106.179688 271.441406 105.988281 272.054688 105.84375 C 272.21875 105.804688 272.207031 105.675781 272.085938 105.585938 C 271.960938 105.496094 271.683594 105.511719 271.535156 105.5 C 271.128906 105.480469 270.722656 105.53125 270.328125 105.625 C 269.566406 105.808594 268.84375 106.15625 268.203125 106.601562 C 268.148438 106.640625 268.097656 106.675781 268.046875 106.714844 C 267.699219 106.972656 267.371094 107.261719 267.089844 107.582031 C 266.589844 108.152344 266.226562 108.820312 266.140625 109.59375 C 266.113281 109.796875 266.164062 110.132812 266.460938 110.09375 C 266.566406 110.078125 266.652344 110.003906 266.726562 109.929688 C 266.996094 109.660156 267.179688 109.332031 267.375 109.015625 Z M 274.519531 104.605469 C 274.710938 104.648438 274.910156 104.699219 275.097656 104.757812 C 275.800781 104.976562 276.464844 105.285156 277.078125 105.667969 C 277.234375 105.765625 277.378906 105.863281 277.523438 105.972656 C 278.117188 106.398438 278.652344 106.894531 279.117188 107.453125 C 279.246094 107.605469 279.367188 107.765625 279.484375 107.925781 C 280.488281 109.320312 281.082031 111.03125 281.082031 112.878906 C 281.082031 114.222656 280.765625 115.496094 280.210938 116.625 C 280.28125 116.625 280.351562 116.621094 280.425781 116.621094 C 280.675781 116.621094 280.929688 116.636719 281.171875 116.664062 C 281.6875 115.503906 281.96875 114.226562 281.96875 112.878906 C 281.96875 111.101562 281.46875 109.4375 280.609375 108.011719 C 280.523438 107.878906 280.441406 107.746094 280.351562 107.613281 C 280.148438 107.316406 279.929688 107.03125 279.699219 106.761719 C 278.59375 105.480469 277.152344 104.5 275.515625 103.960938 C 275.179688 103.851562 274.832031 103.757812 274.480469 103.683594 C 274.328125 103.652344 274.167969 103.625 274.011719 103.597656 C 273.550781 103.53125 273.074219 103.488281 272.59375 103.488281 C 271.363281 103.488281 270.183594 103.726562 269.105469 104.164062 C 268.886719 104.253906 268.679688 104.347656 268.46875 104.445312 C 268.226562 104.566406 267.996094 104.695312 267.769531 104.832031 C 266.773438 105.433594 265.894531 106.210938 265.1875 107.125 C 265.027344 107.339844 264.871094 107.558594 264.722656 107.78125 C 264.601562 107.972656 264.480469 108.171875 264.367188 108.375 C 263.632812 109.714844 263.21875 111.246094 263.21875 112.875 C 263.21875 118.046875 267.425781 122.257812 272.59375 122.257812 C 273.132812 122.257812 273.660156 122.214844 274.171875 122.125 C 274.210938 121.804688 274.277344 121.492188 274.367188 121.183594 C 273.796875 121.308594 273.203125 121.371094 272.59375 121.371094 C 267.910156 121.371094 264.105469 117.5625 264.105469 112.875 C 264.105469 111.179688 264.605469 109.605469 265.460938 108.28125 C 265.640625 108.003906 265.832031 107.734375 266.039062 107.484375 C 266.605469 106.800781 267.269531 106.210938 268.015625 105.730469 C 268.292969 105.550781 268.578125 105.386719 268.882812 105.238281 C 270.003906 104.6875 271.261719 104.382812 272.59375 104.382812 C 273.257812 104.382812 273.902344 104.460938 274.519531 104.605469 Z M 269.753906 98.171875 C 269.753906 98.609375 270.105469 98.960938 270.539062 98.960938 C 270.976562 98.960938 271.328125 98.609375 271.328125 98.171875 C 271.328125 97.738281 270.976562 97.386719 270.539062 97.386719 C 270.105469 97.386719 269.753906 97.738281 269.753906 98.171875 Z M 269.257812 98.171875 C 269.257812 97.464844 269.832031 96.890625 270.539062 96.890625 C 271.246094 96.890625 271.820312 97.464844 271.820312 98.171875 C 271.820312 98.882812 271.246094 99.457031 270.539062 99.457031 C 269.832031 99.457031 269.257812 98.882812 269.257812 98.171875 Z M 266.40625 124.09375 C 266.40625 123.234375 265.707031 122.535156 264.851562 122.535156 C 263.996094 122.535156 263.296875 123.234375 263.296875 124.09375 C 263.296875 124.949219 263.996094 125.648438 264.851562 125.648438 C 265.707031 125.648438 266.40625 124.949219 266.40625 124.09375 Z M 266.996094 124.09375 C 266.996094 125.277344 266.035156 126.238281 264.847656 126.238281 C 263.664062 126.238281 262.703125 125.277344 262.703125 124.09375 C 262.703125 122.90625 263.664062 121.945312 264.847656 121.945312 C 266.03125 121.941406 266.996094 122.90625 266.996094 124.09375 Z M 276.070312 99.277344 C 275.875 99.253906 275.707031 99.441406 275.671875 99.710938 C 275.636719 99.976562 275.761719 100.199219 275.949219 100.222656 C 275.960938 100.222656 275.96875 100.222656 275.980469 100.222656 C 276.0625 100.222656 276.144531 100.183594 276.210938 100.105469 C 276.28125 100.027344 276.332031 99.914062 276.347656 99.789062 C 276.359375 99.664062 276.339844 99.546875 276.292969 99.453125 C 276.242188 99.351562 276.164062 99.289062 276.070312 99.277344 Z M 276.375 98.6875 C 276.535156 98.515625 276.636719 98.308594 276.757812 98.105469 C 276.882812 97.894531 277.019531 97.699219 277.179688 97.515625 C 277.550781 97.074219 278.003906 96.707031 278.515625 96.4375 C 278.839844 96.265625 279.191406 96.136719 279.5625 96.039062 C 279.664062 96.011719 279.65625 95.929688 279.578125 95.875 C 279.5 95.820312 279.332031 95.835938 279.242188 95.835938 C 278.996094 95.828125 278.746094 95.871094 278.507812 95.933594 C 278.050781 96.0625 277.613281 96.289062 277.234375 96.582031 C 276.613281 97.054688 276.089844 97.691406 276.015625 98.488281 C 276.003906 98.621094 276.039062 98.828125 276.21875 98.796875 C 276.28125 98.789062 276.332031 98.738281 276.375 98.6875 Z M 275.105469 103.144531 C 274.8125 102.4375 274.652344 101.671875 274.652344 100.863281 C 274.652344 97.578125 277.328125 94.902344 280.609375 94.902344 C 283.894531 94.902344 286.5625 97.578125 286.5625 100.863281 C 286.5625 104.148438 283.894531 106.824219 280.613281 106.824219 C 280.800781 107.074219 280.976562 107.324219 281.136719 107.59375 C 284.609375 107.320312 287.351562 104.40625 287.351562 100.863281 C 287.351562 97.140625 284.324219 94.113281 280.609375 94.113281 C 276.890625 94.113281 273.867188 97.140625 273.867188 100.863281 C 273.867188 101.59375 273.984375 102.296875 274.199219 102.953125 C 274.5 103.003906 274.800781 103.070312 275.105469 103.144531 Z M 261.953125 103.230469 C 261.808594 103.210938 261.683594 103.351562 261.660156 103.542969 C 261.648438 103.632812 261.664062 103.71875 261.699219 103.789062 C 261.738281 103.863281 261.796875 103.90625 261.867188 103.914062 C 261.878906 103.914062 261.882812 103.914062 261.890625 103.914062 C 262.019531 103.914062 262.136719 103.78125 262.160156 103.605469 C 262.179688 103.414062 262.089844 103.25 261.953125 103.230469 Z M 262.425781 102.4375 C 262.511719 102.296875 262.609375 102.15625 262.714844 102.03125 C 262.972656 101.730469 263.28125 101.472656 263.632812 101.289062 C 263.855469 101.171875 264.101562 101.082031 264.355469 101.011719 C 264.425781 100.992188 264.421875 100.9375 264.367188 100.898438 C 264.3125 100.863281 264.199219 100.867188 264.132812 100.867188 C 263.960938 100.863281 263.792969 100.894531 263.628906 100.9375 C 263.3125 101.027344 263.011719 101.1875 262.75 101.390625 C 262.324219 101.714844 261.957031 102.15625 261.910156 102.707031 C 261.902344 102.796875 261.925781 102.941406 262.050781 102.917969 C 262.09375 102.910156 262.128906 102.878906 262.160156 102.84375 C 262.273438 102.722656 262.34375 102.578125 262.425781 102.4375 Z M 260.464844 103.753906 C 260.464844 101.527344 262.277344 99.714844 264.5 99.714844 C 266.703125 99.714844 268.496094 101.488281 268.535156 103.683594 C 268.332031 103.773438 268.132812 103.871094 267.9375 103.96875 C 267.941406 103.894531 267.945312 103.820312 267.945312 103.746094 C 267.945312 101.84375 266.402344 100.300781 264.5 100.300781 C 262.601562 100.300781 261.054688 101.84375 261.054688 103.746094 C 261.054688 105.585938 262.5 107.09375 264.3125 107.191406 C 264.1875 107.375 264.070312 107.558594 263.957031 107.75 C 261.984375 107.488281 260.464844 105.792969 260.464844 103.753906 " fill-opacity="1" fill-rule="nonzero"/></g><g clip-path="url(#24213e269f)"><path fill="#ffffff" d="M 118.585938 135.574219 C 118.585938 133.675781 117.019531 132.132812 115.09375 132.132812 C 113.164062 132.132812 111.597656 133.675781 111.597656 135.574219 C 111.597656 137.472656 113.164062 139.019531 115.09375 139.019531 C 117.019531 139.019531 118.585938 137.472656 118.585938 135.574219 Z M 119.761719 135.574219 C 119.761719 138.113281 117.664062 140.175781 115.09375 140.175781 C 112.519531 140.175781 110.425781 138.113281 110.425781 135.574219 C 110.425781 133.039062 112.519531 130.976562 115.09375 130.976562 C 117.664062 130.976562 119.761719 133.039062 119.761719 135.574219 Z M 108.410156 132.765625 C 108.410156 131.933594 108.246094 131.144531 107.953125 130.414062 C 107.910156 130.300781 107.863281 130.191406 107.8125 130.082031 C 107.796875 130.046875 107.777344 130.011719 107.757812 129.972656 C 107.660156 129.769531 107.550781 129.570312 107.429688 129.378906 C 107.414062 129.359375 107.402344 129.335938 107.390625 129.316406 C 107.320312 129.207031 107.246094 129.097656 107.167969 128.996094 C 107.167969 128.992188 107.164062 128.988281 107.160156 128.984375 C 106.527344 128.125 105.6875 127.425781 104.722656 126.960938 C 104.683594 126.9375 104.640625 126.917969 104.597656 126.902344 C 104.496094 126.851562 104.390625 126.804688 104.28125 126.761719 C 104.152344 126.710938 104.019531 126.664062 103.886719 126.621094 C 103.796875 126.589844 103.703125 126.566406 103.613281 126.539062 C 103.523438 126.515625 103.4375 126.492188 103.347656 126.472656 C 103.257812 126.453125 103.171875 126.429688 103.082031 126.414062 C 103.074219 126.414062 103.066406 126.410156 103.058594 126.410156 C 102.859375 126.375 102.660156 126.34375 102.464844 126.324219 C 102.257812 126.308594 102.050781 126.292969 101.84375 126.292969 C 101.621094 126.292969 101.402344 126.304688 101.1875 126.328125 C 101.089844 126.335938 100.988281 126.355469 100.890625 126.371094 C 100.777344 126.386719 100.667969 126.398438 100.558594 126.421875 C 100.429688 126.445312 100.304688 126.480469 100.179688 126.511719 C 100.105469 126.53125 100.027344 126.546875 99.953125 126.570312 C 99.8125 126.613281 99.671875 126.664062 99.535156 126.714844 C 99.480469 126.734375 99.425781 126.753906 99.371094 126.773438 C 99.222656 126.832031 99.082031 126.898438 98.941406 126.96875 C 98.898438 126.988281 98.855469 127.007812 98.816406 127.027344 C 98.667969 127.105469 98.527344 127.1875 98.386719 127.273438 C 98.355469 127.292969 98.320312 127.308594 98.292969 127.328125 C 98.148438 127.421875 98.007812 127.519531 97.871094 127.621094 C 97.847656 127.640625 97.820312 127.660156 97.796875 127.675781 C 97.660156 127.785156 97.527344 127.898438 97.398438 128.015625 C 97.378906 128.03125 97.359375 128.046875 97.339844 128.066406 C 97.210938 128.1875 97.085938 128.3125 96.964844 128.445312 C 96.949219 128.460938 96.933594 128.476562 96.921875 128.496094 C 96.800781 128.628906 96.683594 128.769531 96.578125 128.914062 C 96.566406 128.929688 96.550781 128.945312 96.542969 128.960938 C 96.429688 129.109375 96.328125 129.261719 96.230469 129.417969 C 96.222656 129.429688 96.214844 129.445312 96.207031 129.457031 C 96.109375 129.617188 96.019531 129.785156 95.933594 129.953125 C 95.929688 129.964844 95.925781 129.972656 95.921875 129.984375 C 95.835938 130.15625 95.757812 130.335938 95.6875 130.519531 C 95.6875 130.523438 95.683594 130.53125 95.683594 130.535156 C 95.46875 131.105469 95.335938 131.710938 95.296875 132.34375 L 95.289062 132.410156 C 95.285156 132.527344 95.273438 132.644531 95.273438 132.765625 C 95.273438 136.335938 98.21875 139.238281 101.84375 139.238281 C 105.464844 139.238281 108.410156 136.335938 108.410156 132.765625 Z M 94.191406 131.648438 C 94.191406 131.636719 94.195312 131.628906 94.195312 131.621094 C 94.230469 131.402344 94.269531 131.1875 94.324219 130.976562 C 94.324219 130.964844 94.328125 130.953125 94.332031 130.945312 C 94.714844 129.410156 95.566406 128.0625 96.730469 127.050781 C 96.753906 127.03125 96.773438 127.011719 96.792969 126.992188 C 96.933594 126.875 97.078125 126.765625 97.222656 126.65625 C 97.265625 126.625 97.308594 126.59375 97.355469 126.5625 C 97.492188 126.464844 97.628906 126.375 97.773438 126.289062 C 97.835938 126.25 97.894531 126.214844 97.957031 126.179688 C 98.089844 126.101562 98.226562 126.027344 98.367188 125.957031 C 98.445312 125.921875 98.519531 125.882812 98.597656 125.847656 C 98.730469 125.789062 98.863281 125.730469 99 125.675781 C 99.09375 125.640625 99.1875 125.609375 99.28125 125.574219 C 99.410156 125.53125 99.535156 125.488281 99.667969 125.449219 C 99.78125 125.417969 99.894531 125.390625 100.011719 125.363281 C 100.128906 125.335938 100.246094 125.304688 100.363281 125.28125 C 100.507812 125.253906 100.65625 125.234375 100.804688 125.214844 C 100.898438 125.203125 100.992188 125.183594 101.089844 125.175781 C 101.339844 125.152344 101.589844 125.136719 101.84375 125.136719 C 102.058594 125.136719 102.28125 125.148438 102.503906 125.167969 C 102.492188 125.019531 102.484375 124.871094 102.484375 124.726562 C 102.484375 124.542969 102.496094 124.363281 102.511719 124.183594 C 102.515625 124.136719 102.519531 124.09375 102.527344 124.046875 C 102.542969 123.890625 102.566406 123.738281 102.597656 123.585938 C 102.613281 123.507812 102.628906 123.433594 102.648438 123.359375 C 102.667969 123.28125 102.6875 123.203125 102.707031 123.125 C 102.753906 122.960938 102.804688 122.800781 102.863281 122.644531 C 102.875 122.613281 102.886719 122.582031 102.898438 122.546875 C 103.027344 122.222656 103.183594 121.90625 103.363281 121.609375 C 103.371094 121.601562 103.375 121.589844 103.382812 121.582031 C 103.503906 121.382812 103.636719 121.191406 103.78125 121.007812 C 103.785156 121.003906 103.789062 121 103.789062 120.996094 C 103.863281 120.90625 103.9375 120.816406 104.011719 120.730469 C 104.03125 120.707031 104.054688 120.6875 104.074219 120.664062 C 104.199219 120.527344 104.328125 120.398438 104.464844 120.273438 C 104.507812 120.230469 104.554688 120.1875 104.605469 120.148438 C 104.675781 120.085938 104.746094 120.027344 104.820312 119.96875 C 104.921875 119.890625 105.023438 119.8125 105.128906 119.738281 C 103.953125 115.699219 100.222656 112.910156 95.914062 112.910156 C 90.628906 112.910156 86.328125 117.148438 86.328125 122.355469 C 86.328125 126.945312 89.667969 130.839844 94.191406 131.648438 Z M 108.664062 119.796875 C 107.800781 119.796875 106.992188 120.011719 106.28125 120.390625 L 106.242188 120.414062 C 106.191406 120.441406 106.136719 120.476562 106.085938 120.507812 C 105.910156 120.609375 105.746094 120.722656 105.585938 120.84375 C 105.574219 120.855469 105.5625 120.863281 105.550781 120.871094 C 105.390625 120.996094 105.242188 121.128906 105.101562 121.269531 C 105.0625 121.304688 105.03125 121.347656 104.992188 121.382812 C 104.90625 121.476562 104.820312 121.574219 104.738281 121.675781 C 104.683594 121.742188 104.628906 121.8125 104.578125 121.886719 C 104.523438 121.960938 104.472656 122.042969 104.421875 122.121094 C 104.371094 122.203125 104.320312 122.28125 104.273438 122.363281 C 104.199219 122.496094 104.132812 122.628906 104.070312 122.769531 C 104.03125 122.859375 104 122.949219 103.964844 123.042969 C 103.929688 123.144531 103.890625 123.246094 103.859375 123.347656 C 103.839844 123.425781 103.820312 123.503906 103.800781 123.582031 C 103.769531 123.703125 103.746094 123.824219 103.726562 123.945312 C 103.71875 124.011719 103.703125 124.078125 103.695312 124.144531 C 103.675781 124.335938 103.660156 124.527344 103.660156 124.726562 C 103.660156 124.90625 103.675781 125.089844 103.695312 125.273438 C 103.699219 125.304688 103.707031 125.335938 103.710938 125.367188 C 103.796875 125.386719 103.878906 125.414062 103.964844 125.4375 C 104.09375 125.472656 104.222656 125.511719 104.347656 125.554688 C 104.449219 125.589844 104.550781 125.625 104.652344 125.664062 C 104.835938 125.738281 105.019531 125.816406 105.195312 125.902344 C 105.25 125.925781 105.304688 125.949219 105.355469 125.976562 C 105.480469 126.039062 105.597656 126.105469 105.71875 126.171875 C 105.730469 126.179688 105.746094 126.191406 105.757812 126.199219 C 105.992188 126.332031 106.214844 126.480469 106.433594 126.636719 C 106.449219 126.648438 106.460938 126.660156 106.476562 126.671875 C 107.039062 127.085938 107.542969 127.574219 107.972656 128.125 C 108 128.160156 108.027344 128.199219 108.058594 128.238281 C 108.1875 128.40625 108.304688 128.582031 108.421875 128.761719 C 108.457031 128.820312 108.496094 128.882812 108.53125 128.941406 C 108.601562 129.058594 108.667969 129.179688 108.730469 129.304688 C 108.792969 129.417969 108.847656 129.53125 108.902344 129.648438 C 111.550781 129.523438 113.667969 127.363281 113.667969 124.726562 C 113.667969 122.007812 111.421875 119.796875 108.664062 119.796875 Z M 109.308594 130.777344 C 109.484375 131.414062 109.585938 132.078125 109.585938 132.765625 C 109.585938 136.972656 106.113281 140.394531 101.84375 140.394531 C 97.585938 140.394531 94.121094 136.992188 94.101562 132.804688 C 88.960938 131.945312 85.152344 127.546875 85.152344 122.355469 C 85.152344 116.511719 89.980469 111.753906 95.914062 111.753906 C 100.65625 111.753906 104.769531 114.765625 106.171875 119.160156 C 106.933594 118.828125 107.777344 118.636719 108.664062 118.636719 C 112.070312 118.636719 114.839844 121.367188 114.839844 124.726562 C 114.839844 127.867188 112.414062 130.457031 109.308594 130.777344 Z M 102.542969 128.210938 C 101.136719 127.441406 99.292969 127.902344 98.429688 129.238281 C 98.160156 129.660156 98.191406 130.015625 98.519531 130.25 L 98.523438 130.25 C 98.539062 130.261719 98.558594 130.273438 98.574219 130.28125 C 98.871094 130.457031 99.230469 130.375 99.46875 130.082031 C 100.222656 129.148438 100.785156 129.003906 101.972656 129.4375 C 102.371094 129.582031 102.769531 129.46875 102.917969 129.167969 C 103.089844 128.8125 102.949219 128.445312 102.542969 128.210938 Z M 95.835938 115.828125 C 96.292969 115.945312 96.621094 115.808594 96.753906 115.441406 C 96.894531 115.054688 96.714844 114.71875 96.253906 114.527344 C 94.277344 113.703125 91.769531 114.671875 90.886719 116.605469 C 90.65625 117.117188 90.71875 117.460938 91.089844 117.65625 C 91.113281 117.667969 91.140625 117.679688 91.164062 117.691406 C 91.5 117.832031 91.84375 117.714844 92.03125 117.394531 C 92.984375 115.777344 94.015625 115.351562 95.835938 115.828125 Z M 109.488281 112.5 C 109.496094 113.371094 110.226562 114.089844 111.121094 114.097656 C 112.054688 114.097656 112.742188 113.4375 112.757812 112.527344 C 112.769531 111.632812 112.082031 110.90625 111.191406 110.878906 L 111.140625 110.878906 C 110.714844 110.878906 110.289062 111.058594 109.972656 111.371094 C 109.664062 111.679688 109.488281 112.089844 109.488281 112.5 Z M 109.109375 114.507812 C 108.554688 113.957031 108.253906 113.230469 108.261719 112.460938 C 108.277344 110.910156 109.566406 109.644531 111.132812 109.644531 L 111.179688 109.644531 C 112.757812 109.667969 114.035156 110.949219 114.03125 112.496094 C 114.023438 114.070312 112.722656 115.347656 111.128906 115.347656 L 111.117188 115.347656 C 110.363281 115.34375 109.648438 115.046875 109.109375 114.507812 Z M 122.082031 122.90625 C 122.09375 122.011719 121.40625 121.289062 120.515625 121.257812 L 120.464844 121.257812 C 120.039062 121.257812 119.613281 121.4375 119.296875 121.753906 C 118.988281 122.058594 118.8125 122.472656 118.8125 122.882812 C 118.820312 123.753906 119.550781 124.46875 120.445312 124.476562 C 121.378906 124.476562 122.066406 123.816406 122.082031 122.90625 Z M 123.355469 122.878906 C 123.347656 124.449219 122.046875 125.730469 120.453125 125.730469 L 120.441406 125.730469 C 119.6875 125.726562 118.972656 125.429688 118.433594 124.886719 C 117.878906 124.335938 117.578125 123.609375 117.585938 122.84375 C 117.601562 121.289062 118.890625 120.027344 120.457031 120.027344 L 120.503906 120.027344 C 122.082031 120.050781 123.359375 121.328125 123.355469 122.878906 Z M 115.578125 133.269531 C 114.59375 132.996094 113.359375 133.640625 113.046875 134.585938 C 112.941406 134.902344 112.941406 135.203125 113.285156 135.359375 C 113.566406 135.488281 113.824219 135.390625 113.976562 135.105469 C 114.296875 134.519531 114.726562 134.175781 115.460938 134.347656 C 115.8125 134.429688 116.058594 134.238281 116.105469 133.878906 C 116.15625 133.5 115.902344 133.34375 115.578125 133.269531 Z M 109.117188 120.914062 C 109.464844 121.042969 109.722656 121.246094 109.609375 121.65625 C 109.503906 122.042969 109.207031 122.222656 108.832031 122.082031 C 108.050781 121.789062 107.53125 122.101562 107.09375 122.703125 C 106.886719 122.992188 106.589844 123.0625 106.296875 122.878906 C 105.945312 122.660156 105.988281 122.332031 106.148438 122 C 106.628906 121.007812 108.078125 120.476562 109.117188 120.914062 " fill-opacity="1" fill-rule="nonzero"/></g><g clip-path="url(#68537d8259)"><path fill="#000000" d="M 175.472656 59.019531 L 175.746094 59.019531 C 176.550781 59.863281 178.207031 59.113281 179.105469 60.148438 C 181.476562 60.046875 184.34375 60.320312 185.390625 62.871094 C 188.859375 63.390625 190.773438 67.238281 194.425781 67.066406 C 198.144531 67.730469 199.148438 72.164062 202.503906 73.355469 C 204.28125 74.191406 203.472656 76.730469 204.6875 77.910156 C 206.375 79.335938 209.242188 80.617188 208.59375 83.347656 C 207.867188 86.898438 209.667969 90.503906 208.652344 93.984375 C 206.265625 95.054688 207.367188 97.453125 208.304688 99.128906 C 209.421875 100.199219 211.148438 100.6875 211.75 102.238281 C 213.5 105.285156 211.273438 109.222656 213.429688 112.128906 C 216.144531 115.421875 217.648438 119.46875 219.757812 123.136719 C 223.75 134.765625 226.34375 146.839844 228.671875 158.894531 C 230.429688 166.132812 230.269531 173.714844 232.097656 180.945312 C 233.347656 185.378906 233.988281 189.9375 235.34375 194.347656 C 237.871094 201.054688 239.929688 207.921875 242.394531 214.636719 C 243.972656 218.980469 246.089844 223.132812 247.464844 227.515625 C 250.351562 231.109375 252.035156 235.554688 253.792969 239.769531 C 252.867188 239.550781 252.929688 239.816406 253.980469 239.988281 C 252.761719 239.957031 253.859375 241.253906 254.167969 241.800781 C 254.378906 241.253906 253.96875 240.707031 253.882812 240.160156 C 254.820312 240.957031 255.347656 242.082031 255.996094 243.078125 L 255.996094 243.484375 C 254.375 245.875 252.230469 247.902344 250.445312 250.136719 C 250.898438 251.914062 251.867188 253.570312 252.390625 255.347656 C 250.976562 256.316406 250.652344 258.109375 249.09375 258.953125 C 245.640625 260.828125 243.945312 264.761719 240.351562 266.289062 C 232.351562 271.675781 223.074219 278.292969 212.878906 275.609375 C 207.652344 275.28125 208.203125 268.789062 205.84375 265.601562 C 204.171875 265.585938 202.617188 266.429688 200.953125 266.601562 C 203.566406 271.597656 205.914062 276.6875 207.933594 281.960938 C 212.730469 292.074219 217.148438 302.394531 221.574219 312.679688 C 222.410156 315.347656 224.039062 317.738281 224.511719 320.5 C 221.6875 321.59375 219.730469 324.777344 216.773438 326.121094 C 214.019531 327.710938 210.769531 328.289062 207.878906 329.554688 C 206.453125 331.707031 204.878906 333.675781 202.246094 334.25 C 200.929688 335.09375 198.484375 334.28125 197.730469 335.84375 C 192.996094 337.453125 187.660156 336.8125 182.738281 337.996094 C 179.234375 339.417969 175.457031 339.871094 171.65625 339.777344 C 168.5 340.839844 165.554688 338.730469 162.644531 337.839844 C 161.214844 337.40625 160.125 338.730469 159.050781 339.386719 C 156.394531 339.871094 153.574219 339.480469 150.992188 340.449219 L 150.277344 340.449219 C 145.757812 339.855469 140.933594 339.839844 136.933594 337.359375 C 132.359375 336.875 127.757812 338.464844 123.167969 337.746094 C 121.210938 336.96875 121.378906 334.453125 120.945312 332.738281 C 116.851562 315.707031 120.691406 298.335938 122.039062 281.210938 C 123.453125 273.203125 124.175781 265.121094 124.828125 257.019531 C 125.066406 253.898438 124.515625 250.789062 123.921875 247.730469 C 123.957031 238.210938 120.304688 229.15625 120.070312 219.667969 C 119.449219 217.105469 119.933594 214.398438 119.289062 211.871094 C 117.078125 209.867188 116.96875 206.808594 116.496094 204.085938 L 116.496094 202.488281 C 116.496094 201.929688 116.886719 201.25 116.496094 200.761719 L 116.496094 200.476562 C 116.761719 198.835938 117.148438 197.195312 118.253906 195.890625 C 118.046875 186.804688 119.300781 177.625 121.746094 168.839844 C 122.566406 165.933594 123.738281 163.105469 124.246094 160.097656 C 125.546875 155.636719 127.628906 151.453125 128.957031 147 C 130.417969 142.832031 132.757812 138.941406 134 134.730469 C 129.996094 134.273438 126.171875 132.175781 123.167969 129.46875 C 121.492188 127.375 118.695312 126.128906 118.890625 123.058594 C 125.113281 109.734375 125.035156 94.679688 128.566406 80.542969 C 132.105469 73.449219 139.390625 69.742188 145.394531 65.078125 C 146.511719 63.886719 148.152344 62.90625 149.828125 63.160156 C 150.359375 66.652344 153.386719 69.894531 157.171875 69.203125 C 162.167969 70.144531 168.683594 69.699219 171.328125 64.585938 C 172.902344 63.476562 172.363281 61.394531 173.121094 59.839844 C 173.683594 59.109375 174.726562 59.425781 175.472656 59.019531 M 176.460938 61.089844 C 175.320312 61.339844 175.457031 62.550781 174.960938 63.367188 C 166.855469 74.550781 154.871094 82.023438 143.109375 88.859375 C 141.613281 89.71875 139.328125 89.925781 138.691406 91.777344 C 138.027344 92.824219 136.929688 93.84375 137.078125 95.171875 C 138.273438 95.382812 139.058594 94.003906 140.113281 93.667969 C 151.40625 88.433594 161.101562 80.488281 170.449219 72.4375 C 172.339844 69.746094 173.855469 66.816406 175.761719 64.140625 C 177.3125 63.910156 179.058594 60.945312 176.460938 61.089844 M 181.417969 62.214844 C 180.195312 62.328125 179.136719 63.25 178.566406 64.304688 C 174.460938 68.097656 171.84375 73.148438 169.421875 78.128906 C 164.09375 87.324219 158.660156 96.484375 154.691406 106.359375 C 153.144531 111.574219 149.582031 116.335938 147.28125 121.421875 C 142.980469 127.359375 137.421875 132.625 133.996094 139.234375 C 133.46875 139.863281 132.472656 141.789062 133.125 141.832031 C 136.644531 136.695312 140.730469 132.371094 144.628906 127.523438 C 152.195312 117.625 159.285156 107.101562 164.882812 95.910156 C 167.554688 90.292969 170.609375 84.847656 174.179688 79.75 C 178.15625 74.6875 183.359375 70.839844 188.796875 67.496094 C 188.371094 65.621094 184.875 64.488281 183.53125 66.320312 C 181.929688 68.15625 180.308594 69.984375 178.507812 71.632812 C 178.238281 71.730469 178.015625 71.550781 178.171875 71.28125 C 179.535156 69.285156 181.253906 67.574219 182.785156 65.714844 C 183.972656 64.457031 183.730469 61.558594 181.417969 62.214844 M 148.601562 64.835938 C 147.636719 65.417969 146.714844 66.433594 146.535156 67.5625 C 148.394531 70.820312 152.28125 72.1875 155.765625 72.894531 C 159.039062 72.140625 164.117188 73.941406 165.898438 70.214844 C 161.945312 70.816406 157.941406 70.34375 154.015625 69.964844 C 152.535156 69.089844 150.65625 68.632812 149.824219 66.960938 C 149.195312 66.433594 149.386719 65.015625 148.601562 64.835938 M 145.363281 68.128906 C 144.910156 68.542969 143.601562 69.042969 144.21875 69.734375 C 146.675781 73.273438 151.230469 74.351562 155.226562 75.183594 C 157.476562 74.933594 160.707031 76.050781 162 73.679688 C 156.71875 74.324219 150.855469 73.679688 146.921875 69.707031 C 146.304688 69.390625 146.203125 67.921875 145.363281 68.128906 M 190.007812 68.421875 C 183.792969 71.464844 178.167969 75.910156 174.070312 81.515625 C 168.042969 90.519531 164.195312 100.78125 158.207031 109.855469 C 152.476562 118.410156 146.871094 127.078125 139.789062 134.570312 C 138.8125 135.945312 140.832031 135.195312 140.871094 134.378906 C 146.3125 129.816406 151.042969 124.53125 156.488281 120 C 169.09375 106.042969 175.46875 87.507812 189.246094 74.496094 C 190.640625 73.464844 191.832031 71.980469 193.667969 71.734375 C 194.375 71.226562 196.035156 72.230469 195.859375 70.953125 C 194.789062 68.582031 192.199219 68.292969 190.007812 68.421875 M 142.488281 69.671875 C 140.527344 70.378906 138.632812 71.441406 137.097656 72.871094 C 132.144531 75.75 128.457031 81.257812 129.257812 87.121094 C 128.207031 88.945312 128.816406 91.179688 128.546875 93.203125 C 128.070312 96.085938 127.988281 99.007812 128.46875 101.890625 C 128.890625 105.242188 130.144531 109.628906 133.996094 110.359375 C 132.535156 103.890625 133.835938 97.113281 136.734375 91.214844 C 138.289062 86.398438 133.75 81.769531 135.136719 76.84375 C 135.496094 76.296875 136.058594 77.046875 136.398438 77.265625 C 135.949219 80.90625 138.335938 84.539062 138.675781 88.199219 C 141.445312 86.984375 143.773438 84.871094 146.71875 84.039062 C 150.683594 81.738281 154.34375 78.972656 158.160156 76.425781 C 153.375 76.230469 148.476562 74.796875 144.636719 71.835938 C 143.738281 71.3125 143.617188 69.75 142.488281 69.671875 M 195.867188 72.203125 C 193.039062 72.144531 191.113281 74.164062 188.988281 75.644531 C 183.1875 81.460938 178.851562 88.5 174.269531 95.289062 C 169.851562 103.164062 165.269531 111.023438 159.515625 118.03125 C 157.804688 120.808594 154.703125 122.296875 152.601562 124.710938 C 149.308594 127.964844 145.886719 131.226562 142.449219 134.238281 C 134.449219 140.972656 129.222656 150.789062 126.542969 160.675781 C 124.824219 167.511719 121.746094 173.964844 121.339844 181.042969 C 126.71875 174.546875 131.9375 167.210938 138.351562 161.710938 C 135.445312 166.488281 130.800781 169.925781 127.628906 174.550781 C 126.414062 176.753906 124.136719 178.210938 123.203125 180.585938 C 121.347656 183.046875 119.894531 186.40625 120.867188 189.328125 C 123.554688 186.175781 126.5 183.019531 130.125 180.789062 C 133.832031 177.496094 138.328125 175.390625 142.753906 173.257812 C 151.195312 168.226562 157.289062 159.949219 160.625 150.820312 C 163.160156 140.378906 164.835938 129.699219 167.496094 119.285156 C 170.015625 112 174.179688 105.503906 177.949219 98.808594 C 184.566406 89.699219 192.492188 81.007812 202.84375 76.328125 C 202.285156 75.34375 201.101562 74.9375 200.105469 74.542969 C 199.34375 72.835938 197.613281 72.035156 195.867188 72.203125 M 167.980469 76.097656 C 164.707031 78.691406 161.570312 81.589844 157.964844 83.855469 C 151.925781 89.246094 144.421875 92.53125 137.421875 96.4375 C 135.957031 96.882812 136.09375 98.847656 135.71875 100.050781 C 135.554688 100.375 135.441406 101.101562 136.019531 100.992188 C 142.945312 97.394531 150.289062 94.417969 156.441406 89.515625 C 158.914062 87.359375 162.433594 86.152344 163.71875 82.890625 C 164.742188 80.496094 167.402344 78.25 167.980469 76.097656 M 202.910156 78.765625 C 199.585938 80.273438 196.75 82.90625 193.160156 83.847656 C 191.636719 84.695312 190.449219 86.007812 188.941406 86.832031 C 184.714844 91.558594 180.078125 96.160156 177.324219 101.9375 C 173.164062 109.285156 168.722656 116.773438 166.988281 125.109375 C 165.886719 132.136719 164.238281 139.074219 162.882812 146.0625 C 162.753906 147.089844 162.042969 147.988281 162.40625 149.070312 C 161.101562 153.832031 158.75 158.386719 155.597656 162.203125 C 153.113281 166.773438 148.941406 170.105469 144.910156 173.230469 C 140.527344 175.695312 135.582031 177.261719 131.804688 180.75 C 127.488281 183.664062 123.617188 187.183594 120.648438 191.476562 C 120.222656 192.316406 119.839844 193.855469 121.304688 193.71875 C 128.519531 185.03125 140.738281 183.582031 148.617188 175.671875 C 155.230469 170.765625 161.023438 164.402344 163.902344 156.59375 C 166.125 152.898438 166.851562 148.574219 166.976562 144.300781 C 169.433594 134.539062 170.636719 124.484375 173.757812 114.921875 C 179.230469 104.226562 186.449219 94.324219 195.089844 85.953125 C 198.09375 83.925781 200.957031 81.480469 204.519531 80.5 C 204.683594 79.601562 203.640625 78.8125 202.910156 78.765625 M 203.835938 82.175781 C 201.75 82.921875 199.921875 84.175781 197.882812 84.96875 C 188.433594 93.160156 181.277344 103.640625 175.152344 114.457031 C 173.925781 117.980469 172.5625 121.507812 172.210938 125.238281 C 170.839844 131.980469 169.328125 138.703125 167.871094 145.433594 C 167.070312 158.339844 158.976562 169.851562 148.460938 177.082031 C 140.953125 184.472656 129.707031 185.824219 122.652344 193.777344 C 120.21875 195.820312 117.796875 198.914062 118.949219 202.273438 C 119.101562 203.304688 118.378906 207.226562 119.867188 205.492188 C 121.25 202.570312 123.605469 200.492188 126.011719 198.378906 C 136.375 189.265625 150.082031 184.820312 159.140625 174.140625 C 159.335938 173.566406 159.6875 172.871094 160.417969 173.03125 C 162.972656 169.957031 165.363281 166.683594 166.996094 163.105469 C 171.1875 155.089844 171.730469 145.789062 174.691406 137.371094 C 175.425781 135.785156 174.492188 133.777344 176.082031 132.515625 C 174.914062 133.160156 173.644531 133.140625 172.386719 133.070312 C 172.121094 131.457031 173.3125 130.003906 174.257812 128.804688 C 174.914062 125.386719 176.640625 122.324219 178.265625 119.261719 C 179.925781 116.367188 183.296875 114.566406 184.125 111.222656 C 186.410156 105.804688 188.648438 100.195312 193 96.039062 C 195.34375 92.890625 198.789062 91.027344 202.058594 89.003906 C 203.480469 88.21875 205.328125 89.183594 206.3125 87.480469 C 205.582031 85.761719 206.539062 82.269531 203.835938 82.175781 M 160.726562 88.082031 C 159.527344 88.523438 158.433594 89.238281 157.523438 90.132812 C 151.148438 95.296875 143.371094 98.09375 136.265625 102.011719 C 134.738281 102.417969 135.746094 104.445312 135.148438 105.539062 C 136.273438 110.773438 139.449219 115.179688 140.96875 120.28125 C 141.789062 121.351562 141.785156 123.214844 143.046875 123.78125 C 145.960938 119.648438 147.722656 114.804688 149.542969 110.101562 C 152.328125 102.316406 157.535156 95.640625 160.726562 88.082031 M 203.59375 92.492188 C 199.804688 94.644531 195.648438 96.542969 193.394531 100.488281 C 191.4375 102.703125 189.863281 105.316406 189.066406 108.152344 C 192.03125 106.246094 193.882812 102.25 197.671875 101.339844 C 199.578125 98.996094 202.691406 99.113281 205.242188 98.433594 C 204.703125 96.574219 204.933594 93.789062 203.59375 92.492188 M 203.070312 100.160156 C 201.195312 100.179688 199.722656 101.382812 198.222656 102.351562 C 195.195312 103.417969 192.785156 105.839844 191.140625 108.53125 C 194.574219 107.210938 198.019531 105.535156 201.769531 105.257812 C 204.417969 105.191406 206.941406 106.066406 209.214844 105.855469 C 210.160156 102.472656 206.1875 99.683594 203.070312 100.160156 M 127.484375 102.132812 C 126.882812 103.65625 126.519531 105.441406 126.03125 107.058594 C 126.996094 108.664062 127.339844 110.582031 128.183594 112.269531 C 129.796875 114.605469 132.882812 116.070312 135.710938 115.351562 C 135.871094 111.480469 131.714844 110.765625 129.792969 108.179688 C 128.363281 106.488281 128.71875 103.5 127.484375 102.132812 M 201.519531 107.023438 C 199.394531 107.238281 197.273438 107.46875 195.296875 108.328125 C 187.886719 111.378906 180.164062 116.695312 177.867188 124.828125 C 177.296875 126.273438 178.996094 125.210938 179.621094 124.992188 C 183.503906 119.433594 188.515625 114.308594 195.011719 111.941406 C 196.4375 112.09375 194.402344 112.863281 194.003906 113.121094 C 188.820312 115.351562 184.785156 119.476562 181.574219 124.011719 C 181.515625 124.8125 183.105469 124.296875 183.351562 123.703125 C 186.011719 119.265625 190.632812 116.269531 195.59375 115.023438 C 198.234375 114.207031 201.871094 112.953125 203.929688 115.511719 C 206.964844 117.625 208.902344 120.828125 210.101562 124.261719 C 210.140625 125.722656 210.261719 127.320312 211.292969 128.460938 C 215.746094 134.777344 219.285156 141.78125 221.054688 149.316406 C 221.105469 150.660156 222.082031 151.621094 222.496094 152.867188 C 224.597656 161.457031 226.484375 170.160156 229.726562 178.394531 C 229.785156 178.703125 230.09375 178.488281 230.019531 178.261719 C 228.789062 172.757812 228.207031 167.207031 227.242188 161.707031 C 226.101562 154.136719 224.011719 146.753906 222.148438 139.320312 C 220.105469 134.164062 219.53125 128.488281 217.082031 123.457031 C 215.285156 119.261719 213.835938 114.867188 211.082031 111.1875 C 208.53125 108.757812 205.238281 106.484375 201.519531 107.023438 M 125.964844 107.773438 C 124.785156 110.265625 124.457031 113.15625 123.257812 115.683594 C 125.21875 119.253906 129.242188 120.976562 132.773438 122.695312 C 134.640625 123.367188 136.585938 124.660156 138.523438 124.40625 C 137.785156 121.601562 137.335938 118.589844 135.988281 116.019531 C 133.117188 116.855469 130.433594 115.15625 128.269531 113.453125 C 127.109375 111.769531 126.464844 109.414062 125.964844 107.773438 M 200.121094 114.976562 C 197.285156 115.558594 194.292969 115.992188 191.839844 117.589844 C 193.894531 118.367188 196.730469 117.597656 198.945312 118.621094 C 200.917969 119.601562 202.765625 120.867188 204.851562 121.609375 C 206.519531 122.355469 207.347656 124.210938 208.953125 125.003906 C 208.28125 121.855469 206.558594 118.839844 203.925781 116.921875 C 202.828125 116.023438 201.722656 114.472656 200.121094 114.976562 M 122.484375 117.898438 C 121.15625 119.230469 123.492188 120.597656 124.464844 121.304688 C 128.535156 124.960938 133.636719 127.390625 138.90625 128.753906 C 140.433594 129.1875 139.882812 127.644531 139.421875 126.933594 C 134.546875 126.488281 130.566406 123.214844 126.382812 120.953125 C 124.964844 120.101562 124.101562 118.375 122.484375 117.898438 M 192.222656 120.273438 C 189.335938 120.0625 186.191406 122.105469 185.492188 124.84375 C 186.40625 124.4375 187.253906 124.4375 188.195312 124.992188 C 194.734375 125.105469 201.886719 127.035156 206.039062 132.453125 C 210.453125 138.191406 213.824219 144.707031 216.429688 151.441406 C 216.324219 152.066406 215.261719 150.703125 215.136719 150.367188 C 212.472656 144.59375 209.398438 139.035156 205.820312 133.765625 C 203.75 131.382812 201.496094 128.824219 198.324219 127.980469 C 201.71875 131.359375 203.726562 135.746094 206.117188 139.859375 C 209.996094 148.152344 214.058594 156.417969 217.277344 164.933594 C 219.101562 172.355469 221.980469 179.5 224.082031 186.867188 C 225.800781 191.605469 226.597656 196.574219 228.535156 201.304688 C 232.457031 210.589844 235.609375 220.195312 239.957031 229.28125 C 241.5625 229 242.558594 227.316406 243.589844 226.128906 C 245.15625 223.863281 242.9375 221.601562 242.417969 219.292969 C 239.375 212.871094 237.875 205.828125 235.171875 199.21875 C 234.015625 196.175781 233.878906 192.707031 232.125 189.917969 C 227.539062 179.324219 224.921875 167.53125 221.585938 156.414062 C 219.082031 147.496094 216.574219 138.070312 210.511719 130.800781 C 206.523438 124.851562 199.789062 119.488281 192.222656 120.273438 M 121.285156 121.050781 C 120.199219 121.847656 120.039062 122.949219 121.0625 123.933594 C 122.011719 126.738281 125.046875 127.441406 127.160156 129.074219 C 130.488281 130.367188 133.675781 132.667969 137.414062 131.738281 C 137.867188 131.261719 139.210938 130.042969 137.976562 129.847656 C 133.214844 128.152344 128.09375 126.96875 124.050781 123.753906 C 122.976562 123.136719 122.660156 121.003906 121.285156 121.050781 M 182.859375 126.527344 C 179.960938 126.425781 177.714844 127.789062 175.945312 129.710938 C 176.777344 129.429688 177.628906 129.101562 178.542969 129.433594 C 178.78125 130.226562 177.464844 129.824219 177.304688 130.316406 C 180.007812 130.433594 182.148438 132.648438 183.199219 135.125 C 182.957031 136.046875 182.417969 134.472656 181.882812 134.5625 C 182.769531 136.597656 183.429688 138.875 183.015625 141.09375 C 183.792969 145.609375 183.695312 150.203125 183.621094 154.742188 C 183.640625 164.820312 184.375 174.769531 183.800781 184.808594 C 184.371094 189.359375 183.207031 193.851562 183.695312 198.378906 C 182.789062 200.183594 184.015625 202.375 183.300781 204.25 C 182.976562 215.25 183.398438 226.222656 183.671875 237.164062 C 184.835938 241.785156 183.890625 246.667969 184.699219 251.320312 C 192.261719 245.21875 202.390625 241.941406 212.144531 242.921875 C 210.015625 233.558594 206.746094 224.394531 206.019531 214.730469 C 203.191406 195.789062 201.550781 176.808594 199.242188 157.816406 C 197.398438 149.558594 195.722656 141.070312 191.585938 133.609375 C 189.472656 130.429688 186.792969 127.203125 182.859375 126.527344 M 189.777344 126.632812 C 189.527344 127.082031 188.5 127.539062 189.164062 128.058594 C 191.242188 129.359375 193.246094 130.964844 194.335938 133.183594 C 192.542969 132.214844 193.773438 134.253906 194.386719 135.046875 C 199.148438 145.621094 200.945312 157.210938 202.269531 168.625 C 204.488281 183.179688 205.734375 197.804688 207.921875 212.339844 C 209.648438 219.292969 210.152344 226.472656 212.097656 233.371094 C 213.949219 239.707031 215.402344 246.328125 217.472656 252.476562 C 221.433594 250.882812 225.296875 248.511719 229.007812 246.234375 C 233.6875 243.734375 238.554688 240.082031 239.796875 234.714844 C 238.691406 232.308594 237.734375 229.828125 236.597656 227.4375 C 235.574219 223.582031 232.742188 220.476562 232.128906 216.464844 C 229.101562 209.015625 226.335938 201.515625 224.460938 193.679688 C 222.941406 187.554688 220.335938 181.78125 218.449219 175.78125 C 214.953125 166.238281 212.253906 156.34375 207.636719 147.246094 C 205.691406 143.46875 204 139.5625 201.796875 135.902344 C 199.085938 131.65625 195.578125 126.183594 189.777344 126.632812 M 175.769531 130.5 C 176.640625 131.097656 177.910156 130.191406 175.769531 130.5 M 174.890625 148.199219 C 173.046875 149.023438 174.960938 151.445312 175.300781 152.828125 C 177.085938 157.015625 178.855469 161.777344 182.023438 164.84375 C 182.265625 164.109375 181.988281 162.8125 181.871094 161.90625 C 178.585938 157.964844 177.625 152.183594 174.890625 148.199219 M 174.625 155.558594 C 171.621094 156.335938 172.449219 161.511719 175.09375 162.546875 C 176.992188 165.785156 180.460938 168 181.609375 171.695312 C 182.707031 171.5625 181.871094 170.09375 181.378906 169.652344 C 180.871094 166.679688 178.9375 164.230469 177.945312 161.429688 C 176.574219 159.679688 175.992188 156.785156 174.625 155.558594 M 172.398438 161.457031 C 172.035156 162.554688 171.195312 163.179688 170.496094 163.949219 C 174.089844 173.632812 175.550781 184.433594 181.9375 192.851562 C 182.207031 187.101562 182.113281 181.328125 182.171875 175.5625 C 181.421875 173.847656 180.359375 172.246094 179.242188 170.75 C 176.292969 168.203125 175.007812 163.902344 172.398438 161.457031 M 169.894531 164.734375 C 167.566406 166.796875 169.382812 169.042969 170.222656 171.171875 C 171.589844 171.085938 171.015625 173.003906 172.042969 173.242188 C 171.503906 170.496094 171.796875 166.636719 169.894531 164.734375 M 167.523438 169.570312 C 166.46875 170.152344 165.933594 171.335938 165.199219 172.246094 C 165.332031 174.917969 166.414062 177.46875 166.886719 180.105469 C 171.273438 194.742188 175.765625 209.292969 180.429688 223.847656 C 180.519531 224.300781 181.5625 225.878906 181.621094 224.800781 C 181.617188 217.246094 181.6875 209.695312 181.824219 202.144531 C 181.828125 198.105469 179.847656 194.425781 177.738281 191.113281 C 176.519531 187.386719 174.164062 184.207031 172.933594 180.476562 C 171.269531 176.800781 169.601562 172.84375 167.523438 169.570312 M 163.632812 174.078125 C 162.828125 175.371094 160.527344 176.269531 161.242188 178.074219 C 162.773438 182.84375 164.957031 187.355469 166.394531 192.160156 C 167.726562 198.453125 171.554688 203.832031 173.40625 209.949219 C 174.300781 211.625 174.710938 214.023438 176.222656 215.066406 C 172.699219 202.519531 167.753906 190.359375 164.789062 177.652344 C 164.351562 176.542969 164.597656 174.625 163.632812 174.078125 M 160.027344 178.003906 C 159.160156 179.046875 157.222656 179.757812 157.882812 181.433594 C 158.222656 184.753906 158.921875 188.035156 160.011719 191.191406 C 161.863281 197.921875 163.464844 204.726562 165.835938 211.289062 C 167.359375 215.082031 169.082031 218.792969 170.613281 222.585938 C 172.675781 228.671875 175.800781 234.339844 178.210938 240.300781 C 179.980469 244.046875 181.003906 248.136719 182.871094 251.835938 C 182.804688 245.65625 182.359375 239.347656 181.84375 233.230469 C 179.785156 226.519531 177.652344 219.851562 173.882812 213.875 C 171.335938 206.253906 166.988281 199.273438 165.105469 191.429688 C 163.523438 186.96875 161.960938 182.042969 160.027344 178.003906 M 156.589844 181.121094 C 155.828125 181.914062 154.546875 181.9375 153.894531 182.878906 C 154.164062 187.484375 156.046875 191.8125 156.519531 196.390625 C 156.773438 201.578125 158.773438 206.46875 158.960938 211.65625 C 159.644531 218.777344 162.195312 225.535156 163.1875 232.605469 C 165.171875 239.457031 165.898438 246.621094 168.019531 253.445312 C 169.835938 262.386719 172.457031 271.144531 174.117188 280.121094 C 177.144531 289.34375 178.679688 299.132812 180.671875 308.699219 C 180.746094 310.667969 180.9375 312.882812 182.101562 314.539062 C 188.308594 314.179688 194.460938 312.101562 199.832031 308.996094 C 198.46875 301.769531 196.078125 294.777344 193.917969 287.707031 C 192.390625 282.539062 190.914062 277.402344 188.902344 272.394531 C 187.652344 273.453125 186.050781 274.03125 184.375 274.25 C 183.148438 268.648438 183.78125 262.433594 182.984375 256.628906 C 180.109375 248.667969 177.082031 240.722656 173.375 233.105469 C 171.082031 225.863281 167.890625 218.964844 165.019531 211.9375 C 161.941406 202.738281 159.472656 193.394531 157.257812 183.964844 C 157.167969 183.085938 157.355469 181.488281 156.589844 181.121094 M 152.308594 184.113281 C 151.226562 184.902344 149.863281 185.394531 148.890625 186.296875 C 148.738281 189.667969 149.253906 193.046875 148.726562 196.394531 C 148.207031 210.566406 148.984375 224.738281 148.949219 238.925781 C 149.0625 245.75 150.933594 252.476562 151.9375 259.1875 C 154.363281 275.625 158.894531 291.71875 160.402344 308.308594 C 161.121094 310.542969 160.5 313.085938 161.589844 315.113281 C 167.511719 316.378906 173.875 315.582031 179.667969 314.007812 C 178.113281 300.644531 174.226562 287.613281 171.085938 274.578125 C 167.3125 263.027344 165.074219 251.101562 162.316406 239.316406 C 161.210938 232.699219 159.265625 226.222656 158.441406 219.558594 C 156.113281 208.039062 154.675781 196.371094 152.671875 184.785156 C 152.585938 184.585938 152.570312 184.003906 152.308594 184.113281 M 147.527344 187.050781 C 146.488281 187.746094 145.046875 188.476562 145.320312 189.953125 C 144.429688 192.664062 144.683594 195.523438 144.613281 198.328125 C 144.582031 202.839844 143.625 207.367188 144.269531 211.886719 C 144.652344 214.152344 144.035156 216.964844 146.015625 218.605469 C 146.976562 222.664062 146.558594 227.5 147.757812 231.152344 C 147.832031 222.460938 147.257812 213.742188 147.683594 205.03125 C 146.890625 199.058594 148.671875 193.121094 147.925781 187.164062 C 147.839844 187.019531 147.707031 186.984375 147.527344 187.050781 M 142.996094 190.199219 C 142.378906 190.597656 141.59375 190.707031 141.089844 191.28125 C 138.226562 204 139.394531 217.058594 139.300781 230.015625 C 139.554688 236.820312 141.5625 243.453125 141.582031 250.289062 C 142.285156 259.015625 143.472656 267.742188 142.792969 276.515625 C 143.011719 290.59375 140.683594 304.5625 138.90625 318.488281 C 141.109375 319.9375 143.949219 319 146.402344 318.9375 C 150.945312 318.796875 155.101562 316.894531 159.324219 315.472656 C 159.722656 306.859375 156.589844 298.195312 155.175781 289.65625 C 153.757812 282.570312 151.941406 275.5625 150.609375 268.460938 C 149.015625 258.375 147.339844 248.324219 145.820312 238.289062 C 143.5 223.832031 142.828125 209.132812 143.335938 194.53125 C 142.886719 193.183594 144.261719 190.871094 142.996094 190.199219 M 137.832031 195.179688 C 133.324219 196.664062 129.484375 199.730469 126.503906 203.320312 C 127.140625 208.640625 129.160156 213.707031 129.878906 219.011719 C 131.460938 223.476562 131.375 228.328125 132.824219 232.839844 C 133.992188 240.878906 136.710938 248.605469 138.121094 256.582031 C 138.496094 257.90625 138.84375 259.828125 139.964844 260.484375 C 138.910156 249.808594 137.558594 239.144531 137.453125 228.390625 C 137.191406 217.792969 137.527344 207.214844 138.234375 196.660156 C 138.03125 196.304688 138.71875 194.824219 137.832031 195.179688 M 124.683594 205.167969 C 123.445312 206.4375 122.382812 207.933594 121.746094 209.597656 C 121.34375 214.957031 122.390625 220.132812 122.699219 225.472656 C 122.765625 229.234375 124.558594 232.746094 124.410156 236.507812 C 124.941406 238.722656 124.898438 241.425781 126.265625 243.171875 C 126.609375 237.789062 126.34375 232.277344 126.414062 226.878906 C 127.265625 219.914062 125.875 213.007812 125.703125 206.0625 C 125.085938 206.058594 125.089844 205.230469 124.683594 205.167969 M 127.59375 216.542969 C 128.097656 220.882812 127.484375 225.222656 127.367188 229.578125 C 127.960938 233.230469 127.066406 236.914062 127.449219 240.566406 C 127.25 246.792969 127.855469 253.085938 126.847656 259.265625 C 126.785156 259.765625 126.335938 259.515625 126.011719 259.46875 C 125.902344 268.851562 124.976562 278.292969 122.992188 287.472656 C 121.789062 297.554688 120.84375 307.761719 121.886719 317.878906 C 126.386719 318.796875 131.074219 317.347656 135.652344 317.410156 C 136.089844 318.457031 134.539062 318.472656 133.929688 318.671875 C 129.914062 318.503906 125.863281 319.75 121.875 319.09375 C 122.144531 320.9375 122.011719 322.871094 122.625 324.652344 C 127.351562 326.105469 132.207031 324.855469 136.90625 323.980469 C 137.3125 322.21875 137.203125 320.359375 137.1875 318.582031 C 136.574219 317.832031 136.058594 316.160156 137.535156 316.457031 C 138.132812 308.542969 140.121094 300.800781 140.570312 292.824219 C 140.964844 285.675781 141.632812 278.542969 139.628906 271.597656 C 137.550781 259.25 134.011719 247.183594 131.507812 234.929688 C 130.351562 228.796875 129.703125 222.210938 127.59375 216.542969 M 244.8125 226.097656 C 243.921875 227.65625 242.679688 229.046875 241.019531 229.8125 C 240.027344 231.183594 241.53125 232.808594 241.941406 234.121094 C 242.386719 234.808594 242.625 236.664062 243.792969 236.039062 C 245.253906 234.992188 246.824219 233.902344 247.699219 232.277344 C 246.542969 230.4375 246.304688 227.4375 244.8125 226.097656 M 248.078125 233.730469 C 246.664062 235.023438 245.347656 236.398438 243.667969 237.351562 C 243.816406 238.753906 244.632812 240.144531 245.4375 241.300781 C 247.1875 241.035156 248.707031 239.597656 249.804688 238.257812 C 249.457031 236.757812 249.042969 234.808594 248.078125 233.730469 M 240.554688 236.554688 C 238.910156 239.535156 236.839844 242.425781 233.910156 244.265625 C 228.617188 247.511719 223.375 251.070312 217.714844 253.554688 C 218.363281 256.394531 219.574219 259.15625 220.457031 261.964844 C 221.808594 262.621094 220.945312 264.324219 220.351562 265.386719 C 221.703125 265.371094 222.972656 266.164062 224.296875 265.414062 C 233.007812 262.433594 240.992188 256.753906 246.007812 248.980469 C 245.945312 247.261719 244.753906 244.71875 243.707031 243.75 C 241.476562 247.230469 238.246094 249.902344 234.921875 252.289062 C 230.625 255.472656 225.941406 258.1875 220.839844 259.796875 C 220.34375 260.21875 219.375 259.4375 220.214844 259.15625 C 225.339844 257.503906 229.980469 254.644531 234.402344 251.617188 C 237.714844 248.996094 241.363281 246.371094 243.144531 242.410156 C 242.371094 240.472656 241.578125 238.226562 240.554688 236.554688 M 251.027344 239.019531 C 250.003906 240.300781 247.742188 241.082031 246.171875 242.332031 C 246.480469 244.390625 248.054688 246.03125 249.121094 247.730469 C 250.667969 246.371094 251.707031 244.578125 252.976562 243.015625 C 252.289062 241.816406 251.96875 239.925781 251.027344 239.019531 M 207.890625 243.609375 C 199.433594 244.28125 190.609375 247.042969 184.546875 253.242188 C 184.929688 254.582031 184.28125 256.691406 185.417969 257.519531 C 193.550781 251.742188 203.464844 248.542969 213.453125 248.683594 C 213.171875 247.027344 212.796875 245.375 212.4375 243.734375 C 210.933594 243.59375 209.40625 243.546875 207.890625 243.609375 M 212.871094 249.527344 C 202.921875 249.292969 193.234375 252.929688 185.335938 258.890625 C 185.25 260.8125 185.511719 262.730469 185.726562 264.636719 C 185.398438 265.386719 186.421875 265.632812 186.703125 265.058594 C 191.535156 261.808594 196.785156 258.515625 202.734375 258.109375 C 207.132812 257.410156 212.136719 256.925781 216.28125 258.390625 C 214.773438 259.125 212.035156 258.109375 209.976562 258.5 C 201.214844 258.09375 192.609375 261.546875 186.035156 267.226562 C 185.863281 268.398438 186.238281 269.707031 186.097656 270.925781 C 186.785156 271.347656 187.441406 269.597656 187.808594 270.675781 C 190.859375 268.351562 194.617188 267.367188 198.148438 266.023438 C 199.917969 264.371094 202.40625 264.480469 204.675781 264.089844 C 208.996094 263.011719 213.773438 263.058594 217.953125 262.542969 C 216.574219 258.515625 215.550781 254.378906 214.101562 250.382812 C 214.152344 249.636719 213.414062 249.480469 212.871094 249.527344 M 246.503906 250.414062 C 240.394531 258.46875 231.589844 264.730469 221.644531 267.007812 C 218.125 265.867188 215.851562 269.769531 214.71875 272.519531 C 217.84375 274.484375 222 273.34375 225.515625 272.722656 C 229.667969 271.910156 232.742188 268.835938 236.257812 266.742188 C 239.726562 263.792969 243.824219 261.5625 246.871094 258.125 C 247.320312 256.878906 248.730469 256.425781 249.421875 255.378906 C 248.183594 253.898438 248.101562 251.460938 246.503906 250.414062 M 215.09375 264.652344 C 213.738281 265.089844 212.320312 265.214844 210.914062 265.167969 C 208.878906 267.054688 209.273438 272.050781 212.574219 272.191406 C 214.265625 270.378906 215.003906 267.773438 216.914062 266.007812 C 218.246094 264.699219 216.015625 264.589844 215.09375 264.652344 M 197.765625 267.648438 C 195.316406 268.773438 192.773438 269.785156 190.480469 271.191406 C 191.1875 274.15625 192.570312 276.933594 193.515625 279.808594 C 194.59375 282.976562 195.09375 286.363281 196.632812 289.359375 C 197.960938 296.054688 200.824219 302.332031 202.085938 309.042969 C 206.085938 308.449219 209.953125 306.890625 213.421875 304.828125 C 214.035156 304.5 214.253906 303.640625 213.941406 303.035156 C 209.132812 292.058594 204.5 281.023438 200.035156 269.878906 C 199.625 268.820312 198.664062 267.789062 197.765625 267.648438 M 214.742188 305.703125 C 210.832031 307.542969 206.816406 309.105469 202.609375 310.105469 C 202.441406 311.773438 203.339844 313.460938 203.707031 315.082031 C 208.433594 315.019531 213.070312 312.601562 216.734375 309.839844 C 215.933594 308.589844 215.871094 306.5625 214.742188 305.703125 M 199.496094 310.527344 C 193.984375 313.414062 187.769531 314.710938 181.71875 315.628906 C 182.457031 320.21875 182.757812 324.964844 184.429688 329.320312 C 187.457031 329.710938 190.492188 328.210938 193.347656 327.242188 C 196.738281 325.589844 200.667969 324.542969 203.289062 321.703125 C 202.636719 320.328125 202.988281 318.222656 201.894531 317.222656 C 197.203125 320.625 191.277344 321.5 185.621094 321.859375 C 185.34375 321.734375 183.828125 321.890625 184.160156 321.3125 C 190.171875 320.703125 196.699219 320.09375 201.421875 315.941406 C 202.089844 315.082031 201.101562 314.039062 201.105469 313.132812 C 200.574219 312.289062 201.136719 309.902344 199.496094 310.527344 M 216.964844 311.320312 C 213.105469 313.523438 209.058594 315.800781 204.511719 316.035156 C 204.203125 316.066406 203.816406 316.175781 203.925781 316.566406 C 204.375 318.441406 204.605469 320.390625 205.367188 322.171875 C 210.253906 320.625 215.0625 318.191406 219.027344 314.925781 C 218.613281 313.757812 218.195312 311.757812 216.964844 311.320312 M 179.25 315.378906 C 173.59375 316.378906 167.789062 317.144531 161.699219 316.144531 C 161.675781 318.441406 162.253906 320.65625 162.332031 322.933594 C 163.394531 324.574219 165.753906 324.527344 167.484375 324.371094 C 171.351562 324.386719 174.882812 322.636719 178.660156 322.125 C 178.976562 321.25 181.605469 321.65625 180.027344 321.0625 C 179.011719 320.484375 181.070312 321.359375 180.625 320.3125 C 180.074219 318.84375 180.777344 316.082031 179.25 315.378906 M 219.449219 316.160156 C 215.070312 318.96875 210.402344 321.46875 205.480469 323.199219 C 205.578125 324.292969 205.785156 325.371094 206.042969 326.429688 C 206.902344 327.179688 207.878906 326.257812 208.765625 326.074219 C 213.101562 325.308594 217.191406 323.042969 220.042969 319.703125 C 221.257812 318.765625 219.921875 316.972656 219.449219 316.160156 M 159.109375 316.628906 C 152.699219 319.078125 145.617188 320.96875 138.726562 319.5625 C 138.375 320.828125 138.597656 322.589844 138.75 323.980469 C 141.714844 326.757812 146.171875 325.886719 149.839844 325.792969 C 153.496094 326.242188 156.96875 324.621094 160.273438 323.246094 C 160.945312 321.59375 159.90625 319.8125 160.046875 318.097656 C 159.90625 317.550781 160.144531 316.144531 159.109375 316.628906 M 180.371094 322.558594 C 174.632812 324.261719 168.464844 326.195312 162.484375 324.714844 C 162.890625 326.867188 161.546875 330.316406 164.1875 331.410156 C 168.632812 333.488281 173.507812 331.519531 177.957031 330.472656 C 179.160156 329.585938 182.1875 329.789062 181.410156 327.648438 C 180.839844 326.136719 181.234375 323.558594 180.371094 322.558594 M 203.5625 323.339844 C 197.660156 326.398438 191.613281 329.585938 184.917969 330.378906 C 184.046875 330.503906 184.839844 331.410156 185.347656 331.519531 C 185.988281 332.472656 185.476562 333.828125 185.863281 334.90625 C 192.78125 336.03125 199.257812 332.582031 204.820312 328.851562 C 203.925781 327.164062 204.136719 325.199219 203.5625 323.339844 M 160.183594 324.589844 C 157.554688 325.355469 155.039062 326.710938 152.285156 326.976562 C 147.761719 326.539062 142.882812 327.585938 138.710938 325.308594 C 137.800781 326.601562 138.21875 328.914062 138.285156 330.488281 C 139.703125 333.144531 143.066406 332.363281 145.527344 332.582031 C 150.75 333.253906 156.109375 332.425781 160.992188 330.644531 C 160.757812 328.789062 161.117188 325.933594 160.183594 324.589844 M 136.269531 325.183594 C 131.910156 326.304688 127.34375 326.789062 122.9375 325.636719 C 122.523438 327.242188 122.976562 329.460938 123.792969 331.019531 C 127.703125 331.050781 131.628906 330.488281 135.519531 330.035156 C 136.113281 330.066406 135.929688 330.785156 135.40625 330.769531 C 131.640625 331.582031 127.746094 331.800781 123.90625 331.816406 C 123.984375 332.738281 123.523438 334.09375 124.804688 334.359375 C 128.257812 335.46875 131.878906 334.203125 135.398438 334.390625 C 137.660156 334.359375 136.066406 331.894531 136.597656 330.613281 C 136.101562 328.976562 137.539062 326.011719 136.269531 325.183594 M 181.402344 330.222656 C 175.484375 332.410156 168.9375 334.34375 162.835938 331.832031 C 163.035156 332.722656 162.417969 334.078125 163.464844 334.625 C 168.574219 338.792969 175.664062 336.6875 181.402344 335.296875 C 182.402344 334.203125 182.085938 331.113281 181.402344 330.222656 M 160.632812 331.910156 C 158.324219 332.472656 156.023438 333.050781 153.707031 333.582031 C 150.394531 333.875 147.015625 333.207031 143.769531 333.285156 C 142.328125 333.535156 139.949219 333.066406 138.277344 332.519531 C 137.667969 334.25 138.582031 336.203125 140.464844 336.65625 C 142.582031 337.839844 145.003906 337.761719 147.3125 338.261719 C 152.074219 339.402344 156.925781 337.652344 161.136719 335.953125 C 161.277344 334.796875 161.402344 332.535156 160.632812 331.910156 Z M 160.632812 331.910156 " fill-opacity="1" fill-rule="nonzero"/></g></svg>