<svg xmlns="http://www.w3.org/2000/svg" xmlns:xlink="http://www.w3.org/1999/xlink" width="500" zoomAndPan="magnify" viewBox="0 0 375 374.999991" height="500" preserveAspectRatio="xMidYMid meet" version="1.0"><defs><clipPath id="eed581c6f4"><path d="M 85.128906 333.804688 L 92.519531 333.804688 L 92.519531 341.195312 L 85.128906 341.195312 Z M 85.128906 333.804688 " clip-rule="nonzero"/></clipPath><clipPath id="32cb892d03"><path d="M 88.824219 333.804688 C 86.78125 333.804688 85.128906 335.460938 85.128906 337.5 C 85.128906 339.539062 86.78125 341.195312 88.824219 341.195312 C 90.863281 341.195312 92.519531 339.539062 92.519531 337.5 C 92.519531 335.460938 90.863281 333.804688 88.824219 333.804688 " clip-rule="nonzero"/></clipPath><clipPath id="bbc5cff78c"><path d="M 279.847656 333.804688 L 287.234375 333.804688 L 287.234375 341.195312 L 279.847656 341.195312 Z M 279.847656 333.804688 " clip-rule="nonzero"/></clipPath><clipPath id="cd7cdd97d8"><path d="M 283.542969 333.804688 C 281.5 333.804688 279.847656 335.460938 279.847656 337.5 C 279.847656 339.539062 281.5 341.195312 283.542969 341.195312 C 285.582031 341.195312 287.234375 339.539062 287.234375 337.5 C 287.234375 335.460938 285.582031 333.804688 283.542969 333.804688 " clip-rule="nonzero"/></clipPath><clipPath id="ba30c42fb4"><path d="M 258.230469 94.070312 L 287.480469 94.070312 L 287.480469 128.570312 L 258.230469 128.570312 Z M 258.230469 94.070312 " clip-rule="nonzero"/></clipPath><clipPath id="51074761e7"><path d="M 85.152344 109.644531 L 123.355469 109.644531 L 123.355469 140.394531 L 85.152344 140.394531 Z M 85.152344 109.644531 " clip-rule="nonzero"/></clipPath><clipPath id="fc80b1ce84"><path d="M 37.5 162 L 74 162 L 74 199 L 37.5 199 Z M 37.5 162 " clip-rule="nonzero"/></clipPath><clipPath id="870e0f5e43"><path d="M 37.5 82 L 74 82 L 74 119 L 37.5 119 Z M 37.5 82 " clip-rule="nonzero"/></clipPath><clipPath id="1a07b35ca4"><path d="M 275 176 L 324.75 176 L 324.75 226 L 275 226 Z M 275 176 " clip-rule="nonzero"/></clipPath><clipPath id="ff5d814823"><path d="M 37.5 207 L 324.75 207 L 324.75 306.496094 L 37.5 306.496094 Z M 37.5 207 " clip-rule="nonzero"/></clipPath><clipPath id="b9be4293ce"><path d="M 127 68.746094 L 316 68.746094 L 316 235 L 127 235 Z M 127 68.746094 " clip-rule="nonzero"/></clipPath></defs><g clip-path="url(#eed581c6f4)"><g clip-path="url(#32cb892d03)"><path fill="#ffffff" d="M 85.128906 333.804688 L 92.519531 333.804688 L 92.519531 341.195312 L 85.128906 341.195312 Z M 85.128906 333.804688 " fill-opacity="1" fill-rule="nonzero"/></g></g><g clip-path="url(#bbc5cff78c)"><g clip-path="url(#cd7cdd97d8)"><path fill="#ffffff" d="M 279.847656 333.804688 L 287.234375 333.804688 L 287.234375 341.195312 L 279.847656 341.195312 Z M 279.847656 333.804688 " fill-opacity="1" fill-rule="nonzero"/></g></g><g clip-path="url(#ba30c42fb4)"><path fill="#ffffff" d="M 276.382812 122.878906 C 276.183594 122.878906 276.019531 123.105469 276.019531 123.386719 C 276.019531 123.671875 276.183594 123.898438 276.382812 123.898438 C 276.578125 123.898438 276.742188 123.671875 276.742188 123.386719 C 276.742188 123.105469 276.582031 122.878906 276.382812 122.878906 Z M 279.664062 118.785156 C 279.574219 118.742188 279.394531 118.777344 279.300781 118.785156 C 279.039062 118.816406 278.78125 118.890625 278.535156 118.988281 C 278.5 119.003906 278.464844 119.019531 278.425781 119.039062 C 277.996094 119.238281 277.597656 119.519531 277.257812 119.851562 C 277.164062 119.945312 277.070312 120.042969 276.980469 120.144531 C 276.636719 120.539062 276.367188 121 276.261719 121.507812 C 276.226562 121.679688 276.207031 121.859375 276.210938 122.042969 C 276.210938 122.101562 276.226562 122.167969 276.257812 122.230469 C 276.296875 122.3125 276.359375 122.371094 276.46875 122.339844 C 276.539062 122.320312 276.582031 122.257812 276.625 122.203125 C 276.664062 122.148438 276.699219 122.089844 276.734375 122.03125 C 276.816406 121.871094 276.882812 121.699219 276.957031 121.53125 C 277.03125 121.363281 277.113281 121.199219 277.207031 121.035156 C 277.246094 120.96875 277.28125 120.90625 277.320312 120.847656 C 277.65625 120.332031 278.09375 119.875 278.597656 119.527344 C 278.921875 119.300781 279.277344 119.117188 279.664062 118.960938 C 279.773438 118.917969 279.757812 118.835938 279.664062 118.785156 Z M 285.332031 122.929688 C 285.332031 120.480469 283.535156 118.445312 281.1875 118.070312 C 280.941406 118.03125 280.691406 118.011719 280.433594 118.011719 C 280.429688 118.011719 280.425781 118.011719 280.421875 118.011719 C 280.007812 118.011719 279.613281 118.0625 279.238281 118.15625 C 277.875 118.492188 276.738281 119.40625 276.089844 120.613281 C 275.902344 120.964844 275.753906 121.347656 275.652344 121.742188 C 275.59375 121.988281 275.554688 122.234375 275.53125 122.488281 C 275.515625 122.628906 275.511719 122.78125 275.511719 122.921875 C 275.511719 125.632812 277.710938 127.839844 280.421875 127.839844 C 283.128906 127.839844 285.332031 125.636719 285.332031 122.929688 Z M 286.019531 122.929688 C 286.019531 126.019531 283.507812 128.53125 280.421875 128.53125 C 277.332031 128.53125 274.820312 126.019531 274.820312 122.929688 C 274.820312 122.84375 274.828125 122.757812 274.828125 122.675781 C 274.835938 122.4375 274.863281 122.199219 274.902344 121.972656 C 274.960938 121.625 275.050781 121.292969 275.167969 120.96875 C 275.890625 119.027344 277.664062 117.589844 279.792969 117.359375 C 279.996094 117.332031 280.203125 117.324219 280.410156 117.324219 C 280.550781 117.324219 280.6875 117.328125 280.828125 117.339844 C 281.0625 117.359375 281.300781 117.386719 281.527344 117.433594 C 284.09375 117.957031 286.019531 120.222656 286.019531 122.929688 Z M 264.925781 96.136719 C 264.925781 96.777344 265.445312 97.296875 266.085938 97.296875 C 266.722656 97.296875 267.242188 96.777344 267.242188 96.136719 C 267.242188 95.496094 266.722656 94.976562 266.085938 94.976562 C 265.449219 94.976562 264.925781 95.496094 264.925781 96.136719 Z M 264.4375 96.136719 C 264.4375 95.226562 265.179688 94.480469 266.089844 94.480469 C 267 94.480469 267.742188 95.226562 267.742188 96.136719 C 267.742188 97.046875 267 97.792969 266.089844 97.792969 C 265.179688 97.792969 264.4375 97.054688 264.4375 96.136719 Z M 261.640625 118.566406 L 261.347656 118.566406 C 261.238281 118.566406 261.148438 118.65625 261.148438 118.765625 C 261.148438 118.875 261.238281 118.964844 261.347656 118.964844 L 261.640625 118.964844 C 261.75 118.964844 261.835938 118.875 261.835938 118.765625 C 261.835938 118.65625 261.75 118.566406 261.640625 118.566406 Z M 258.722656 118.566406 L 258.433594 118.566406 C 258.324219 118.566406 258.234375 118.65625 258.234375 118.765625 C 258.234375 118.875 258.324219 118.964844 258.433594 118.964844 L 258.722656 118.964844 C 258.832031 118.964844 258.921875 118.875 258.921875 118.765625 C 258.921875 118.65625 258.832031 118.566406 258.722656 118.566406 Z M 260.925781 118.011719 L 261.144531 117.792969 C 261.183594 117.753906 261.183594 117.695312 261.144531 117.65625 C 261.105469 117.617188 261.046875 117.617188 261.007812 117.65625 L 260.789062 117.875 C 260.75 117.914062 260.75 117.972656 260.789062 118.011719 C 260.808594 118.03125 260.832031 118.042969 260.859375 118.042969 C 260.882812 118.039062 260.90625 118.027344 260.925781 118.011719 Z M 259.082031 119.582031 L 258.921875 119.742188 C 258.882812 119.78125 258.882812 119.839844 258.921875 119.878906 C 258.941406 119.902344 258.964844 119.910156 258.992188 119.910156 C 259.015625 119.910156 259.039062 119.902344 259.058594 119.878906 L 259.21875 119.722656 C 259.257812 119.683594 259.257812 119.621094 259.21875 119.582031 C 259.179688 119.542969 259.121094 119.542969 259.082031 119.582031 Z M 260.992188 119.582031 C 260.953125 119.542969 260.890625 119.542969 260.851562 119.582031 C 260.8125 119.621094 260.8125 119.683594 260.851562 119.722656 L 261.011719 119.878906 C 261.03125 119.902344 261.054688 119.910156 261.078125 119.910156 C 261.105469 119.910156 261.128906 119.902344 261.148438 119.878906 C 261.1875 119.839844 261.1875 119.78125 261.148438 119.742188 Z M 259.058594 117.652344 C 259.019531 117.613281 258.960938 117.613281 258.921875 117.652344 C 258.882812 117.691406 258.882812 117.75 258.921875 117.789062 L 259.140625 118.007812 C 259.160156 118.027344 259.183594 118.039062 259.210938 118.039062 C 259.234375 118.039062 259.257812 118.027344 259.277344 118.007812 C 259.316406 117.96875 259.316406 117.910156 259.277344 117.867188 Z M 260.035156 119.878906 C 259.925781 119.878906 259.835938 119.96875 259.835938 120.078125 L 259.835938 120.371094 C 259.835938 120.480469 259.925781 120.570312 260.035156 120.570312 C 260.144531 120.570312 260.234375 120.480469 260.234375 120.371094 L 260.234375 120.078125 C 260.234375 119.96875 260.144531 119.878906 260.035156 119.878906 Z M 260.035156 116.960938 C 259.925781 116.960938 259.835938 117.050781 259.835938 117.160156 L 259.835938 117.460938 C 259.835938 117.570312 259.925781 117.660156 260.035156 117.660156 C 260.144531 117.660156 260.234375 117.570312 260.234375 117.460938 L 260.234375 117.160156 C 260.234375 117.050781 260.144531 116.960938 260.035156 116.960938 Z M 287.28125 110.105469 L 286.988281 110.105469 C 286.878906 110.105469 286.792969 110.195312 286.792969 110.304688 C 286.792969 110.410156 286.878906 110.5 286.988281 110.5 L 287.28125 110.5 C 287.390625 110.5 287.480469 110.410156 287.480469 110.304688 C 287.472656 110.195312 287.390625 110.105469 287.28125 110.105469 Z M 284.367188 110.105469 L 284.074219 110.105469 C 283.964844 110.105469 283.875 110.195312 283.875 110.304688 C 283.875 110.410156 283.964844 110.5 284.074219 110.5 L 284.367188 110.5 C 284.472656 110.5 284.5625 110.410156 284.5625 110.304688 C 284.5625 110.195312 284.472656 110.105469 284.367188 110.105469 Z M 286.566406 109.550781 L 286.785156 109.332031 C 286.824219 109.292969 286.824219 109.234375 286.785156 109.191406 C 286.746094 109.152344 286.6875 109.152344 286.648438 109.191406 L 286.429688 109.410156 C 286.390625 109.449219 286.390625 109.511719 286.429688 109.550781 C 286.449219 109.570312 286.472656 109.578125 286.5 109.578125 C 286.523438 109.578125 286.546875 109.570312 286.566406 109.550781 Z M 284.632812 111.445312 C 284.65625 111.445312 284.683594 111.4375 284.703125 111.417969 L 284.859375 111.257812 C 284.898438 111.21875 284.898438 111.160156 284.859375 111.121094 C 284.820312 111.082031 284.761719 111.082031 284.722656 111.121094 L 284.5625 111.277344 C 284.523438 111.320312 284.523438 111.378906 284.5625 111.417969 C 284.582031 111.4375 284.609375 111.445312 284.632812 111.445312 Z M 286.628906 111.121094 C 286.589844 111.082031 286.527344 111.082031 286.488281 111.121094 C 286.449219 111.160156 286.449219 111.21875 286.488281 111.257812 L 286.648438 111.417969 C 286.667969 111.4375 286.691406 111.445312 286.71875 111.445312 C 286.742188 111.445312 286.765625 111.4375 286.785156 111.417969 C 286.824219 111.378906 286.824219 111.320312 286.785156 111.277344 Z M 284.921875 109.410156 L 284.703125 109.191406 C 284.664062 109.152344 284.601562 109.152344 284.5625 109.191406 C 284.523438 109.234375 284.523438 109.292969 284.5625 109.332031 L 284.78125 109.550781 C 284.800781 109.570312 284.824219 109.578125 284.851562 109.578125 C 284.875 109.578125 284.898438 109.570312 284.921875 109.550781 C 284.960938 109.511719 284.960938 109.449219 284.921875 109.410156 Z M 285.675781 111.417969 C 285.570312 111.417969 285.480469 111.507812 285.480469 111.617188 L 285.480469 111.910156 C 285.480469 112.015625 285.570312 112.105469 285.675781 112.105469 C 285.785156 112.105469 285.875 112.015625 285.875 111.910156 L 285.875 111.617188 C 285.871094 111.507812 285.78125 111.417969 285.675781 111.417969 Z M 285.871094 108.699219 C 285.871094 108.589844 285.78125 108.5 285.671875 108.5 C 285.5625 108.5 285.472656 108.589844 285.472656 108.699219 L 285.472656 109 C 285.472656 109.109375 285.5625 109.199219 285.671875 109.199219 C 285.78125 109.199219 285.871094 109.109375 285.871094 109 Z M 266.199219 110.886719 C 266.054688 110.867188 265.910156 110.921875 265.792969 111.050781 C 265.679688 111.175781 265.601562 111.34375 265.570312 111.535156 C 265.511719 111.9375 265.695312 112.300781 265.980469 112.339844 C 266 112.34375 266.019531 112.34375 266.039062 112.34375 C 266.308594 112.34375 266.558594 112.066406 266.613281 111.695312 C 266.667969 111.292969 266.484375 110.933594 266.199219 110.886719 Z M 267.375 109.015625 C 267.585938 108.6875 267.828125 108.378906 268.085938 108.09375 C 268.707031 107.410156 269.46875 106.839844 270.316406 106.4375 C 270.855469 106.179688 271.441406 105.988281 272.054688 105.84375 C 272.21875 105.804688 272.207031 105.675781 272.085938 105.585938 C 271.960938 105.496094 271.683594 105.511719 271.535156 105.5 C 271.128906 105.480469 270.722656 105.53125 270.328125 105.625 C 269.566406 105.808594 268.84375 106.15625 268.203125 106.601562 C 268.148438 106.640625 268.097656 106.675781 268.046875 106.714844 C 267.699219 106.972656 267.371094 107.261719 267.089844 107.582031 C 266.589844 108.152344 266.226562 108.820312 266.140625 109.59375 C 266.113281 109.796875 266.164062 110.132812 266.460938 110.09375 C 266.566406 110.078125 266.652344 110.003906 266.726562 109.929688 C 266.996094 109.660156 267.179688 109.332031 267.375 109.015625 Z M 274.519531 104.605469 C 274.710938 104.648438 274.910156 104.699219 275.097656 104.757812 C 275.800781 104.976562 276.464844 105.285156 277.078125 105.667969 C 277.234375 105.765625 277.378906 105.863281 277.523438 105.972656 C 278.117188 106.398438 278.652344 106.894531 279.117188 107.453125 C 279.246094 107.605469 279.367188 107.765625 279.484375 107.925781 C 280.488281 109.320312 281.082031 111.03125 281.082031 112.878906 C 281.082031 114.222656 280.765625 115.496094 280.210938 116.625 C 280.28125 116.625 280.351562 116.621094 280.425781 116.621094 C 280.675781 116.621094 280.929688 116.636719 281.171875 116.664062 C 281.6875 115.503906 281.96875 114.226562 281.96875 112.878906 C 281.96875 111.101562 281.46875 109.4375 280.609375 108.011719 C 280.523438 107.878906 280.441406 107.746094 280.351562 107.613281 C 280.148438 107.316406 279.929688 107.03125 279.699219 106.761719 C 278.59375 105.480469 277.152344 104.5 275.515625 103.960938 C 275.179688 103.851562 274.832031 103.757812 274.480469 103.683594 C 274.328125 103.652344 274.167969 103.625 274.011719 103.597656 C 273.550781 103.53125 273.074219 103.488281 272.59375 103.488281 C 271.363281 103.488281 270.183594 103.726562 269.105469 104.164062 C 268.886719 104.253906 268.679688 104.347656 268.46875 104.445312 C 268.226562 104.566406 267.996094 104.695312 267.769531 104.832031 C 266.773438 105.433594 265.894531 106.210938 265.1875 107.125 C 265.027344 107.339844 264.871094 107.558594 264.722656 107.78125 C 264.601562 107.972656 264.480469 108.171875 264.367188 108.375 C 263.632812 109.714844 263.21875 111.246094 263.21875 112.875 C 263.21875 118.046875 267.425781 122.257812 272.59375 122.257812 C 273.132812 122.257812 273.660156 122.214844 274.171875 122.125 C 274.210938 121.804688 274.277344 121.492188 274.367188 121.183594 C 273.796875 121.308594 273.203125 121.371094 272.59375 121.371094 C 267.910156 121.371094 264.105469 117.5625 264.105469 112.875 C 264.105469 111.179688 264.605469 109.605469 265.460938 108.28125 C 265.640625 108.003906 265.832031 107.734375 266.039062 107.484375 C 266.605469 106.800781 267.269531 106.210938 268.015625 105.730469 C 268.292969 105.550781 268.578125 105.386719 268.882812 105.238281 C 270.003906 104.6875 271.261719 104.382812 272.59375 104.382812 C 273.257812 104.382812 273.902344 104.460938 274.519531 104.605469 Z M 269.753906 98.171875 C 269.753906 98.609375 270.105469 98.960938 270.539062 98.960938 C 270.976562 98.960938 271.328125 98.609375 271.328125 98.171875 C 271.328125 97.738281 270.976562 97.386719 270.539062 97.386719 C 270.105469 97.386719 269.753906 97.738281 269.753906 98.171875 Z M 269.257812 98.171875 C 269.257812 97.464844 269.832031 96.890625 270.539062 96.890625 C 271.246094 96.890625 271.820312 97.464844 271.820312 98.171875 C 271.820312 98.882812 271.246094 99.457031 270.539062 99.457031 C 269.832031 99.457031 269.257812 98.882812 269.257812 98.171875 Z M 266.40625 124.09375 C 266.40625 123.234375 265.707031 122.535156 264.851562 122.535156 C 263.996094 122.535156 263.296875 123.234375 263.296875 124.09375 C 263.296875 124.949219 263.996094 125.648438 264.851562 125.648438 C 265.707031 125.648438 266.40625 124.949219 266.40625 124.09375 Z M 266.996094 124.09375 C 266.996094 125.277344 266.035156 126.238281 264.847656 126.238281 C 263.664062 126.238281 262.703125 125.277344 262.703125 124.09375 C 262.703125 122.90625 263.664062 121.945312 264.847656 121.945312 C 266.03125 121.941406 266.996094 122.90625 266.996094 124.09375 Z M 276.070312 99.277344 C 275.875 99.253906 275.707031 99.441406 275.671875 99.710938 C 275.636719 99.976562 275.761719 100.199219 275.949219 100.222656 C 275.960938 100.222656 275.96875 100.222656 275.980469 100.222656 C 276.0625 100.222656 276.144531 100.183594 276.210938 100.105469 C 276.28125 100.027344 276.332031 99.914062 276.347656 99.789062 C 276.359375 99.664062 276.339844 99.546875 276.292969 99.453125 C 276.242188 99.351562 276.164062 99.289062 276.070312 99.277344 Z M 276.375 98.6875 C 276.535156 98.515625 276.636719 98.308594 276.757812 98.105469 C 276.882812 97.894531 277.019531 97.699219 277.179688 97.515625 C 277.550781 97.074219 278.003906 96.707031 278.515625 96.4375 C 278.839844 96.265625 279.191406 96.136719 279.5625 96.039062 C 279.664062 96.011719 279.65625 95.929688 279.578125 95.875 C 279.5 95.820312 279.332031 95.835938 279.242188 95.835938 C 278.996094 95.828125 278.746094 95.871094 278.507812 95.933594 C 278.050781 96.0625 277.613281 96.289062 277.234375 96.582031 C 276.613281 97.054688 276.089844 97.691406 276.015625 98.488281 C 276.003906 98.621094 276.039062 98.828125 276.21875 98.796875 C 276.28125 98.789062 276.332031 98.738281 276.375 98.6875 Z M 275.105469 103.144531 C 274.8125 102.4375 274.652344 101.671875 274.652344 100.863281 C 274.652344 97.578125 277.328125 94.902344 280.609375 94.902344 C 283.894531 94.902344 286.5625 97.578125 286.5625 100.863281 C 286.5625 104.148438 283.894531 106.824219 280.613281 106.824219 C 280.800781 107.074219 280.976562 107.324219 281.136719 107.59375 C 284.609375 107.320312 287.351562 104.40625 287.351562 100.863281 C 287.351562 97.140625 284.324219 94.113281 280.609375 94.113281 C 276.890625 94.113281 273.867188 97.140625 273.867188 100.863281 C 273.867188 101.59375 273.984375 102.296875 274.199219 102.953125 C 274.5 103.003906 274.800781 103.070312 275.105469 103.144531 Z M 261.953125 103.230469 C 261.808594 103.210938 261.683594 103.351562 261.660156 103.542969 C 261.648438 103.632812 261.664062 103.71875 261.699219 103.789062 C 261.738281 103.863281 261.796875 103.90625 261.867188 103.914062 C 261.878906 103.914062 261.882812 103.914062 261.890625 103.914062 C 262.019531 103.914062 262.136719 103.78125 262.160156 103.605469 C 262.179688 103.414062 262.089844 103.25 261.953125 103.230469 Z M 262.425781 102.4375 C 262.511719 102.296875 262.609375 102.15625 262.714844 102.03125 C 262.972656 101.730469 263.28125 101.472656 263.632812 101.289062 C 263.855469 101.171875 264.101562 101.082031 264.355469 101.011719 C 264.425781 100.992188 264.421875 100.9375 264.367188 100.898438 C 264.3125 100.863281 264.199219 100.867188 264.132812 100.867188 C 263.960938 100.863281 263.792969 100.894531 263.628906 100.9375 C 263.3125 101.027344 263.011719 101.1875 262.75 101.390625 C 262.324219 101.714844 261.957031 102.15625 261.910156 102.707031 C 261.902344 102.796875 261.925781 102.941406 262.050781 102.917969 C 262.09375 102.910156 262.128906 102.878906 262.160156 102.84375 C 262.273438 102.722656 262.34375 102.578125 262.425781 102.4375 Z M 260.464844 103.753906 C 260.464844 101.527344 262.277344 99.714844 264.5 99.714844 C 266.703125 99.714844 268.496094 101.488281 268.535156 103.683594 C 268.332031 103.773438 268.132812 103.871094 267.9375 103.96875 C 267.941406 103.894531 267.945312 103.820312 267.945312 103.746094 C 267.945312 101.84375 266.402344 100.300781 264.5 100.300781 C 262.601562 100.300781 261.054688 101.84375 261.054688 103.746094 C 261.054688 105.585938 262.5 107.09375 264.3125 107.191406 C 264.1875 107.375 264.070312 107.558594 263.957031 107.75 C 261.984375 107.488281 260.464844 105.792969 260.464844 103.753906 " fill-opacity="1" fill-rule="nonzero"/></g><g clip-path="url(#51074761e7)"><path fill="#ffffff" d="M 118.585938 135.574219 C 118.585938 133.675781 117.019531 132.132812 115.09375 132.132812 C 113.164062 132.132812 111.597656 133.675781 111.597656 135.574219 C 111.597656 137.472656 113.164062 139.019531 115.09375 139.019531 C 117.019531 139.019531 118.585938 137.472656 118.585938 135.574219 Z M 119.761719 135.574219 C 119.761719 138.113281 117.664062 140.175781 115.09375 140.175781 C 112.519531 140.175781 110.425781 138.113281 110.425781 135.574219 C 110.425781 133.039062 112.519531 130.976562 115.09375 130.976562 C 117.664062 130.976562 119.761719 133.039062 119.761719 135.574219 Z M 108.410156 132.765625 C 108.410156 131.933594 108.246094 131.144531 107.953125 130.414062 C 107.910156 130.300781 107.863281 130.191406 107.8125 130.082031 C 107.796875 130.046875 107.777344 130.011719 107.757812 129.972656 C 107.660156 129.769531 107.550781 129.570312 107.429688 129.378906 C 107.414062 129.359375 107.402344 129.335938 107.390625 129.316406 C 107.320312 129.207031 107.246094 129.097656 107.167969 128.996094 C 107.167969 128.992188 107.164062 128.988281 107.160156 128.984375 C 106.527344 128.125 105.6875 127.425781 104.722656 126.960938 C 104.683594 126.9375 104.640625 126.917969 104.597656 126.902344 C 104.496094 126.851562 104.390625 126.804688 104.28125 126.761719 C 104.152344 126.710938 104.019531 126.664062 103.886719 126.621094 C 103.796875 126.589844 103.703125 126.566406 103.613281 126.539062 C 103.523438 126.515625 103.4375 126.492188 103.347656 126.472656 C 103.257812 126.453125 103.171875 126.429688 103.082031 126.414062 C 103.074219 126.414062 103.066406 126.410156 103.058594 126.410156 C 102.859375 126.375 102.660156 126.34375 102.464844 126.324219 C 102.257812 126.308594 102.050781 126.292969 101.84375 126.292969 C 101.621094 126.292969 101.402344 126.304688 101.1875 126.328125 C 101.089844 126.335938 100.988281 126.355469 100.890625 126.371094 C 100.777344 126.386719 100.667969 126.398438 100.558594 126.421875 C 100.429688 126.445312 100.304688 126.480469 100.179688 126.511719 C 100.105469 126.53125 100.027344 126.546875 99.953125 126.570312 C 99.8125 126.613281 99.671875 126.664062 99.535156 126.714844 C 99.480469 126.734375 99.425781 126.753906 99.371094 126.773438 C 99.222656 126.832031 99.082031 126.898438 98.941406 126.96875 C 98.898438 126.988281 98.855469 127.007812 98.816406 127.027344 C 98.667969 127.105469 98.527344 127.1875 98.386719 127.273438 C 98.355469 127.292969 98.320312 127.308594 98.292969 127.328125 C 98.148438 127.421875 98.007812 127.519531 97.871094 127.621094 C 97.847656 127.640625 97.820312 127.660156 97.796875 127.675781 C 97.660156 127.785156 97.527344 127.898438 97.398438 128.015625 C 97.378906 128.03125 97.359375 128.046875 97.339844 128.066406 C 97.210938 128.1875 97.085938 128.3125 96.964844 128.445312 C 96.949219 128.460938 96.933594 128.476562 96.921875 128.496094 C 96.800781 128.628906 96.683594 128.769531 96.578125 128.914062 C 96.566406 128.929688 96.550781 128.945312 96.542969 128.960938 C 96.429688 129.109375 96.328125 129.261719 96.230469 129.417969 C 96.222656 129.429688 96.214844 129.445312 96.207031 129.457031 C 96.109375 129.617188 96.019531 129.785156 95.933594 129.953125 C 95.929688 129.964844 95.925781 129.972656 95.921875 129.984375 C 95.835938 130.15625 95.757812 130.335938 95.6875 130.519531 C 95.6875 130.523438 95.683594 130.53125 95.683594 130.535156 C 95.46875 131.105469 95.335938 131.710938 95.296875 132.34375 L 95.289062 132.410156 C 95.285156 132.527344 95.273438 132.644531 95.273438 132.765625 C 95.273438 136.335938 98.21875 139.238281 101.84375 139.238281 C 105.464844 139.238281 108.410156 136.335938 108.410156 132.765625 Z M 94.191406 131.648438 C 94.191406 131.636719 94.195312 131.628906 94.195312 131.621094 C 94.230469 131.402344 94.269531 131.1875 94.324219 130.976562 C 94.324219 130.964844 94.328125 130.953125 94.332031 130.945312 C 94.714844 129.410156 95.566406 128.0625 96.730469 127.050781 C 96.753906 127.03125 96.773438 127.011719 96.792969 126.992188 C 96.933594 126.875 97.078125 126.765625 97.222656 126.65625 C 97.265625 126.625 97.308594 126.59375 97.355469 126.5625 C 97.492188 126.464844 97.628906 126.375 97.773438 126.289062 C 97.835938 126.25 97.894531 126.214844 97.957031 126.179688 C 98.089844 126.101562 98.226562 126.027344 98.367188 125.957031 C 98.445312 125.921875 98.519531 125.882812 98.597656 125.847656 C 98.730469 125.789062 98.863281 125.730469 99 125.675781 C 99.09375 125.640625 99.1875 125.609375 99.28125 125.574219 C 99.410156 125.53125 99.535156 125.488281 99.667969 125.449219 C 99.78125 125.417969 99.894531 125.390625 100.011719 125.363281 C 100.128906 125.335938 100.246094 125.304688 100.363281 125.28125 C 100.507812 125.253906 100.65625 125.234375 100.804688 125.214844 C 100.898438 125.203125 100.992188 125.183594 101.089844 125.175781 C 101.339844 125.152344 101.589844 125.136719 101.84375 125.136719 C 102.058594 125.136719 102.28125 125.148438 102.503906 125.167969 C 102.492188 125.019531 102.484375 124.871094 102.484375 124.726562 C 102.484375 124.542969 102.496094 124.363281 102.511719 124.183594 C 102.515625 124.136719 102.519531 124.09375 102.527344 124.046875 C 102.542969 123.890625 102.566406 123.738281 102.597656 123.585938 C 102.613281 123.507812 102.628906 123.433594 102.648438 123.359375 C 102.667969 123.28125 102.6875 123.203125 102.707031 123.125 C 102.753906 122.960938 102.804688 122.800781 102.863281 122.644531 C 102.875 122.613281 102.886719 122.582031 102.898438 122.546875 C 103.027344 122.222656 103.183594 121.90625 103.363281 121.609375 C 103.371094 121.601562 103.375 121.589844 103.382812 121.582031 C 103.503906 121.382812 103.636719 121.191406 103.78125 121.007812 C 103.785156 121.003906 103.789062 121 103.789062 120.996094 C 103.863281 120.90625 103.9375 120.816406 104.011719 120.730469 C 104.03125 120.707031 104.054688 120.6875 104.074219 120.664062 C 104.199219 120.527344 104.328125 120.398438 104.464844 120.273438 C 104.507812 120.230469 104.554688 120.1875 104.605469 120.148438 C 104.675781 120.085938 104.746094 120.027344 104.820312 119.96875 C 104.921875 119.890625 105.023438 119.8125 105.128906 119.738281 C 103.953125 115.699219 100.222656 112.910156 95.914062 112.910156 C 90.628906 112.910156 86.328125 117.148438 86.328125 122.355469 C 86.328125 126.945312 89.667969 130.839844 94.191406 131.648438 Z M 108.664062 119.796875 C 107.800781 119.796875 106.992188 120.011719 106.28125 120.390625 L 106.242188 120.414062 C 106.191406 120.441406 106.136719 120.476562 106.085938 120.507812 C 105.910156 120.609375 105.746094 120.722656 105.585938 120.84375 C 105.574219 120.855469 105.5625 120.863281 105.550781 120.871094 C 105.390625 120.996094 105.242188 121.128906 105.101562 121.269531 C 105.0625 121.304688 105.03125 121.347656 104.992188 121.382812 C 104.90625 121.476562 104.820312 121.574219 104.738281 121.675781 C 104.683594 121.742188 104.628906 121.8125 104.578125 121.886719 C 104.523438 121.960938 104.472656 122.042969 104.421875 122.121094 C 104.371094 122.203125 104.320312 122.28125 104.273438 122.363281 C 104.199219 122.496094 104.132812 122.628906 104.070312 122.769531 C 104.03125 122.859375 104 122.949219 103.964844 123.042969 C 103.929688 123.144531 103.890625 123.246094 103.859375 123.347656 C 103.839844 123.425781 103.820312 123.503906 103.800781 123.582031 C 103.769531 123.703125 103.746094 123.824219 103.726562 123.945312 C 103.71875 124.011719 103.703125 124.078125 103.695312 124.144531 C 103.675781 124.335938 103.660156 124.527344 103.660156 124.726562 C 103.660156 124.90625 103.675781 125.089844 103.695312 125.273438 C 103.699219 125.304688 103.707031 125.335938 103.710938 125.367188 C 103.796875 125.386719 103.878906 125.414062 103.964844 125.4375 C 104.09375 125.472656 104.222656 125.511719 104.347656 125.554688 C 104.449219 125.589844 104.550781 125.625 104.652344 125.664062 C 104.835938 125.738281 105.019531 125.816406 105.195312 125.902344 C 105.25 125.925781 105.304688 125.949219 105.355469 125.976562 C 105.480469 126.039062 105.597656 126.105469 105.71875 126.171875 C 105.730469 126.179688 105.746094 126.191406 105.757812 126.199219 C 105.992188 126.332031 106.214844 126.480469 106.433594 126.636719 C 106.449219 126.648438 106.460938 126.660156 106.476562 126.671875 C 107.039062 127.085938 107.542969 127.574219 107.972656 128.125 C 108 128.160156 108.027344 128.199219 108.058594 128.238281 C 108.1875 128.40625 108.304688 128.582031 108.421875 128.761719 C 108.457031 128.820312 108.496094 128.882812 108.53125 128.941406 C 108.601562 129.058594 108.667969 129.179688 108.730469 129.304688 C 108.792969 129.417969 108.847656 129.53125 108.902344 129.648438 C 111.550781 129.523438 113.667969 127.363281 113.667969 124.726562 C 113.667969 122.007812 111.421875 119.796875 108.664062 119.796875 Z M 109.308594 130.777344 C 109.484375 131.414062 109.585938 132.078125 109.585938 132.765625 C 109.585938 136.972656 106.113281 140.394531 101.84375 140.394531 C 97.585938 140.394531 94.121094 136.992188 94.101562 132.804688 C 88.960938 131.945312 85.152344 127.546875 85.152344 122.355469 C 85.152344 116.511719 89.980469 111.753906 95.914062 111.753906 C 100.65625 111.753906 104.769531 114.765625 106.171875 119.160156 C 106.933594 118.828125 107.777344 118.636719 108.664062 118.636719 C 112.070312 118.636719 114.839844 121.367188 114.839844 124.726562 C 114.839844 127.867188 112.414062 130.457031 109.308594 130.777344 Z M 102.542969 128.210938 C 101.136719 127.441406 99.292969 127.902344 98.429688 129.238281 C 98.160156 129.660156 98.191406 130.015625 98.519531 130.25 L 98.523438 130.25 C 98.539062 130.261719 98.558594 130.273438 98.574219 130.28125 C 98.871094 130.457031 99.230469 130.375 99.46875 130.082031 C 100.222656 129.148438 100.785156 129.003906 101.972656 129.4375 C 102.371094 129.582031 102.769531 129.46875 102.917969 129.167969 C 103.089844 128.8125 102.949219 128.445312 102.542969 128.210938 Z M 95.835938 115.828125 C 96.292969 115.945312 96.621094 115.808594 96.753906 115.441406 C 96.894531 115.054688 96.714844 114.71875 96.253906 114.527344 C 94.277344 113.703125 91.769531 114.671875 90.886719 116.605469 C 90.65625 117.117188 90.71875 117.460938 91.089844 117.65625 C 91.113281 117.667969 91.140625 117.679688 91.164062 117.691406 C 91.5 117.832031 91.84375 117.714844 92.03125 117.394531 C 92.984375 115.777344 94.015625 115.351562 95.835938 115.828125 Z M 109.488281 112.5 C 109.496094 113.371094 110.226562 114.089844 111.121094 114.097656 C 112.054688 114.097656 112.742188 113.4375 112.757812 112.527344 C 112.769531 111.632812 112.082031 110.90625 111.191406 110.878906 L 111.140625 110.878906 C 110.714844 110.878906 110.289062 111.058594 109.972656 111.371094 C 109.664062 111.679688 109.488281 112.089844 109.488281 112.5 Z M 109.109375 114.507812 C 108.554688 113.957031 108.253906 113.230469 108.261719 112.460938 C 108.277344 110.910156 109.566406 109.644531 111.132812 109.644531 L 111.179688 109.644531 C 112.757812 109.667969 114.035156 110.949219 114.03125 112.496094 C 114.023438 114.070312 112.722656 115.347656 111.128906 115.347656 L 111.117188 115.347656 C 110.363281 115.34375 109.648438 115.046875 109.109375 114.507812 Z M 122.082031 122.90625 C 122.09375 122.011719 121.40625 121.289062 120.515625 121.257812 L 120.464844 121.257812 C 120.039062 121.257812 119.613281 121.4375 119.296875 121.753906 C 118.988281 122.058594 118.8125 122.472656 118.8125 122.882812 C 118.820312 123.753906 119.550781 124.46875 120.445312 124.476562 C 121.378906 124.476562 122.066406 123.816406 122.082031 122.90625 Z M 123.355469 122.878906 C 123.347656 124.449219 122.046875 125.730469 120.453125 125.730469 L 120.441406 125.730469 C 119.6875 125.726562 118.972656 125.429688 118.433594 124.886719 C 117.878906 124.335938 117.578125 123.609375 117.585938 122.84375 C 117.601562 121.289062 118.890625 120.027344 120.457031 120.027344 L 120.503906 120.027344 C 122.082031 120.050781 123.359375 121.328125 123.355469 122.878906 Z M 115.578125 133.269531 C 114.59375 132.996094 113.359375 133.640625 113.046875 134.585938 C 112.941406 134.902344 112.941406 135.203125 113.285156 135.359375 C 113.566406 135.488281 113.824219 135.390625 113.976562 135.105469 C 114.296875 134.519531 114.726562 134.175781 115.460938 134.347656 C 115.8125 134.429688 116.058594 134.238281 116.105469 133.878906 C 116.15625 133.5 115.902344 133.34375 115.578125 133.269531 Z M 109.117188 120.914062 C 109.464844 121.042969 109.722656 121.246094 109.609375 121.65625 C 109.503906 122.042969 109.207031 122.222656 108.832031 122.082031 C 108.050781 121.789062 107.53125 122.101562 107.09375 122.703125 C 106.886719 122.992188 106.589844 123.0625 106.296875 122.878906 C 105.945312 122.660156 105.988281 122.332031 106.148438 122 C 106.628906 121.007812 108.078125 120.476562 109.117188 120.914062 " fill-opacity="1" fill-rule="nonzero"/></g><g clip-path="url(#fc80b1ce84)"><path fill="#000000" d="M 44.257812 186.007812 L 43.027344 193.515625 C 42.960938 193.929688 42.949219 194.347656 43 194.765625 C 43.050781 195.179688 43.15625 195.582031 43.320312 195.96875 C 43.484375 196.355469 43.695312 196.714844 43.960938 197.042969 C 44.222656 197.367188 44.527344 197.652344 44.871094 197.894531 C 45.214844 198.136719 45.582031 198.324219 45.980469 198.464844 C 46.375 198.601562 46.785156 198.683594 47.203125 198.703125 C 47.625 198.726562 48.039062 198.691406 48.445312 198.597656 C 48.855469 198.503906 49.246094 198.359375 49.613281 198.15625 L 55.773438 194.769531 L 61.914062 198.175781 C 62.28125 198.378906 62.667969 198.527344 63.078125 198.621094 C 63.488281 198.714844 63.902344 198.75 64.320312 198.726562 C 64.742188 198.703125 65.148438 198.625 65.546875 198.484375 C 65.941406 198.347656 66.3125 198.160156 66.65625 197.917969 C 67 197.675781 67.300781 197.390625 67.566406 197.0625 C 67.828125 196.738281 68.042969 196.378906 68.207031 195.992188 C 68.367188 195.605469 68.476562 195.203125 68.523438 194.785156 C 68.574219 194.367188 68.566406 193.953125 68.5 193.539062 L 67.265625 186.03125 L 72.421875 180.789062 C 73.003906 180.1875 73.390625 179.476562 73.574219 178.660156 C 73.761719 177.84375 73.71875 177.035156 73.453125 176.242188 C 73.1875 175.445312 72.734375 174.777344 72.09375 174.238281 C 71.453125 173.699219 70.71875 173.363281 69.886719 173.238281 L 62.964844 172.183594 L 59.828125 165.460938 C 59.648438 165.078125 59.417969 164.722656 59.136719 164.40625 C 58.855469 164.085938 58.535156 163.8125 58.175781 163.585938 C 57.816406 163.355469 57.433594 163.183594 57.023438 163.0625 C 56.617188 162.945312 56.199219 162.886719 55.773438 162.886719 C 55.347656 162.886719 54.933594 162.945312 54.523438 163.0625 C 54.113281 163.183594 53.730469 163.355469 53.371094 163.585938 C 53.011719 163.8125 52.691406 164.085938 52.410156 164.40625 C 52.128906 164.722656 51.898438 165.078125 51.71875 165.460938 L 48.582031 172.183594 L 41.660156 173.238281 C 40.832031 173.363281 40.097656 173.699219 39.457031 174.238281 C 38.8125 174.777344 38.359375 175.445312 38.09375 176.242188 C 37.828125 177.035156 37.785156 177.84375 37.972656 178.660156 C 38.160156 179.476562 38.542969 180.1875 39.128906 180.789062 Z M 44.257812 186.007812 " fill-opacity="1" fill-rule="nonzero"/></g><g clip-path="url(#870e0f5e43)"><path fill="#000000" d="M 44.257812 105.339844 L 43.027344 112.847656 C 42.960938 113.261719 42.949219 113.675781 43 114.09375 C 43.050781 114.511719 43.15625 114.914062 43.320312 115.300781 C 43.484375 115.6875 43.695312 116.042969 43.960938 116.371094 C 44.222656 116.699219 44.527344 116.984375 44.871094 117.226562 C 45.214844 117.46875 45.582031 117.65625 45.980469 117.792969 C 46.375 117.933594 46.785156 118.011719 47.203125 118.035156 C 47.625 118.058594 48.039062 118.023438 48.445312 117.929688 C 48.855469 117.835938 49.246094 117.6875 49.613281 117.484375 L 55.773438 114.101562 L 61.914062 117.507812 C 62.28125 117.710938 62.667969 117.859375 63.078125 117.953125 C 63.488281 118.046875 63.902344 118.082031 64.320312 118.058594 C 64.742188 118.035156 65.148438 117.953125 65.546875 117.816406 C 65.941406 117.679688 66.3125 117.488281 66.65625 117.246094 C 67 117.007812 67.300781 116.722656 67.566406 116.394531 C 67.828125 116.066406 68.042969 115.710938 68.207031 115.324219 C 68.367188 114.9375 68.476562 114.535156 68.523438 114.117188 C 68.574219 113.699219 68.566406 113.285156 68.5 112.871094 L 67.265625 105.363281 L 72.421875 100.121094 C 73.003906 99.519531 73.390625 98.808594 73.574219 97.992188 C 73.761719 97.171875 73.71875 96.367188 73.453125 95.574219 C 73.1875 94.777344 72.734375 94.109375 72.09375 93.570312 C 71.453125 93.03125 70.71875 92.695312 69.886719 92.566406 L 62.964844 91.515625 L 59.828125 84.792969 C 59.648438 84.40625 59.417969 84.054688 59.136719 83.734375 C 58.855469 83.417969 58.535156 83.144531 58.175781 82.914062 C 57.816406 82.6875 57.433594 82.515625 57.023438 82.394531 C 56.617188 82.277344 56.199219 82.21875 55.773438 82.21875 C 55.347656 82.21875 54.933594 82.277344 54.523438 82.394531 C 54.113281 82.515625 53.730469 82.6875 53.371094 82.914062 C 53.011719 83.144531 52.691406 83.417969 52.410156 83.734375 C 52.128906 84.054688 51.898438 84.40625 51.71875 84.792969 L 48.582031 91.515625 L 41.660156 92.566406 C 40.832031 92.695312 40.097656 93.03125 39.457031 93.570312 C 38.8125 94.109375 38.359375 94.777344 38.09375 95.574219 C 37.828125 96.367188 37.785156 97.171875 37.972656 97.992188 C 38.160156 98.808594 38.542969 99.519531 39.128906 100.121094 Z M 44.257812 105.339844 " fill-opacity="1" fill-rule="nonzero"/></g><path fill="#000000" d="M 204.222656 207.679688 L 210.585938 216.640625 L 227.007812 216.640625 C 225.644531 213.800781 225.136719 210.8125 225.484375 207.679688 Z M 204.222656 207.679688 " fill-opacity="1" fill-rule="nonzero"/><g clip-path="url(#1a07b35ca4)"><path fill="#000000" d="M 324.625 200.957031 C 324.625 200.148438 324.582031 199.34375 324.503906 198.539062 C 324.425781 197.738281 324.308594 196.9375 324.148438 196.148438 C 323.992188 195.355469 323.796875 194.574219 323.5625 193.800781 C 323.328125 193.027344 323.054688 192.269531 322.746094 191.523438 C 322.4375 190.777344 322.09375 190.046875 321.714844 189.335938 C 321.332031 188.625 320.917969 187.933594 320.46875 187.261719 C 320.023438 186.589844 319.542969 185.941406 319.027344 185.320312 C 318.515625 184.695312 317.976562 184.097656 317.40625 183.527344 C 316.835938 182.957031 316.238281 182.414062 315.613281 181.902344 C 314.988281 181.390625 314.339844 180.910156 313.671875 180.460938 C 313 180.011719 312.308594 179.597656 311.597656 179.21875 C 310.882812 178.835938 310.15625 178.492188 309.410156 178.183594 C 308.664062 177.875 307.90625 177.601562 307.132812 177.367188 C 306.359375 177.132812 305.578125 176.9375 304.785156 176.78125 C 303.996094 176.621094 303.199219 176.503906 302.394531 176.425781 C 301.589844 176.347656 300.785156 176.308594 299.980469 176.308594 C 299.171875 176.308594 298.367188 176.347656 297.5625 176.425781 C 296.761719 176.503906 295.960938 176.621094 295.171875 176.78125 C 294.378906 176.9375 293.597656 177.132812 292.824219 177.367188 C 292.050781 177.601562 291.292969 177.875 290.546875 178.183594 C 289.800781 178.492188 289.074219 178.835938 288.363281 179.21875 C 287.648438 179.597656 286.957031 180.011719 286.285156 180.460938 C 285.617188 180.910156 284.96875 181.390625 284.34375 181.902344 C 283.71875 182.414062 283.125 182.957031 282.550781 183.527344 C 281.980469 184.097656 281.441406 184.695312 280.929688 185.320312 C 280.417969 185.941406 279.9375 186.589844 279.488281 187.261719 C 279.039062 187.933594 278.625 188.625 278.246094 189.335938 C 277.863281 190.046875 277.519531 190.777344 277.210938 191.523438 C 276.902344 192.269531 276.628906 193.027344 276.394531 193.800781 C 276.160156 194.574219 275.964844 195.355469 275.808594 196.148438 C 275.648438 196.9375 275.53125 197.738281 275.453125 198.539062 C 275.375 199.34375 275.335938 200.148438 275.335938 200.957031 C 275.335938 201.761719 275.375 202.570312 275.453125 203.371094 C 275.53125 204.175781 275.648438 204.972656 275.808594 205.765625 C 275.964844 206.554688 276.160156 207.339844 276.394531 208.109375 C 276.628906 208.882812 276.902344 209.644531 277.210938 210.386719 C 277.519531 211.132812 277.863281 211.863281 278.246094 212.574219 C 278.625 213.289062 279.039062 213.980469 279.488281 214.648438 C 279.9375 215.320312 280.417969 215.96875 280.929688 216.59375 C 281.441406 217.21875 281.980469 217.8125 282.550781 218.386719 C 283.125 218.957031 283.71875 219.496094 284.34375 220.007812 C 284.96875 220.523438 285.617188 221.003906 286.285156 221.449219 C 286.957031 221.898438 287.648438 222.3125 288.363281 222.695312 C 289.074219 223.074219 289.800781 223.417969 290.546875 223.726562 C 291.292969 224.039062 292.050781 224.308594 292.824219 224.542969 C 293.597656 224.777344 294.378906 224.972656 295.171875 225.132812 C 295.960938 225.289062 296.761719 225.40625 297.5625 225.484375 C 298.367188 225.566406 299.171875 225.605469 299.980469 225.605469 C 300.785156 225.605469 301.589844 225.566406 302.394531 225.484375 C 303.199219 225.40625 303.996094 225.289062 304.785156 225.132812 C 305.578125 224.972656 306.359375 224.777344 307.132812 224.542969 C 307.90625 224.308594 308.664062 224.039062 309.410156 223.726562 C 310.15625 223.417969 310.882812 223.074219 311.597656 222.695312 C 312.308594 222.3125 313 221.898438 313.671875 221.449219 C 314.339844 221.003906 314.988281 220.523438 315.613281 220.007812 C 316.238281 219.496094 316.835938 218.957031 317.40625 218.386719 C 317.976562 217.8125 318.515625 217.21875 319.027344 216.59375 C 319.542969 215.96875 320.019531 215.320312 320.46875 214.648438 C 320.917969 213.980469 321.332031 213.289062 321.714844 212.574219 C 322.09375 211.863281 322.4375 211.132812 322.746094 210.386719 C 323.054688 209.644531 323.328125 208.882812 323.5625 208.109375 C 323.796875 207.339844 323.992188 206.554688 324.148438 205.765625 C 324.308594 204.972656 324.425781 204.175781 324.503906 203.371094 C 324.582031 202.570312 324.625 201.761719 324.625 200.957031 Z M 299.980469 216.640625 C 298.949219 216.640625 297.929688 216.539062 296.917969 216.339844 C 295.910156 216.140625 294.929688 215.839844 293.976562 215.449219 C 293.027344 215.054688 292.121094 214.570312 291.265625 213.996094 C 290.410156 213.425781 289.617188 212.777344 288.890625 212.046875 C 288.160156 211.320312 287.511719 210.527344 286.9375 209.671875 C 286.367188 208.8125 285.882812 207.910156 285.488281 206.957031 C 285.09375 206.007812 284.796875 205.027344 284.597656 204.015625 C 284.394531 203.003906 284.296875 201.984375 284.296875 200.957031 C 284.296875 199.925781 284.394531 198.90625 284.597656 197.894531 C 284.796875 196.886719 285.09375 195.90625 285.488281 194.953125 C 285.882812 194 286.367188 193.097656 286.9375 192.242188 C 287.511719 191.386719 288.160156 190.59375 288.890625 189.863281 C 289.617188 189.136719 290.410156 188.484375 291.265625 187.914062 C 292.121094 187.339844 293.027344 186.859375 293.976562 186.464844 C 294.929688 186.070312 295.910156 185.773438 296.917969 185.570312 C 297.929688 185.371094 298.949219 185.269531 299.980469 185.269531 C 301.007812 185.269531 302.027344 185.371094 303.039062 185.570312 C 304.046875 185.773438 305.027344 186.070312 305.980469 186.464844 C 306.933594 186.859375 307.835938 187.339844 308.691406 187.914062 C 309.546875 188.484375 310.339844 189.136719 311.066406 189.863281 C 311.796875 190.59375 312.445312 191.386719 313.019531 192.242188 C 313.589844 193.097656 314.074219 194 314.46875 194.953125 C 314.863281 195.90625 315.160156 196.886719 315.359375 197.894531 C 315.5625 198.90625 315.660156 199.925781 315.660156 200.957031 C 315.660156 201.984375 315.5625 203.003906 315.359375 204.015625 C 315.160156 205.027344 314.863281 206.007812 314.46875 206.957031 C 314.074219 207.910156 313.589844 208.8125 313.019531 209.671875 C 312.445312 210.527344 311.796875 211.320312 311.066406 212.046875 C 310.339844 212.777344 309.546875 213.425781 308.691406 213.996094 C 307.835938 214.570312 306.933594 215.054688 305.980469 215.449219 C 305.027344 215.839844 304.046875 216.140625 303.039062 216.339844 C 302.027344 216.539062 301.007812 216.640625 299.980469 216.640625 Z M 299.980469 216.640625 " fill-opacity="1" fill-rule="nonzero"/></g><path fill="#000000" d="M 304.460938 200.957031 C 304.460938 201.25 304.429688 201.542969 304.375 201.832031 C 304.316406 202.117188 304.230469 202.398438 304.117188 202.671875 C 304.007812 202.941406 303.867188 203.199219 303.703125 203.445312 C 303.539062 203.691406 303.355469 203.917969 303.148438 204.125 C 302.9375 204.332031 302.710938 204.519531 302.46875 204.683594 C 302.222656 204.84375 301.964844 204.984375 301.695312 205.097656 C 301.421875 205.207031 301.140625 205.292969 300.851562 205.351562 C 300.5625 205.410156 300.273438 205.4375 299.980469 205.4375 C 299.683594 205.4375 299.394531 205.410156 299.105469 205.351562 C 298.816406 205.292969 298.535156 205.207031 298.265625 205.097656 C 297.992188 204.984375 297.734375 204.84375 297.488281 204.683594 C 297.246094 204.519531 297.019531 204.332031 296.808594 204.125 C 296.601562 203.917969 296.417969 203.691406 296.253906 203.445312 C 296.089844 203.199219 295.953125 202.941406 295.839844 202.671875 C 295.726562 202.398438 295.640625 202.117188 295.585938 201.832031 C 295.527344 201.542969 295.496094 201.25 295.496094 200.957031 C 295.496094 200.660156 295.527344 200.371094 295.585938 200.082031 C 295.640625 199.792969 295.726562 199.511719 295.839844 199.242188 C 295.953125 198.96875 296.089844 198.710938 296.253906 198.464844 C 296.417969 198.222656 296.601562 197.996094 296.808594 197.785156 C 297.019531 197.578125 297.246094 197.394531 297.488281 197.230469 C 297.734375 197.066406 297.992188 196.929688 298.265625 196.816406 C 298.535156 196.703125 298.816406 196.617188 299.105469 196.558594 C 299.394531 196.503906 299.683594 196.472656 299.980469 196.472656 C 300.273438 196.472656 300.5625 196.503906 300.851562 196.558594 C 301.140625 196.617188 301.421875 196.703125 301.695312 196.816406 C 301.964844 196.929688 302.222656 197.066406 302.46875 197.230469 C 302.710938 197.394531 302.9375 197.578125 303.148438 197.785156 C 303.355469 197.996094 303.539062 198.222656 303.703125 198.464844 C 303.867188 198.710938 304.007812 198.96875 304.117188 199.242188 C 304.230469 199.511719 304.316406 199.792969 304.375 200.082031 C 304.429688 200.371094 304.460938 200.660156 304.460938 200.957031 Z M 304.460938 200.957031 " fill-opacity="1" fill-rule="nonzero"/><g clip-path="url(#ff5d814823)"><path fill="#000000" d="M 280.488281 225.605469 L 275.804688 225.605469 L 296.886719 297.3125 L 65.585938 297.3125 L 88.6875 218.746094 C 88.960938 218.191406 89.347656 217.726562 89.84375 217.355469 C 90.339844 216.984375 90.898438 216.746094 91.507812 216.640625 L 125.226562 216.640625 L 131.949219 207.679688 L 91.621094 207.679688 C 90.347656 207.730469 89.109375 207.972656 87.910156 208.398438 C 86.710938 208.824219 85.601562 209.421875 84.582031 210.1875 C 83.558594 210.949219 82.675781 211.847656 81.929688 212.878906 C 81.179688 213.910156 80.601562 215.03125 80.195312 216.238281 L 77.328125 225.605469 L 55.773438 225.605469 C 55.480469 225.605469 55.1875 225.632812 54.898438 225.691406 C 54.609375 225.75 54.332031 225.832031 54.058594 225.945312 C 53.789062 226.058594 53.527344 226.195312 53.285156 226.359375 C 53.039062 226.523438 52.8125 226.710938 52.605469 226.917969 C 52.398438 227.125 52.210938 227.351562 52.046875 227.597656 C 51.886719 227.839844 51.746094 228.097656 51.632812 228.371094 C 51.523438 228.644531 51.4375 228.921875 51.378906 229.210938 C 51.320312 229.5 51.292969 229.792969 51.292969 230.085938 C 51.292969 230.378906 51.320312 230.671875 51.378906 230.960938 C 51.4375 231.25 51.523438 231.53125 51.632812 231.800781 C 51.746094 232.074219 51.886719 232.332031 52.046875 232.574219 C 52.210938 232.820312 52.398438 233.046875 52.605469 233.253906 C 52.8125 233.464844 53.039062 233.648438 53.285156 233.8125 C 53.527344 233.976562 53.789062 234.113281 54.058594 234.226562 C 54.332031 234.339844 54.609375 234.425781 54.898438 234.480469 C 55.1875 234.539062 55.480469 234.566406 55.773438 234.566406 L 74.683594 234.566406 L 72.039062 243.53125 L 51.292969 243.53125 C 51 243.53125 50.707031 243.558594 50.417969 243.617188 C 50.128906 243.675781 49.851562 243.757812 49.578125 243.871094 C 49.308594 243.984375 49.046875 244.121094 48.804688 244.285156 C 48.558594 244.449219 48.332031 244.636719 48.125 244.84375 C 47.917969 245.050781 47.730469 245.277344 47.566406 245.523438 C 47.402344 245.769531 47.265625 246.027344 47.152344 246.296875 C 47.039062 246.570312 46.957031 246.851562 46.898438 247.136719 C 46.839844 247.425781 46.8125 247.71875 46.8125 248.011719 C 46.8125 248.308594 46.839844 248.597656 46.898438 248.886719 C 46.957031 249.175781 47.039062 249.457031 47.152344 249.726562 C 47.265625 250 47.402344 250.257812 47.566406 250.503906 C 47.730469 250.746094 47.917969 250.972656 48.125 251.183594 C 48.332031 251.390625 48.558594 251.574219 48.804688 251.738281 C 49.046875 251.902344 49.308594 252.039062 49.578125 252.152344 C 49.851562 252.265625 50.128906 252.351562 50.417969 252.410156 C 50.707031 252.464844 51 252.496094 51.292969 252.496094 L 69.417969 252.496094 L 66.773438 261.457031 L 46.8125 261.457031 C 46.519531 261.457031 46.226562 261.488281 45.9375 261.542969 C 45.648438 261.601562 45.371094 261.6875 45.097656 261.796875 C 44.824219 261.910156 44.566406 262.050781 44.324219 262.214844 C 44.078125 262.375 43.851562 262.5625 43.644531 262.769531 C 43.4375 262.976562 43.25 263.203125 43.085938 263.449219 C 42.921875 263.695312 42.785156 263.953125 42.671875 264.222656 C 42.558594 264.496094 42.476562 264.777344 42.417969 265.066406 C 42.359375 265.355469 42.332031 265.644531 42.332031 265.9375 C 42.332031 266.234375 42.359375 266.523438 42.417969 266.8125 C 42.476562 267.101562 42.558594 267.382812 42.671875 267.65625 C 42.785156 267.925781 42.921875 268.183594 43.085938 268.429688 C 43.25 268.671875 43.4375 268.898438 43.644531 269.109375 C 43.851562 269.316406 44.078125 269.503906 44.324219 269.664062 C 44.566406 269.828125 44.824219 269.96875 45.097656 270.078125 C 45.371094 270.191406 45.648438 270.277344 45.9375 270.335938 C 46.226562 270.390625 46.519531 270.421875 46.8125 270.421875 L 64.152344 270.421875 L 61.507812 279.382812 L 42.332031 279.382812 C 42.039062 279.382812 41.746094 279.414062 41.457031 279.46875 C 41.167969 279.527344 40.886719 279.613281 40.617188 279.726562 C 40.34375 279.835938 40.085938 279.976562 39.84375 280.140625 C 39.597656 280.304688 39.371094 280.488281 39.164062 280.695312 C 38.957031 280.90625 38.769531 281.132812 38.605469 281.375 C 38.441406 281.621094 38.304688 281.878906 38.191406 282.152344 C 38.078125 282.421875 37.996094 282.703125 37.9375 282.992188 C 37.878906 283.28125 37.851562 283.570312 37.851562 283.867188 C 37.851562 284.160156 37.878906 284.453125 37.9375 284.738281 C 37.996094 285.027344 38.078125 285.308594 38.191406 285.582031 C 38.304688 285.851562 38.441406 286.109375 38.605469 286.355469 C 38.769531 286.601562 38.957031 286.828125 39.164062 287.035156 C 39.371094 287.242188 39.597656 287.429688 39.84375 287.59375 C 40.085938 287.753906 40.34375 287.894531 40.617188 288.007812 C 40.886719 288.117188 41.167969 288.203125 41.457031 288.261719 C 41.746094 288.320312 42.039062 288.347656 42.332031 288.347656 L 58.886719 288.347656 L 56.132812 297.714844 C 56.035156 297.960938 55.957031 298.214844 55.890625 298.472656 C 55.828125 298.730469 55.78125 298.988281 55.75 299.253906 C 55.71875 299.515625 55.703125 299.78125 55.703125 300.046875 C 55.707031 300.3125 55.726562 300.574219 55.761719 300.839844 C 55.796875 301.101562 55.847656 301.363281 55.917969 301.617188 C 55.984375 301.875 56.070312 302.125 56.167969 302.371094 C 56.269531 302.617188 56.382812 302.855469 56.515625 303.085938 C 56.644531 303.320312 56.789062 303.539062 56.949219 303.753906 C 57.105469 303.964844 57.277344 304.167969 57.460938 304.359375 C 57.644531 304.550781 57.839844 304.730469 58.046875 304.898438 C 58.253906 305.0625 58.46875 305.214844 58.695312 305.355469 C 58.921875 305.496094 59.15625 305.621094 59.394531 305.730469 C 59.636719 305.839844 59.886719 305.933594 60.140625 306.011719 C 60.390625 306.089844 60.648438 306.152344 60.910156 306.199219 C 61.171875 306.246094 61.4375 306.273438 61.699219 306.285156 C 61.964844 306.300781 62.230469 306.292969 62.496094 306.273438 L 299.980469 306.273438 C 300.246094 306.296875 300.511719 306.304688 300.777344 306.292969 C 301.042969 306.28125 301.308594 306.253906 301.570312 306.210938 C 301.832031 306.164062 302.089844 306.105469 302.347656 306.027344 C 302.601562 305.949219 302.851562 305.855469 303.09375 305.746094 C 303.335938 305.636719 303.570312 305.515625 303.800781 305.375 C 304.027344 305.238281 304.246094 305.085938 304.453125 304.917969 C 304.660156 304.75 304.855469 304.574219 305.042969 304.382812 C 305.226562 304.191406 305.402344 303.988281 305.558594 303.773438 C 305.71875 303.5625 305.867188 303.339844 305.996094 303.105469 C 306.128906 302.875 306.246094 302.636719 306.34375 302.390625 C 306.445312 302.144531 306.53125 301.890625 306.601562 301.632812 C 306.667969 301.375 306.722656 301.117188 306.757812 300.851562 C 306.792969 300.585938 306.8125 300.320312 306.816406 300.054688 C 306.816406 299.789062 306.804688 299.523438 306.773438 299.257812 C 306.742188 298.996094 306.691406 298.734375 306.628906 298.472656 C 306.5625 298.214844 306.484375 297.960938 306.386719 297.714844 L 303.585938 288.347656 L 320.140625 288.347656 C 320.4375 288.347656 320.726562 288.320312 321.015625 288.261719 C 321.304688 288.203125 321.585938 288.117188 321.855469 288.007812 C 322.128906 287.894531 322.386719 287.753906 322.632812 287.59375 C 322.875 287.429688 323.101562 287.242188 323.3125 287.035156 C 323.519531 286.828125 323.703125 286.601562 323.867188 286.355469 C 324.03125 286.109375 324.167969 285.851562 324.28125 285.582031 C 324.394531 285.308594 324.480469 285.027344 324.539062 284.738281 C 324.59375 284.453125 324.625 284.160156 324.625 283.867188 C 324.625 283.570312 324.59375 283.28125 324.539062 282.992188 C 324.480469 282.703125 324.394531 282.421875 324.28125 282.152344 C 324.167969 281.878906 324.03125 281.621094 323.867188 281.375 C 323.703125 281.132812 323.519531 280.90625 323.3125 280.695312 C 323.101562 280.488281 322.875 280.304688 322.632812 280.140625 C 322.386719 279.976562 322.128906 279.835938 321.855469 279.726562 C 321.585938 279.613281 321.304688 279.527344 321.015625 279.46875 C 320.726562 279.414062 320.4375 279.382812 320.140625 279.382812 L 300.964844 279.382812 L 298.320312 270.421875 L 315.660156 270.421875 C 315.957031 270.421875 316.246094 270.390625 316.535156 270.335938 C 316.824219 270.277344 317.105469 270.191406 317.375 270.078125 C 317.648438 269.96875 317.90625 269.828125 318.152344 269.664062 C 318.394531 269.503906 318.621094 269.316406 318.828125 269.109375 C 319.039062 268.898438 319.222656 268.671875 319.386719 268.429688 C 319.550781 268.183594 319.6875 267.925781 319.800781 267.65625 C 319.914062 267.382812 320 267.101562 320.054688 266.8125 C 320.113281 266.523438 320.140625 266.234375 320.140625 265.9375 C 320.140625 265.644531 320.113281 265.355469 320.054688 265.066406 C 320 264.777344 319.914062 264.496094 319.800781 264.222656 C 319.6875 263.953125 319.550781 263.695312 319.386719 263.449219 C 319.222656 263.203125 319.039062 262.976562 318.828125 262.769531 C 318.621094 262.5625 318.394531 262.375 318.152344 262.214844 C 317.90625 262.050781 317.648438 261.910156 317.375 261.796875 C 317.105469 261.6875 316.824219 261.601562 316.535156 261.542969 C 316.246094 261.488281 315.957031 261.457031 315.660156 261.457031 L 295.699219 261.457031 L 293.054688 252.496094 L 311.179688 252.496094 C 311.476562 252.496094 311.765625 252.464844 312.054688 252.410156 C 312.34375 252.351562 312.625 252.265625 312.894531 252.152344 C 313.167969 252.039062 313.425781 251.902344 313.671875 251.738281 C 313.914062 251.574219 314.140625 251.390625 314.347656 251.183594 C 314.558594 250.972656 314.742188 250.746094 314.90625 250.503906 C 315.070312 250.257812 315.207031 250 315.320312 249.726562 C 315.433594 249.457031 315.519531 249.175781 315.574219 248.886719 C 315.632812 248.597656 315.660156 248.308594 315.660156 248.011719 C 315.660156 247.71875 315.632812 247.425781 315.574219 247.136719 C 315.519531 246.851562 315.433594 246.570312 315.320312 246.296875 C 315.207031 246.027344 315.070312 245.769531 314.90625 245.523438 C 314.742188 245.277344 314.558594 245.050781 314.347656 244.84375 C 314.140625 244.636719 313.914062 244.449219 313.671875 244.285156 C 313.425781 244.121094 313.167969 243.984375 312.894531 243.871094 C 312.625 243.757812 312.34375 243.675781 312.054688 243.617188 C 311.765625 243.558594 311.476562 243.53125 311.179688 243.53125 L 290.414062 243.53125 L 287.769531 234.566406 L 306.699219 234.566406 C 306.996094 234.566406 307.285156 234.539062 307.574219 234.480469 C 307.863281 234.425781 308.144531 234.339844 308.414062 234.226562 C 308.6875 234.113281 308.945312 233.976562 309.1875 233.8125 C 309.433594 233.648438 309.660156 233.464844 309.867188 233.253906 C 310.078125 233.046875 310.261719 232.820312 310.425781 232.574219 C 310.589844 232.332031 310.726562 232.074219 310.839844 231.800781 C 310.953125 231.53125 311.039062 231.25 311.09375 230.960938 C 311.152344 230.671875 311.179688 230.378906 311.179688 230.085938 C 311.179688 229.792969 311.152344 229.5 311.09375 229.210938 C 311.039062 228.921875 310.953125 228.644531 310.839844 228.371094 C 310.726562 228.097656 310.589844 227.839844 310.425781 227.597656 C 310.261719 227.351562 310.078125 227.125 309.867188 226.917969 C 309.660156 226.710938 309.433594 226.523438 309.1875 226.359375 C 308.945312 226.195312 308.6875 226.058594 308.414062 225.945312 C 308.144531 225.832031 307.863281 225.75 307.574219 225.691406 C 307.285156 225.632812 306.996094 225.605469 306.699219 225.605469 Z M 280.488281 225.605469 " fill-opacity="1" fill-rule="nonzero"/></g><g clip-path="url(#b9be4293ce)"><path fill="#000000" d="M 127.9375 232.082031 C 128.316406 232.84375 128.867188 233.445312 129.589844 233.894531 C 130.3125 234.34375 131.097656 234.566406 131.949219 234.566406 L 203.640625 234.566406 C 204.480469 234.566406 205.257812 234.351562 205.972656 233.914062 C 206.691406 233.476562 207.242188 232.886719 207.625 232.140625 C 208.007812 231.394531 208.171875 230.605469 208.113281 229.765625 C 208.050781 228.929688 207.78125 228.171875 207.292969 227.488281 L 194.835938 209.917969 L 194.835938 194.234375 C 194.835938 193.9375 194.808594 193.648438 194.75 193.359375 C 194.691406 193.070312 194.609375 192.789062 194.496094 192.519531 C 194.382812 192.246094 194.246094 191.988281 194.082031 191.742188 C 193.917969 191.5 193.730469 191.273438 193.523438 191.0625 C 193.316406 190.855469 193.089844 190.671875 192.84375 190.507812 C 192.601562 190.34375 192.34375 190.207031 192.070312 190.09375 C 191.796875 189.980469 191.519531 189.894531 191.230469 189.835938 C 190.941406 189.78125 190.648438 189.75 190.355469 189.75 L 172.273438 189.75 L 172.273438 93.261719 C 172.273438 92.980469 172.300781 92.699219 172.355469 92.421875 C 172.40625 92.144531 172.488281 91.871094 172.59375 91.609375 C 172.699219 91.347656 172.832031 91.097656 172.988281 90.863281 C 173.140625 90.625 173.320312 90.40625 173.519531 90.207031 C 173.714844 90.003906 173.933594 89.824219 174.167969 89.664062 C 174.402344 89.503906 174.648438 89.371094 174.910156 89.257812 C 175.167969 89.148438 175.4375 89.0625 175.714844 89.007812 C 175.992188 88.949219 176.273438 88.917969 176.554688 88.914062 L 201.199219 88.914062 C 201.480469 88.917969 201.761719 88.949219 202.039062 89.007812 C 202.316406 89.0625 202.585938 89.148438 202.84375 89.257812 C 203.105469 89.371094 203.351562 89.503906 203.585938 89.664062 C 203.820312 89.824219 204.035156 90.003906 204.234375 90.207031 C 204.433594 90.40625 204.609375 90.625 204.765625 90.863281 C 204.921875 91.097656 205.054688 91.347656 205.160156 91.609375 C 205.265625 91.871094 205.347656 92.144531 205.398438 92.421875 C 205.453125 92.699219 205.480469 92.980469 205.476562 93.261719 L 205.476562 112.019531 C 205.476562 112.605469 205.535156 113.1875 205.652344 113.765625 C 205.765625 114.34375 205.933594 114.90625 206.160156 115.449219 C 206.386719 115.992188 206.660156 116.507812 206.988281 116.996094 C 207.316406 117.488281 207.6875 117.941406 208.101562 118.355469 C 208.519531 118.773438 208.972656 119.144531 209.460938 119.46875 C 209.949219 119.796875 210.464844 120.074219 211.011719 120.300781 C 211.554688 120.523438 212.113281 120.695312 212.691406 120.808594 C 213.269531 120.925781 213.851562 120.980469 214.441406 120.980469 L 223.804688 120.980469 C 223.847656 121.539062 223.941406 122.089844 224.089844 122.628906 C 224.234375 123.171875 224.433594 123.695312 224.675781 124.199219 C 224.921875 124.703125 225.210938 125.179688 225.542969 125.628906 C 225.878906 126.078125 226.25 126.496094 226.664062 126.875 C 227.074219 127.253906 227.519531 127.59375 227.992188 127.890625 C 228.46875 128.1875 228.96875 128.4375 229.488281 128.640625 C 230.011719 128.84375 230.546875 128.996094 231.101562 129.097656 C 231.652344 129.199219 232.207031 129.25 232.765625 129.25 L 241.929688 129.25 L 233.707031 207.679688 C 233.632812 208.246094 233.617188 208.8125 233.664062 209.382812 C 233.710938 209.953125 233.816406 210.511719 233.984375 211.058594 C 234.152344 211.601562 234.378906 212.125 234.660156 212.625 C 234.941406 213.121094 235.269531 213.582031 235.652344 214.007812 C 236.035156 214.433594 236.457031 214.816406 236.917969 215.148438 C 237.382812 215.484375 237.878906 215.765625 238.402344 215.992188 C 238.925781 216.21875 239.46875 216.386719 240.03125 216.496094 C 240.589844 216.605469 241.15625 216.65625 241.726562 216.640625 L 270.269531 216.640625 C 269.441406 215.0625 268.742188 213.429688 268.171875 211.742188 C 267.601562 210.054688 267.167969 208.332031 266.871094 206.574219 C 266.574219 204.816406 266.417969 203.046875 266.40625 201.265625 C 266.390625 199.484375 266.515625 197.710938 266.78125 195.949219 C 267.050781 194.1875 267.453125 192.457031 267.996094 190.757812 C 268.539062 189.0625 269.210938 187.417969 270.015625 185.828125 C 270.820312 184.234375 271.742188 182.71875 272.789062 181.273438 C 273.832031 179.832031 274.988281 178.480469 276.246094 177.21875 C 277.507812 175.957031 278.859375 174.804688 280.300781 173.761719 C 281.746094 172.714844 283.261719 171.792969 284.851562 170.988281 C 286.441406 170.183594 288.085938 169.511719 289.785156 168.96875 C 291.480469 168.425781 293.210938 168.019531 294.972656 167.753906 C 296.734375 167.488281 298.507812 167.359375 300.289062 167.375 C 302.070312 167.390625 303.839844 167.546875 305.597656 167.84375 C 307.351562 168.136719 309.074219 168.570312 310.765625 169.140625 C 312.453125 169.710938 314.085938 170.414062 315.660156 171.242188 L 315.660156 77.710938 C 315.660156 77.121094 315.605469 76.539062 315.488281 75.960938 C 315.375 75.386719 315.203125 74.824219 314.980469 74.28125 C 314.753906 73.738281 314.476562 73.222656 314.152344 72.730469 C 313.824219 72.242188 313.453125 71.789062 313.035156 71.375 C 312.621094 70.957031 312.167969 70.585938 311.679688 70.257812 C 311.191406 69.929688 310.671875 69.65625 310.128906 69.429688 C 309.585938 69.203125 309.027344 69.035156 308.449219 68.921875 C 307.871094 68.804688 307.289062 68.746094 306.699219 68.746094 L 257.253906 68.746094 C 256.644531 68.761719 256.042969 68.828125 255.449219 68.949219 C 254.851562 69.070312 254.269531 69.242188 253.703125 69.46875 C 253.140625 69.691406 252.597656 69.964844 252.082031 70.285156 C 251.566406 70.609375 251.082031 70.972656 250.628906 71.382812 C 250.179688 71.789062 249.769531 72.234375 249.398438 72.71875 C 249.027344 73.199219 248.699219 73.710938 248.421875 74.25 C 248.140625 74.789062 247.910156 75.351562 247.730469 75.933594 C 247.550781 76.515625 247.425781 77.105469 247.351562 77.710938 L 244.753906 102.359375 L 232.765625 102.359375 C 232.179688 102.359375 231.59375 102.417969 231.019531 102.53125 C 230.441406 102.648438 229.878906 102.816406 229.335938 103.042969 C 228.792969 103.269531 228.277344 103.542969 227.789062 103.871094 C 227.296875 104.199219 226.84375 104.570312 226.429688 104.984375 C 226.011719 105.402344 225.640625 105.855469 225.316406 106.34375 C 224.988281 106.832031 224.710938 107.347656 224.488281 107.894531 C 224.261719 108.4375 224.089844 108.996094 223.976562 109.574219 C 223.863281 110.152344 223.804688 110.734375 223.804688 111.324219 L 223.804688 111.996094 L 214.417969 111.996094 L 214.417969 93.261719 C 214.417969 92.390625 214.335938 91.527344 214.167969 90.671875 C 214 89.816406 213.75 88.988281 213.417969 88.179688 C 213.085938 87.375 212.679688 86.609375 212.195312 85.882812 C 211.714844 85.15625 211.164062 84.484375 210.550781 83.867188 C 209.933594 83.25 209.265625 82.699219 208.542969 82.210938 C 207.820312 81.726562 207.054688 81.3125 206.253906 80.976562 C 205.449219 80.644531 204.617188 80.386719 203.765625 80.214844 C 202.910156 80.042969 202.046875 79.953125 201.175781 79.953125 L 176.53125 79.953125 C 175.660156 79.957031 174.800781 80.046875 173.945312 80.21875 C 173.09375 80.394531 172.265625 80.648438 171.464844 80.984375 C 170.660156 81.320312 169.898438 81.734375 169.175781 82.21875 C 168.453125 82.707031 167.785156 83.257812 167.171875 83.875 C 166.558594 84.492188 166.011719 85.164062 165.53125 85.890625 C 165.050781 86.617188 164.644531 87.378906 164.3125 88.1875 C 163.980469 88.992188 163.730469 89.820312 163.5625 90.675781 C 163.394531 91.53125 163.3125 92.390625 163.3125 93.261719 L 163.3125 189.75 L 145.972656 189.75 C 145.679688 189.75 145.386719 189.78125 145.097656 189.835938 C 144.808594 189.894531 144.53125 189.980469 144.257812 190.09375 C 143.988281 190.207031 143.726562 190.34375 143.484375 190.507812 C 143.238281 190.671875 143.011719 190.855469 142.804688 191.0625 C 142.597656 191.273438 142.410156 191.5 142.246094 191.742188 C 142.082031 191.988281 141.945312 192.246094 141.832031 192.519531 C 141.71875 192.789062 141.636719 193.070312 141.578125 193.359375 C 141.519531 193.648438 141.492188 193.9375 141.492188 194.234375 L 141.492188 209.917969 L 128.363281 227.398438 C 127.855469 228.074219 127.5625 228.835938 127.488281 229.679688 C 127.410156 230.523438 127.5625 231.324219 127.9375 232.082031 Z M 291.015625 144.933594 C 291.015625 145.230469 290.988281 145.519531 290.929688 145.808594 C 290.875 146.097656 290.789062 146.378906 290.675781 146.652344 C 290.5625 146.921875 290.425781 147.179688 290.261719 147.425781 C 290.097656 147.671875 289.914062 147.894531 289.703125 148.105469 C 289.496094 148.3125 289.269531 148.5 289.027344 148.660156 C 288.78125 148.824219 288.523438 148.964844 288.25 149.074219 C 287.980469 149.1875 287.699219 149.273438 287.410156 149.332031 C 287.121094 149.386719 286.832031 149.417969 286.535156 149.417969 C 286.242188 149.417969 285.949219 149.386719 285.664062 149.332031 C 285.375 149.273438 285.09375 149.1875 284.820312 149.074219 C 284.550781 148.964844 284.292969 148.824219 284.046875 148.660156 C 283.800781 148.5 283.574219 148.3125 283.367188 148.105469 C 283.160156 147.894531 282.972656 147.671875 282.8125 147.425781 C 282.648438 147.179688 282.507812 146.921875 282.398438 146.652344 C 282.285156 146.378906 282.199219 146.097656 282.140625 145.808594 C 282.085938 145.519531 282.054688 145.230469 282.054688 144.933594 L 282.054688 118.046875 C 282.054688 117.75 282.085938 117.460938 282.140625 117.171875 C 282.199219 116.882812 282.285156 116.601562 282.398438 116.332031 C 282.507812 116.058594 282.648438 115.800781 282.8125 115.554688 C 282.972656 115.3125 283.160156 115.085938 283.367188 114.875 C 283.574219 114.667969 283.800781 114.484375 284.046875 114.320312 C 284.292969 114.15625 284.550781 114.019531 284.820312 113.90625 C 285.09375 113.792969 285.375 113.707031 285.664062 113.648438 C 285.949219 113.59375 286.242188 113.5625 286.535156 113.5625 C 286.832031 113.5625 287.121094 113.59375 287.410156 113.648438 C 287.699219 113.707031 287.980469 113.792969 288.25 113.90625 C 288.523438 114.019531 288.78125 114.15625 289.027344 114.320312 C 289.269531 114.484375 289.496094 114.667969 289.703125 114.875 C 289.914062 115.085938 290.097656 115.3125 290.261719 115.554688 C 290.425781 115.800781 290.5625 116.058594 290.675781 116.332031 C 290.789062 116.601562 290.875 116.882812 290.929688 117.171875 C 290.988281 117.460938 291.015625 117.75 291.015625 118.046875 Z M 282.054688 95.636719 L 291.015625 95.636719 C 291.3125 95.636719 291.601562 95.667969 291.890625 95.722656 C 292.179688 95.78125 292.460938 95.867188 292.730469 95.980469 C 293.003906 96.089844 293.261719 96.230469 293.507812 96.394531 C 293.75 96.554688 293.976562 96.742188 294.183594 96.949219 C 294.394531 97.160156 294.578125 97.386719 294.742188 97.628906 C 294.90625 97.875 295.042969 98.132812 295.15625 98.402344 C 295.269531 98.675781 295.355469 98.957031 295.410156 99.246094 C 295.46875 99.535156 295.496094 99.824219 295.496094 100.121094 C 295.496094 100.414062 295.46875 100.703125 295.410156 100.992188 C 295.355469 101.28125 295.269531 101.5625 295.15625 101.835938 C 295.042969 102.105469 294.90625 102.363281 294.742188 102.609375 C 294.578125 102.855469 294.394531 103.082031 294.183594 103.289062 C 293.976562 103.496094 293.75 103.683594 293.507812 103.84375 C 293.261719 104.007812 293.003906 104.148438 292.730469 104.261719 C 292.460938 104.371094 292.179688 104.457031 291.890625 104.515625 C 291.601562 104.570312 291.3125 104.601562 291.015625 104.601562 L 282.054688 104.601562 C 281.761719 104.601562 281.46875 104.570312 281.179688 104.515625 C 280.894531 104.457031 280.613281 104.371094 280.339844 104.261719 C 280.070312 104.148438 279.8125 104.007812 279.566406 103.84375 C 279.320312 103.683594 279.09375 103.496094 278.886719 103.289062 C 278.679688 103.082031 278.492188 102.855469 278.328125 102.609375 C 278.167969 102.363281 278.027344 102.105469 277.914062 101.835938 C 277.804688 101.5625 277.71875 101.28125 277.660156 100.992188 C 277.601562 100.703125 277.574219 100.414062 277.574219 100.121094 C 277.574219 99.824219 277.601562 99.535156 277.660156 99.246094 C 277.71875 98.957031 277.804688 98.675781 277.914062 98.402344 C 278.027344 98.132812 278.167969 97.875 278.328125 97.628906 C 278.492188 97.386719 278.679688 97.160156 278.886719 96.949219 C 279.09375 96.742188 279.320312 96.554688 279.566406 96.394531 C 279.8125 96.230469 280.070312 96.089844 280.339844 95.980469 C 280.613281 95.867188 280.894531 95.78125 281.179688 95.722656 C 281.46875 95.667969 281.761719 95.636719 282.054688 95.636719 Z M 232.765625 111.324219 L 243.8125 111.324219 L 242.871094 120.285156 L 232.765625 120.285156 Z M 149.492188 214.132812 L 173.957031 214.132812 C 174.25 214.132812 174.542969 214.101562 174.828125 214.046875 C 175.117188 213.988281 175.398438 213.902344 175.671875 213.789062 C 175.941406 213.679688 176.199219 213.539062 176.445312 213.375 C 176.691406 213.214844 176.917969 213.027344 177.125 212.820312 C 177.332031 212.609375 177.519531 212.382812 177.679688 212.140625 C 177.84375 211.894531 177.984375 211.636719 178.09375 211.363281 C 178.207031 211.09375 178.292969 210.8125 178.351562 210.523438 C 178.40625 210.234375 178.4375 209.945312 178.4375 209.648438 C 178.4375 209.355469 178.40625 209.0625 178.351562 208.777344 C 178.292969 208.488281 178.207031 208.207031 178.09375 207.933594 C 177.984375 207.664062 177.84375 207.40625 177.679688 207.160156 C 177.519531 206.914062 177.332031 206.6875 177.125 206.480469 C 176.917969 206.273438 176.691406 206.085938 176.445312 205.921875 C 176.199219 205.761719 175.941406 205.621094 175.671875 205.507812 C 175.398438 205.398438 175.117188 205.3125 174.828125 205.253906 C 174.542969 205.195312 174.25 205.167969 173.957031 205.167969 L 150.453125 205.167969 L 150.453125 198.714844 L 185.875 198.714844 L 185.875 211.351562 C 185.875 212.308594 186.152344 213.175781 186.703125 213.953125 L 194.972656 225.605469 L 140.910156 225.605469 Z M 149.492188 214.132812 " fill-opacity="1" fill-rule="nonzero"/></g><path fill="#000000" d="M 108.828125 227.84375 C 108.0625 227.871094 107.316406 228.003906 106.59375 228.253906 C 105.871094 228.5 105.199219 228.847656 104.578125 229.300781 C 103.960938 229.75 103.421875 230.277344 102.960938 230.890625 C 102.5 231.503906 102.140625 232.167969 101.882812 232.886719 L 87.339844 281.042969 C 87.226562 281.34375 87.152344 281.652344 87.113281 281.96875 C 87.078125 282.289062 87.085938 282.605469 87.128906 282.925781 C 87.175781 283.242188 87.261719 283.550781 87.386719 283.84375 C 87.511719 284.140625 87.671875 284.414062 87.867188 284.667969 C 88.0625 284.921875 88.289062 285.148438 88.542969 285.34375 C 88.796875 285.542969 89.070312 285.703125 89.367188 285.828125 C 89.660156 285.953125 89.96875 286.042969 90.285156 286.089844 C 90.601562 286.136719 90.921875 286.140625 91.238281 286.105469 L 271.234375 286.105469 C 271.550781 286.140625 271.867188 286.132812 272.183594 286.085938 C 272.5 286.039062 272.804688 285.953125 273.097656 285.828125 C 273.394531 285.703125 273.667969 285.542969 273.917969 285.347656 C 274.171875 285.152344 274.394531 284.925781 274.589844 284.675781 C 274.785156 284.421875 274.949219 284.148438 275.074219 283.855469 C 275.199219 283.5625 275.285156 283.257812 275.332031 282.941406 C 275.378906 282.625 275.386719 282.308594 275.351562 281.988281 C 275.320312 281.671875 275.246094 281.363281 275.132812 281.066406 L 260.570312 232.886719 C 260.3125 232.167969 259.953125 231.503906 259.492188 230.894531 C 259.035156 230.285156 258.5 229.753906 257.882812 229.304688 C 257.265625 228.855469 256.59375 228.507812 255.875 228.257812 C 255.152344 228.007812 254.410156 227.871094 253.648438 227.84375 L 216.882812 227.84375 C 217.128906 229.277344 217.144531 230.714844 216.925781 232.152344 C 216.707031 233.589844 216.265625 234.953125 215.605469 236.25 C 215.605469 236.449219 215.382812 236.605469 215.269531 236.808594 L 242.757812 236.808594 L 181.238281 251.082031 L 148.707031 243.53125 L 131.949219 243.53125 C 130.789062 243.527344 129.648438 243.375 128.53125 243.078125 C 127.410156 242.78125 126.347656 242.34375 125.339844 241.769531 C 124.335938 241.199219 123.417969 240.507812 122.589844 239.695312 C 121.761719 238.886719 121.050781 237.984375 120.453125 236.988281 L 119.714844 236.808594 L 120.34375 236.808594 C 120.207031 236.5625 120.050781 236.359375 119.917969 236.113281 C 119.285156 234.835938 118.867188 233.488281 118.664062 232.074219 C 118.460938 230.660156 118.484375 229.25 118.730469 227.84375 Z M 241.726562 252.496094 L 243.96875 252.496094 C 244.261719 252.496094 244.554688 252.523438 244.84375 252.582031 C 245.132812 252.636719 245.410156 252.722656 245.683594 252.835938 C 245.953125 252.949219 246.214844 253.085938 246.457031 253.25 C 246.703125 253.414062 246.929688 253.597656 247.136719 253.808594 C 247.34375 254.015625 247.53125 254.242188 247.695312 254.484375 C 247.859375 254.730469 247.996094 254.988281 248.109375 255.261719 C 248.222656 255.53125 248.304688 255.8125 248.363281 256.101562 C 248.421875 256.390625 248.449219 256.683594 248.449219 256.976562 C 248.449219 257.269531 248.421875 257.5625 248.363281 257.851562 C 248.304688 258.140625 248.222656 258.417969 248.109375 258.691406 C 247.996094 258.964844 247.859375 259.222656 247.695312 259.464844 C 247.53125 259.710938 247.34375 259.9375 247.136719 260.144531 C 246.929688 260.351562 246.703125 260.539062 246.457031 260.703125 C 246.214844 260.867188 245.953125 261.003906 245.683594 261.117188 C 245.410156 261.230469 245.132812 261.3125 244.84375 261.371094 C 244.554688 261.429688 244.261719 261.457031 243.96875 261.457031 L 241.726562 261.457031 C 241.433594 261.457031 241.140625 261.429688 240.855469 261.371094 C 240.566406 261.3125 240.285156 261.230469 240.011719 261.117188 C 239.742188 261.003906 239.484375 260.867188 239.238281 260.703125 C 238.992188 260.539062 238.769531 260.351562 238.558594 260.144531 C 238.351562 259.9375 238.164062 259.710938 238.003906 259.464844 C 237.839844 259.222656 237.699219 258.964844 237.589844 258.691406 C 237.476562 258.417969 237.390625 258.140625 237.332031 257.851562 C 237.277344 257.5625 237.246094 257.269531 237.246094 256.976562 C 237.246094 256.683594 237.277344 256.390625 237.332031 256.101562 C 237.390625 255.8125 237.476562 255.53125 237.589844 255.261719 C 237.699219 254.988281 237.839844 254.730469 238.003906 254.484375 C 238.164062 254.242188 238.351562 254.015625 238.558594 253.808594 C 238.769531 253.597656 238.992188 253.414062 239.238281 253.25 C 239.484375 253.085938 239.742188 252.949219 240.011719 252.835938 C 240.285156 252.722656 240.566406 252.636719 240.855469 252.582031 C 241.140625 252.523438 241.433594 252.496094 241.726562 252.496094 Z M 181.238281 260.269531 L 253.960938 277.144531 L 108.511719 277.144531 Z M 120.746094 252.496094 C 121.039062 252.496094 121.332031 252.523438 121.621094 252.582031 C 121.910156 252.636719 122.1875 252.722656 122.460938 252.835938 C 122.734375 252.949219 122.992188 253.085938 123.234375 253.25 C 123.480469 253.414062 123.707031 253.597656 123.914062 253.808594 C 124.121094 254.015625 124.308594 254.242188 124.472656 254.484375 C 124.636719 254.730469 124.773438 254.988281 124.886719 255.261719 C 125 255.53125 125.082031 255.8125 125.140625 256.101562 C 125.199219 256.390625 125.226562 256.683594 125.226562 256.976562 C 125.226562 257.269531 125.199219 257.5625 125.140625 257.851562 C 125.082031 258.140625 125 258.417969 124.886719 258.691406 C 124.773438 258.964844 124.636719 259.222656 124.472656 259.464844 C 124.308594 259.710938 124.121094 259.9375 123.914062 260.144531 C 123.707031 260.351562 123.480469 260.539062 123.234375 260.703125 C 122.992188 260.867188 122.734375 261.003906 122.460938 261.117188 C 122.1875 261.230469 121.910156 261.3125 121.621094 261.371094 C 121.332031 261.429688 121.039062 261.457031 120.746094 261.457031 L 118.503906 261.457031 C 118.210938 261.457031 117.917969 261.429688 117.632812 261.371094 C 117.34375 261.3125 117.0625 261.230469 116.789062 261.117188 C 116.519531 261.003906 116.261719 260.867188 116.015625 260.703125 C 115.769531 260.539062 115.546875 260.351562 115.335938 260.144531 C 115.128906 259.9375 114.941406 259.710938 114.78125 259.464844 C 114.617188 259.222656 114.476562 258.964844 114.367188 258.691406 C 114.253906 258.417969 114.167969 258.140625 114.109375 257.851562 C 114.054688 257.5625 114.023438 257.269531 114.023438 256.976562 C 114.023438 256.683594 114.054688 256.390625 114.109375 256.101562 C 114.167969 255.8125 114.253906 255.53125 114.367188 255.261719 C 114.476562 254.988281 114.617188 254.730469 114.78125 254.484375 C 114.941406 254.242188 115.128906 254.015625 115.335938 253.808594 C 115.546875 253.597656 115.769531 253.414062 116.015625 253.25 C 116.261719 253.085938 116.519531 252.949219 116.789062 252.835938 C 117.0625 252.722656 117.34375 252.636719 117.632812 252.582031 C 117.917969 252.523438 118.210938 252.496094 118.503906 252.496094 Z M 120.746094 252.496094 " fill-opacity="1" fill-rule="nonzero"/><path fill="#000000" d="M 99.148438 143.054688 L 97.132812 155.421875 C 97.066406 155.835938 97.058594 156.253906 97.105469 156.671875 C 97.15625 157.085938 97.261719 157.488281 97.425781 157.875 C 97.589844 158.261719 97.800781 158.621094 98.066406 158.949219 C 98.328125 159.273438 98.632812 159.558594 98.976562 159.800781 C 99.320312 160.042969 99.6875 160.230469 100.085938 160.371094 C 100.484375 160.507812 100.890625 160.589844 101.308594 160.609375 C 101.730469 160.632812 102.144531 160.597656 102.554688 160.503906 C 102.960938 160.410156 103.351562 160.265625 103.71875 160.0625 L 114.023438 154.371094 L 124.308594 160.0625 C 124.675781 160.265625 125.066406 160.410156 125.472656 160.503906 C 125.882812 160.597656 126.296875 160.632812 126.71875 160.609375 C 127.136719 160.589844 127.542969 160.507812 127.941406 160.371094 C 128.335938 160.230469 128.707031 160.042969 129.050781 159.800781 C 129.394531 159.558594 129.699219 159.273438 129.960938 158.949219 C 130.222656 158.621094 130.4375 158.261719 130.601562 157.875 C 130.765625 157.488281 130.871094 157.085938 130.921875 156.671875 C 130.96875 156.253906 130.960938 155.835938 130.894531 155.421875 L 128.878906 143.054688 L 137.371094 134.335938 C 137.953125 133.738281 138.339844 133.027344 138.527344 132.214844 C 138.710938 131.398438 138.675781 130.59375 138.410156 129.796875 C 138.144531 129.003906 137.695312 128.335938 137.058594 127.792969 C 136.417969 127.253906 135.6875 126.917969 134.859375 126.785156 L 123.300781 125.015625 L 118.078125 113.8125 C 117.898438 113.425781 117.667969 113.074219 117.386719 112.753906 C 117.105469 112.433594 116.785156 112.160156 116.425781 111.933594 C 116.066406 111.707031 115.683594 111.53125 115.273438 111.414062 C 114.867188 111.296875 114.449219 111.234375 114.023438 111.234375 C 113.597656 111.234375 113.183594 111.296875 112.773438 111.414062 C 112.367188 111.53125 111.980469 111.707031 111.621094 111.933594 C 111.265625 112.160156 110.945312 112.433594 110.664062 112.753906 C 110.382812 113.074219 110.152344 113.425781 109.96875 113.8125 L 104.75 125.015625 L 93.1875 126.785156 C 92.359375 126.914062 91.625 127.246094 90.984375 127.785156 C 90.34375 128.328125 89.890625 128.996094 89.625 129.789062 C 89.355469 130.585938 89.316406 131.390625 89.503906 132.207031 C 89.6875 133.027344 90.074219 133.734375 90.65625 134.335938 Z M 108.46875 133.507812 C 109.195312 133.382812 109.851562 133.097656 110.4375 132.652344 C 111.023438 132.203125 111.472656 131.644531 111.785156 130.976562 L 114.023438 126.335938 L 116.265625 130.976562 C 116.582031 131.652344 117.039062 132.214844 117.640625 132.664062 C 118.238281 133.113281 118.910156 133.394531 119.648438 133.507812 L 124.957031 134.3125 L 120.96875 138.414062 C 120.472656 138.925781 120.121094 139.519531 119.90625 140.199219 C 119.691406 140.875 119.644531 141.566406 119.761719 142.269531 L 120.65625 147.757812 L 116.175781 145.339844 C 115.5 144.964844 114.773438 144.777344 114.003906 144.777344 C 113.230469 144.777344 112.503906 144.964844 111.828125 145.339844 L 107.347656 147.757812 L 108.246094 142.269531 C 108.359375 141.566406 108.3125 140.875 108.097656 140.199219 C 107.886719 139.519531 107.53125 138.925781 107.035156 138.414062 L 103.046875 134.3125 Z M 108.46875 133.507812 " fill-opacity="1" fill-rule="nonzero"/></svg>