<svg xmlns="http://www.w3.org/2000/svg" xmlns:xlink="http://www.w3.org/1999/xlink" width="500" zoomAndPan="magnify" viewBox="0 0 375 374.999991" height="500" preserveAspectRatio="xMidYMid meet" version="1.0"><defs><g/><clipPath id="b8fd9be8b0"><path d="M 85.128906 333.804688 L 92.519531 333.804688 L 92.519531 341.195312 L 85.128906 341.195312 Z M 85.128906 333.804688 " clip-rule="nonzero"/></clipPath><clipPath id="6059911c17"><path d="M 88.824219 333.804688 C 86.78125 333.804688 85.128906 335.460938 85.128906 337.5 C 85.128906 339.539062 86.78125 341.195312 88.824219 341.195312 C 90.863281 341.195312 92.519531 339.539062 92.519531 337.5 C 92.519531 335.460938 90.863281 333.804688 88.824219 333.804688 " clip-rule="nonzero"/></clipPath><clipPath id="52edebfa5b"><path d="M 279.847656 333.804688 L 287.234375 333.804688 L 287.234375 341.195312 L 279.847656 341.195312 Z M 279.847656 333.804688 " clip-rule="nonzero"/></clipPath><clipPath id="ddf1d032f8"><path d="M 283.542969 333.804688 C 281.5 333.804688 279.847656 335.460938 279.847656 337.5 C 279.847656 339.539062 281.5 341.195312 283.542969 341.195312 C 285.582031 341.195312 287.234375 339.539062 287.234375 337.5 C 287.234375 335.460938 285.582031 333.804688 283.542969 333.804688 " clip-rule="nonzero"/></clipPath><clipPath id="359ac05fbe"><path d="M 258.230469 94.070312 L 287.480469 94.070312 L 287.480469 128.570312 L 258.230469 128.570312 Z M 258.230469 94.070312 " clip-rule="nonzero"/></clipPath><clipPath id="47432dfbf1"><path d="M 85.152344 109.644531 L 123.355469 109.644531 L 123.355469 140.394531 L 85.152344 140.394531 Z M 85.152344 109.644531 " clip-rule="nonzero"/></clipPath><clipPath id="c0755c3d5d"><path d="M 11 56.433594 L 364.101562 56.433594 L 364.101562 366.933594 L 11 366.933594 Z M 11 56.433594 " clip-rule="nonzero"/></clipPath></defs><g fill="#ffffff" fill-opacity="1"><g transform="translate(100.769829, 342.374978)"><g><path d="M 5.890625 -11.6875 C 7.066406 -11.6875 8.101562 -11.421875 9 -10.890625 L 8.65625 -9.25 L 8.484375 -9.203125 C 7.671875 -9.828125 6.78125 -10.140625 5.8125 -10.140625 C 4.757812 -10.140625 3.953125 -9.78125 3.390625 -9.0625 C 2.835938 -8.34375 2.5625 -7.28125 2.5625 -5.875 C 2.5625 -4.414062 2.84375 -3.304688 3.40625 -2.546875 C 3.96875 -1.796875 4.769531 -1.421875 5.8125 -1.421875 C 6.3125 -1.421875 6.8125 -1.503906 7.3125 -1.671875 C 7.8125 -1.847656 8.269531 -2.09375 8.6875 -2.40625 L 8.875 -2.296875 L 8.734375 -0.609375 C 7.703125 -0.109375 6.679688 0.140625 5.671875 0.140625 C 4.046875 0.140625 2.796875 -0.359375 1.921875 -1.359375 C 1.046875 -2.367188 0.609375 -3.804688 0.609375 -5.671875 C 0.609375 -7.585938 1.066406 -9.066406 1.984375 -10.109375 C 2.898438 -11.160156 4.203125 -11.6875 5.890625 -11.6875 Z M 5.890625 -11.6875 "/></g></g></g><g fill="#ffffff" fill-opacity="1"><g transform="translate(111.047801, 342.374978)"><g><path d="M 7.578125 -1.390625 L 7.4375 0 L 1.5 0 L 1.625 -3.46875 L 1.5 -11.5625 L 3.40625 -11.5625 L 3.296875 -3.640625 L 3.328125 -1.546875 L 7.453125 -1.546875 Z M 7.578125 -1.390625 "/></g></g></g><g fill="#ffffff" fill-opacity="1"><g transform="translate(119.597783, 342.374978)"><g><path d="M 8.390625 -1.578125 L 8.5 -1.421875 L 8.375 0 L 1.546875 0 L 1.671875 -3.46875 L 1.546875 -11.5625 L 8.40625 -11.5625 L 8.515625 -11.390625 L 8.375 -9.96875 L 5.640625 -10.046875 L 3.4375 -10.03125 L 3.390625 -6.65625 L 5.46875 -6.625 L 7.375 -6.671875 L 7.5 -6.53125 L 7.359375 -5.109375 L 5.328125 -5.171875 L 3.359375 -5.125 L 3.34375 -3.640625 L 3.40625 -1.515625 L 5.59375 -1.5 Z M 8.390625 -1.578125 "/></g></g></g><g fill="#ffffff" fill-opacity="1"><g transform="translate(129.40776, 342.374978)"><g><path d="M 10.21875 0 L 8.3125 0 L 8.046875 -1.296875 L 7.546875 -2.890625 L 5.09375 -2.953125 L 2.875 -2.890625 L 2.34375 -1.390625 L 2.046875 0 L 0.203125 0 L 4.3125 -11.5625 L 6.5 -11.5625 Z M 7.078125 -4.40625 L 5.421875 -9.734375 L 5.296875 -9.734375 L 3.40625 -4.40625 L 5.21875 -4.375 Z M 7.078125 -4.40625 "/></g></g></g><g fill="#ffffff" fill-opacity="1"><g transform="translate(140.909724, 342.374978)"><g><path d="M 10.734375 -3.453125 L 10.78125 0 L 8.78125 0 L 3.34375 -8.65625 L 3.21875 -8.65625 L 3.203125 -3.875 L 3.265625 0 L 1.5625 0 L 1.65625 -3.421875 L 1.578125 -11.5625 L 3.546875 -11.5625 L 9 -2.890625 L 9.140625 -2.890625 L 9.109375 -11.46875 L 10.828125 -11.59375 Z M 10.734375 -3.453125 "/></g></g></g><g fill="#ffffff" fill-opacity="1"><g transform="translate(154.229682, 342.374978)"><g/></g></g><g fill="#ffffff" fill-opacity="1"><g transform="translate(158.045679, 342.374978)"><g><path d="M 4.984375 -5.40625 L 4.984375 -4.25 L 0.671875 -3.59375 L 0.5 -3.765625 L 0.5 -4.90625 L 4.828125 -5.546875 Z M 4.984375 -5.40625 "/></g></g></g><g fill="#ffffff" fill-opacity="1"><g transform="translate(164.489664, 342.374978)"><g/></g></g><g fill="#ffffff" fill-opacity="1"><g transform="translate(168.305662, 342.374978)"><g><path d="M 3.4375 -10.03125 L 3.390625 -6.390625 L 5.203125 -6.359375 L 7.109375 -6.40625 L 7.234375 -6.25 L 7.09375 -4.84375 L 5.046875 -4.890625 L 3.359375 -4.875 L 3.34375 -3.640625 L 3.4375 0 L 1.546875 0 L 1.671875 -3.46875 L 1.546875 -11.5625 L 8.015625 -11.5625 L 8.140625 -11.390625 L 7.984375 -9.9375 L 5.296875 -10.046875 Z M 3.4375 -10.03125 "/></g></g></g><g fill="#ffffff" fill-opacity="1"><g transform="translate(177.215642, 342.374978)"><g><path d="M 6.84375 -4.625 C 7.65625 -3.3125 8.617188 -1.914062 9.734375 -0.4375 L 9.71875 -0.21875 C 9.144531 -0.0195312 8.550781 0.101562 7.9375 0.15625 L 7.71875 0.015625 C 6.726562 -1.617188 5.925781 -3 5.3125 -4.125 L 3.34375 -4.125 L 3.34375 -3.640625 L 3.4375 0 L 1.546875 0 L 1.671875 -3.46875 L 1.546875 -11.5625 L 5.46875 -11.578125 C 6.632812 -11.578125 7.535156 -11.285156 8.171875 -10.703125 C 8.804688 -10.117188 9.125 -9.285156 9.125 -8.203125 C 9.125 -7.441406 8.921875 -6.75 8.515625 -6.125 C 8.117188 -5.507812 7.5625 -5.007812 6.84375 -4.625 Z M 3.390625 -5.640625 L 5.359375 -5.578125 C 6.578125 -5.953125 7.1875 -6.78125 7.1875 -8.0625 C 7.1875 -8.738281 7 -9.242188 6.625 -9.578125 C 6.257812 -9.910156 5.707031 -10.085938 4.96875 -10.109375 L 3.4375 -10.0625 Z M 3.390625 -5.640625 "/></g></g></g><g fill="#ffffff" fill-opacity="1"><g transform="translate(188.411614, 342.374978)"><g><path d="M 8.390625 -1.578125 L 8.5 -1.421875 L 8.375 0 L 1.546875 0 L 1.671875 -3.46875 L 1.546875 -11.5625 L 8.40625 -11.5625 L 8.515625 -11.390625 L 8.375 -9.96875 L 5.640625 -10.046875 L 3.4375 -10.03125 L 3.390625 -6.65625 L 5.46875 -6.625 L 7.375 -6.671875 L 7.5 -6.53125 L 7.359375 -5.109375 L 5.328125 -5.171875 L 3.359375 -5.125 L 3.34375 -3.640625 L 3.40625 -1.515625 L 5.59375 -1.5 Z M 8.390625 -1.578125 "/></g></g></g><g fill="#ffffff" fill-opacity="1"><g transform="translate(198.221586, 342.374978)"><g><path d="M 4.9375 -11.6875 C 5.84375 -11.6875 6.753906 -11.492188 7.671875 -11.109375 L 7.359375 -9.40625 L 7.078125 -9.3125 C 6.691406 -9.582031 6.296875 -9.796875 5.890625 -9.953125 C 5.484375 -10.109375 5.09375 -10.1875 4.71875 -10.1875 C 4.125 -10.1875 3.65625 -10.023438 3.3125 -9.703125 C 2.96875 -9.378906 2.796875 -9 2.796875 -8.5625 C 2.796875 -8.144531 2.96875 -7.800781 3.3125 -7.53125 C 3.65625 -7.257812 4.203125 -6.953125 4.953125 -6.609375 C 5.597656 -6.296875 6.117188 -6.007812 6.515625 -5.75 C 6.921875 -5.5 7.265625 -5.164062 7.546875 -4.75 C 7.835938 -4.34375 7.984375 -3.851562 7.984375 -3.28125 C 7.984375 -2.65625 7.8125 -2.082031 7.46875 -1.5625 C 7.132812 -1.039062 6.65625 -0.625 6.03125 -0.3125 C 5.414062 -0.0078125 4.710938 0.140625 3.921875 0.140625 C 3.390625 0.140625 2.84375 0.078125 2.28125 -0.046875 C 1.71875 -0.179688 1.1875 -0.375 0.6875 -0.625 L 0.921875 -2.46875 L 1.15625 -2.578125 C 1.59375 -2.148438 2.078125 -1.832031 2.609375 -1.625 C 3.148438 -1.414062 3.648438 -1.3125 4.109375 -1.3125 C 4.734375 -1.3125 5.226562 -1.472656 5.59375 -1.796875 C 5.96875 -2.128906 6.15625 -2.523438 6.15625 -2.984375 C 6.15625 -3.441406 5.972656 -3.8125 5.609375 -4.09375 C 5.253906 -4.375 4.703125 -4.691406 3.953125 -5.046875 C 3.316406 -5.335938 2.800781 -5.609375 2.40625 -5.859375 C 2.007812 -6.109375 1.671875 -6.4375 1.390625 -6.84375 C 1.109375 -7.25 0.96875 -7.738281 0.96875 -8.3125 C 0.96875 -8.9375 1.132812 -9.503906 1.46875 -10.015625 C 1.8125 -10.535156 2.28125 -10.941406 2.875 -11.234375 C 3.476562 -11.535156 4.164062 -11.6875 4.9375 -11.6875 Z M 4.9375 -11.6875 "/></g></g></g><g fill="#ffffff" fill-opacity="1"><g transform="translate(207.85156, 342.374978)"><g><path d="M 10.765625 -3.640625 L 10.8125 0 L 8.96875 0 L 9.046875 -3.46875 L 9.03125 -5.046875 L 6.078125 -5.0625 L 3.390625 -5.046875 L 3.359375 -3.640625 L 3.4375 0 L 1.609375 0 L 1.671875 -3.46875 L 1.609375 -11.5625 L 3.453125 -11.5625 L 3.40625 -6.59375 L 6.234375 -6.546875 L 9.015625 -6.59375 L 8.96875 -11.5625 L 10.859375 -11.5625 Z M 10.765625 -3.640625 "/></g></g></g><g fill="#ffffff" fill-opacity="1"><g transform="translate(221.189522, 342.374978)"><g/></g></g><g fill="#ffffff" fill-opacity="1"><g transform="translate(225.00552, 342.374978)"><g><path d="M 4.984375 -5.40625 L 4.984375 -4.25 L 0.671875 -3.59375 L 0.5 -3.765625 L 0.5 -4.90625 L 4.828125 -5.546875 Z M 4.984375 -5.40625 "/></g></g></g><g fill="#ffffff" fill-opacity="1"><g transform="translate(231.449504, 342.374978)"><g/></g></g><g fill="#ffffff" fill-opacity="1"><g transform="translate(235.265502, 342.374978)"><g><path d="M 3.4375 -10.03125 L 3.390625 -6.390625 L 5.203125 -6.359375 L 7.109375 -6.40625 L 7.234375 -6.25 L 7.09375 -4.84375 L 5.046875 -4.890625 L 3.359375 -4.875 L 3.34375 -3.640625 L 3.4375 0 L 1.546875 0 L 1.671875 -3.46875 L 1.546875 -11.5625 L 8.015625 -11.5625 L 8.140625 -11.390625 L 7.984375 -9.9375 L 5.296875 -10.046875 Z M 3.4375 -10.03125 "/></g></g></g><g fill="#ffffff" fill-opacity="1"><g transform="translate(244.175482, 342.374978)"><g><path d="M 10.21875 0 L 8.3125 0 L 8.046875 -1.296875 L 7.546875 -2.890625 L 5.09375 -2.953125 L 2.875 -2.890625 L 2.34375 -1.390625 L 2.046875 0 L 0.203125 0 L 4.3125 -11.5625 L 6.5 -11.5625 Z M 7.078125 -4.40625 L 5.421875 -9.734375 L 5.296875 -9.734375 L 3.40625 -4.40625 L 5.21875 -4.375 Z M 7.078125 -4.40625 "/></g></g></g><g fill="#ffffff" fill-opacity="1"><g transform="translate(255.677446, 342.374978)"><g><path d="M 4.9375 -11.6875 C 5.84375 -11.6875 6.753906 -11.492188 7.671875 -11.109375 L 7.359375 -9.40625 L 7.078125 -9.3125 C 6.691406 -9.582031 6.296875 -9.796875 5.890625 -9.953125 C 5.484375 -10.109375 5.09375 -10.1875 4.71875 -10.1875 C 4.125 -10.1875 3.65625 -10.023438 3.3125 -9.703125 C 2.96875 -9.378906 2.796875 -9 2.796875 -8.5625 C 2.796875 -8.144531 2.96875 -7.800781 3.3125 -7.53125 C 3.65625 -7.257812 4.203125 -6.953125 4.953125 -6.609375 C 5.597656 -6.296875 6.117188 -6.007812 6.515625 -5.75 C 6.921875 -5.5 7.265625 -5.164062 7.546875 -4.75 C 7.835938 -4.34375 7.984375 -3.851562 7.984375 -3.28125 C 7.984375 -2.65625 7.8125 -2.082031 7.46875 -1.5625 C 7.132812 -1.039062 6.65625 -0.625 6.03125 -0.3125 C 5.414062 -0.0078125 4.710938 0.140625 3.921875 0.140625 C 3.390625 0.140625 2.84375 0.078125 2.28125 -0.046875 C 1.71875 -0.179688 1.1875 -0.375 0.6875 -0.625 L 0.921875 -2.46875 L 1.15625 -2.578125 C 1.59375 -2.148438 2.078125 -1.832031 2.609375 -1.625 C 3.148438 -1.414062 3.648438 -1.3125 4.109375 -1.3125 C 4.734375 -1.3125 5.226562 -1.472656 5.59375 -1.796875 C 5.96875 -2.128906 6.15625 -2.523438 6.15625 -2.984375 C 6.15625 -3.441406 5.972656 -3.8125 5.609375 -4.09375 C 5.253906 -4.375 4.703125 -4.691406 3.953125 -5.046875 C 3.316406 -5.335938 2.800781 -5.609375 2.40625 -5.859375 C 2.007812 -6.109375 1.671875 -6.4375 1.390625 -6.84375 C 1.109375 -7.25 0.96875 -7.738281 0.96875 -8.3125 C 0.96875 -8.9375 1.132812 -9.503906 1.46875 -10.015625 C 1.8125 -10.535156 2.28125 -10.941406 2.875 -11.234375 C 3.476562 -11.535156 4.164062 -11.6875 4.9375 -11.6875 Z M 4.9375 -11.6875 "/></g></g></g><g fill="#ffffff" fill-opacity="1"><g transform="translate(265.30742, 342.374978)"><g><path d="M 8.59375 -11.390625 L 8.484375 -9.984375 L 6.390625 -10.09375 L 5.421875 -10.09375 L 5.328125 -3.640625 L 5.421875 0 L 3.546875 0 L 3.65625 -3.46875 L 3.5625 -10.09375 L 2.59375 -10.09375 L 0.46875 -9.984375 L 0.34375 -10.15625 L 0.484375 -11.5625 L 8.484375 -11.5625 Z M 8.59375 -11.390625 "/></g></g></g><g clip-path="url(#b8fd9be8b0)"><g clip-path="url(#6059911c17)"><path fill="#ffffff" d="M 85.128906 333.804688 L 92.519531 333.804688 L 92.519531 341.195312 L 85.128906 341.195312 Z M 85.128906 333.804688 " fill-opacity="1" fill-rule="nonzero"/></g></g><g clip-path="url(#52edebfa5b)"><g clip-path="url(#ddf1d032f8)"><path fill="#ffffff" d="M 279.847656 333.804688 L 287.234375 333.804688 L 287.234375 341.195312 L 279.847656 341.195312 Z M 279.847656 333.804688 " fill-opacity="1" fill-rule="nonzero"/></g></g><g clip-path="url(#359ac05fbe)"><path fill="#ffffff" d="M 276.382812 122.878906 C 276.183594 122.878906 276.019531 123.105469 276.019531 123.386719 C 276.019531 123.671875 276.183594 123.898438 276.382812 123.898438 C 276.578125 123.898438 276.742188 123.671875 276.742188 123.386719 C 276.742188 123.105469 276.582031 122.878906 276.382812 122.878906 Z M 279.664062 118.785156 C 279.574219 118.742188 279.394531 118.777344 279.300781 118.785156 C 279.039062 118.816406 278.78125 118.890625 278.535156 118.988281 C 278.5 119.003906 278.464844 119.019531 278.425781 119.039062 C 277.996094 119.238281 277.597656 119.519531 277.257812 119.851562 C 277.164062 119.945312 277.070312 120.042969 276.980469 120.144531 C 276.636719 120.539062 276.367188 121 276.261719 121.507812 C 276.226562 121.679688 276.207031 121.859375 276.210938 122.042969 C 276.210938 122.101562 276.226562 122.167969 276.257812 122.230469 C 276.296875 122.3125 276.359375 122.371094 276.46875 122.339844 C 276.539062 122.320312 276.582031 122.257812 276.625 122.203125 C 276.664062 122.148438 276.699219 122.089844 276.734375 122.03125 C 276.816406 121.871094 276.882812 121.699219 276.957031 121.53125 C 277.03125 121.363281 277.113281 121.199219 277.207031 121.035156 C 277.246094 120.96875 277.28125 120.90625 277.320312 120.847656 C 277.65625 120.332031 278.09375 119.875 278.597656 119.527344 C 278.921875 119.300781 279.277344 119.117188 279.664062 118.960938 C 279.773438 118.917969 279.757812 118.835938 279.664062 118.785156 Z M 285.332031 122.929688 C 285.332031 120.480469 283.535156 118.445312 281.1875 118.070312 C 280.941406 118.03125 280.691406 118.011719 280.433594 118.011719 C 280.429688 118.011719 280.425781 118.011719 280.421875 118.011719 C 280.007812 118.011719 279.613281 118.0625 279.238281 118.15625 C 277.875 118.492188 276.738281 119.40625 276.089844 120.613281 C 275.902344 120.964844 275.753906 121.347656 275.652344 121.742188 C 275.59375 121.988281 275.554688 122.234375 275.53125 122.488281 C 275.515625 122.628906 275.511719 122.78125 275.511719 122.921875 C 275.511719 125.632812 277.710938 127.839844 280.421875 127.839844 C 283.128906 127.839844 285.332031 125.636719 285.332031 122.929688 Z M 286.019531 122.929688 C 286.019531 126.019531 283.507812 128.53125 280.421875 128.53125 C 277.332031 128.53125 274.820312 126.019531 274.820312 122.929688 C 274.820312 122.84375 274.828125 122.757812 274.828125 122.675781 C 274.835938 122.4375 274.863281 122.199219 274.902344 121.972656 C 274.960938 121.625 275.050781 121.292969 275.167969 120.96875 C 275.890625 119.027344 277.664062 117.589844 279.792969 117.359375 C 279.996094 117.332031 280.203125 117.324219 280.410156 117.324219 C 280.550781 117.324219 280.6875 117.328125 280.828125 117.339844 C 281.0625 117.359375 281.300781 117.386719 281.527344 117.433594 C 284.09375 117.957031 286.019531 120.222656 286.019531 122.929688 Z M 264.925781 96.136719 C 264.925781 96.777344 265.445312 97.296875 266.085938 97.296875 C 266.722656 97.296875 267.242188 96.777344 267.242188 96.136719 C 267.242188 95.496094 266.722656 94.976562 266.085938 94.976562 C 265.449219 94.976562 264.925781 95.496094 264.925781 96.136719 Z M 264.4375 96.136719 C 264.4375 95.226562 265.179688 94.480469 266.089844 94.480469 C 267 94.480469 267.742188 95.226562 267.742188 96.136719 C 267.742188 97.046875 267 97.792969 266.089844 97.792969 C 265.179688 97.792969 264.4375 97.054688 264.4375 96.136719 Z M 261.640625 118.566406 L 261.347656 118.566406 C 261.238281 118.566406 261.148438 118.65625 261.148438 118.765625 C 261.148438 118.875 261.238281 118.964844 261.347656 118.964844 L 261.640625 118.964844 C 261.75 118.964844 261.835938 118.875 261.835938 118.765625 C 261.835938 118.65625 261.75 118.566406 261.640625 118.566406 Z M 258.722656 118.566406 L 258.433594 118.566406 C 258.324219 118.566406 258.234375 118.65625 258.234375 118.765625 C 258.234375 118.875 258.324219 118.964844 258.433594 118.964844 L 258.722656 118.964844 C 258.832031 118.964844 258.921875 118.875 258.921875 118.765625 C 258.921875 118.65625 258.832031 118.566406 258.722656 118.566406 Z M 260.925781 118.011719 L 261.144531 117.792969 C 261.183594 117.753906 261.183594 117.695312 261.144531 117.65625 C 261.105469 117.617188 261.046875 117.617188 261.007812 117.65625 L 260.789062 117.875 C 260.75 117.914062 260.75 117.972656 260.789062 118.011719 C 260.808594 118.03125 260.832031 118.042969 260.859375 118.042969 C 260.882812 118.039062 260.90625 118.027344 260.925781 118.011719 Z M 259.082031 119.582031 L 258.921875 119.742188 C 258.882812 119.78125 258.882812 119.839844 258.921875 119.878906 C 258.941406 119.902344 258.964844 119.910156 258.992188 119.910156 C 259.015625 119.910156 259.039062 119.902344 259.058594 119.878906 L 259.21875 119.722656 C 259.257812 119.683594 259.257812 119.621094 259.21875 119.582031 C 259.179688 119.542969 259.121094 119.542969 259.082031 119.582031 Z M 260.992188 119.582031 C 260.953125 119.542969 260.890625 119.542969 260.851562 119.582031 C 260.8125 119.621094 260.8125 119.683594 260.851562 119.722656 L 261.011719 119.878906 C 261.03125 119.902344 261.054688 119.910156 261.078125 119.910156 C 261.105469 119.910156 261.128906 119.902344 261.148438 119.878906 C 261.1875 119.839844 261.1875 119.78125 261.148438 119.742188 Z M 259.058594 117.652344 C 259.019531 117.613281 258.960938 117.613281 258.921875 117.652344 C 258.882812 117.691406 258.882812 117.75 258.921875 117.789062 L 259.140625 118.007812 C 259.160156 118.027344 259.183594 118.039062 259.210938 118.039062 C 259.234375 118.039062 259.257812 118.027344 259.277344 118.007812 C 259.316406 117.96875 259.316406 117.910156 259.277344 117.867188 Z M 260.035156 119.878906 C 259.925781 119.878906 259.835938 119.96875 259.835938 120.078125 L 259.835938 120.371094 C 259.835938 120.480469 259.925781 120.570312 260.035156 120.570312 C 260.144531 120.570312 260.234375 120.480469 260.234375 120.371094 L 260.234375 120.078125 C 260.234375 119.96875 260.144531 119.878906 260.035156 119.878906 Z M 260.035156 116.960938 C 259.925781 116.960938 259.835938 117.050781 259.835938 117.160156 L 259.835938 117.460938 C 259.835938 117.570312 259.925781 117.660156 260.035156 117.660156 C 260.144531 117.660156 260.234375 117.570312 260.234375 117.460938 L 260.234375 117.160156 C 260.234375 117.050781 260.144531 116.960938 260.035156 116.960938 Z M 287.28125 110.105469 L 286.988281 110.105469 C 286.878906 110.105469 286.792969 110.195312 286.792969 110.304688 C 286.792969 110.410156 286.878906 110.5 286.988281 110.5 L 287.28125 110.5 C 287.390625 110.5 287.480469 110.410156 287.480469 110.304688 C 287.472656 110.195312 287.390625 110.105469 287.28125 110.105469 Z M 284.367188 110.105469 L 284.074219 110.105469 C 283.964844 110.105469 283.875 110.195312 283.875 110.304688 C 283.875 110.410156 283.964844 110.5 284.074219 110.5 L 284.367188 110.5 C 284.472656 110.5 284.5625 110.410156 284.5625 110.304688 C 284.5625 110.195312 284.472656 110.105469 284.367188 110.105469 Z M 286.566406 109.550781 L 286.785156 109.332031 C 286.824219 109.292969 286.824219 109.234375 286.785156 109.191406 C 286.746094 109.152344 286.6875 109.152344 286.648438 109.191406 L 286.429688 109.410156 C 286.390625 109.449219 286.390625 109.511719 286.429688 109.550781 C 286.449219 109.570312 286.472656 109.578125 286.5 109.578125 C 286.523438 109.578125 286.546875 109.570312 286.566406 109.550781 Z M 284.632812 111.445312 C 284.65625 111.445312 284.683594 111.4375 284.703125 111.417969 L 284.859375 111.257812 C 284.898438 111.21875 284.898438 111.160156 284.859375 111.121094 C 284.820312 111.082031 284.761719 111.082031 284.722656 111.121094 L 284.5625 111.277344 C 284.523438 111.320312 284.523438 111.378906 284.5625 111.417969 C 284.582031 111.4375 284.609375 111.445312 284.632812 111.445312 Z M 286.628906 111.121094 C 286.589844 111.082031 286.527344 111.082031 286.488281 111.121094 C 286.449219 111.160156 286.449219 111.21875 286.488281 111.257812 L 286.648438 111.417969 C 286.667969 111.4375 286.691406 111.445312 286.71875 111.445312 C 286.742188 111.445312 286.765625 111.4375 286.785156 111.417969 C 286.824219 111.378906 286.824219 111.320312 286.785156 111.277344 Z M 284.921875 109.410156 L 284.703125 109.191406 C 284.664062 109.152344 284.601562 109.152344 284.5625 109.191406 C 284.523438 109.234375 284.523438 109.292969 284.5625 109.332031 L 284.78125 109.550781 C 284.800781 109.570312 284.824219 109.578125 284.851562 109.578125 C 284.875 109.578125 284.898438 109.570312 284.921875 109.550781 C 284.960938 109.511719 284.960938 109.449219 284.921875 109.410156 Z M 285.675781 111.417969 C 285.570312 111.417969 285.480469 111.507812 285.480469 111.617188 L 285.480469 111.910156 C 285.480469 112.015625 285.570312 112.105469 285.675781 112.105469 C 285.785156 112.105469 285.875 112.015625 285.875 111.910156 L 285.875 111.617188 C 285.871094 111.507812 285.78125 111.417969 285.675781 111.417969 Z M 285.871094 108.699219 C 285.871094 108.589844 285.78125 108.5 285.671875 108.5 C 285.5625 108.5 285.472656 108.589844 285.472656 108.699219 L 285.472656 109 C 285.472656 109.109375 285.5625 109.199219 285.671875 109.199219 C 285.78125 109.199219 285.871094 109.109375 285.871094 109 Z M 266.199219 110.886719 C 266.054688 110.867188 265.910156 110.921875 265.792969 111.050781 C 265.679688 111.175781 265.601562 111.34375 265.570312 111.535156 C 265.511719 111.9375 265.695312 112.300781 265.980469 112.339844 C 266 112.34375 266.019531 112.34375 266.039062 112.34375 C 266.308594 112.34375 266.558594 112.066406 266.613281 111.695312 C 266.667969 111.292969 266.484375 110.933594 266.199219 110.886719 Z M 267.375 109.015625 C 267.585938 108.6875 267.828125 108.378906 268.085938 108.09375 C 268.707031 107.410156 269.46875 106.839844 270.316406 106.4375 C 270.855469 106.179688 271.441406 105.988281 272.054688 105.84375 C 272.21875 105.804688 272.207031 105.675781 272.085938 105.585938 C 271.960938 105.496094 271.683594 105.511719 271.535156 105.5 C 271.128906 105.480469 270.722656 105.53125 270.328125 105.625 C 269.566406 105.808594 268.84375 106.15625 268.203125 106.601562 C 268.148438 106.640625 268.097656 106.675781 268.046875 106.714844 C 267.699219 106.972656 267.371094 107.261719 267.089844 107.582031 C 266.589844 108.152344 266.226562 108.820312 266.140625 109.59375 C 266.113281 109.796875 266.164062 110.132812 266.460938 110.09375 C 266.566406 110.078125 266.652344 110.003906 266.726562 109.929688 C 266.996094 109.660156 267.179688 109.332031 267.375 109.015625 Z M 274.519531 104.605469 C 274.710938 104.648438 274.910156 104.699219 275.097656 104.757812 C 275.800781 104.976562 276.464844 105.285156 277.078125 105.667969 C 277.234375 105.765625 277.378906 105.863281 277.523438 105.972656 C 278.117188 106.398438 278.652344 106.894531 279.117188 107.453125 C 279.246094 107.605469 279.367188 107.765625 279.484375 107.925781 C 280.488281 109.320312 281.082031 111.03125 281.082031 112.878906 C 281.082031 114.222656 280.765625 115.496094 280.210938 116.625 C 280.28125 116.625 280.351562 116.621094 280.425781 116.621094 C 280.675781 116.621094 280.929688 116.636719 281.171875 116.664062 C 281.6875 115.503906 281.96875 114.226562 281.96875 112.878906 C 281.96875 111.101562 281.46875 109.4375 280.609375 108.011719 C 280.523438 107.878906 280.441406 107.746094 280.351562 107.613281 C 280.148438 107.316406 279.929688 107.03125 279.699219 106.761719 C 278.59375 105.480469 277.152344 104.5 275.515625 103.960938 C 275.179688 103.851562 274.832031 103.757812 274.480469 103.683594 C 274.328125 103.652344 274.167969 103.625 274.011719 103.597656 C 273.550781 103.53125 273.074219 103.488281 272.59375 103.488281 C 271.363281 103.488281 270.183594 103.726562 269.105469 104.164062 C 268.886719 104.253906 268.679688 104.347656 268.46875 104.445312 C 268.226562 104.566406 267.996094 104.695312 267.769531 104.832031 C 266.773438 105.433594 265.894531 106.210938 265.1875 107.125 C 265.027344 107.339844 264.871094 107.558594 264.722656 107.78125 C 264.601562 107.972656 264.480469 108.171875 264.367188 108.375 C 263.632812 109.714844 263.21875 111.246094 263.21875 112.875 C 263.21875 118.046875 267.425781 122.257812 272.59375 122.257812 C 273.132812 122.257812 273.660156 122.214844 274.171875 122.125 C 274.210938 121.804688 274.277344 121.492188 274.367188 121.183594 C 273.796875 121.308594 273.203125 121.371094 272.59375 121.371094 C 267.910156 121.371094 264.105469 117.5625 264.105469 112.875 C 264.105469 111.179688 264.605469 109.605469 265.460938 108.28125 C 265.640625 108.003906 265.832031 107.734375 266.039062 107.484375 C 266.605469 106.800781 267.269531 106.210938 268.015625 105.730469 C 268.292969 105.550781 268.578125 105.386719 268.882812 105.238281 C 270.003906 104.6875 271.261719 104.382812 272.59375 104.382812 C 273.257812 104.382812 273.902344 104.460938 274.519531 104.605469 Z M 269.753906 98.171875 C 269.753906 98.609375 270.105469 98.960938 270.539062 98.960938 C 270.976562 98.960938 271.328125 98.609375 271.328125 98.171875 C 271.328125 97.738281 270.976562 97.386719 270.539062 97.386719 C 270.105469 97.386719 269.753906 97.738281 269.753906 98.171875 Z M 269.257812 98.171875 C 269.257812 97.464844 269.832031 96.890625 270.539062 96.890625 C 271.246094 96.890625 271.820312 97.464844 271.820312 98.171875 C 271.820312 98.882812 271.246094 99.457031 270.539062 99.457031 C 269.832031 99.457031 269.257812 98.882812 269.257812 98.171875 Z M 266.40625 124.09375 C 266.40625 123.234375 265.707031 122.535156 264.851562 122.535156 C 263.996094 122.535156 263.296875 123.234375 263.296875 124.09375 C 263.296875 124.949219 263.996094 125.648438 264.851562 125.648438 C 265.707031 125.648438 266.40625 124.949219 266.40625 124.09375 Z M 266.996094 124.09375 C 266.996094 125.277344 266.035156 126.238281 264.847656 126.238281 C 263.664062 126.238281 262.703125 125.277344 262.703125 124.09375 C 262.703125 122.90625 263.664062 121.945312 264.847656 121.945312 C 266.03125 121.941406 266.996094 122.90625 266.996094 124.09375 Z M 276.070312 99.277344 C 275.875 99.253906 275.707031 99.441406 275.671875 99.710938 C 275.636719 99.976562 275.761719 100.199219 275.949219 100.222656 C 275.960938 100.222656 275.96875 100.222656 275.980469 100.222656 C 276.0625 100.222656 276.144531 100.183594 276.210938 100.105469 C 276.28125 100.027344 276.332031 99.914062 276.347656 99.789062 C 276.359375 99.664062 276.339844 99.546875 276.292969 99.453125 C 276.242188 99.351562 276.164062 99.289062 276.070312 99.277344 Z M 276.375 98.6875 C 276.535156 98.515625 276.636719 98.308594 276.757812 98.105469 C 276.882812 97.894531 277.019531 97.699219 277.179688 97.515625 C 277.550781 97.074219 278.003906 96.707031 278.515625 96.4375 C 278.839844 96.265625 279.191406 96.136719 279.5625 96.039062 C 279.664062 96.011719 279.65625 95.929688 279.578125 95.875 C 279.5 95.820312 279.332031 95.835938 279.242188 95.835938 C 278.996094 95.828125 278.746094 95.871094 278.507812 95.933594 C 278.050781 96.0625 277.613281 96.289062 277.234375 96.582031 C 276.613281 97.054688 276.089844 97.691406 276.015625 98.488281 C 276.003906 98.621094 276.039062 98.828125 276.21875 98.796875 C 276.28125 98.789062 276.332031 98.738281 276.375 98.6875 Z M 275.105469 103.144531 C 274.8125 102.4375 274.652344 101.671875 274.652344 100.863281 C 274.652344 97.578125 277.328125 94.902344 280.609375 94.902344 C 283.894531 94.902344 286.5625 97.578125 286.5625 100.863281 C 286.5625 104.148438 283.894531 106.824219 280.613281 106.824219 C 280.800781 107.074219 280.976562 107.324219 281.136719 107.59375 C 284.609375 107.320312 287.351562 104.40625 287.351562 100.863281 C 287.351562 97.140625 284.324219 94.113281 280.609375 94.113281 C 276.890625 94.113281 273.867188 97.140625 273.867188 100.863281 C 273.867188 101.59375 273.984375 102.296875 274.199219 102.953125 C 274.5 103.003906 274.800781 103.070312 275.105469 103.144531 Z M 261.953125 103.230469 C 261.808594 103.210938 261.683594 103.351562 261.660156 103.542969 C 261.648438 103.632812 261.664062 103.71875 261.699219 103.789062 C 261.738281 103.863281 261.796875 103.90625 261.867188 103.914062 C 261.878906 103.914062 261.882812 103.914062 261.890625 103.914062 C 262.019531 103.914062 262.136719 103.78125 262.160156 103.605469 C 262.179688 103.414062 262.089844 103.25 261.953125 103.230469 Z M 262.425781 102.4375 C 262.511719 102.296875 262.609375 102.15625 262.714844 102.03125 C 262.972656 101.730469 263.28125 101.472656 263.632812 101.289062 C 263.855469 101.171875 264.101562 101.082031 264.355469 101.011719 C 264.425781 100.992188 264.421875 100.9375 264.367188 100.898438 C 264.3125 100.863281 264.199219 100.867188 264.132812 100.867188 C 263.960938 100.863281 263.792969 100.894531 263.628906 100.9375 C 263.3125 101.027344 263.011719 101.1875 262.75 101.390625 C 262.324219 101.714844 261.957031 102.15625 261.910156 102.707031 C 261.902344 102.796875 261.925781 102.941406 262.050781 102.917969 C 262.09375 102.910156 262.128906 102.878906 262.160156 102.84375 C 262.273438 102.722656 262.34375 102.578125 262.425781 102.4375 Z M 260.464844 103.753906 C 260.464844 101.527344 262.277344 99.714844 264.5 99.714844 C 266.703125 99.714844 268.496094 101.488281 268.535156 103.683594 C 268.332031 103.773438 268.132812 103.871094 267.9375 103.96875 C 267.941406 103.894531 267.945312 103.820312 267.945312 103.746094 C 267.945312 101.84375 266.402344 100.300781 264.5 100.300781 C 262.601562 100.300781 261.054688 101.84375 261.054688 103.746094 C 261.054688 105.585938 262.5 107.09375 264.3125 107.191406 C 264.1875 107.375 264.070312 107.558594 263.957031 107.75 C 261.984375 107.488281 260.464844 105.792969 260.464844 103.753906 " fill-opacity="1" fill-rule="nonzero"/></g><g clip-path="url(#47432dfbf1)"><path fill="#ffffff" d="M 118.585938 135.574219 C 118.585938 133.675781 117.019531 132.132812 115.09375 132.132812 C 113.164062 132.132812 111.597656 133.675781 111.597656 135.574219 C 111.597656 137.472656 113.164062 139.019531 115.09375 139.019531 C 117.019531 139.019531 118.585938 137.472656 118.585938 135.574219 Z M 119.761719 135.574219 C 119.761719 138.113281 117.664062 140.175781 115.09375 140.175781 C 112.519531 140.175781 110.425781 138.113281 110.425781 135.574219 C 110.425781 133.039062 112.519531 130.976562 115.09375 130.976562 C 117.664062 130.976562 119.761719 133.039062 119.761719 135.574219 Z M 108.410156 132.765625 C 108.410156 131.933594 108.246094 131.144531 107.953125 130.414062 C 107.910156 130.300781 107.863281 130.191406 107.8125 130.082031 C 107.796875 130.046875 107.777344 130.011719 107.757812 129.972656 C 107.660156 129.769531 107.550781 129.570312 107.429688 129.378906 C 107.414062 129.359375 107.402344 129.335938 107.390625 129.316406 C 107.320312 129.207031 107.246094 129.097656 107.167969 128.996094 C 107.167969 128.992188 107.164062 128.988281 107.160156 128.984375 C 106.527344 128.125 105.6875 127.425781 104.722656 126.960938 C 104.683594 126.9375 104.640625 126.917969 104.597656 126.902344 C 104.496094 126.851562 104.390625 126.804688 104.28125 126.761719 C 104.152344 126.710938 104.019531 126.664062 103.886719 126.621094 C 103.796875 126.589844 103.703125 126.566406 103.613281 126.539062 C 103.523438 126.515625 103.4375 126.492188 103.347656 126.472656 C 103.257812 126.453125 103.171875 126.429688 103.082031 126.414062 C 103.074219 126.414062 103.066406 126.410156 103.058594 126.410156 C 102.859375 126.375 102.660156 126.34375 102.464844 126.324219 C 102.257812 126.308594 102.050781 126.292969 101.84375 126.292969 C 101.621094 126.292969 101.402344 126.304688 101.1875 126.328125 C 101.089844 126.335938 100.988281 126.355469 100.890625 126.371094 C 100.777344 126.386719 100.667969 126.398438 100.558594 126.421875 C 100.429688 126.445312 100.304688 126.480469 100.179688 126.511719 C 100.105469 126.53125 100.027344 126.546875 99.953125 126.570312 C 99.8125 126.613281 99.671875 126.664062 99.535156 126.714844 C 99.480469 126.734375 99.425781 126.753906 99.371094 126.773438 C 99.222656 126.832031 99.082031 126.898438 98.941406 126.96875 C 98.898438 126.988281 98.855469 127.007812 98.816406 127.027344 C 98.667969 127.105469 98.527344 127.1875 98.386719 127.273438 C 98.355469 127.292969 98.320312 127.308594 98.292969 127.328125 C 98.148438 127.421875 98.007812 127.519531 97.871094 127.621094 C 97.847656 127.640625 97.820312 127.660156 97.796875 127.675781 C 97.660156 127.785156 97.527344 127.898438 97.398438 128.015625 C 97.378906 128.03125 97.359375 128.046875 97.339844 128.066406 C 97.210938 128.1875 97.085938 128.3125 96.964844 128.445312 C 96.949219 128.460938 96.933594 128.476562 96.921875 128.496094 C 96.800781 128.628906 96.683594 128.769531 96.578125 128.914062 C 96.566406 128.929688 96.550781 128.945312 96.542969 128.960938 C 96.429688 129.109375 96.328125 129.261719 96.230469 129.417969 C 96.222656 129.429688 96.214844 129.445312 96.207031 129.457031 C 96.109375 129.617188 96.019531 129.785156 95.933594 129.953125 C 95.929688 129.964844 95.925781 129.972656 95.921875 129.984375 C 95.835938 130.15625 95.757812 130.335938 95.6875 130.519531 C 95.6875 130.523438 95.683594 130.53125 95.683594 130.535156 C 95.46875 131.105469 95.335938 131.710938 95.296875 132.34375 L 95.289062 132.410156 C 95.285156 132.527344 95.273438 132.644531 95.273438 132.765625 C 95.273438 136.335938 98.21875 139.238281 101.84375 139.238281 C 105.464844 139.238281 108.410156 136.335938 108.410156 132.765625 Z M 94.191406 131.648438 C 94.191406 131.636719 94.195312 131.628906 94.195312 131.621094 C 94.230469 131.402344 94.269531 131.1875 94.324219 130.976562 C 94.324219 130.964844 94.328125 130.953125 94.332031 130.945312 C 94.714844 129.410156 95.566406 128.0625 96.730469 127.050781 C 96.753906 127.03125 96.773438 127.011719 96.792969 126.992188 C 96.933594 126.875 97.078125 126.765625 97.222656 126.65625 C 97.265625 126.625 97.308594 126.59375 97.355469 126.5625 C 97.492188 126.464844 97.628906 126.375 97.773438 126.289062 C 97.835938 126.25 97.894531 126.214844 97.957031 126.179688 C 98.089844 126.101562 98.226562 126.027344 98.367188 125.957031 C 98.445312 125.921875 98.519531 125.882812 98.597656 125.847656 C 98.730469 125.789062 98.863281 125.730469 99 125.675781 C 99.09375 125.640625 99.1875 125.609375 99.28125 125.574219 C 99.410156 125.53125 99.535156 125.488281 99.667969 125.449219 C 99.78125 125.417969 99.894531 125.390625 100.011719 125.363281 C 100.128906 125.335938 100.246094 125.304688 100.363281 125.28125 C 100.507812 125.253906 100.65625 125.234375 100.804688 125.214844 C 100.898438 125.203125 100.992188 125.183594 101.089844 125.175781 C 101.339844 125.152344 101.589844 125.136719 101.84375 125.136719 C 102.058594 125.136719 102.28125 125.148438 102.503906 125.167969 C 102.492188 125.019531 102.484375 124.871094 102.484375 124.726562 C 102.484375 124.542969 102.496094 124.363281 102.511719 124.183594 C 102.515625 124.136719 102.519531 124.09375 102.527344 124.046875 C 102.542969 123.890625 102.566406 123.738281 102.597656 123.585938 C 102.613281 123.507812 102.628906 123.433594 102.648438 123.359375 C 102.667969 123.28125 102.6875 123.203125 102.707031 123.125 C 102.753906 122.960938 102.804688 122.800781 102.863281 122.644531 C 102.875 122.613281 102.886719 122.582031 102.898438 122.546875 C 103.027344 122.222656 103.183594 121.90625 103.363281 121.609375 C 103.371094 121.601562 103.375 121.589844 103.382812 121.582031 C 103.503906 121.382812 103.636719 121.191406 103.78125 121.007812 C 103.785156 121.003906 103.789062 121 103.789062 120.996094 C 103.863281 120.90625 103.9375 120.816406 104.011719 120.730469 C 104.03125 120.707031 104.054688 120.6875 104.074219 120.664062 C 104.199219 120.527344 104.328125 120.398438 104.464844 120.273438 C 104.507812 120.230469 104.554688 120.1875 104.605469 120.148438 C 104.675781 120.085938 104.746094 120.027344 104.820312 119.96875 C 104.921875 119.890625 105.023438 119.8125 105.128906 119.738281 C 103.953125 115.699219 100.222656 112.910156 95.914062 112.910156 C 90.628906 112.910156 86.328125 117.148438 86.328125 122.355469 C 86.328125 126.945312 89.667969 130.839844 94.191406 131.648438 Z M 108.664062 119.796875 C 107.800781 119.796875 106.992188 120.011719 106.28125 120.390625 L 106.242188 120.414062 C 106.191406 120.441406 106.136719 120.476562 106.085938 120.507812 C 105.910156 120.609375 105.746094 120.722656 105.585938 120.84375 C 105.574219 120.855469 105.5625 120.863281 105.550781 120.871094 C 105.390625 120.996094 105.242188 121.128906 105.101562 121.269531 C 105.0625 121.304688 105.03125 121.347656 104.992188 121.382812 C 104.90625 121.476562 104.820312 121.574219 104.738281 121.675781 C 104.683594 121.742188 104.628906 121.8125 104.578125 121.886719 C 104.523438 121.960938 104.472656 122.042969 104.421875 122.121094 C 104.371094 122.203125 104.320312 122.28125 104.273438 122.363281 C 104.199219 122.496094 104.132812 122.628906 104.070312 122.769531 C 104.03125 122.859375 104 122.949219 103.964844 123.042969 C 103.929688 123.144531 103.890625 123.246094 103.859375 123.347656 C 103.839844 123.425781 103.820312 123.503906 103.800781 123.582031 C 103.769531 123.703125 103.746094 123.824219 103.726562 123.945312 C 103.71875 124.011719 103.703125 124.078125 103.695312 124.144531 C 103.675781 124.335938 103.660156 124.527344 103.660156 124.726562 C 103.660156 124.90625 103.675781 125.089844 103.695312 125.273438 C 103.699219 125.304688 103.707031 125.335938 103.710938 125.367188 C 103.796875 125.386719 103.878906 125.414062 103.964844 125.4375 C 104.09375 125.472656 104.222656 125.511719 104.347656 125.554688 C 104.449219 125.589844 104.550781 125.625 104.652344 125.664062 C 104.835938 125.738281 105.019531 125.816406 105.195312 125.902344 C 105.25 125.925781 105.304688 125.949219 105.355469 125.976562 C 105.480469 126.039062 105.597656 126.105469 105.71875 126.171875 C 105.730469 126.179688 105.746094 126.191406 105.757812 126.199219 C 105.992188 126.332031 106.214844 126.480469 106.433594 126.636719 C 106.449219 126.648438 106.460938 126.660156 106.476562 126.671875 C 107.039062 127.085938 107.542969 127.574219 107.972656 128.125 C 108 128.160156 108.027344 128.199219 108.058594 128.238281 C 108.1875 128.40625 108.304688 128.582031 108.421875 128.761719 C 108.457031 128.820312 108.496094 128.882812 108.53125 128.941406 C 108.601562 129.058594 108.667969 129.179688 108.730469 129.304688 C 108.792969 129.417969 108.847656 129.53125 108.902344 129.648438 C 111.550781 129.523438 113.667969 127.363281 113.667969 124.726562 C 113.667969 122.007812 111.421875 119.796875 108.664062 119.796875 Z M 109.308594 130.777344 C 109.484375 131.414062 109.585938 132.078125 109.585938 132.765625 C 109.585938 136.972656 106.113281 140.394531 101.84375 140.394531 C 97.585938 140.394531 94.121094 136.992188 94.101562 132.804688 C 88.960938 131.945312 85.152344 127.546875 85.152344 122.355469 C 85.152344 116.511719 89.980469 111.753906 95.914062 111.753906 C 100.65625 111.753906 104.769531 114.765625 106.171875 119.160156 C 106.933594 118.828125 107.777344 118.636719 108.664062 118.636719 C 112.070312 118.636719 114.839844 121.367188 114.839844 124.726562 C 114.839844 127.867188 112.414062 130.457031 109.308594 130.777344 Z M 102.542969 128.210938 C 101.136719 127.441406 99.292969 127.902344 98.429688 129.238281 C 98.160156 129.660156 98.191406 130.015625 98.519531 130.25 L 98.523438 130.25 C 98.539062 130.261719 98.558594 130.273438 98.574219 130.28125 C 98.871094 130.457031 99.230469 130.375 99.46875 130.082031 C 100.222656 129.148438 100.785156 129.003906 101.972656 129.4375 C 102.371094 129.582031 102.769531 129.46875 102.917969 129.167969 C 103.089844 128.8125 102.949219 128.445312 102.542969 128.210938 Z M 95.835938 115.828125 C 96.292969 115.945312 96.621094 115.808594 96.753906 115.441406 C 96.894531 115.054688 96.714844 114.71875 96.253906 114.527344 C 94.277344 113.703125 91.769531 114.671875 90.886719 116.605469 C 90.65625 117.117188 90.71875 117.460938 91.089844 117.65625 C 91.113281 117.667969 91.140625 117.679688 91.164062 117.691406 C 91.5 117.832031 91.84375 117.714844 92.03125 117.394531 C 92.984375 115.777344 94.015625 115.351562 95.835938 115.828125 Z M 109.488281 112.5 C 109.496094 113.371094 110.226562 114.089844 111.121094 114.097656 C 112.054688 114.097656 112.742188 113.4375 112.757812 112.527344 C 112.769531 111.632812 112.082031 110.90625 111.191406 110.878906 L 111.140625 110.878906 C 110.714844 110.878906 110.289062 111.058594 109.972656 111.371094 C 109.664062 111.679688 109.488281 112.089844 109.488281 112.5 Z M 109.109375 114.507812 C 108.554688 113.957031 108.253906 113.230469 108.261719 112.460938 C 108.277344 110.910156 109.566406 109.644531 111.132812 109.644531 L 111.179688 109.644531 C 112.757812 109.667969 114.035156 110.949219 114.03125 112.496094 C 114.023438 114.070312 112.722656 115.347656 111.128906 115.347656 L 111.117188 115.347656 C 110.363281 115.34375 109.648438 115.046875 109.109375 114.507812 Z M 122.082031 122.90625 C 122.09375 122.011719 121.40625 121.289062 120.515625 121.257812 L 120.464844 121.257812 C 120.039062 121.257812 119.613281 121.4375 119.296875 121.753906 C 118.988281 122.058594 118.8125 122.472656 118.8125 122.882812 C 118.820312 123.753906 119.550781 124.46875 120.445312 124.476562 C 121.378906 124.476562 122.066406 123.816406 122.082031 122.90625 Z M 123.355469 122.878906 C 123.347656 124.449219 122.046875 125.730469 120.453125 125.730469 L 120.441406 125.730469 C 119.6875 125.726562 118.972656 125.429688 118.433594 124.886719 C 117.878906 124.335938 117.578125 123.609375 117.585938 122.84375 C 117.601562 121.289062 118.890625 120.027344 120.457031 120.027344 L 120.503906 120.027344 C 122.082031 120.050781 123.359375 121.328125 123.355469 122.878906 Z M 115.578125 133.269531 C 114.59375 132.996094 113.359375 133.640625 113.046875 134.585938 C 112.941406 134.902344 112.941406 135.203125 113.285156 135.359375 C 113.566406 135.488281 113.824219 135.390625 113.976562 135.105469 C 114.296875 134.519531 114.726562 134.175781 115.460938 134.347656 C 115.8125 134.429688 116.058594 134.238281 116.105469 133.878906 C 116.15625 133.5 115.902344 133.34375 115.578125 133.269531 Z M 109.117188 120.914062 C 109.464844 121.042969 109.722656 121.246094 109.609375 121.65625 C 109.503906 122.042969 109.207031 122.222656 108.832031 122.082031 C 108.050781 121.789062 107.53125 122.101562 107.09375 122.703125 C 106.886719 122.992188 106.589844 123.0625 106.296875 122.878906 C 105.945312 122.660156 105.988281 122.332031 106.148438 122 C 106.628906 121.007812 108.078125 120.476562 109.117188 120.914062 " fill-opacity="1" fill-rule="nonzero"/></g><g clip-path="url(#c0755c3d5d)"><path fill="#1d1d1b" d="M 364.136719 216.859375 C 364.136719 206.273438 355.527344 197.664062 344.945312 197.664062 L 334.925781 197.664062 C 335.300781 195.800781 335.492188 193.898438 335.492188 191.972656 C 335.492188 176.105469 322.589844 163.199219 306.726562 163.199219 C 306.578125 163.199219 306.417969 163.214844 306.269531 163.214844 C 304.027344 155.773438 300.679688 148.757812 296.273438 142.285156 L 310.671875 127.882812 C 312.1875 126.367188 312.1875 123.910156 310.671875 122.390625 L 246.382812 58.085938 C 245.054688 56.753906 243 56.589844 241.492188 57.59375 L 196.363281 57.59375 C 194.222656 57.59375 192.480469 59.332031 192.480469 61.476562 C 192.480469 79.796875 177.582031 94.703125 159.265625 94.703125 C 140.949219 94.703125 126.046875 79.800781 126.046875 61.476562 C 126.046875 59.335938 124.308594 57.59375 122.164062 57.59375 L 81.523438 57.59375 C 80.890625 57.179688 80.148438 56.949219 79.378906 56.949219 C 78.351562 56.949219 77.363281 57.359375 76.636719 58.085938 L 12.339844 122.394531 C 10.824219 123.910156 10.824219 126.367188 12.339844 127.882812 L 50.820312 166.371094 C 52.332031 167.886719 54.792969 167.886719 56.308594 166.371094 L 76.078125 146.597656 L 76.078125 159.132812 C 59.390625 164.929688 47.601562 180.097656 46.074219 197.664062 L 30.398438 197.664062 C 19.816406 197.664062 11.207031 206.273438 11.207031 216.859375 C 11.207031 227.445312 19.816406 236.054688 30.398438 236.054688 L 33.957031 236.054688 L 58.875 347.167969 C 61.441406 358.613281 71.421875 366.605469 83.152344 366.605469 L 297.910156 366.605469 C 309.636719 366.605469 319.621094 358.613281 322.1875 347.167969 L 347.136719 235.921875 C 356.6875 234.832031 364.136719 226.703125 364.136719 216.859375 Z M 53.5625 158.132812 L 20.578125 125.140625 L 80.339844 65.359375 L 118.464844 65.359375 C 120.429688 86.148438 137.976562 102.46875 159.265625 102.46875 C 180.554688 102.46875 198.105469 86.148438 200.066406 65.359375 L 239.3125 65.359375 C 239.644531 65.671875 240.035156 65.925781 240.472656 66.105469 C 241.4375 66.503906 242.496094 66.492188 243.425781 66.109375 L 302.441406 125.140625 L 291.554688 136.027344 C 276.921875 118.550781 255.746094 108.613281 232.78125 108.613281 C 204.6875 108.613281 178.933594 124.171875 165.578125 148.292969 C 160.953125 138.53125 150.980469 131.726562 139.574219 131.726562 C 123.710938 131.726562 110.808594 144.636719 110.808594 160.5 C 110.808594 160.769531 110.8125 161.035156 110.820312 161.300781 C 104.664062 158.21875 97.878906 156.617188 90.816406 156.617188 C 88.484375 156.617188 86.152344 156.800781 83.84375 157.164062 L 83.84375 137.222656 C 83.84375 135.652344 82.898438 134.238281 81.445312 133.636719 C 79.996094 133.03125 78.324219 133.363281 77.21875 134.476562 Z M 80.984375 165.710938 C 84.195312 164.832031 87.503906 164.386719 90.816406 164.386719 C 99.308594 164.386719 107.3125 167.183594 113.953125 172.484375 C 114.660156 173.046875 115.515625 173.332031 116.375 173.332031 C 117.179688 173.332031 117.988281 173.082031 118.671875 172.578125 C 120.082031 171.542969 120.625 169.683594 119.996094 168.046875 C 119.050781 165.601562 118.574219 163.0625 118.574219 160.5 C 118.574219 148.917969 127.996094 139.496094 139.574219 139.496094 C 150.941406 139.496094 160.351562 148.75 160.554688 160.128906 C 160.585938 161.992188 161.941406 163.574219 163.78125 163.886719 C 165.632812 164.199219 167.425781 163.160156 168.074219 161.410156 C 178.054688 134.476562 204.058594 116.378906 232.78125 116.378906 C 254.765625 116.378906 274.929688 126.511719 288.105469 144.179688 C 293.535156 151.460938 297.414062 159.574219 299.636719 168.289062 C 299.644531 168.324219 299.667969 168.351562 299.675781 168.386719 C 299.78125 168.757812 299.9375 169.105469 300.136719 169.421875 C 300.171875 169.476562 300.214844 169.523438 300.253906 169.578125 C 300.472656 169.886719 300.726562 170.171875 301.023438 170.398438 C 301.027344 170.402344 301.03125 170.40625 301.035156 170.410156 C 301.335938 170.640625 301.679688 170.8125 302.039062 170.949219 C 302.097656 170.96875 302.152344 170.996094 302.210938 171.015625 C 302.5625 171.128906 302.925781 171.191406 303.304688 171.199219 C 303.335938 171.199219 303.363281 171.214844 303.394531 171.214844 C 303.457031 171.214844 303.523438 171.191406 303.589844 171.1875 C 303.699219 171.183594 303.804688 171.191406 303.914062 171.175781 C 305.003906 171.03125 305.898438 170.960938 306.730469 170.960938 C 318.3125 170.960938 327.730469 180.386719 327.730469 191.96875 C 327.730469 193.910156 327.46875 195.816406 326.949219 197.660156 L 122.273438 197.660156 C 120.128906 197.660156 118.390625 199.402344 118.390625 201.542969 C 118.390625 212.035156 109.859375 220.566406 99.375 220.566406 C 88.886719 220.566406 80.355469 212.03125 80.355469 201.542969 C 80.355469 199.402344 78.617188 197.660156 76.472656 197.660156 L 53.867188 197.660156 C 55.453125 182.605469 66.15625 169.769531 80.984375 165.710938 Z M 18.96875 216.859375 C 18.96875 210.554688 24.097656 205.429688 30.398438 205.429688 L 72.871094 205.429688 C 74.714844 218.074219 85.425781 227.855469 98.46875 228.292969 L 63.519531 228.292969 C 63.515625 228.292969 63.515625 228.292969 63.511719 228.292969 L 30.398438 228.292969 C 24.097656 228.289062 18.96875 223.164062 18.96875 216.859375 Z M 314.609375 345.472656 C 312.84375 353.34375 305.976562 358.84375 297.910156 358.84375 L 83.148438 358.84375 C 75.082031 358.84375 68.214844 353.34375 66.449219 345.472656 L 41.910156 236.058594 L 339.144531 236.058594 Z M 344.945312 228.289062 L 288.652344 228.289062 C 288.648438 228.289062 288.644531 228.289062 288.640625 228.289062 L 100.195312 228.289062 C 113.269531 227.890625 123.988281 218.09375 125.839844 205.425781 L 344.949219 205.425781 C 351.25 205.425781 356.375 210.554688 356.375 216.859375 C 356.375 223.160156 351.25 228.289062 344.945312 228.289062 Z M 344.945312 228.289062 " fill-opacity="1" fill-rule="nonzero"/></g><path fill="#1d1d1b" d="M 95.445312 337.945312 C 102.78125 337.945312 108.75 331.976562 108.75 324.640625 C 108.75 317.304688 102.78125 311.332031 95.445312 311.332031 C 88.113281 311.332031 82.144531 317.304688 82.144531 324.640625 C 82.144531 331.976562 88.113281 337.945312 95.445312 337.945312 Z M 95.445312 319.097656 C 98.5 319.097656 100.984375 321.582031 100.984375 324.640625 C 100.984375 327.695312 98.5 330.179688 95.445312 330.179688 C 92.390625 330.179688 89.90625 327.695312 89.90625 324.640625 C 89.90625 321.585938 92.394531 319.097656 95.445312 319.097656 Z M 95.445312 319.097656 " fill-opacity="1" fill-rule="nonzero"/><path fill="#1d1d1b" d="M 131.695312 337.945312 C 139.027344 337.945312 144.996094 331.976562 144.996094 324.640625 C 144.996094 317.304688 139.027344 311.332031 131.695312 311.332031 C 124.359375 311.332031 118.390625 317.304688 118.390625 324.640625 C 118.390625 331.976562 124.355469 337.945312 131.695312 337.945312 Z M 131.695312 319.097656 C 134.75 319.097656 137.234375 321.582031 137.234375 324.640625 C 137.234375 327.695312 134.75 330.179688 131.695312 330.179688 C 128.636719 330.179688 126.152344 327.695312 126.152344 324.640625 C 126.152344 321.585938 128.636719 319.097656 131.695312 319.097656 Z M 131.695312 319.097656 " fill-opacity="1" fill-rule="nonzero"/><path fill="#1d1d1b" d="M 167.9375 337.945312 C 175.273438 337.945312 181.242188 331.976562 181.242188 324.640625 C 181.242188 317.304688 175.273438 311.332031 167.9375 311.332031 C 160.605469 311.332031 154.636719 317.304688 154.636719 324.640625 C 154.636719 331.976562 160.601562 337.945312 167.9375 337.945312 Z M 167.9375 319.097656 C 170.992188 319.097656 173.476562 321.582031 173.476562 324.640625 C 173.476562 327.695312 170.992188 330.179688 167.9375 330.179688 C 164.882812 330.179688 162.398438 327.695312 162.398438 324.640625 C 162.398438 321.585938 164.882812 319.097656 167.9375 319.097656 Z M 167.9375 319.097656 " fill-opacity="1" fill-rule="nonzero"/></svg>