<svg xmlns="http://www.w3.org/2000/svg" xmlns:xlink="http://www.w3.org/1999/xlink" width="500" zoomAndPan="magnify" viewBox="0 0 375 374.999991" height="500" preserveAspectRatio="xMidYMid meet" version="1.0"><defs><g/><clipPath id="f30ad8d3db"><path d="M 85.128906 333.804688 L 92.519531 333.804688 L 92.519531 341.195312 L 85.128906 341.195312 Z M 85.128906 333.804688 " clip-rule="nonzero"/></clipPath><clipPath id="3ebe438bba"><path d="M 88.824219 333.804688 C 86.78125 333.804688 85.128906 335.460938 85.128906 337.5 C 85.128906 339.539062 86.78125 341.195312 88.824219 341.195312 C 90.863281 341.195312 92.519531 339.539062 92.519531 337.5 C 92.519531 335.460938 90.863281 333.804688 88.824219 333.804688 " clip-rule="nonzero"/></clipPath><clipPath id="3be1f7052c"><path d="M 279.847656 333.804688 L 287.234375 333.804688 L 287.234375 341.195312 L 279.847656 341.195312 Z M 279.847656 333.804688 " clip-rule="nonzero"/></clipPath><clipPath id="b3eea3366e"><path d="M 283.542969 333.804688 C 281.5 333.804688 279.847656 335.460938 279.847656 337.5 C 279.847656 339.539062 281.5 341.195312 283.542969 341.195312 C 285.582031 341.195312 287.234375 339.539062 287.234375 337.5 C 287.234375 335.460938 285.582031 333.804688 283.542969 333.804688 " clip-rule="nonzero"/></clipPath><clipPath id="cb1b92d661"><path d="M 255.652344 187.5 L 295.402344 187.5 L 295.402344 234.75 L 255.652344 234.75 Z M 255.652344 187.5 " clip-rule="nonzero"/></clipPath><clipPath id="3f2a6d7e4b"><path d="M 258.230469 94.070312 L 287.480469 94.070312 L 287.480469 128.570312 L 258.230469 128.570312 Z M 258.230469 94.070312 " clip-rule="nonzero"/></clipPath><clipPath id="80b54d6675"><path d="M 85.152344 109.644531 L 123.355469 109.644531 L 123.355469 140.394531 L 85.152344 140.394531 Z M 85.152344 109.644531 " clip-rule="nonzero"/></clipPath><clipPath id="fc88aff06d"><path d="M 0 13.101562 L 366.75 13.101562 L 366.75 367.101562 L 0 367.101562 Z M 0 13.101562 " clip-rule="nonzero"/></clipPath></defs><g fill="#ffffff" fill-opacity="1"><g transform="translate(100.769829, 342.374978)"><g><path d="M 5.890625 -11.6875 C 7.066406 -11.6875 8.101562 -11.421875 9 -10.890625 L 8.65625 -9.25 L 8.484375 -9.203125 C 7.671875 -9.828125 6.78125 -10.140625 5.8125 -10.140625 C 4.757812 -10.140625 3.953125 -9.78125 3.390625 -9.0625 C 2.835938 -8.34375 2.5625 -7.28125 2.5625 -5.875 C 2.5625 -4.414062 2.84375 -3.304688 3.40625 -2.546875 C 3.96875 -1.796875 4.769531 -1.421875 5.8125 -1.421875 C 6.3125 -1.421875 6.8125 -1.503906 7.3125 -1.671875 C 7.8125 -1.847656 8.269531 -2.09375 8.6875 -2.40625 L 8.875 -2.296875 L 8.734375 -0.609375 C 7.703125 -0.109375 6.679688 0.140625 5.671875 0.140625 C 4.046875 0.140625 2.796875 -0.359375 1.921875 -1.359375 C 1.046875 -2.367188 0.609375 -3.804688 0.609375 -5.671875 C 0.609375 -7.585938 1.066406 -9.066406 1.984375 -10.109375 C 2.898438 -11.160156 4.203125 -11.6875 5.890625 -11.6875 Z M 5.890625 -11.6875 "/></g></g></g><g fill="#ffffff" fill-opacity="1"><g transform="translate(111.047801, 342.374978)"><g><path d="M 7.578125 -1.390625 L 7.4375 0 L 1.5 0 L 1.625 -3.46875 L 1.5 -11.5625 L 3.40625 -11.5625 L 3.296875 -3.640625 L 3.328125 -1.546875 L 7.453125 -1.546875 Z M 7.578125 -1.390625 "/></g></g></g><g fill="#ffffff" fill-opacity="1"><g transform="translate(119.597783, 342.374978)"><g><path d="M 8.390625 -1.578125 L 8.5 -1.421875 L 8.375 0 L 1.546875 0 L 1.671875 -3.46875 L 1.546875 -11.5625 L 8.40625 -11.5625 L 8.515625 -11.390625 L 8.375 -9.96875 L 5.640625 -10.046875 L 3.4375 -10.03125 L 3.390625 -6.65625 L 5.46875 -6.625 L 7.375 -6.671875 L 7.5 -6.53125 L 7.359375 -5.109375 L 5.328125 -5.171875 L 3.359375 -5.125 L 3.34375 -3.640625 L 3.40625 -1.515625 L 5.59375 -1.5 Z M 8.390625 -1.578125 "/></g></g></g><g fill="#ffffff" fill-opacity="1"><g transform="translate(129.40776, 342.374978)"><g><path d="M 10.21875 0 L 8.3125 0 L 8.046875 -1.296875 L 7.546875 -2.890625 L 5.09375 -2.953125 L 2.875 -2.890625 L 2.34375 -1.390625 L 2.046875 0 L 0.203125 0 L 4.3125 -11.5625 L 6.5 -11.5625 Z M 7.078125 -4.40625 L 5.421875 -9.734375 L 5.296875 -9.734375 L 3.40625 -4.40625 L 5.21875 -4.375 Z M 7.078125 -4.40625 "/></g></g></g><g fill="#ffffff" fill-opacity="1"><g transform="translate(140.909724, 342.374978)"><g><path d="M 10.734375 -3.453125 L 10.78125 0 L 8.78125 0 L 3.34375 -8.65625 L 3.21875 -8.65625 L 3.203125 -3.875 L 3.265625 0 L 1.5625 0 L 1.65625 -3.421875 L 1.578125 -11.5625 L 3.546875 -11.5625 L 9 -2.890625 L 9.140625 -2.890625 L 9.109375 -11.46875 L 10.828125 -11.59375 Z M 10.734375 -3.453125 "/></g></g></g><g fill="#ffffff" fill-opacity="1"><g transform="translate(154.229682, 342.374978)"><g/></g></g><g fill="#ffffff" fill-opacity="1"><g transform="translate(158.045679, 342.374978)"><g><path d="M 4.984375 -5.40625 L 4.984375 -4.25 L 0.671875 -3.59375 L 0.5 -3.765625 L 0.5 -4.90625 L 4.828125 -5.546875 Z M 4.984375 -5.40625 "/></g></g></g><g fill="#ffffff" fill-opacity="1"><g transform="translate(164.489664, 342.374978)"><g/></g></g><g fill="#ffffff" fill-opacity="1"><g transform="translate(168.305662, 342.374978)"><g><path d="M 3.4375 -10.03125 L 3.390625 -6.390625 L 5.203125 -6.359375 L 7.109375 -6.40625 L 7.234375 -6.25 L 7.09375 -4.84375 L 5.046875 -4.890625 L 3.359375 -4.875 L 3.34375 -3.640625 L 3.4375 0 L 1.546875 0 L 1.671875 -3.46875 L 1.546875 -11.5625 L 8.015625 -11.5625 L 8.140625 -11.390625 L 7.984375 -9.9375 L 5.296875 -10.046875 Z M 3.4375 -10.03125 "/></g></g></g><g fill="#ffffff" fill-opacity="1"><g transform="translate(177.215642, 342.374978)"><g><path d="M 6.84375 -4.625 C 7.65625 -3.3125 8.617188 -1.914062 9.734375 -0.4375 L 9.71875 -0.21875 C 9.144531 -0.0195312 8.550781 0.101562 7.9375 0.15625 L 7.71875 0.015625 C 6.726562 -1.617188 5.925781 -3 5.3125 -4.125 L 3.34375 -4.125 L 3.34375 -3.640625 L 3.4375 0 L 1.546875 0 L 1.671875 -3.46875 L 1.546875 -11.5625 L 5.46875 -11.578125 C 6.632812 -11.578125 7.535156 -11.285156 8.171875 -10.703125 C 8.804688 -10.117188 9.125 -9.285156 9.125 -8.203125 C 9.125 -7.441406 8.921875 -6.75 8.515625 -6.125 C 8.117188 -5.507812 7.5625 -5.007812 6.84375 -4.625 Z M 3.390625 -5.640625 L 5.359375 -5.578125 C 6.578125 -5.953125 7.1875 -6.78125 7.1875 -8.0625 C 7.1875 -8.738281 7 -9.242188 6.625 -9.578125 C 6.257812 -9.910156 5.707031 -10.085938 4.96875 -10.109375 L 3.4375 -10.0625 Z M 3.390625 -5.640625 "/></g></g></g><g fill="#ffffff" fill-opacity="1"><g transform="translate(188.411614, 342.374978)"><g><path d="M 8.390625 -1.578125 L 8.5 -1.421875 L 8.375 0 L 1.546875 0 L 1.671875 -3.46875 L 1.546875 -11.5625 L 8.40625 -11.5625 L 8.515625 -11.390625 L 8.375 -9.96875 L 5.640625 -10.046875 L 3.4375 -10.03125 L 3.390625 -6.65625 L 5.46875 -6.625 L 7.375 -6.671875 L 7.5 -6.53125 L 7.359375 -5.109375 L 5.328125 -5.171875 L 3.359375 -5.125 L 3.34375 -3.640625 L 3.40625 -1.515625 L 5.59375 -1.5 Z M 8.390625 -1.578125 "/></g></g></g><g fill="#ffffff" fill-opacity="1"><g transform="translate(198.221586, 342.374978)"><g><path d="M 4.9375 -11.6875 C 5.84375 -11.6875 6.753906 -11.492188 7.671875 -11.109375 L 7.359375 -9.40625 L 7.078125 -9.3125 C 6.691406 -9.582031 6.296875 -9.796875 5.890625 -9.953125 C 5.484375 -10.109375 5.09375 -10.1875 4.71875 -10.1875 C 4.125 -10.1875 3.65625 -10.023438 3.3125 -9.703125 C 2.96875 -9.378906 2.796875 -9 2.796875 -8.5625 C 2.796875 -8.144531 2.96875 -7.800781 3.3125 -7.53125 C 3.65625 -7.257812 4.203125 -6.953125 4.953125 -6.609375 C 5.597656 -6.296875 6.117188 -6.007812 6.515625 -5.75 C 6.921875 -5.5 7.265625 -5.164062 7.546875 -4.75 C 7.835938 -4.34375 7.984375 -3.851562 7.984375 -3.28125 C 7.984375 -2.65625 7.8125 -2.082031 7.46875 -1.5625 C 7.132812 -1.039062 6.65625 -0.625 6.03125 -0.3125 C 5.414062 -0.0078125 4.710938 0.140625 3.921875 0.140625 C 3.390625 0.140625 2.84375 0.078125 2.28125 -0.046875 C 1.71875 -0.179688 1.1875 -0.375 0.6875 -0.625 L 0.921875 -2.46875 L 1.15625 -2.578125 C 1.59375 -2.148438 2.078125 -1.832031 2.609375 -1.625 C 3.148438 -1.414062 3.648438 -1.3125 4.109375 -1.3125 C 4.734375 -1.3125 5.226562 -1.472656 5.59375 -1.796875 C 5.96875 -2.128906 6.15625 -2.523438 6.15625 -2.984375 C 6.15625 -3.441406 5.972656 -3.8125 5.609375 -4.09375 C 5.253906 -4.375 4.703125 -4.691406 3.953125 -5.046875 C 3.316406 -5.335938 2.800781 -5.609375 2.40625 -5.859375 C 2.007812 -6.109375 1.671875 -6.4375 1.390625 -6.84375 C 1.109375 -7.25 0.96875 -7.738281 0.96875 -8.3125 C 0.96875 -8.9375 1.132812 -9.503906 1.46875 -10.015625 C 1.8125 -10.535156 2.28125 -10.941406 2.875 -11.234375 C 3.476562 -11.535156 4.164062 -11.6875 4.9375 -11.6875 Z M 4.9375 -11.6875 "/></g></g></g><g fill="#ffffff" fill-opacity="1"><g transform="translate(207.85156, 342.374978)"><g><path d="M 10.765625 -3.640625 L 10.8125 0 L 8.96875 0 L 9.046875 -3.46875 L 9.03125 -5.046875 L 6.078125 -5.0625 L 3.390625 -5.046875 L 3.359375 -3.640625 L 3.4375 0 L 1.609375 0 L 1.671875 -3.46875 L 1.609375 -11.5625 L 3.453125 -11.5625 L 3.40625 -6.59375 L 6.234375 -6.546875 L 9.015625 -6.59375 L 8.96875 -11.5625 L 10.859375 -11.5625 Z M 10.765625 -3.640625 "/></g></g></g><g fill="#ffffff" fill-opacity="1"><g transform="translate(221.189522, 342.374978)"><g/></g></g><g fill="#ffffff" fill-opacity="1"><g transform="translate(225.00552, 342.374978)"><g><path d="M 4.984375 -5.40625 L 4.984375 -4.25 L 0.671875 -3.59375 L 0.5 -3.765625 L 0.5 -4.90625 L 4.828125 -5.546875 Z M 4.984375 -5.40625 "/></g></g></g><g fill="#ffffff" fill-opacity="1"><g transform="translate(231.449504, 342.374978)"><g/></g></g><g fill="#ffffff" fill-opacity="1"><g transform="translate(235.265502, 342.374978)"><g><path d="M 3.4375 -10.03125 L 3.390625 -6.390625 L 5.203125 -6.359375 L 7.109375 -6.40625 L 7.234375 -6.25 L 7.09375 -4.84375 L 5.046875 -4.890625 L 3.359375 -4.875 L 3.34375 -3.640625 L 3.4375 0 L 1.546875 0 L 1.671875 -3.46875 L 1.546875 -11.5625 L 8.015625 -11.5625 L 8.140625 -11.390625 L 7.984375 -9.9375 L 5.296875 -10.046875 Z M 3.4375 -10.03125 "/></g></g></g><g fill="#ffffff" fill-opacity="1"><g transform="translate(244.175482, 342.374978)"><g><path d="M 10.21875 0 L 8.3125 0 L 8.046875 -1.296875 L 7.546875 -2.890625 L 5.09375 -2.953125 L 2.875 -2.890625 L 2.34375 -1.390625 L 2.046875 0 L 0.203125 0 L 4.3125 -11.5625 L 6.5 -11.5625 Z M 7.078125 -4.40625 L 5.421875 -9.734375 L 5.296875 -9.734375 L 3.40625 -4.40625 L 5.21875 -4.375 Z M 7.078125 -4.40625 "/></g></g></g><g fill="#ffffff" fill-opacity="1"><g transform="translate(255.677446, 342.374978)"><g><path d="M 4.9375 -11.6875 C 5.84375 -11.6875 6.753906 -11.492188 7.671875 -11.109375 L 7.359375 -9.40625 L 7.078125 -9.3125 C 6.691406 -9.582031 6.296875 -9.796875 5.890625 -9.953125 C 5.484375 -10.109375 5.09375 -10.1875 4.71875 -10.1875 C 4.125 -10.1875 3.65625 -10.023438 3.3125 -9.703125 C 2.96875 -9.378906 2.796875 -9 2.796875 -8.5625 C 2.796875 -8.144531 2.96875 -7.800781 3.3125 -7.53125 C 3.65625 -7.257812 4.203125 -6.953125 4.953125 -6.609375 C 5.597656 -6.296875 6.117188 -6.007812 6.515625 -5.75 C 6.921875 -5.5 7.265625 -5.164062 7.546875 -4.75 C 7.835938 -4.34375 7.984375 -3.851562 7.984375 -3.28125 C 7.984375 -2.65625 7.8125 -2.082031 7.46875 -1.5625 C 7.132812 -1.039062 6.65625 -0.625 6.03125 -0.3125 C 5.414062 -0.0078125 4.710938 0.140625 3.921875 0.140625 C 3.390625 0.140625 2.84375 0.078125 2.28125 -0.046875 C 1.71875 -0.179688 1.1875 -0.375 0.6875 -0.625 L 0.921875 -2.46875 L 1.15625 -2.578125 C 1.59375 -2.148438 2.078125 -1.832031 2.609375 -1.625 C 3.148438 -1.414062 3.648438 -1.3125 4.109375 -1.3125 C 4.734375 -1.3125 5.226562 -1.472656 5.59375 -1.796875 C 5.96875 -2.128906 6.15625 -2.523438 6.15625 -2.984375 C 6.15625 -3.441406 5.972656 -3.8125 5.609375 -4.09375 C 5.253906 -4.375 4.703125 -4.691406 3.953125 -5.046875 C 3.316406 -5.335938 2.800781 -5.609375 2.40625 -5.859375 C 2.007812 -6.109375 1.671875 -6.4375 1.390625 -6.84375 C 1.109375 -7.25 0.96875 -7.738281 0.96875 -8.3125 C 0.96875 -8.9375 1.132812 -9.503906 1.46875 -10.015625 C 1.8125 -10.535156 2.28125 -10.941406 2.875 -11.234375 C 3.476562 -11.535156 4.164062 -11.6875 4.9375 -11.6875 Z M 4.9375 -11.6875 "/></g></g></g><g fill="#ffffff" fill-opacity="1"><g transform="translate(265.30742, 342.374978)"><g><path d="M 8.59375 -11.390625 L 8.484375 -9.984375 L 6.390625 -10.09375 L 5.421875 -10.09375 L 5.328125 -3.640625 L 5.421875 0 L 3.546875 0 L 3.65625 -3.46875 L 3.5625 -10.09375 L 2.59375 -10.09375 L 0.46875 -9.984375 L 0.34375 -10.15625 L 0.484375 -11.5625 L 8.484375 -11.5625 Z M 8.59375 -11.390625 "/></g></g></g><g clip-path="url(#f30ad8d3db)"><g clip-path="url(#3ebe438bba)"><path fill="#ffffff" d="M 85.128906 333.804688 L 92.519531 333.804688 L 92.519531 341.195312 L 85.128906 341.195312 Z M 85.128906 333.804688 " fill-opacity="1" fill-rule="nonzero"/></g></g><g clip-path="url(#3be1f7052c)"><g clip-path="url(#b3eea3366e)"><path fill="#ffffff" d="M 279.847656 333.804688 L 287.234375 333.804688 L 287.234375 341.195312 L 279.847656 341.195312 Z M 279.847656 333.804688 " fill-opacity="1" fill-rule="nonzero"/></g></g><g clip-path="url(#cb1b92d661)"><path fill="#ffffff" d="M 280.316406 226.957031 C 280.046875 226.957031 279.824219 227.269531 279.824219 227.65625 C 279.824219 228.042969 280.046875 228.355469 280.316406 228.355469 C 280.585938 228.355469 280.808594 228.042969 280.808594 227.65625 C 280.808594 227.269531 280.59375 226.957031 280.316406 226.957031 Z M 284.777344 221.351562 C 284.65625 221.292969 284.414062 221.339844 284.285156 221.351562 C 283.929688 221.394531 283.578125 221.496094 283.242188 221.632812 C 283.195312 221.652344 283.148438 221.671875 283.09375 221.699219 C 282.507812 221.96875 281.972656 222.355469 281.507812 222.8125 C 281.378906 222.941406 281.25 223.078125 281.128906 223.210938 C 280.664062 223.753906 280.296875 224.386719 280.15625 225.078125 C 280.109375 225.316406 280.082031 225.5625 280.085938 225.8125 C 280.085938 225.894531 280.109375 225.988281 280.148438 226.070312 C 280.203125 226.183594 280.289062 226.265625 280.4375 226.21875 C 280.53125 226.191406 280.59375 226.109375 280.644531 226.035156 C 280.699219 225.960938 280.746094 225.878906 280.792969 225.796875 C 280.90625 225.582031 280.996094 225.34375 281.097656 225.113281 C 281.195312 224.882812 281.3125 224.65625 281.441406 224.433594 C 281.492188 224.34375 281.539062 224.257812 281.59375 224.175781 C 282.050781 223.46875 282.644531 222.847656 283.328125 222.371094 C 283.765625 222.058594 284.25 221.808594 284.777344 221.589844 C 284.925781 221.535156 284.902344 221.421875 284.777344 221.351562 Z M 292.480469 227.027344 C 292.480469 223.675781 290.035156 220.882812 286.847656 220.375 C 286.511719 220.320312 286.175781 220.292969 285.824219 220.292969 C 285.820312 220.292969 285.8125 220.292969 285.804688 220.292969 C 285.246094 220.292969 284.707031 220.363281 284.199219 220.492188 C 282.347656 220.953125 280.800781 222.203125 279.917969 223.855469 C 279.664062 224.339844 279.460938 224.863281 279.328125 225.40625 C 279.246094 225.738281 279.191406 226.078125 279.160156 226.421875 C 279.140625 226.621094 279.132812 226.824219 279.132812 227.019531 C 279.132812 230.730469 282.125 233.753906 285.804688 233.753906 C 289.484375 233.753906 292.480469 230.738281 292.480469 227.027344 Z M 293.414062 227.027344 C 293.414062 231.261719 290.003906 234.703125 285.804688 234.703125 C 281.609375 234.703125 278.195312 231.261719 278.195312 227.027344 C 278.195312 226.910156 278.203125 226.796875 278.203125 226.679688 C 278.21875 226.355469 278.25 226.027344 278.304688 225.714844 C 278.386719 225.242188 278.507812 224.785156 278.667969 224.34375 C 279.648438 221.6875 282.058594 219.71875 284.953125 219.398438 C 285.226562 219.363281 285.507812 219.351562 285.792969 219.351562 C 285.980469 219.351562 286.167969 219.359375 286.355469 219.371094 C 286.679688 219.398438 287.003906 219.4375 287.3125 219.5 C 290.796875 220.21875 293.414062 223.320312 293.414062 227.027344 Z M 264.75 190.328125 C 264.75 191.203125 265.457031 191.917969 266.324219 191.917969 C 267.191406 191.917969 267.898438 191.203125 267.898438 190.328125 C 267.898438 189.453125 267.191406 188.742188 266.324219 188.742188 C 265.460938 188.742188 264.75 189.453125 264.75 190.328125 Z M 264.082031 190.328125 C 264.082031 189.082031 265.09375 188.0625 266.332031 188.0625 C 267.566406 188.0625 268.578125 189.082031 268.578125 190.328125 C 268.578125 191.578125 267.566406 192.597656 266.332031 192.597656 C 265.09375 192.597656 264.082031 191.585938 264.082031 190.328125 Z M 260.28125 221.054688 L 259.886719 221.054688 C 259.738281 221.054688 259.617188 221.175781 259.617188 221.324219 C 259.617188 221.476562 259.738281 221.597656 259.886719 221.597656 L 260.28125 221.597656 C 260.429688 221.597656 260.550781 221.476562 260.550781 221.324219 C 260.550781 221.175781 260.429688 221.054688 260.28125 221.054688 Z M 256.320312 221.054688 L 255.921875 221.054688 C 255.777344 221.054688 255.65625 221.175781 255.65625 221.324219 C 255.65625 221.476562 255.777344 221.597656 255.921875 221.597656 L 256.320312 221.597656 C 256.46875 221.597656 256.589844 221.476562 256.589844 221.324219 C 256.589844 221.175781 256.46875 221.054688 256.320312 221.054688 Z M 259.3125 220.292969 L 259.609375 219.996094 C 259.664062 219.941406 259.664062 219.859375 259.609375 219.804688 C 259.554688 219.75 259.476562 219.75 259.421875 219.804688 L 259.125 220.105469 C 259.070312 220.15625 259.070312 220.238281 259.125 220.292969 C 259.152344 220.320312 259.1875 220.335938 259.21875 220.335938 C 259.253906 220.328125 259.289062 220.316406 259.3125 220.292969 Z M 256.804688 222.445312 L 256.589844 222.664062 C 256.535156 222.71875 256.535156 222.796875 256.589844 222.851562 C 256.617188 222.878906 256.648438 222.894531 256.683594 222.894531 C 256.71875 222.894531 256.75 222.878906 256.777344 222.851562 L 256.992188 222.636719 C 257.046875 222.582031 257.046875 222.5 256.992188 222.445312 C 256.941406 222.390625 256.859375 222.390625 256.804688 222.445312 Z M 259.402344 222.445312 C 259.347656 222.390625 259.265625 222.390625 259.214844 222.445312 C 259.160156 222.5 259.160156 222.582031 259.214844 222.636719 L 259.429688 222.851562 C 259.457031 222.878906 259.488281 222.894531 259.523438 222.894531 C 259.554688 222.894531 259.589844 222.878906 259.617188 222.851562 C 259.671875 222.796875 259.671875 222.71875 259.617188 222.664062 Z M 256.777344 219.796875 C 256.722656 219.746094 256.644531 219.746094 256.589844 219.796875 C 256.535156 219.851562 256.535156 219.933594 256.589844 219.988281 L 256.886719 220.289062 C 256.914062 220.316406 256.945312 220.328125 256.980469 220.328125 C 257.011719 220.328125 257.046875 220.316406 257.074219 220.289062 C 257.128906 220.234375 257.128906 220.152344 257.074219 220.097656 Z M 258.101562 222.851562 C 257.957031 222.851562 257.835938 222.976562 257.835938 223.125 L 257.835938 223.523438 C 257.835938 223.675781 257.957031 223.796875 258.101562 223.796875 C 258.25 223.796875 258.371094 223.675781 258.371094 223.523438 L 258.371094 223.125 C 258.371094 222.976562 258.25 222.851562 258.101562 222.851562 Z M 258.101562 218.855469 C 257.957031 218.855469 257.835938 218.976562 257.835938 219.125 L 257.835938 219.539062 C 257.835938 219.691406 257.957031 219.8125 258.101562 219.8125 C 258.25 219.8125 258.371094 219.691406 258.371094 219.539062 L 258.371094 219.125 C 258.371094 218.976562 258.25 218.855469 258.101562 218.855469 Z M 295.128906 209.460938 L 294.730469 209.460938 C 294.585938 209.460938 294.464844 209.585938 294.464844 209.734375 C 294.464844 209.882812 294.585938 210.003906 294.730469 210.003906 L 295.128906 210.003906 C 295.277344 210.003906 295.398438 209.882812 295.398438 209.734375 C 295.390625 209.585938 295.277344 209.460938 295.128906 209.460938 Z M 291.167969 209.460938 L 290.769531 209.460938 C 290.621094 209.460938 290.5 209.585938 290.5 209.734375 C 290.5 209.882812 290.621094 210.003906 290.769531 210.003906 L 291.167969 210.003906 C 291.316406 210.003906 291.4375 209.882812 291.4375 209.734375 C 291.4375 209.585938 291.316406 209.460938 291.167969 209.460938 Z M 294.160156 208.703125 L 294.457031 208.402344 C 294.511719 208.347656 294.511719 208.269531 294.457031 208.214844 C 294.402344 208.160156 294.320312 208.160156 294.269531 208.214844 L 293.972656 208.511719 C 293.917969 208.566406 293.917969 208.648438 293.972656 208.703125 C 294 208.730469 294.03125 208.742188 294.066406 208.742188 C 294.101562 208.742188 294.132812 208.730469 294.160156 208.703125 Z M 291.53125 211.300781 C 291.5625 211.300781 291.597656 211.289062 291.625 211.261719 L 291.839844 211.042969 C 291.894531 210.988281 291.894531 210.90625 291.839844 210.851562 C 291.785156 210.800781 291.703125 210.800781 291.652344 210.851562 L 291.4375 211.070312 C 291.382812 211.125 291.382812 211.207031 291.4375 211.261719 C 291.464844 211.289062 291.496094 211.300781 291.53125 211.300781 Z M 294.242188 210.851562 C 294.1875 210.800781 294.105469 210.800781 294.050781 210.851562 C 294 210.90625 294 210.988281 294.050781 211.042969 L 294.269531 211.261719 C 294.296875 211.289062 294.328125 211.300781 294.363281 211.300781 C 294.394531 211.300781 294.429688 211.289062 294.457031 211.261719 C 294.511719 211.207031 294.511719 211.125 294.457031 211.070312 Z M 291.921875 208.511719 L 291.625 208.214844 C 291.570312 208.160156 291.488281 208.160156 291.4375 208.214844 C 291.382812 208.269531 291.382812 208.347656 291.4375 208.402344 L 291.730469 208.703125 C 291.757812 208.730469 291.792969 208.742188 291.824219 208.742188 C 291.859375 208.742188 291.894531 208.730469 291.921875 208.703125 C 291.972656 208.648438 291.972656 208.566406 291.921875 208.511719 Z M 292.949219 211.261719 C 292.800781 211.261719 292.679688 211.382812 292.679688 211.53125 L 292.679688 211.933594 C 292.679688 212.082031 292.800781 212.203125 292.949219 212.203125 C 293.097656 212.203125 293.21875 212.082031 293.21875 211.933594 L 293.21875 211.53125 C 293.210938 211.382812 293.089844 211.261719 292.949219 211.261719 Z M 293.210938 207.535156 C 293.210938 207.386719 293.089844 207.261719 292.941406 207.261719 C 292.796875 207.261719 292.671875 207.386719 292.671875 207.535156 L 292.671875 207.949219 C 292.671875 208.097656 292.796875 208.21875 292.941406 208.21875 C 293.089844 208.21875 293.210938 208.097656 293.210938 207.949219 Z M 266.476562 210.535156 C 266.285156 210.507812 266.089844 210.582031 265.925781 210.757812 C 265.773438 210.929688 265.664062 211.160156 265.625 211.421875 C 265.542969 211.972656 265.792969 212.46875 266.183594 212.523438 C 266.210938 212.53125 266.234375 212.53125 266.261719 212.53125 C 266.625 212.53125 266.96875 212.148438 267.042969 211.640625 C 267.117188 211.089844 266.867188 210.59375 266.476562 210.535156 Z M 268.078125 207.96875 C 268.363281 207.519531 268.691406 207.101562 269.042969 206.707031 C 269.890625 205.769531 270.925781 204.988281 272.074219 204.4375 C 272.808594 204.085938 273.601562 203.820312 274.4375 203.625 C 274.660156 203.570312 274.644531 203.394531 274.476562 203.273438 C 274.308594 203.148438 273.933594 203.171875 273.730469 203.15625 C 273.179688 203.128906 272.628906 203.199219 272.089844 203.328125 C 271.050781 203.578125 270.070312 204.054688 269.203125 204.664062 C 269.128906 204.71875 269.0625 204.765625 268.988281 204.820312 C 268.515625 205.171875 268.074219 205.566406 267.6875 206.007812 C 267.011719 206.789062 266.519531 207.703125 266.398438 208.761719 C 266.363281 209.042969 266.429688 209.503906 266.835938 209.449219 C 266.976562 209.429688 267.097656 209.328125 267.199219 209.222656 C 267.5625 208.851562 267.808594 208.402344 268.078125 207.96875 Z M 277.785156 201.929688 C 278.046875 201.988281 278.316406 202.058594 278.574219 202.140625 C 279.527344 202.4375 280.429688 202.859375 281.265625 203.386719 C 281.472656 203.515625 281.675781 203.652344 281.871094 203.800781 C 282.675781 204.386719 283.402344 205.0625 284.035156 205.832031 C 284.210938 206.042969 284.371094 206.257812 284.535156 206.476562 C 285.898438 208.390625 286.707031 210.730469 286.707031 213.261719 C 286.707031 215.101562 286.277344 216.847656 285.523438 218.394531 C 285.617188 218.394531 285.710938 218.386719 285.8125 218.386719 C 286.15625 218.386719 286.5 218.40625 286.828125 218.449219 C 287.527344 216.859375 287.910156 215.109375 287.910156 213.261719 C 287.910156 210.824219 287.230469 208.546875 286.0625 206.597656 C 285.945312 206.414062 285.832031 206.230469 285.710938 206.046875 C 285.4375 205.640625 285.140625 205.253906 284.824219 204.882812 C 283.324219 203.128906 281.367188 201.785156 279.140625 201.046875 C 278.679688 200.898438 278.210938 200.769531 277.734375 200.664062 C 277.523438 200.625 277.308594 200.585938 277.09375 200.550781 C 276.46875 200.457031 275.824219 200.402344 275.167969 200.402344 C 273.496094 200.402344 271.894531 200.726562 270.425781 201.324219 C 270.132812 201.445312 269.847656 201.574219 269.566406 201.710938 C 269.234375 201.875 268.921875 202.050781 268.609375 202.242188 C 267.257812 203.0625 266.066406 204.128906 265.105469 205.382812 C 264.882812 205.675781 264.675781 205.972656 264.472656 206.277344 C 264.304688 206.542969 264.144531 206.816406 263.988281 207.09375 C 262.992188 208.925781 262.429688 211.023438 262.429688 213.253906 C 262.429688 220.339844 268.148438 226.109375 275.167969 226.109375 C 275.902344 226.109375 276.617188 226.050781 277.316406 225.925781 C 277.371094 225.484375 277.457031 225.058594 277.578125 224.636719 C 276.804688 224.808594 275.996094 224.894531 275.167969 224.894531 C 268.804688 224.894531 263.632812 219.675781 263.632812 213.253906 C 263.632812 210.933594 264.3125 208.777344 265.476562 206.964844 C 265.71875 206.585938 265.980469 206.21875 266.261719 205.871094 C 267.03125 204.933594 267.933594 204.128906 268.949219 203.46875 C 269.324219 203.226562 269.714844 203 270.125 202.796875 C 271.652344 202.042969 273.359375 201.621094 275.167969 201.621094 C 276.070312 201.621094 276.945312 201.730469 277.785156 201.929688 Z M 271.308594 193.117188 C 271.308594 193.714844 271.785156 194.199219 272.378906 194.199219 C 272.96875 194.199219 273.449219 193.714844 273.449219 193.117188 C 273.449219 192.523438 272.96875 192.039062 272.378906 192.039062 C 271.785156 192.039062 271.308594 192.523438 271.308594 193.117188 Z M 270.636719 193.117188 C 270.636719 192.148438 271.417969 191.359375 272.378906 191.359375 C 273.339844 191.359375 274.121094 192.148438 274.121094 193.117188 C 274.121094 194.089844 273.339844 194.875 272.378906 194.875 C 271.417969 194.875 270.636719 194.089844 270.636719 193.117188 Z M 266.761719 228.621094 C 266.761719 227.449219 265.8125 226.492188 264.648438 226.492188 C 263.484375 226.492188 262.535156 227.449219 262.535156 228.621094 C 262.535156 229.796875 263.484375 230.753906 264.648438 230.753906 C 265.8125 230.753906 266.761719 229.796875 266.761719 228.621094 Z M 267.5625 228.621094 C 267.5625 230.242188 266.257812 231.558594 264.640625 231.558594 C 263.035156 231.558594 261.730469 230.242188 261.730469 228.621094 C 261.730469 227 263.035156 225.683594 264.640625 225.683594 C 266.25 225.675781 267.5625 227 267.5625 228.621094 Z M 279.890625 194.632812 C 279.628906 194.597656 279.402344 194.855469 279.355469 195.222656 C 279.308594 195.589844 279.476562 195.894531 279.730469 195.929688 C 279.746094 195.929688 279.757812 195.929688 279.769531 195.929688 C 279.886719 195.929688 279.992188 195.875 280.085938 195.765625 C 280.179688 195.65625 280.25 195.5 280.269531 195.332031 C 280.289062 195.164062 280.261719 195 280.195312 194.871094 C 280.128906 194.734375 280.019531 194.644531 279.890625 194.632812 Z M 280.308594 193.824219 C 280.523438 193.585938 280.664062 193.300781 280.828125 193.023438 C 280.996094 192.738281 281.183594 192.46875 281.398438 192.214844 C 281.902344 191.613281 282.523438 191.109375 283.214844 190.742188 C 283.660156 190.507812 284.136719 190.328125 284.640625 190.195312 C 284.777344 190.160156 284.769531 190.042969 284.660156 189.96875 C 284.554688 189.894531 284.324219 189.914062 284.203125 189.914062 C 283.867188 189.910156 283.53125 189.964844 283.207031 190.050781 C 282.582031 190.226562 281.992188 190.539062 281.472656 190.941406 C 280.632812 191.585938 279.917969 192.460938 279.816406 193.554688 C 279.804688 193.730469 279.851562 194.015625 280.09375 193.972656 C 280.179688 193.960938 280.25 193.894531 280.308594 193.824219 Z M 278.582031 199.925781 C 278.183594 198.960938 277.96875 197.910156 277.96875 196.804688 C 277.96875 192.304688 281.601562 188.640625 286.0625 188.640625 C 290.527344 188.640625 294.152344 192.304688 294.152344 196.804688 C 294.152344 201.304688 290.527344 204.96875 286.066406 204.96875 C 286.324219 205.308594 286.558594 205.65625 286.78125 206.019531 C 291.496094 205.648438 295.222656 201.65625 295.222656 196.804688 C 295.222656 191.707031 291.113281 187.558594 286.0625 187.558594 C 281.007812 187.558594 276.898438 191.707031 276.898438 196.804688 C 276.898438 197.800781 277.058594 198.765625 277.347656 199.667969 C 277.761719 199.738281 278.171875 199.824219 278.582031 199.925781 Z M 260.707031 200.046875 C 260.511719 200.019531 260.34375 200.210938 260.308594 200.476562 C 260.296875 200.597656 260.316406 200.714844 260.363281 200.808594 C 260.417969 200.910156 260.5 200.972656 260.59375 200.984375 C 260.605469 200.984375 260.613281 200.984375 260.625 200.984375 C 260.800781 200.984375 260.957031 200.800781 260.988281 200.558594 C 261.015625 200.300781 260.894531 200.074219 260.707031 200.046875 Z M 261.351562 198.960938 C 261.464844 198.765625 261.601562 198.574219 261.742188 198.40625 C 262.09375 197.992188 262.515625 197.640625 262.992188 197.386719 C 263.296875 197.226562 263.625 197.101562 263.976562 197.007812 C 264.070312 196.980469 264.0625 196.90625 263.988281 196.851562 C 263.914062 196.804688 263.761719 196.8125 263.671875 196.8125 C 263.4375 196.804688 263.207031 196.84375 262.988281 196.90625 C 262.554688 197.027344 262.144531 197.246094 261.789062 197.523438 C 261.210938 197.972656 260.714844 198.574219 260.652344 199.328125 C 260.640625 199.453125 260.671875 199.648438 260.839844 199.621094 C 260.902344 199.605469 260.949219 199.566406 260.988281 199.519531 C 261.144531 199.351562 261.238281 199.152344 261.351562 198.960938 Z M 258.6875 200.761719 C 258.6875 197.714844 261.152344 195.230469 264.171875 195.230469 C 267.164062 195.230469 269.601562 197.660156 269.652344 200.664062 C 269.378906 200.789062 269.109375 200.925781 268.839844 201.058594 C 268.847656 200.957031 268.851562 200.855469 268.851562 200.753906 C 268.851562 198.148438 266.753906 196.03125 264.171875 196.03125 C 261.589844 196.03125 259.488281 198.148438 259.488281 200.753906 C 259.488281 203.273438 261.453125 205.335938 263.914062 205.472656 C 263.746094 205.722656 263.585938 205.972656 263.429688 206.238281 C 260.753906 205.878906 258.6875 203.558594 258.6875 200.761719 " fill-opacity="1" fill-rule="nonzero"/></g><g clip-path="url(#3f2a6d7e4b)"><path fill="#ffffff" d="M 276.382812 122.878906 C 276.183594 122.878906 276.019531 123.105469 276.019531 123.386719 C 276.019531 123.671875 276.183594 123.898438 276.382812 123.898438 C 276.578125 123.898438 276.742188 123.671875 276.742188 123.386719 C 276.742188 123.105469 276.582031 122.878906 276.382812 122.878906 Z M 279.664062 118.785156 C 279.574219 118.742188 279.394531 118.777344 279.300781 118.785156 C 279.039062 118.816406 278.78125 118.890625 278.535156 118.988281 C 278.5 119.003906 278.464844 119.019531 278.425781 119.039062 C 277.996094 119.238281 277.597656 119.519531 277.257812 119.851562 C 277.164062 119.945312 277.070312 120.042969 276.980469 120.144531 C 276.636719 120.539062 276.367188 121 276.261719 121.507812 C 276.226562 121.679688 276.207031 121.859375 276.210938 122.042969 C 276.210938 122.101562 276.226562 122.167969 276.257812 122.230469 C 276.296875 122.3125 276.359375 122.371094 276.46875 122.339844 C 276.539062 122.320312 276.582031 122.257812 276.625 122.203125 C 276.664062 122.148438 276.699219 122.089844 276.734375 122.03125 C 276.816406 121.871094 276.882812 121.699219 276.957031 121.53125 C 277.03125 121.363281 277.113281 121.199219 277.207031 121.035156 C 277.246094 120.96875 277.28125 120.90625 277.320312 120.847656 C 277.65625 120.332031 278.09375 119.875 278.597656 119.527344 C 278.921875 119.300781 279.277344 119.117188 279.664062 118.960938 C 279.773438 118.917969 279.757812 118.835938 279.664062 118.785156 Z M 285.332031 122.929688 C 285.332031 120.480469 283.535156 118.445312 281.1875 118.070312 C 280.941406 118.03125 280.691406 118.011719 280.433594 118.011719 C 280.429688 118.011719 280.425781 118.011719 280.421875 118.011719 C 280.007812 118.011719 279.613281 118.0625 279.238281 118.15625 C 277.875 118.492188 276.738281 119.40625 276.089844 120.613281 C 275.902344 120.964844 275.753906 121.347656 275.652344 121.742188 C 275.59375 121.988281 275.554688 122.234375 275.53125 122.488281 C 275.515625 122.628906 275.511719 122.78125 275.511719 122.921875 C 275.511719 125.632812 277.710938 127.839844 280.421875 127.839844 C 283.128906 127.839844 285.332031 125.636719 285.332031 122.929688 Z M 286.019531 122.929688 C 286.019531 126.019531 283.507812 128.53125 280.421875 128.53125 C 277.332031 128.53125 274.820312 126.019531 274.820312 122.929688 C 274.820312 122.84375 274.828125 122.757812 274.828125 122.675781 C 274.835938 122.4375 274.863281 122.199219 274.902344 121.972656 C 274.960938 121.625 275.050781 121.292969 275.167969 120.96875 C 275.890625 119.027344 277.664062 117.589844 279.792969 117.359375 C 279.996094 117.332031 280.203125 117.324219 280.410156 117.324219 C 280.550781 117.324219 280.6875 117.328125 280.828125 117.339844 C 281.0625 117.359375 281.300781 117.386719 281.527344 117.433594 C 284.09375 117.957031 286.019531 120.222656 286.019531 122.929688 Z M 264.925781 96.136719 C 264.925781 96.777344 265.445312 97.296875 266.085938 97.296875 C 266.722656 97.296875 267.242188 96.777344 267.242188 96.136719 C 267.242188 95.496094 266.722656 94.976562 266.085938 94.976562 C 265.449219 94.976562 264.925781 95.496094 264.925781 96.136719 Z M 264.4375 96.136719 C 264.4375 95.226562 265.179688 94.480469 266.089844 94.480469 C 267 94.480469 267.742188 95.226562 267.742188 96.136719 C 267.742188 97.046875 267 97.792969 266.089844 97.792969 C 265.179688 97.792969 264.4375 97.054688 264.4375 96.136719 Z M 261.640625 118.566406 L 261.347656 118.566406 C 261.238281 118.566406 261.148438 118.65625 261.148438 118.765625 C 261.148438 118.875 261.238281 118.964844 261.347656 118.964844 L 261.640625 118.964844 C 261.75 118.964844 261.835938 118.875 261.835938 118.765625 C 261.835938 118.65625 261.75 118.566406 261.640625 118.566406 Z M 258.722656 118.566406 L 258.433594 118.566406 C 258.324219 118.566406 258.234375 118.65625 258.234375 118.765625 C 258.234375 118.875 258.324219 118.964844 258.433594 118.964844 L 258.722656 118.964844 C 258.832031 118.964844 258.921875 118.875 258.921875 118.765625 C 258.921875 118.65625 258.832031 118.566406 258.722656 118.566406 Z M 260.925781 118.011719 L 261.144531 117.792969 C 261.183594 117.753906 261.183594 117.695312 261.144531 117.65625 C 261.105469 117.617188 261.046875 117.617188 261.007812 117.65625 L 260.789062 117.875 C 260.75 117.914062 260.75 117.972656 260.789062 118.011719 C 260.808594 118.03125 260.832031 118.042969 260.859375 118.042969 C 260.882812 118.039062 260.90625 118.027344 260.925781 118.011719 Z M 259.082031 119.582031 L 258.921875 119.742188 C 258.882812 119.78125 258.882812 119.839844 258.921875 119.878906 C 258.941406 119.902344 258.964844 119.910156 258.992188 119.910156 C 259.015625 119.910156 259.039062 119.902344 259.058594 119.878906 L 259.21875 119.722656 C 259.257812 119.683594 259.257812 119.621094 259.21875 119.582031 C 259.179688 119.542969 259.121094 119.542969 259.082031 119.582031 Z M 260.992188 119.582031 C 260.953125 119.542969 260.890625 119.542969 260.851562 119.582031 C 260.8125 119.621094 260.8125 119.683594 260.851562 119.722656 L 261.011719 119.878906 C 261.03125 119.902344 261.054688 119.910156 261.078125 119.910156 C 261.105469 119.910156 261.128906 119.902344 261.148438 119.878906 C 261.1875 119.839844 261.1875 119.78125 261.148438 119.742188 Z M 259.058594 117.652344 C 259.019531 117.613281 258.960938 117.613281 258.921875 117.652344 C 258.882812 117.691406 258.882812 117.75 258.921875 117.789062 L 259.140625 118.007812 C 259.160156 118.027344 259.183594 118.039062 259.210938 118.039062 C 259.234375 118.039062 259.257812 118.027344 259.277344 118.007812 C 259.316406 117.96875 259.316406 117.910156 259.277344 117.867188 Z M 260.035156 119.878906 C 259.925781 119.878906 259.835938 119.96875 259.835938 120.078125 L 259.835938 120.371094 C 259.835938 120.480469 259.925781 120.570312 260.035156 120.570312 C 260.144531 120.570312 260.234375 120.480469 260.234375 120.371094 L 260.234375 120.078125 C 260.234375 119.96875 260.144531 119.878906 260.035156 119.878906 Z M 260.035156 116.960938 C 259.925781 116.960938 259.835938 117.050781 259.835938 117.160156 L 259.835938 117.460938 C 259.835938 117.570312 259.925781 117.660156 260.035156 117.660156 C 260.144531 117.660156 260.234375 117.570312 260.234375 117.460938 L 260.234375 117.160156 C 260.234375 117.050781 260.144531 116.960938 260.035156 116.960938 Z M 287.28125 110.105469 L 286.988281 110.105469 C 286.878906 110.105469 286.792969 110.195312 286.792969 110.304688 C 286.792969 110.410156 286.878906 110.5 286.988281 110.5 L 287.28125 110.5 C 287.390625 110.5 287.480469 110.410156 287.480469 110.304688 C 287.472656 110.195312 287.390625 110.105469 287.28125 110.105469 Z M 284.367188 110.105469 L 284.074219 110.105469 C 283.964844 110.105469 283.875 110.195312 283.875 110.304688 C 283.875 110.410156 283.964844 110.5 284.074219 110.5 L 284.367188 110.5 C 284.472656 110.5 284.5625 110.410156 284.5625 110.304688 C 284.5625 110.195312 284.472656 110.105469 284.367188 110.105469 Z M 286.566406 109.550781 L 286.785156 109.332031 C 286.824219 109.292969 286.824219 109.234375 286.785156 109.191406 C 286.746094 109.152344 286.6875 109.152344 286.648438 109.191406 L 286.429688 109.410156 C 286.390625 109.449219 286.390625 109.511719 286.429688 109.550781 C 286.449219 109.570312 286.472656 109.578125 286.5 109.578125 C 286.523438 109.578125 286.546875 109.570312 286.566406 109.550781 Z M 284.632812 111.445312 C 284.65625 111.445312 284.683594 111.4375 284.703125 111.417969 L 284.859375 111.257812 C 284.898438 111.21875 284.898438 111.160156 284.859375 111.121094 C 284.820312 111.082031 284.761719 111.082031 284.722656 111.121094 L 284.5625 111.277344 C 284.523438 111.320312 284.523438 111.378906 284.5625 111.417969 C 284.582031 111.4375 284.609375 111.445312 284.632812 111.445312 Z M 286.628906 111.121094 C 286.589844 111.082031 286.527344 111.082031 286.488281 111.121094 C 286.449219 111.160156 286.449219 111.21875 286.488281 111.257812 L 286.648438 111.417969 C 286.667969 111.4375 286.691406 111.445312 286.71875 111.445312 C 286.742188 111.445312 286.765625 111.4375 286.785156 111.417969 C 286.824219 111.378906 286.824219 111.320312 286.785156 111.277344 Z M 284.921875 109.410156 L 284.703125 109.191406 C 284.664062 109.152344 284.601562 109.152344 284.5625 109.191406 C 284.523438 109.234375 284.523438 109.292969 284.5625 109.332031 L 284.78125 109.550781 C 284.800781 109.570312 284.824219 109.578125 284.851562 109.578125 C 284.875 109.578125 284.898438 109.570312 284.921875 109.550781 C 284.960938 109.511719 284.960938 109.449219 284.921875 109.410156 Z M 285.675781 111.417969 C 285.570312 111.417969 285.480469 111.507812 285.480469 111.617188 L 285.480469 111.910156 C 285.480469 112.015625 285.570312 112.105469 285.675781 112.105469 C 285.785156 112.105469 285.875 112.015625 285.875 111.910156 L 285.875 111.617188 C 285.871094 111.507812 285.78125 111.417969 285.675781 111.417969 Z M 285.871094 108.699219 C 285.871094 108.589844 285.78125 108.5 285.671875 108.5 C 285.5625 108.5 285.472656 108.589844 285.472656 108.699219 L 285.472656 109 C 285.472656 109.109375 285.5625 109.199219 285.671875 109.199219 C 285.78125 109.199219 285.871094 109.109375 285.871094 109 Z M 266.199219 110.886719 C 266.054688 110.867188 265.910156 110.921875 265.792969 111.050781 C 265.679688 111.175781 265.601562 111.34375 265.570312 111.535156 C 265.511719 111.9375 265.695312 112.300781 265.980469 112.339844 C 266 112.34375 266.019531 112.34375 266.039062 112.34375 C 266.308594 112.34375 266.558594 112.066406 266.613281 111.695312 C 266.667969 111.292969 266.484375 110.933594 266.199219 110.886719 Z M 267.375 109.015625 C 267.585938 108.6875 267.828125 108.378906 268.085938 108.09375 C 268.707031 107.410156 269.46875 106.839844 270.316406 106.4375 C 270.855469 106.179688 271.441406 105.988281 272.054688 105.84375 C 272.21875 105.804688 272.207031 105.675781 272.085938 105.585938 C 271.960938 105.496094 271.683594 105.511719 271.535156 105.5 C 271.128906 105.480469 270.722656 105.53125 270.328125 105.625 C 269.566406 105.808594 268.84375 106.15625 268.203125 106.601562 C 268.148438 106.640625 268.097656 106.675781 268.046875 106.714844 C 267.699219 106.972656 267.371094 107.261719 267.089844 107.582031 C 266.589844 108.152344 266.226562 108.820312 266.140625 109.59375 C 266.113281 109.796875 266.164062 110.132812 266.460938 110.09375 C 266.566406 110.078125 266.652344 110.003906 266.726562 109.929688 C 266.996094 109.660156 267.179688 109.332031 267.375 109.015625 Z M 274.519531 104.605469 C 274.710938 104.648438 274.910156 104.699219 275.097656 104.757812 C 275.800781 104.976562 276.464844 105.285156 277.078125 105.667969 C 277.234375 105.765625 277.378906 105.863281 277.523438 105.972656 C 278.117188 106.398438 278.652344 106.894531 279.117188 107.453125 C 279.246094 107.605469 279.367188 107.765625 279.484375 107.925781 C 280.488281 109.320312 281.082031 111.03125 281.082031 112.878906 C 281.082031 114.222656 280.765625 115.496094 280.210938 116.625 C 280.28125 116.625 280.351562 116.621094 280.425781 116.621094 C 280.675781 116.621094 280.929688 116.636719 281.171875 116.664062 C 281.6875 115.503906 281.96875 114.226562 281.96875 112.878906 C 281.96875 111.101562 281.46875 109.4375 280.609375 108.011719 C 280.523438 107.878906 280.441406 107.746094 280.351562 107.613281 C 280.148438 107.316406 279.929688 107.03125 279.699219 106.761719 C 278.59375 105.480469 277.152344 104.5 275.515625 103.960938 C 275.179688 103.851562 274.832031 103.757812 274.480469 103.683594 C 274.328125 103.652344 274.167969 103.625 274.011719 103.597656 C 273.550781 103.53125 273.074219 103.488281 272.59375 103.488281 C 271.363281 103.488281 270.183594 103.726562 269.105469 104.164062 C 268.886719 104.253906 268.679688 104.347656 268.46875 104.445312 C 268.226562 104.566406 267.996094 104.695312 267.769531 104.832031 C 266.773438 105.433594 265.894531 106.210938 265.1875 107.125 C 265.027344 107.339844 264.871094 107.558594 264.722656 107.78125 C 264.601562 107.972656 264.480469 108.171875 264.367188 108.375 C 263.632812 109.714844 263.21875 111.246094 263.21875 112.875 C 263.21875 118.046875 267.425781 122.257812 272.59375 122.257812 C 273.132812 122.257812 273.660156 122.214844 274.171875 122.125 C 274.210938 121.804688 274.277344 121.492188 274.367188 121.183594 C 273.796875 121.308594 273.203125 121.371094 272.59375 121.371094 C 267.910156 121.371094 264.105469 117.5625 264.105469 112.875 C 264.105469 111.179688 264.605469 109.605469 265.460938 108.28125 C 265.640625 108.003906 265.832031 107.734375 266.039062 107.484375 C 266.605469 106.800781 267.269531 106.210938 268.015625 105.730469 C 268.292969 105.550781 268.578125 105.386719 268.882812 105.238281 C 270.003906 104.6875 271.261719 104.382812 272.59375 104.382812 C 273.257812 104.382812 273.902344 104.460938 274.519531 104.605469 Z M 269.753906 98.171875 C 269.753906 98.609375 270.105469 98.960938 270.539062 98.960938 C 270.976562 98.960938 271.328125 98.609375 271.328125 98.171875 C 271.328125 97.738281 270.976562 97.386719 270.539062 97.386719 C 270.105469 97.386719 269.753906 97.738281 269.753906 98.171875 Z M 269.257812 98.171875 C 269.257812 97.464844 269.832031 96.890625 270.539062 96.890625 C 271.246094 96.890625 271.820312 97.464844 271.820312 98.171875 C 271.820312 98.882812 271.246094 99.457031 270.539062 99.457031 C 269.832031 99.457031 269.257812 98.882812 269.257812 98.171875 Z M 266.40625 124.09375 C 266.40625 123.234375 265.707031 122.535156 264.851562 122.535156 C 263.996094 122.535156 263.296875 123.234375 263.296875 124.09375 C 263.296875 124.949219 263.996094 125.648438 264.851562 125.648438 C 265.707031 125.648438 266.40625 124.949219 266.40625 124.09375 Z M 266.996094 124.09375 C 266.996094 125.277344 266.035156 126.238281 264.847656 126.238281 C 263.664062 126.238281 262.703125 125.277344 262.703125 124.09375 C 262.703125 122.90625 263.664062 121.945312 264.847656 121.945312 C 266.03125 121.941406 266.996094 122.90625 266.996094 124.09375 Z M 276.070312 99.277344 C 275.875 99.253906 275.707031 99.441406 275.671875 99.710938 C 275.636719 99.976562 275.761719 100.199219 275.949219 100.222656 C 275.960938 100.222656 275.96875 100.222656 275.980469 100.222656 C 276.0625 100.222656 276.144531 100.183594 276.210938 100.105469 C 276.28125 100.027344 276.332031 99.914062 276.347656 99.789062 C 276.359375 99.664062 276.339844 99.546875 276.292969 99.453125 C 276.242188 99.351562 276.164062 99.289062 276.070312 99.277344 Z M 276.375 98.6875 C 276.535156 98.515625 276.636719 98.308594 276.757812 98.105469 C 276.882812 97.894531 277.019531 97.699219 277.179688 97.515625 C 277.550781 97.074219 278.003906 96.707031 278.515625 96.4375 C 278.839844 96.265625 279.191406 96.136719 279.5625 96.039062 C 279.664062 96.011719 279.65625 95.929688 279.578125 95.875 C 279.5 95.820312 279.332031 95.835938 279.242188 95.835938 C 278.996094 95.828125 278.746094 95.871094 278.507812 95.933594 C 278.050781 96.0625 277.613281 96.289062 277.234375 96.582031 C 276.613281 97.054688 276.089844 97.691406 276.015625 98.488281 C 276.003906 98.621094 276.039062 98.828125 276.21875 98.796875 C 276.28125 98.789062 276.332031 98.738281 276.375 98.6875 Z M 275.105469 103.144531 C 274.8125 102.4375 274.652344 101.671875 274.652344 100.863281 C 274.652344 97.578125 277.328125 94.902344 280.609375 94.902344 C 283.894531 94.902344 286.5625 97.578125 286.5625 100.863281 C 286.5625 104.148438 283.894531 106.824219 280.613281 106.824219 C 280.800781 107.074219 280.976562 107.324219 281.136719 107.59375 C 284.609375 107.320312 287.351562 104.40625 287.351562 100.863281 C 287.351562 97.140625 284.324219 94.113281 280.609375 94.113281 C 276.890625 94.113281 273.867188 97.140625 273.867188 100.863281 C 273.867188 101.59375 273.984375 102.296875 274.199219 102.953125 C 274.5 103.003906 274.800781 103.070312 275.105469 103.144531 Z M 261.953125 103.230469 C 261.808594 103.210938 261.683594 103.351562 261.660156 103.542969 C 261.648438 103.632812 261.664062 103.71875 261.699219 103.789062 C 261.738281 103.863281 261.796875 103.90625 261.867188 103.914062 C 261.878906 103.914062 261.882812 103.914062 261.890625 103.914062 C 262.019531 103.914062 262.136719 103.78125 262.160156 103.605469 C 262.179688 103.414062 262.089844 103.25 261.953125 103.230469 Z M 262.425781 102.4375 C 262.511719 102.296875 262.609375 102.15625 262.714844 102.03125 C 262.972656 101.730469 263.28125 101.472656 263.632812 101.289062 C 263.855469 101.171875 264.101562 101.082031 264.355469 101.011719 C 264.425781 100.992188 264.421875 100.9375 264.367188 100.898438 C 264.3125 100.863281 264.199219 100.867188 264.132812 100.867188 C 263.960938 100.863281 263.792969 100.894531 263.628906 100.9375 C 263.3125 101.027344 263.011719 101.1875 262.75 101.390625 C 262.324219 101.714844 261.957031 102.15625 261.910156 102.707031 C 261.902344 102.796875 261.925781 102.941406 262.050781 102.917969 C 262.09375 102.910156 262.128906 102.878906 262.160156 102.84375 C 262.273438 102.722656 262.34375 102.578125 262.425781 102.4375 Z M 260.464844 103.753906 C 260.464844 101.527344 262.277344 99.714844 264.5 99.714844 C 266.703125 99.714844 268.496094 101.488281 268.535156 103.683594 C 268.332031 103.773438 268.132812 103.871094 267.9375 103.96875 C 267.941406 103.894531 267.945312 103.820312 267.945312 103.746094 C 267.945312 101.84375 266.402344 100.300781 264.5 100.300781 C 262.601562 100.300781 261.054688 101.84375 261.054688 103.746094 C 261.054688 105.585938 262.5 107.09375 264.3125 107.191406 C 264.1875 107.375 264.070312 107.558594 263.957031 107.75 C 261.984375 107.488281 260.464844 105.792969 260.464844 103.753906 " fill-opacity="1" fill-rule="nonzero"/></g><g clip-path="url(#80b54d6675)"><path fill="#ffffff" d="M 118.585938 135.574219 C 118.585938 133.675781 117.019531 132.132812 115.09375 132.132812 C 113.164062 132.132812 111.597656 133.675781 111.597656 135.574219 C 111.597656 137.472656 113.164062 139.019531 115.09375 139.019531 C 117.019531 139.019531 118.585938 137.472656 118.585938 135.574219 Z M 119.761719 135.574219 C 119.761719 138.113281 117.664062 140.175781 115.09375 140.175781 C 112.519531 140.175781 110.425781 138.113281 110.425781 135.574219 C 110.425781 133.039062 112.519531 130.976562 115.09375 130.976562 C 117.664062 130.976562 119.761719 133.039062 119.761719 135.574219 Z M 108.410156 132.765625 C 108.410156 131.933594 108.246094 131.144531 107.953125 130.414062 C 107.910156 130.300781 107.863281 130.191406 107.8125 130.082031 C 107.796875 130.046875 107.777344 130.011719 107.757812 129.972656 C 107.660156 129.769531 107.550781 129.570312 107.429688 129.378906 C 107.414062 129.359375 107.402344 129.335938 107.390625 129.316406 C 107.320312 129.207031 107.246094 129.097656 107.167969 128.996094 C 107.167969 128.992188 107.164062 128.988281 107.160156 128.984375 C 106.527344 128.125 105.6875 127.425781 104.722656 126.960938 C 104.683594 126.9375 104.640625 126.917969 104.597656 126.902344 C 104.496094 126.851562 104.390625 126.804688 104.28125 126.761719 C 104.152344 126.710938 104.019531 126.664062 103.886719 126.621094 C 103.796875 126.589844 103.703125 126.566406 103.613281 126.539062 C 103.523438 126.515625 103.4375 126.492188 103.347656 126.472656 C 103.257812 126.453125 103.171875 126.429688 103.082031 126.414062 C 103.074219 126.414062 103.066406 126.410156 103.058594 126.410156 C 102.859375 126.375 102.660156 126.34375 102.464844 126.324219 C 102.257812 126.308594 102.050781 126.292969 101.84375 126.292969 C 101.621094 126.292969 101.402344 126.304688 101.1875 126.328125 C 101.089844 126.335938 100.988281 126.355469 100.890625 126.371094 C 100.777344 126.386719 100.667969 126.398438 100.558594 126.421875 C 100.429688 126.445312 100.304688 126.480469 100.179688 126.511719 C 100.105469 126.53125 100.027344 126.546875 99.953125 126.570312 C 99.8125 126.613281 99.671875 126.664062 99.535156 126.714844 C 99.480469 126.734375 99.425781 126.753906 99.371094 126.773438 C 99.222656 126.832031 99.082031 126.898438 98.941406 126.96875 C 98.898438 126.988281 98.855469 127.007812 98.816406 127.027344 C 98.667969 127.105469 98.527344 127.1875 98.386719 127.273438 C 98.355469 127.292969 98.320312 127.308594 98.292969 127.328125 C 98.148438 127.421875 98.007812 127.519531 97.871094 127.621094 C 97.847656 127.640625 97.820312 127.660156 97.796875 127.675781 C 97.660156 127.785156 97.527344 127.898438 97.398438 128.015625 C 97.378906 128.03125 97.359375 128.046875 97.339844 128.066406 C 97.210938 128.1875 97.085938 128.3125 96.964844 128.445312 C 96.949219 128.460938 96.933594 128.476562 96.921875 128.496094 C 96.800781 128.628906 96.683594 128.769531 96.578125 128.914062 C 96.566406 128.929688 96.550781 128.945312 96.542969 128.960938 C 96.429688 129.109375 96.328125 129.261719 96.230469 129.417969 C 96.222656 129.429688 96.214844 129.445312 96.207031 129.457031 C 96.109375 129.617188 96.019531 129.785156 95.933594 129.953125 C 95.929688 129.964844 95.925781 129.972656 95.921875 129.984375 C 95.835938 130.15625 95.757812 130.335938 95.6875 130.519531 C 95.6875 130.523438 95.683594 130.53125 95.683594 130.535156 C 95.46875 131.105469 95.335938 131.710938 95.296875 132.34375 L 95.289062 132.410156 C 95.285156 132.527344 95.273438 132.644531 95.273438 132.765625 C 95.273438 136.335938 98.21875 139.238281 101.84375 139.238281 C 105.464844 139.238281 108.410156 136.335938 108.410156 132.765625 Z M 94.191406 131.648438 C 94.191406 131.636719 94.195312 131.628906 94.195312 131.621094 C 94.230469 131.402344 94.269531 131.1875 94.324219 130.976562 C 94.324219 130.964844 94.328125 130.953125 94.332031 130.945312 C 94.714844 129.410156 95.566406 128.0625 96.730469 127.050781 C 96.753906 127.03125 96.773438 127.011719 96.792969 126.992188 C 96.933594 126.875 97.078125 126.765625 97.222656 126.65625 C 97.265625 126.625 97.308594 126.59375 97.355469 126.5625 C 97.492188 126.464844 97.628906 126.375 97.773438 126.289062 C 97.835938 126.25 97.894531 126.214844 97.957031 126.179688 C 98.089844 126.101562 98.226562 126.027344 98.367188 125.957031 C 98.445312 125.921875 98.519531 125.882812 98.597656 125.847656 C 98.730469 125.789062 98.863281 125.730469 99 125.675781 C 99.09375 125.640625 99.1875 125.609375 99.28125 125.574219 C 99.410156 125.53125 99.535156 125.488281 99.667969 125.449219 C 99.78125 125.417969 99.894531 125.390625 100.011719 125.363281 C 100.128906 125.335938 100.246094 125.304688 100.363281 125.28125 C 100.507812 125.253906 100.65625 125.234375 100.804688 125.214844 C 100.898438 125.203125 100.992188 125.183594 101.089844 125.175781 C 101.339844 125.152344 101.589844 125.136719 101.84375 125.136719 C 102.058594 125.136719 102.28125 125.148438 102.503906 125.167969 C 102.492188 125.019531 102.484375 124.871094 102.484375 124.726562 C 102.484375 124.542969 102.496094 124.363281 102.511719 124.183594 C 102.515625 124.136719 102.519531 124.09375 102.527344 124.046875 C 102.542969 123.890625 102.566406 123.738281 102.597656 123.585938 C 102.613281 123.507812 102.628906 123.433594 102.648438 123.359375 C 102.667969 123.28125 102.6875 123.203125 102.707031 123.125 C 102.753906 122.960938 102.804688 122.800781 102.863281 122.644531 C 102.875 122.613281 102.886719 122.582031 102.898438 122.546875 C 103.027344 122.222656 103.183594 121.90625 103.363281 121.609375 C 103.371094 121.601562 103.375 121.589844 103.382812 121.582031 C 103.503906 121.382812 103.636719 121.191406 103.78125 121.007812 C 103.785156 121.003906 103.789062 121 103.789062 120.996094 C 103.863281 120.90625 103.9375 120.816406 104.011719 120.730469 C 104.03125 120.707031 104.054688 120.6875 104.074219 120.664062 C 104.199219 120.527344 104.328125 120.398438 104.464844 120.273438 C 104.507812 120.230469 104.554688 120.1875 104.605469 120.148438 C 104.675781 120.085938 104.746094 120.027344 104.820312 119.96875 C 104.921875 119.890625 105.023438 119.8125 105.128906 119.738281 C 103.953125 115.699219 100.222656 112.910156 95.914062 112.910156 C 90.628906 112.910156 86.328125 117.148438 86.328125 122.355469 C 86.328125 126.945312 89.667969 130.839844 94.191406 131.648438 Z M 108.664062 119.796875 C 107.800781 119.796875 106.992188 120.011719 106.28125 120.390625 L 106.242188 120.414062 C 106.191406 120.441406 106.136719 120.476562 106.085938 120.507812 C 105.910156 120.609375 105.746094 120.722656 105.585938 120.84375 C 105.574219 120.855469 105.5625 120.863281 105.550781 120.871094 C 105.390625 120.996094 105.242188 121.128906 105.101562 121.269531 C 105.0625 121.304688 105.03125 121.347656 104.992188 121.382812 C 104.90625 121.476562 104.820312 121.574219 104.738281 121.675781 C 104.683594 121.742188 104.628906 121.8125 104.578125 121.886719 C 104.523438 121.960938 104.472656 122.042969 104.421875 122.121094 C 104.371094 122.203125 104.320312 122.28125 104.273438 122.363281 C 104.199219 122.496094 104.132812 122.628906 104.070312 122.769531 C 104.03125 122.859375 104 122.949219 103.964844 123.042969 C 103.929688 123.144531 103.890625 123.246094 103.859375 123.347656 C 103.839844 123.425781 103.820312 123.503906 103.800781 123.582031 C 103.769531 123.703125 103.746094 123.824219 103.726562 123.945312 C 103.71875 124.011719 103.703125 124.078125 103.695312 124.144531 C 103.675781 124.335938 103.660156 124.527344 103.660156 124.726562 C 103.660156 124.90625 103.675781 125.089844 103.695312 125.273438 C 103.699219 125.304688 103.707031 125.335938 103.710938 125.367188 C 103.796875 125.386719 103.878906 125.414062 103.964844 125.4375 C 104.09375 125.472656 104.222656 125.511719 104.347656 125.554688 C 104.449219 125.589844 104.550781 125.625 104.652344 125.664062 C 104.835938 125.738281 105.019531 125.816406 105.195312 125.902344 C 105.25 125.925781 105.304688 125.949219 105.355469 125.976562 C 105.480469 126.039062 105.597656 126.105469 105.71875 126.171875 C 105.730469 126.179688 105.746094 126.191406 105.757812 126.199219 C 105.992188 126.332031 106.214844 126.480469 106.433594 126.636719 C 106.449219 126.648438 106.460938 126.660156 106.476562 126.671875 C 107.039062 127.085938 107.542969 127.574219 107.972656 128.125 C 108 128.160156 108.027344 128.199219 108.058594 128.238281 C 108.1875 128.40625 108.304688 128.582031 108.421875 128.761719 C 108.457031 128.820312 108.496094 128.882812 108.53125 128.941406 C 108.601562 129.058594 108.667969 129.179688 108.730469 129.304688 C 108.792969 129.417969 108.847656 129.53125 108.902344 129.648438 C 111.550781 129.523438 113.667969 127.363281 113.667969 124.726562 C 113.667969 122.007812 111.421875 119.796875 108.664062 119.796875 Z M 109.308594 130.777344 C 109.484375 131.414062 109.585938 132.078125 109.585938 132.765625 C 109.585938 136.972656 106.113281 140.394531 101.84375 140.394531 C 97.585938 140.394531 94.121094 136.992188 94.101562 132.804688 C 88.960938 131.945312 85.152344 127.546875 85.152344 122.355469 C 85.152344 116.511719 89.980469 111.753906 95.914062 111.753906 C 100.65625 111.753906 104.769531 114.765625 106.171875 119.160156 C 106.933594 118.828125 107.777344 118.636719 108.664062 118.636719 C 112.070312 118.636719 114.839844 121.367188 114.839844 124.726562 C 114.839844 127.867188 112.414062 130.457031 109.308594 130.777344 Z M 102.542969 128.210938 C 101.136719 127.441406 99.292969 127.902344 98.429688 129.238281 C 98.160156 129.660156 98.191406 130.015625 98.519531 130.25 L 98.523438 130.25 C 98.539062 130.261719 98.558594 130.273438 98.574219 130.28125 C 98.871094 130.457031 99.230469 130.375 99.46875 130.082031 C 100.222656 129.148438 100.785156 129.003906 101.972656 129.4375 C 102.371094 129.582031 102.769531 129.46875 102.917969 129.167969 C 103.089844 128.8125 102.949219 128.445312 102.542969 128.210938 Z M 95.835938 115.828125 C 96.292969 115.945312 96.621094 115.808594 96.753906 115.441406 C 96.894531 115.054688 96.714844 114.71875 96.253906 114.527344 C 94.277344 113.703125 91.769531 114.671875 90.886719 116.605469 C 90.65625 117.117188 90.71875 117.460938 91.089844 117.65625 C 91.113281 117.667969 91.140625 117.679688 91.164062 117.691406 C 91.5 117.832031 91.84375 117.714844 92.03125 117.394531 C 92.984375 115.777344 94.015625 115.351562 95.835938 115.828125 Z M 109.488281 112.5 C 109.496094 113.371094 110.226562 114.089844 111.121094 114.097656 C 112.054688 114.097656 112.742188 113.4375 112.757812 112.527344 C 112.769531 111.632812 112.082031 110.90625 111.191406 110.878906 L 111.140625 110.878906 C 110.714844 110.878906 110.289062 111.058594 109.972656 111.371094 C 109.664062 111.679688 109.488281 112.089844 109.488281 112.5 Z M 109.109375 114.507812 C 108.554688 113.957031 108.253906 113.230469 108.261719 112.460938 C 108.277344 110.910156 109.566406 109.644531 111.132812 109.644531 L 111.179688 109.644531 C 112.757812 109.667969 114.035156 110.949219 114.03125 112.496094 C 114.023438 114.070312 112.722656 115.347656 111.128906 115.347656 L 111.117188 115.347656 C 110.363281 115.34375 109.648438 115.046875 109.109375 114.507812 Z M 122.082031 122.90625 C 122.09375 122.011719 121.40625 121.289062 120.515625 121.257812 L 120.464844 121.257812 C 120.039062 121.257812 119.613281 121.4375 119.296875 121.753906 C 118.988281 122.058594 118.8125 122.472656 118.8125 122.882812 C 118.820312 123.753906 119.550781 124.46875 120.445312 124.476562 C 121.378906 124.476562 122.066406 123.816406 122.082031 122.90625 Z M 123.355469 122.878906 C 123.347656 124.449219 122.046875 125.730469 120.453125 125.730469 L 120.441406 125.730469 C 119.6875 125.726562 118.972656 125.429688 118.433594 124.886719 C 117.878906 124.335938 117.578125 123.609375 117.585938 122.84375 C 117.601562 121.289062 118.890625 120.027344 120.457031 120.027344 L 120.503906 120.027344 C 122.082031 120.050781 123.359375 121.328125 123.355469 122.878906 Z M 115.578125 133.269531 C 114.59375 132.996094 113.359375 133.640625 113.046875 134.585938 C 112.941406 134.902344 112.941406 135.203125 113.285156 135.359375 C 113.566406 135.488281 113.824219 135.390625 113.976562 135.105469 C 114.296875 134.519531 114.726562 134.175781 115.460938 134.347656 C 115.8125 134.429688 116.058594 134.238281 116.105469 133.878906 C 116.15625 133.5 115.902344 133.34375 115.578125 133.269531 Z M 109.117188 120.914062 C 109.464844 121.042969 109.722656 121.246094 109.609375 121.65625 C 109.503906 122.042969 109.207031 122.222656 108.832031 122.082031 C 108.050781 121.789062 107.53125 122.101562 107.09375 122.703125 C 106.886719 122.992188 106.589844 123.0625 106.296875 122.878906 C 105.945312 122.660156 105.988281 122.332031 106.148438 122 C 106.628906 121.007812 108.078125 120.476562 109.117188 120.914062 " fill-opacity="1" fill-rule="nonzero"/></g><g clip-path="url(#fc88aff06d)"><path fill="#000000" d="M 360.03125 164.535156 C 356.707031 160.425781 353.148438 158.09375 353.03125 157.972656 L 352.832031 157.816406 L 186.085938 84.550781 C 186.003906 82.0625 185.847656 74.550781 186.046875 69.535156 C 186.046875 69.058594 186.046875 68.269531 186.003906 66.964844 L 186.003906 66.53125 C 186.003906 66.371094 186.003906 66.054688 185.964844 65.738281 C 191.308594 62.894531 198.03125 58.507812 202.78125 52.621094 C 205.390625 49.417969 207.171875 46.019531 208.082031 42.542969 C 209.109375 38.628906 209.109375 34.601562 207.960938 30.53125 C 207.644531 29.460938 207.289062 28.394531 206.816406 27.40625 C 205.390625 24.246094 203.214844 21.519531 200.445312 19.347656 C 197.4375 16.894531 193.917969 15.15625 190.039062 14.207031 C 186.320312 13.300781 182.445312 13.101562 178.488281 13.65625 C 176.550781 13.933594 174.613281 14.40625 172.753906 15.039062 C 167.453125 16.816406 163.140625 20.492188 160.332031 25.667969 C 157.957031 30.015625 156.652344 35.273438 156.613281 40.882812 C 156.613281 42.542969 157.957031 43.925781 159.617188 43.925781 C 159.617188 43.925781 159.617188 43.925781 159.660156 43.925781 C 161.320312 43.925781 162.664062 42.582031 162.703125 40.921875 C 162.746094 33.136719 165.949219 23.773438 174.730469 20.808594 C 176.234375 20.292969 177.816406 19.898438 179.359375 19.703125 C 185.808594 18.792969 191.941406 20.335938 196.726562 24.089844 C 198.746094 25.667969 200.285156 27.605469 201.316406 29.898438 C 201.632812 30.609375 201.910156 31.359375 202.144531 32.109375 C 203.730469 37.839844 202.34375 43.453125 198.070312 48.785156 C 193.484375 54.476562 186.558594 58.667969 181.574219 61.15625 L 180.109375 61.90625 L 179.953125 63.566406 C 179.914062 64.039062 179.914062 64.792969 179.953125 66.726562 L 179.953125 67.164062 C 179.992188 67.953125 180.03125 69.019531 179.992188 69.296875 C 179.753906 74.632812 179.953125 82.417969 180.03125 84.828125 L 13.957031 157.816406 L 13.761719 157.972656 C 13.601562 158.054688 10.082031 160.425781 6.757812 164.535156 C 2.207031 170.144531 0.113281 176.429688 0.746094 182.710938 C 0.980469 184.964844 1.535156 187.257812 2.445312 189.507812 C 4.421875 194.964844 8.339844 199.507812 13.363281 202.3125 C 14.789062 203.105469 16.253906 203.734375 17.796875 204.25 C 18.113281 204.328125 18.429688 204.445312 18.746094 204.527344 C 20.089844 204.882812 21.472656 205.078125 22.820312 205.160156 C 23.175781 205.199219 23.492188 205.199219 23.847656 205.238281 C 29.1875 205.277344 34.570312 204.960938 39.910156 205.039062 C 40.226562 205.039062 40.582031 205.039062 40.9375 205.039062 C 42.679688 205.039062 44.773438 205.039062 47.1875 205.039062 L 47.1875 367.101562 L 320.589844 367.101562 L 320.589844 205.039062 C 327.59375 205.039062 331.546875 205.039062 331.546875 205.039062 C 332.179688 205.039062 332.8125 205.039062 333.40625 205.039062 C 333.722656 205.039062 334 205.039062 334.316406 205.039062 C 334.910156 205 335.503906 204.960938 336.136719 204.960938 C 336.453125 204.960938 336.730469 204.960938 337.046875 205 C 340.132812 205.039062 343.375 205.277344 346.503906 204.761719 C 346.859375 204.722656 347.175781 204.683594 347.53125 204.644531 C 347.886719 204.566406 348.203125 204.445312 348.558594 204.367188 C 350.261719 203.855469 351.882812 203.183594 353.464844 202.3125 C 358.527344 199.507812 362.40625 194.964844 364.382812 189.507812 C 365.292969 187.257812 365.847656 184.964844 366.085938 182.671875 C 366.636719 176.429688 364.582031 170.144531 360.03125 164.535156 Z M 233.003906 257.164062 L 233.003906 268.347656 L 228.257812 268.347656 L 228.257812 233.019531 L 234.386719 233.019531 C 240.402344 248.152344 242.773438 253.6875 244.121094 257.875 L 244.199219 257.875 C 244 254.160156 244 247.5625 244 241.753906 L 244 233.019531 L 248.75 233.019531 L 248.75 268.347656 L 242.972656 268.347656 C 240.957031 263.089844 234.109375 245.507812 232.84375 241.476562 L 232.765625 241.476562 C 233.003906 245.863281 233.003906 250.878906 233.003906 257.164062 Z M 197.753906 246.613281 L 197.753906 253.488281 L 185.808594 253.488281 L 185.808594 261.511719 L 199.0625 261.511719 L 198.46875 268.386719 L 180.625 268.386719 L 180.625 233.058594 L 198.386719 233.058594 L 198.386719 239.933594 L 185.808594 239.933594 L 185.808594 246.613281 Z M 66.535156 268.386719 L 57 268.386719 L 57 233.058594 L 66.652344 233.058594 C 73.851562 233.058594 77.808594 240.804688 77.808594 250.128906 C 77.769531 261.390625 72.746094 268.386719 66.535156 268.386719 Z M 100.910156 259.8125 L 100.910156 261.589844 C 100.910156 264 100.871094 266.726562 101.1875 268.386719 L 95.847656 268.386719 C 95.492188 266.847656 95.453125 264.75 95.453125 260.996094 L 95.453125 259.851562 C 95.453125 256.292969 94.660156 254.792969 91.535156 254.792969 L 87.183594 254.792969 L 87.183594 268.425781 L 82.042969 268.425781 L 82.042969 233.097656 L 93.671875 233.097656 C 98.617188 233.097656 101.425781 237.128906 101.425781 243.175781 C 101.425781 247.71875 99.804688 250.40625 97.707031 251.550781 C 98.617188 252.066406 100.910156 253.449219 100.910156 259.8125 Z M 117.050781 255.859375 L 117.050781 268.347656 L 111.832031 268.347656 L 111.832031 255.703125 C 111.832031 255.226562 111.75 254.992188 111.554688 254.554688 L 102.730469 233.019531 L 108.902344 233.019531 C 111 238.550781 113.609375 245.269531 114.640625 248.628906 C 115.746094 245.347656 118.398438 238.550781 120.492188 233.019531 L 126.152344 233.019531 L 117.171875 254.910156 C 117.050781 255.226562 117.050781 255.425781 117.050781 255.859375 Z M 128.523438 315.886719 C 122.3125 315.886719 119.503906 312.921875 118.910156 309.089844 L 123.738281 309.089844 C 124.292969 310.949219 125.675781 312.132812 129 312.132812 C 132.085938 312.132812 132.996094 311.105469 132.996094 309.761719 C 132.996094 308.300781 132.085938 307.46875 127.890625 306.71875 C 120.96875 305.453125 119.742188 303.042969 119.742188 300.199219 C 119.742188 295.929688 123.578125 293.757812 128.289062 293.757812 C 135.132812 293.757812 136.949219 297.511719 137.1875 300 L 132.363281 300 C 132.085938 298.933594 131.414062 297.550781 128.128906 297.550781 C 125.835938 297.550781 124.648438 298.339844 124.648438 299.722656 C 124.648438 300.949219 125.476562 301.582031 129.195312 302.292969 C 136.753906 303.753906 137.941406 306.207031 137.941406 309.289062 C 137.898438 312.921875 135.210938 315.886719 128.523438 315.886719 Z M 135.011719 250.722656 C 135.011719 241.082031 139.085938 232.269531 146.605469 232.269531 C 153.132812 232.269531 156.414062 238.273438 157.046875 244.203125 L 151.785156 244.203125 C 151.351562 242.1875 150.203125 238.945312 146.5625 238.945312 C 142.570312 238.945312 140.472656 243.964844 140.472656 250.445312 C 140.472656 256.964844 142.371094 262.539062 146.5625 262.539062 C 149.609375 262.539062 150.957031 260.601562 151.785156 257.164062 L 157.007812 257.164062 C 156.019531 263.367188 153.050781 269.136719 146.328125 269.136719 C 138.691406 269.136719 135.011719 260.40625 135.011719 250.722656 Z M 158.433594 315.453125 L 141.816406 315.453125 L 141.816406 294.152344 L 158.351562 294.152344 L 158.351562 298.300781 L 146.644531 298.300781 L 146.644531 302.332031 L 157.757812 302.332031 L 157.757812 306.480469 L 146.644531 306.480469 L 146.644531 311.34375 L 158.984375 311.34375 Z M 160.609375 233.019531 L 165.789062 233.019531 L 165.789062 261.472656 L 177.738281 261.472656 L 177.066406 268.347656 L 160.609375 268.347656 Z M 180.152344 310.277344 L 180.152344 311.34375 C 180.152344 312.804688 180.109375 314.464844 180.386719 315.453125 L 175.441406 315.453125 C 175.125 314.503906 175.085938 313.238281 175.085938 310.988281 L 175.085938 310.277344 C 175.085938 308.101562 174.335938 307.234375 171.449219 307.234375 L 167.414062 307.234375 L 167.414062 315.453125 L 162.625 315.453125 L 162.625 294.152344 L 173.464844 294.152344 C 178.054688 294.152344 180.664062 296.5625 180.664062 300.238281 C 180.664062 303.003906 179.160156 304.625 177.183594 305.296875 C 178.015625 305.613281 180.152344 306.480469 180.152344 310.277344 Z M 195.976562 315.453125 L 190.199219 315.453125 L 182.089844 294.152344 L 187.429688 294.152344 L 190.949219 304.308594 C 192.257812 308.140625 192.851562 310.195312 193.167969 311.578125 L 193.207031 311.578125 C 193.523438 310.355469 193.800781 309.445312 195.660156 303.914062 L 199.0625 294.152344 L 204.242188 294.152344 Z M 201.117188 268.386719 L 209.742188 233.058594 L 216.386719 233.058594 L 225.449219 268.386719 L 219.828125 268.386719 L 217.851562 260.363281 L 208.355469 260.363281 L 206.496094 268.386719 Z M 211.441406 315.453125 L 206.617188 315.453125 L 206.617188 294.152344 L 211.441406 294.152344 Z M 226.398438 311.933594 C 229.246094 311.933594 230.472656 310.75 231.261719 308.695312 L 236.128906 308.695312 C 235.21875 312.449219 232.449219 315.925781 226.199219 315.925781 C 219.078125 315.925781 215.675781 310.671875 215.675781 304.824219 C 215.675781 298.972656 219.472656 293.679688 226.476562 293.679688 C 232.566406 293.679688 235.613281 297.3125 236.207031 300.871094 L 231.300781 300.871094 C 230.90625 299.644531 229.800781 297.667969 226.4375 297.667969 C 222.71875 297.667969 220.78125 300.710938 220.78125 304.585938 C 220.699219 308.578125 222.480469 311.933594 226.398438 311.933594 Z M 256.066406 315.453125 L 239.453125 315.453125 L 239.453125 294.152344 L 255.988281 294.152344 L 255.988281 298.300781 L 244.277344 298.300781 L 244.277344 302.332031 L 255.394531 302.332031 L 255.394531 306.480469 L 244.277344 306.480469 L 244.277344 311.34375 L 256.621094 311.34375 Z M 259.546875 268.386719 L 254.367188 268.386719 L 254.367188 233.058594 L 259.546875 233.058594 Z M 285.660156 268.386719 L 279.921875 268.386719 C 277.90625 263.132812 271.058594 245.546875 269.792969 241.515625 L 269.714844 241.515625 C 269.914062 245.863281 269.914062 250.921875 269.914062 257.164062 L 269.914062 268.347656 L 265.167969 268.347656 L 265.167969 233.019531 L 271.296875 233.019531 C 277.3125 248.152344 279.683594 253.6875 281.03125 257.875 L 281.109375 257.875 C 280.910156 254.160156 280.910156 247.5625 280.910156 241.753906 L 280.910156 233.019531 L 285.660156 233.019531 Z M 301.957031 262.617188 C 305.558594 262.617188 307.21875 259.496094 307.21875 255.304688 L 307.21875 254.753906 L 301.996094 254.753906 L 301.996094 248.152344 L 312.203125 248.152344 L 312.203125 268.425781 L 308.445312 268.425781 C 308.328125 267.636719 308.167969 266.09375 308.089844 264.832031 C 306.742188 267.476562 304.882812 269.21875 300.890625 269.21875 C 293.964844 269.21875 290.089844 261.351562 290.089844 251 C 290.089844 240.683594 294.203125 232.386719 301.839844 232.386719 C 308.683594 232.386719 311.648438 238.550781 312.242188 243.6875 L 307.019531 243.6875 C 306.585938 241.910156 305.359375 238.867188 301.839844 238.867188 C 297.445312 238.867188 295.546875 244.042969 295.546875 250.605469 C 295.628906 257.441406 297.605469 262.617188 301.957031 262.617188 Z M 359.992188 182.121094 C 359.832031 183.820312 359.398438 185.558594 358.6875 187.296875 L 358.648438 187.414062 C 356.667969 192.828125 352.316406 196.78125 347.054688 198.480469 C 346.699219 198.597656 346.34375 198.675781 345.988281 198.757812 C 345.710938 198.796875 345.394531 198.875 345.117188 198.914062 C 344.839844 198.953125 344.523438 198.992188 344.246094 199.035156 C 342.191406 199.113281 340.132812 199.230469 337.996094 199.074219 C 337.71875 199.074219 337.402344 199.035156 337.125 199.035156 C 336.847656 199.035156 336.613281 198.992188 336.335938 198.992188 C 336.019531 198.992188 335.742188 198.992188 335.425781 198.992188 C 334.199219 198.992188 332.894531 198.992188 331.546875 198.992188 C 331.546875 198.992188 327.59375 198.992188 320.589844 198.992188 L 320.589844 191.683594 C 320.589844 185.558594 315.605469 180.578125 309.472656 180.578125 L 58.304688 180.578125 C 52.171875 180.578125 47.1875 185.558594 47.1875 191.683594 L 47.1875 198.992188 C 44.300781 198.992188 41.847656 198.992188 39.988281 198.992188 C 39.671875 198.992188 39.355469 198.992188 39.039062 198.992188 C 38.761719 198.992188 38.484375 198.992188 38.246094 198.992188 C 37.972656 198.992188 37.695312 198.992188 37.417969 198.992188 C 32.945312 198.796875 28.398438 199.390625 24.007812 199.230469 C 23.730469 199.191406 23.492188 199.191406 23.214844 199.152344 C 22.421875 199.074219 21.59375 198.914062 20.800781 198.757812 C 20.445312 198.675781 20.089844 198.558594 19.734375 198.441406 C 14.472656 196.742188 10.121094 192.789062 8.140625 187.375 L 8.101562 187.257812 C 7.390625 185.519531 6.957031 183.78125 6.796875 182.082031 C 6.363281 177.417969 7.867188 172.792969 11.386719 168.445312 C 13.761719 165.484375 16.253906 163.625 16.925781 163.152344 L 183.394531 89.964844 L 349.863281 163.152344 C 350.578125 163.625 353.070312 165.523438 355.402344 168.445312 C 358.925781 172.832031 360.46875 177.417969 359.992188 182.121094 Z M 359.992188 182.121094 " fill-opacity="1" fill-rule="nonzero"/></g><path fill="#000000" d="M 92.5625 239.460938 L 87.183594 239.460938 L 87.183594 248.3125 L 92.523438 248.3125 C 95.054688 248.3125 96.125 246.808594 96.125 243.847656 C 96.164062 241.039062 95.015625 239.460938 92.5625 239.460938 Z M 92.5625 239.460938 " fill-opacity="1" fill-rule="nonzero"/><path fill="#000000" d="M 172.398438 298.023438 L 167.371094 298.023438 L 167.371094 303.359375 L 172.359375 303.359375 C 174.691406 303.359375 175.71875 302.453125 175.71875 300.671875 C 175.71875 298.972656 174.691406 298.023438 172.398438 298.023438 Z M 172.398438 298.023438 " fill-opacity="1" fill-rule="nonzero"/><path fill="#000000" d="M 65.902344 239.65625 L 62.140625 239.65625 L 62.140625 261.746094 L 65.820312 261.746094 C 70.015625 261.746094 72.269531 257.835938 72.269531 250.328125 C 72.269531 243.765625 70.210938 239.738281 65.902344 239.65625 Z M 65.902344 239.65625 " fill-opacity="1" fill-rule="nonzero"/><path fill="#000000" d="M 212.90625 238.550781 C 212.390625 241.199219 211.246094 246.574219 209.664062 253.488281 L 216.386719 253.488281 C 214.410156 245.386719 213.421875 241.238281 212.90625 238.550781 Z M 212.90625 238.550781 " fill-opacity="1" fill-rule="nonzero"/></svg>