<svg xmlns="http://www.w3.org/2000/svg" xmlns:xlink="http://www.w3.org/1999/xlink" width="500" zoomAndPan="magnify" viewBox="0 0 375 374.999991" height="500" preserveAspectRatio="xMidYMid meet" version="1.0"><defs><g/><clipPath id="a93bb2281c"><path d="M 85.128906 333.804688 L 92.519531 333.804688 L 92.519531 341.195312 L 85.128906 341.195312 Z M 85.128906 333.804688 " clip-rule="nonzero"/></clipPath><clipPath id="94e8911c59"><path d="M 88.824219 333.804688 C 86.78125 333.804688 85.128906 335.460938 85.128906 337.5 C 85.128906 339.539062 86.78125 341.195312 88.824219 341.195312 C 90.863281 341.195312 92.519531 339.539062 92.519531 337.5 C 92.519531 335.460938 90.863281 333.804688 88.824219 333.804688 " clip-rule="nonzero"/></clipPath><clipPath id="429de225d0"><path d="M 279.847656 333.804688 L 287.234375 333.804688 L 287.234375 341.195312 L 279.847656 341.195312 Z M 279.847656 333.804688 " clip-rule="nonzero"/></clipPath><clipPath id="c29002f796"><path d="M 283.542969 333.804688 C 281.5 333.804688 279.847656 335.460938 279.847656 337.5 C 279.847656 339.539062 281.5 341.195312 283.542969 341.195312 C 285.582031 341.195312 287.234375 339.539062 287.234375 337.5 C 287.234375 335.460938 285.582031 333.804688 283.542969 333.804688 " clip-rule="nonzero"/></clipPath><clipPath id="82fbf8ef00"><path d="M 258.230469 94.070312 L 287.480469 94.070312 L 287.480469 128.570312 L 258.230469 128.570312 Z M 258.230469 94.070312 " clip-rule="nonzero"/></clipPath><clipPath id="154b808d9c"><path d="M 85.152344 109.644531 L 123.355469 109.644531 L 123.355469 140.394531 L 85.152344 140.394531 Z M 85.152344 109.644531 " clip-rule="nonzero"/></clipPath><clipPath id="f7085a531a"><path d="M 7.058594 249.167969 L 361 249.167969 L 361 372.296875 L 7.058594 372.296875 Z M 7.058594 249.167969 " clip-rule="nonzero"/></clipPath><clipPath id="64c9d99d01"><path d="M 16.394531 74.117188 L 370.382812 74.117188 L 370.382812 186.75 L 16.394531 186.75 Z M 16.394531 74.117188 " clip-rule="nonzero"/></clipPath></defs><g fill="#ffffff" fill-opacity="1"><g transform="translate(100.769829, 342.374978)"><g><path d="M 5.890625 -11.6875 C 7.066406 -11.6875 8.101562 -11.421875 9 -10.890625 L 8.65625 -9.25 L 8.484375 -9.203125 C 7.671875 -9.828125 6.78125 -10.140625 5.8125 -10.140625 C 4.757812 -10.140625 3.953125 -9.78125 3.390625 -9.0625 C 2.835938 -8.34375 2.5625 -7.28125 2.5625 -5.875 C 2.5625 -4.414062 2.84375 -3.304688 3.40625 -2.546875 C 3.96875 -1.796875 4.769531 -1.421875 5.8125 -1.421875 C 6.3125 -1.421875 6.8125 -1.503906 7.3125 -1.671875 C 7.8125 -1.847656 8.269531 -2.09375 8.6875 -2.40625 L 8.875 -2.296875 L 8.734375 -0.609375 C 7.703125 -0.109375 6.679688 0.140625 5.671875 0.140625 C 4.046875 0.140625 2.796875 -0.359375 1.921875 -1.359375 C 1.046875 -2.367188 0.609375 -3.804688 0.609375 -5.671875 C 0.609375 -7.585938 1.066406 -9.066406 1.984375 -10.109375 C 2.898438 -11.160156 4.203125 -11.6875 5.890625 -11.6875 Z M 5.890625 -11.6875 "/></g></g></g><g fill="#ffffff" fill-opacity="1"><g transform="translate(111.047801, 342.374978)"><g><path d="M 7.578125 -1.390625 L 7.4375 0 L 1.5 0 L 1.625 -3.46875 L 1.5 -11.5625 L 3.40625 -11.5625 L 3.296875 -3.640625 L 3.328125 -1.546875 L 7.453125 -1.546875 Z M 7.578125 -1.390625 "/></g></g></g><g fill="#ffffff" fill-opacity="1"><g transform="translate(119.597783, 342.374978)"><g><path d="M 8.390625 -1.578125 L 8.5 -1.421875 L 8.375 0 L 1.546875 0 L 1.671875 -3.46875 L 1.546875 -11.5625 L 8.40625 -11.5625 L 8.515625 -11.390625 L 8.375 -9.96875 L 5.640625 -10.046875 L 3.4375 -10.03125 L 3.390625 -6.65625 L 5.46875 -6.625 L 7.375 -6.671875 L 7.5 -6.53125 L 7.359375 -5.109375 L 5.328125 -5.171875 L 3.359375 -5.125 L 3.34375 -3.640625 L 3.40625 -1.515625 L 5.59375 -1.5 Z M 8.390625 -1.578125 "/></g></g></g><g fill="#ffffff" fill-opacity="1"><g transform="translate(129.40776, 342.374978)"><g><path d="M 10.21875 0 L 8.3125 0 L 8.046875 -1.296875 L 7.546875 -2.890625 L 5.09375 -2.953125 L 2.875 -2.890625 L 2.34375 -1.390625 L 2.046875 0 L 0.203125 0 L 4.3125 -11.5625 L 6.5 -11.5625 Z M 7.078125 -4.40625 L 5.421875 -9.734375 L 5.296875 -9.734375 L 3.40625 -4.40625 L 5.21875 -4.375 Z M 7.078125 -4.40625 "/></g></g></g><g fill="#ffffff" fill-opacity="1"><g transform="translate(140.909724, 342.374978)"><g><path d="M 10.734375 -3.453125 L 10.78125 0 L 8.78125 0 L 3.34375 -8.65625 L 3.21875 -8.65625 L 3.203125 -3.875 L 3.265625 0 L 1.5625 0 L 1.65625 -3.421875 L 1.578125 -11.5625 L 3.546875 -11.5625 L 9 -2.890625 L 9.140625 -2.890625 L 9.109375 -11.46875 L 10.828125 -11.59375 Z M 10.734375 -3.453125 "/></g></g></g><g fill="#ffffff" fill-opacity="1"><g transform="translate(154.229682, 342.374978)"><g/></g></g><g fill="#ffffff" fill-opacity="1"><g transform="translate(158.045679, 342.374978)"><g><path d="M 4.984375 -5.40625 L 4.984375 -4.25 L 0.671875 -3.59375 L 0.5 -3.765625 L 0.5 -4.90625 L 4.828125 -5.546875 Z M 4.984375 -5.40625 "/></g></g></g><g fill="#ffffff" fill-opacity="1"><g transform="translate(164.489664, 342.374978)"><g/></g></g><g fill="#ffffff" fill-opacity="1"><g transform="translate(168.305662, 342.374978)"><g><path d="M 3.4375 -10.03125 L 3.390625 -6.390625 L 5.203125 -6.359375 L 7.109375 -6.40625 L 7.234375 -6.25 L 7.09375 -4.84375 L 5.046875 -4.890625 L 3.359375 -4.875 L 3.34375 -3.640625 L 3.4375 0 L 1.546875 0 L 1.671875 -3.46875 L 1.546875 -11.5625 L 8.015625 -11.5625 L 8.140625 -11.390625 L 7.984375 -9.9375 L 5.296875 -10.046875 Z M 3.4375 -10.03125 "/></g></g></g><g fill="#ffffff" fill-opacity="1"><g transform="translate(177.215642, 342.374978)"><g><path d="M 6.84375 -4.625 C 7.65625 -3.3125 8.617188 -1.914062 9.734375 -0.4375 L 9.71875 -0.21875 C 9.144531 -0.0195312 8.550781 0.101562 7.9375 0.15625 L 7.71875 0.015625 C 6.726562 -1.617188 5.925781 -3 5.3125 -4.125 L 3.34375 -4.125 L 3.34375 -3.640625 L 3.4375 0 L 1.546875 0 L 1.671875 -3.46875 L 1.546875 -11.5625 L 5.46875 -11.578125 C 6.632812 -11.578125 7.535156 -11.285156 8.171875 -10.703125 C 8.804688 -10.117188 9.125 -9.285156 9.125 -8.203125 C 9.125 -7.441406 8.921875 -6.75 8.515625 -6.125 C 8.117188 -5.507812 7.5625 -5.007812 6.84375 -4.625 Z M 3.390625 -5.640625 L 5.359375 -5.578125 C 6.578125 -5.953125 7.1875 -6.78125 7.1875 -8.0625 C 7.1875 -8.738281 7 -9.242188 6.625 -9.578125 C 6.257812 -9.910156 5.707031 -10.085938 4.96875 -10.109375 L 3.4375 -10.0625 Z M 3.390625 -5.640625 "/></g></g></g><g fill="#ffffff" fill-opacity="1"><g transform="translate(188.411614, 342.374978)"><g><path d="M 8.390625 -1.578125 L 8.5 -1.421875 L 8.375 0 L 1.546875 0 L 1.671875 -3.46875 L 1.546875 -11.5625 L 8.40625 -11.5625 L 8.515625 -11.390625 L 8.375 -9.96875 L 5.640625 -10.046875 L 3.4375 -10.03125 L 3.390625 -6.65625 L 5.46875 -6.625 L 7.375 -6.671875 L 7.5 -6.53125 L 7.359375 -5.109375 L 5.328125 -5.171875 L 3.359375 -5.125 L 3.34375 -3.640625 L 3.40625 -1.515625 L 5.59375 -1.5 Z M 8.390625 -1.578125 "/></g></g></g><g fill="#ffffff" fill-opacity="1"><g transform="translate(198.221586, 342.374978)"><g><path d="M 4.9375 -11.6875 C 5.84375 -11.6875 6.753906 -11.492188 7.671875 -11.109375 L 7.359375 -9.40625 L 7.078125 -9.3125 C 6.691406 -9.582031 6.296875 -9.796875 5.890625 -9.953125 C 5.484375 -10.109375 5.09375 -10.1875 4.71875 -10.1875 C 4.125 -10.1875 3.65625 -10.023438 3.3125 -9.703125 C 2.96875 -9.378906 2.796875 -9 2.796875 -8.5625 C 2.796875 -8.144531 2.96875 -7.800781 3.3125 -7.53125 C 3.65625 -7.257812 4.203125 -6.953125 4.953125 -6.609375 C 5.597656 -6.296875 6.117188 -6.007812 6.515625 -5.75 C 6.921875 -5.5 7.265625 -5.164062 7.546875 -4.75 C 7.835938 -4.34375 7.984375 -3.851562 7.984375 -3.28125 C 7.984375 -2.65625 7.8125 -2.082031 7.46875 -1.5625 C 7.132812 -1.039062 6.65625 -0.625 6.03125 -0.3125 C 5.414062 -0.0078125 4.710938 0.140625 3.921875 0.140625 C 3.390625 0.140625 2.84375 0.078125 2.28125 -0.046875 C 1.71875 -0.179688 1.1875 -0.375 0.6875 -0.625 L 0.921875 -2.46875 L 1.15625 -2.578125 C 1.59375 -2.148438 2.078125 -1.832031 2.609375 -1.625 C 3.148438 -1.414062 3.648438 -1.3125 4.109375 -1.3125 C 4.734375 -1.3125 5.226562 -1.472656 5.59375 -1.796875 C 5.96875 -2.128906 6.15625 -2.523438 6.15625 -2.984375 C 6.15625 -3.441406 5.972656 -3.8125 5.609375 -4.09375 C 5.253906 -4.375 4.703125 -4.691406 3.953125 -5.046875 C 3.316406 -5.335938 2.800781 -5.609375 2.40625 -5.859375 C 2.007812 -6.109375 1.671875 -6.4375 1.390625 -6.84375 C 1.109375 -7.25 0.96875 -7.738281 0.96875 -8.3125 C 0.96875 -8.9375 1.132812 -9.503906 1.46875 -10.015625 C 1.8125 -10.535156 2.28125 -10.941406 2.875 -11.234375 C 3.476562 -11.535156 4.164062 -11.6875 4.9375 -11.6875 Z M 4.9375 -11.6875 "/></g></g></g><g fill="#ffffff" fill-opacity="1"><g transform="translate(207.85156, 342.374978)"><g><path d="M 10.765625 -3.640625 L 10.8125 0 L 8.96875 0 L 9.046875 -3.46875 L 9.03125 -5.046875 L 6.078125 -5.0625 L 3.390625 -5.046875 L 3.359375 -3.640625 L 3.4375 0 L 1.609375 0 L 1.671875 -3.46875 L 1.609375 -11.5625 L 3.453125 -11.5625 L 3.40625 -6.59375 L 6.234375 -6.546875 L 9.015625 -6.59375 L 8.96875 -11.5625 L 10.859375 -11.5625 Z M 10.765625 -3.640625 "/></g></g></g><g fill="#ffffff" fill-opacity="1"><g transform="translate(221.189522, 342.374978)"><g/></g></g><g fill="#ffffff" fill-opacity="1"><g transform="translate(225.00552, 342.374978)"><g><path d="M 4.984375 -5.40625 L 4.984375 -4.25 L 0.671875 -3.59375 L 0.5 -3.765625 L 0.5 -4.90625 L 4.828125 -5.546875 Z M 4.984375 -5.40625 "/></g></g></g><g fill="#ffffff" fill-opacity="1"><g transform="translate(231.449504, 342.374978)"><g/></g></g><g fill="#ffffff" fill-opacity="1"><g transform="translate(235.265502, 342.374978)"><g><path d="M 3.4375 -10.03125 L 3.390625 -6.390625 L 5.203125 -6.359375 L 7.109375 -6.40625 L 7.234375 -6.25 L 7.09375 -4.84375 L 5.046875 -4.890625 L 3.359375 -4.875 L 3.34375 -3.640625 L 3.4375 0 L 1.546875 0 L 1.671875 -3.46875 L 1.546875 -11.5625 L 8.015625 -11.5625 L 8.140625 -11.390625 L 7.984375 -9.9375 L 5.296875 -10.046875 Z M 3.4375 -10.03125 "/></g></g></g><g fill="#ffffff" fill-opacity="1"><g transform="translate(244.175482, 342.374978)"><g><path d="M 10.21875 0 L 8.3125 0 L 8.046875 -1.296875 L 7.546875 -2.890625 L 5.09375 -2.953125 L 2.875 -2.890625 L 2.34375 -1.390625 L 2.046875 0 L 0.203125 0 L 4.3125 -11.5625 L 6.5 -11.5625 Z M 7.078125 -4.40625 L 5.421875 -9.734375 L 5.296875 -9.734375 L 3.40625 -4.40625 L 5.21875 -4.375 Z M 7.078125 -4.40625 "/></g></g></g><g fill="#ffffff" fill-opacity="1"><g transform="translate(255.677446, 342.374978)"><g><path d="M 4.9375 -11.6875 C 5.84375 -11.6875 6.753906 -11.492188 7.671875 -11.109375 L 7.359375 -9.40625 L 7.078125 -9.3125 C 6.691406 -9.582031 6.296875 -9.796875 5.890625 -9.953125 C 5.484375 -10.109375 5.09375 -10.1875 4.71875 -10.1875 C 4.125 -10.1875 3.65625 -10.023438 3.3125 -9.703125 C 2.96875 -9.378906 2.796875 -9 2.796875 -8.5625 C 2.796875 -8.144531 2.96875 -7.800781 3.3125 -7.53125 C 3.65625 -7.257812 4.203125 -6.953125 4.953125 -6.609375 C 5.597656 -6.296875 6.117188 -6.007812 6.515625 -5.75 C 6.921875 -5.5 7.265625 -5.164062 7.546875 -4.75 C 7.835938 -4.34375 7.984375 -3.851562 7.984375 -3.28125 C 7.984375 -2.65625 7.8125 -2.082031 7.46875 -1.5625 C 7.132812 -1.039062 6.65625 -0.625 6.03125 -0.3125 C 5.414062 -0.0078125 4.710938 0.140625 3.921875 0.140625 C 3.390625 0.140625 2.84375 0.078125 2.28125 -0.046875 C 1.71875 -0.179688 1.1875 -0.375 0.6875 -0.625 L 0.921875 -2.46875 L 1.15625 -2.578125 C 1.59375 -2.148438 2.078125 -1.832031 2.609375 -1.625 C 3.148438 -1.414062 3.648438 -1.3125 4.109375 -1.3125 C 4.734375 -1.3125 5.226562 -1.472656 5.59375 -1.796875 C 5.96875 -2.128906 6.15625 -2.523438 6.15625 -2.984375 C 6.15625 -3.441406 5.972656 -3.8125 5.609375 -4.09375 C 5.253906 -4.375 4.703125 -4.691406 3.953125 -5.046875 C 3.316406 -5.335938 2.800781 -5.609375 2.40625 -5.859375 C 2.007812 -6.109375 1.671875 -6.4375 1.390625 -6.84375 C 1.109375 -7.25 0.96875 -7.738281 0.96875 -8.3125 C 0.96875 -8.9375 1.132812 -9.503906 1.46875 -10.015625 C 1.8125 -10.535156 2.28125 -10.941406 2.875 -11.234375 C 3.476562 -11.535156 4.164062 -11.6875 4.9375 -11.6875 Z M 4.9375 -11.6875 "/></g></g></g><g fill="#ffffff" fill-opacity="1"><g transform="translate(265.30742, 342.374978)"><g><path d="M 8.59375 -11.390625 L 8.484375 -9.984375 L 6.390625 -10.09375 L 5.421875 -10.09375 L 5.328125 -3.640625 L 5.421875 0 L 3.546875 0 L 3.65625 -3.46875 L 3.5625 -10.09375 L 2.59375 -10.09375 L 0.46875 -9.984375 L 0.34375 -10.15625 L 0.484375 -11.5625 L 8.484375 -11.5625 Z M 8.59375 -11.390625 "/></g></g></g><g clip-path="url(#a93bb2281c)"><g clip-path="url(#94e8911c59)"><path fill="#ffffff" d="M 85.128906 333.804688 L 92.519531 333.804688 L 92.519531 341.195312 L 85.128906 341.195312 Z M 85.128906 333.804688 " fill-opacity="1" fill-rule="nonzero"/></g></g><g clip-path="url(#429de225d0)"><g clip-path="url(#c29002f796)"><path fill="#ffffff" d="M 279.847656 333.804688 L 287.234375 333.804688 L 287.234375 341.195312 L 279.847656 341.195312 Z M 279.847656 333.804688 " fill-opacity="1" fill-rule="nonzero"/></g></g><g clip-path="url(#82fbf8ef00)"><path fill="#ffffff" d="M 276.382812 122.878906 C 276.183594 122.878906 276.019531 123.105469 276.019531 123.386719 C 276.019531 123.671875 276.183594 123.898438 276.382812 123.898438 C 276.578125 123.898438 276.742188 123.671875 276.742188 123.386719 C 276.742188 123.105469 276.582031 122.878906 276.382812 122.878906 Z M 279.664062 118.785156 C 279.574219 118.742188 279.394531 118.777344 279.300781 118.785156 C 279.039062 118.816406 278.78125 118.890625 278.535156 118.988281 C 278.5 119.003906 278.464844 119.019531 278.425781 119.039062 C 277.996094 119.238281 277.597656 119.519531 277.257812 119.851562 C 277.164062 119.945312 277.070312 120.042969 276.980469 120.144531 C 276.636719 120.539062 276.367188 121 276.261719 121.507812 C 276.226562 121.679688 276.207031 121.859375 276.210938 122.042969 C 276.210938 122.101562 276.226562 122.167969 276.257812 122.230469 C 276.296875 122.3125 276.359375 122.371094 276.46875 122.339844 C 276.539062 122.320312 276.582031 122.257812 276.625 122.203125 C 276.664062 122.148438 276.699219 122.089844 276.734375 122.03125 C 276.816406 121.871094 276.882812 121.699219 276.957031 121.53125 C 277.03125 121.363281 277.113281 121.199219 277.207031 121.035156 C 277.246094 120.96875 277.28125 120.90625 277.320312 120.847656 C 277.65625 120.332031 278.09375 119.875 278.597656 119.527344 C 278.921875 119.300781 279.277344 119.117188 279.664062 118.960938 C 279.773438 118.917969 279.757812 118.835938 279.664062 118.785156 Z M 285.332031 122.929688 C 285.332031 120.480469 283.535156 118.445312 281.1875 118.070312 C 280.941406 118.03125 280.691406 118.011719 280.433594 118.011719 C 280.429688 118.011719 280.425781 118.011719 280.421875 118.011719 C 280.007812 118.011719 279.613281 118.0625 279.238281 118.15625 C 277.875 118.492188 276.738281 119.40625 276.089844 120.613281 C 275.902344 120.964844 275.753906 121.347656 275.652344 121.742188 C 275.59375 121.988281 275.554688 122.234375 275.53125 122.488281 C 275.515625 122.628906 275.511719 122.78125 275.511719 122.921875 C 275.511719 125.632812 277.710938 127.839844 280.421875 127.839844 C 283.128906 127.839844 285.332031 125.636719 285.332031 122.929688 Z M 286.019531 122.929688 C 286.019531 126.019531 283.507812 128.53125 280.421875 128.53125 C 277.332031 128.53125 274.820312 126.019531 274.820312 122.929688 C 274.820312 122.84375 274.828125 122.757812 274.828125 122.675781 C 274.835938 122.4375 274.863281 122.199219 274.902344 121.972656 C 274.960938 121.625 275.050781 121.292969 275.167969 120.96875 C 275.890625 119.027344 277.664062 117.589844 279.792969 117.359375 C 279.996094 117.332031 280.203125 117.324219 280.410156 117.324219 C 280.550781 117.324219 280.6875 117.328125 280.828125 117.339844 C 281.0625 117.359375 281.300781 117.386719 281.527344 117.433594 C 284.09375 117.957031 286.019531 120.222656 286.019531 122.929688 Z M 264.925781 96.136719 C 264.925781 96.777344 265.445312 97.296875 266.085938 97.296875 C 266.722656 97.296875 267.242188 96.777344 267.242188 96.136719 C 267.242188 95.496094 266.722656 94.976562 266.085938 94.976562 C 265.449219 94.976562 264.925781 95.496094 264.925781 96.136719 Z M 264.4375 96.136719 C 264.4375 95.226562 265.179688 94.480469 266.089844 94.480469 C 267 94.480469 267.742188 95.226562 267.742188 96.136719 C 267.742188 97.046875 267 97.792969 266.089844 97.792969 C 265.179688 97.792969 264.4375 97.054688 264.4375 96.136719 Z M 261.640625 118.566406 L 261.347656 118.566406 C 261.238281 118.566406 261.148438 118.65625 261.148438 118.765625 C 261.148438 118.875 261.238281 118.964844 261.347656 118.964844 L 261.640625 118.964844 C 261.75 118.964844 261.835938 118.875 261.835938 118.765625 C 261.835938 118.65625 261.75 118.566406 261.640625 118.566406 Z M 258.722656 118.566406 L 258.433594 118.566406 C 258.324219 118.566406 258.234375 118.65625 258.234375 118.765625 C 258.234375 118.875 258.324219 118.964844 258.433594 118.964844 L 258.722656 118.964844 C 258.832031 118.964844 258.921875 118.875 258.921875 118.765625 C 258.921875 118.65625 258.832031 118.566406 258.722656 118.566406 Z M 260.925781 118.011719 L 261.144531 117.792969 C 261.183594 117.753906 261.183594 117.695312 261.144531 117.65625 C 261.105469 117.617188 261.046875 117.617188 261.007812 117.65625 L 260.789062 117.875 C 260.75 117.914062 260.75 117.972656 260.789062 118.011719 C 260.808594 118.03125 260.832031 118.042969 260.859375 118.042969 C 260.882812 118.039062 260.90625 118.027344 260.925781 118.011719 Z M 259.082031 119.582031 L 258.921875 119.742188 C 258.882812 119.78125 258.882812 119.839844 258.921875 119.878906 C 258.941406 119.902344 258.964844 119.910156 258.992188 119.910156 C 259.015625 119.910156 259.039062 119.902344 259.058594 119.878906 L 259.21875 119.722656 C 259.257812 119.683594 259.257812 119.621094 259.21875 119.582031 C 259.179688 119.542969 259.121094 119.542969 259.082031 119.582031 Z M 260.992188 119.582031 C 260.953125 119.542969 260.890625 119.542969 260.851562 119.582031 C 260.8125 119.621094 260.8125 119.683594 260.851562 119.722656 L 261.011719 119.878906 C 261.03125 119.902344 261.054688 119.910156 261.078125 119.910156 C 261.105469 119.910156 261.128906 119.902344 261.148438 119.878906 C 261.1875 119.839844 261.1875 119.78125 261.148438 119.742188 Z M 259.058594 117.652344 C 259.019531 117.613281 258.960938 117.613281 258.921875 117.652344 C 258.882812 117.691406 258.882812 117.75 258.921875 117.789062 L 259.140625 118.007812 C 259.160156 118.027344 259.183594 118.039062 259.210938 118.039062 C 259.234375 118.039062 259.257812 118.027344 259.277344 118.007812 C 259.316406 117.96875 259.316406 117.910156 259.277344 117.867188 Z M 260.035156 119.878906 C 259.925781 119.878906 259.835938 119.96875 259.835938 120.078125 L 259.835938 120.371094 C 259.835938 120.480469 259.925781 120.570312 260.035156 120.570312 C 260.144531 120.570312 260.234375 120.480469 260.234375 120.371094 L 260.234375 120.078125 C 260.234375 119.96875 260.144531 119.878906 260.035156 119.878906 Z M 260.035156 116.960938 C 259.925781 116.960938 259.835938 117.050781 259.835938 117.160156 L 259.835938 117.460938 C 259.835938 117.570312 259.925781 117.660156 260.035156 117.660156 C 260.144531 117.660156 260.234375 117.570312 260.234375 117.460938 L 260.234375 117.160156 C 260.234375 117.050781 260.144531 116.960938 260.035156 116.960938 Z M 287.28125 110.105469 L 286.988281 110.105469 C 286.878906 110.105469 286.792969 110.195312 286.792969 110.304688 C 286.792969 110.410156 286.878906 110.5 286.988281 110.5 L 287.28125 110.5 C 287.390625 110.5 287.480469 110.410156 287.480469 110.304688 C 287.472656 110.195312 287.390625 110.105469 287.28125 110.105469 Z M 284.367188 110.105469 L 284.074219 110.105469 C 283.964844 110.105469 283.875 110.195312 283.875 110.304688 C 283.875 110.410156 283.964844 110.5 284.074219 110.5 L 284.367188 110.5 C 284.472656 110.5 284.5625 110.410156 284.5625 110.304688 C 284.5625 110.195312 284.472656 110.105469 284.367188 110.105469 Z M 286.566406 109.550781 L 286.785156 109.332031 C 286.824219 109.292969 286.824219 109.234375 286.785156 109.191406 C 286.746094 109.152344 286.6875 109.152344 286.648438 109.191406 L 286.429688 109.410156 C 286.390625 109.449219 286.390625 109.511719 286.429688 109.550781 C 286.449219 109.570312 286.472656 109.578125 286.5 109.578125 C 286.523438 109.578125 286.546875 109.570312 286.566406 109.550781 Z M 284.632812 111.445312 C 284.65625 111.445312 284.683594 111.4375 284.703125 111.417969 L 284.859375 111.257812 C 284.898438 111.21875 284.898438 111.160156 284.859375 111.121094 C 284.820312 111.082031 284.761719 111.082031 284.722656 111.121094 L 284.5625 111.277344 C 284.523438 111.320312 284.523438 111.378906 284.5625 111.417969 C 284.582031 111.4375 284.609375 111.445312 284.632812 111.445312 Z M 286.628906 111.121094 C 286.589844 111.082031 286.527344 111.082031 286.488281 111.121094 C 286.449219 111.160156 286.449219 111.21875 286.488281 111.257812 L 286.648438 111.417969 C 286.667969 111.4375 286.691406 111.445312 286.71875 111.445312 C 286.742188 111.445312 286.765625 111.4375 286.785156 111.417969 C 286.824219 111.378906 286.824219 111.320312 286.785156 111.277344 Z M 284.921875 109.410156 L 284.703125 109.191406 C 284.664062 109.152344 284.601562 109.152344 284.5625 109.191406 C 284.523438 109.234375 284.523438 109.292969 284.5625 109.332031 L 284.78125 109.550781 C 284.800781 109.570312 284.824219 109.578125 284.851562 109.578125 C 284.875 109.578125 284.898438 109.570312 284.921875 109.550781 C 284.960938 109.511719 284.960938 109.449219 284.921875 109.410156 Z M 285.675781 111.417969 C 285.570312 111.417969 285.480469 111.507812 285.480469 111.617188 L 285.480469 111.910156 C 285.480469 112.015625 285.570312 112.105469 285.675781 112.105469 C 285.785156 112.105469 285.875 112.015625 285.875 111.910156 L 285.875 111.617188 C 285.871094 111.507812 285.78125 111.417969 285.675781 111.417969 Z M 285.871094 108.699219 C 285.871094 108.589844 285.78125 108.5 285.671875 108.5 C 285.5625 108.5 285.472656 108.589844 285.472656 108.699219 L 285.472656 109 C 285.472656 109.109375 285.5625 109.199219 285.671875 109.199219 C 285.78125 109.199219 285.871094 109.109375 285.871094 109 Z M 266.199219 110.886719 C 266.054688 110.867188 265.910156 110.921875 265.792969 111.050781 C 265.679688 111.175781 265.601562 111.34375 265.570312 111.535156 C 265.511719 111.9375 265.695312 112.300781 265.980469 112.339844 C 266 112.34375 266.019531 112.34375 266.039062 112.34375 C 266.308594 112.34375 266.558594 112.066406 266.613281 111.695312 C 266.667969 111.292969 266.484375 110.933594 266.199219 110.886719 Z M 267.375 109.015625 C 267.585938 108.6875 267.828125 108.378906 268.085938 108.09375 C 268.707031 107.410156 269.46875 106.839844 270.316406 106.4375 C 270.855469 106.179688 271.441406 105.988281 272.054688 105.84375 C 272.21875 105.804688 272.207031 105.675781 272.085938 105.585938 C 271.960938 105.496094 271.683594 105.511719 271.535156 105.5 C 271.128906 105.480469 270.722656 105.53125 270.328125 105.625 C 269.566406 105.808594 268.84375 106.15625 268.203125 106.601562 C 268.148438 106.640625 268.097656 106.675781 268.046875 106.714844 C 267.699219 106.972656 267.371094 107.261719 267.089844 107.582031 C 266.589844 108.152344 266.226562 108.820312 266.140625 109.59375 C 266.113281 109.796875 266.164062 110.132812 266.460938 110.09375 C 266.566406 110.078125 266.652344 110.003906 266.726562 109.929688 C 266.996094 109.660156 267.179688 109.332031 267.375 109.015625 Z M 274.519531 104.605469 C 274.710938 104.648438 274.910156 104.699219 275.097656 104.757812 C 275.800781 104.976562 276.464844 105.285156 277.078125 105.667969 C 277.234375 105.765625 277.378906 105.863281 277.523438 105.972656 C 278.117188 106.398438 278.652344 106.894531 279.117188 107.453125 C 279.246094 107.605469 279.367188 107.765625 279.484375 107.925781 C 280.488281 109.320312 281.082031 111.03125 281.082031 112.878906 C 281.082031 114.222656 280.765625 115.496094 280.210938 116.625 C 280.28125 116.625 280.351562 116.621094 280.425781 116.621094 C 280.675781 116.621094 280.929688 116.636719 281.171875 116.664062 C 281.6875 115.503906 281.96875 114.226562 281.96875 112.878906 C 281.96875 111.101562 281.46875 109.4375 280.609375 108.011719 C 280.523438 107.878906 280.441406 107.746094 280.351562 107.613281 C 280.148438 107.316406 279.929688 107.03125 279.699219 106.761719 C 278.59375 105.480469 277.152344 104.5 275.515625 103.960938 C 275.179688 103.851562 274.832031 103.757812 274.480469 103.683594 C 274.328125 103.652344 274.167969 103.625 274.011719 103.597656 C 273.550781 103.53125 273.074219 103.488281 272.59375 103.488281 C 271.363281 103.488281 270.183594 103.726562 269.105469 104.164062 C 268.886719 104.253906 268.679688 104.347656 268.46875 104.445312 C 268.226562 104.566406 267.996094 104.695312 267.769531 104.832031 C 266.773438 105.433594 265.894531 106.210938 265.1875 107.125 C 265.027344 107.339844 264.871094 107.558594 264.722656 107.78125 C 264.601562 107.972656 264.480469 108.171875 264.367188 108.375 C 263.632812 109.714844 263.21875 111.246094 263.21875 112.875 C 263.21875 118.046875 267.425781 122.257812 272.59375 122.257812 C 273.132812 122.257812 273.660156 122.214844 274.171875 122.125 C 274.210938 121.804688 274.277344 121.492188 274.367188 121.183594 C 273.796875 121.308594 273.203125 121.371094 272.59375 121.371094 C 267.910156 121.371094 264.105469 117.5625 264.105469 112.875 C 264.105469 111.179688 264.605469 109.605469 265.460938 108.28125 C 265.640625 108.003906 265.832031 107.734375 266.039062 107.484375 C 266.605469 106.800781 267.269531 106.210938 268.015625 105.730469 C 268.292969 105.550781 268.578125 105.386719 268.882812 105.238281 C 270.003906 104.6875 271.261719 104.382812 272.59375 104.382812 C 273.257812 104.382812 273.902344 104.460938 274.519531 104.605469 Z M 269.753906 98.171875 C 269.753906 98.609375 270.105469 98.960938 270.539062 98.960938 C 270.976562 98.960938 271.328125 98.609375 271.328125 98.171875 C 271.328125 97.738281 270.976562 97.386719 270.539062 97.386719 C 270.105469 97.386719 269.753906 97.738281 269.753906 98.171875 Z M 269.257812 98.171875 C 269.257812 97.464844 269.832031 96.890625 270.539062 96.890625 C 271.246094 96.890625 271.820312 97.464844 271.820312 98.171875 C 271.820312 98.882812 271.246094 99.457031 270.539062 99.457031 C 269.832031 99.457031 269.257812 98.882812 269.257812 98.171875 Z M 266.40625 124.09375 C 266.40625 123.234375 265.707031 122.535156 264.851562 122.535156 C 263.996094 122.535156 263.296875 123.234375 263.296875 124.09375 C 263.296875 124.949219 263.996094 125.648438 264.851562 125.648438 C 265.707031 125.648438 266.40625 124.949219 266.40625 124.09375 Z M 266.996094 124.09375 C 266.996094 125.277344 266.035156 126.238281 264.847656 126.238281 C 263.664062 126.238281 262.703125 125.277344 262.703125 124.09375 C 262.703125 122.90625 263.664062 121.945312 264.847656 121.945312 C 266.03125 121.941406 266.996094 122.90625 266.996094 124.09375 Z M 276.070312 99.277344 C 275.875 99.253906 275.707031 99.441406 275.671875 99.710938 C 275.636719 99.976562 275.761719 100.199219 275.949219 100.222656 C 275.960938 100.222656 275.96875 100.222656 275.980469 100.222656 C 276.0625 100.222656 276.144531 100.183594 276.210938 100.105469 C 276.28125 100.027344 276.332031 99.914062 276.347656 99.789062 C 276.359375 99.664062 276.339844 99.546875 276.292969 99.453125 C 276.242188 99.351562 276.164062 99.289062 276.070312 99.277344 Z M 276.375 98.6875 C 276.535156 98.515625 276.636719 98.308594 276.757812 98.105469 C 276.882812 97.894531 277.019531 97.699219 277.179688 97.515625 C 277.550781 97.074219 278.003906 96.707031 278.515625 96.4375 C 278.839844 96.265625 279.191406 96.136719 279.5625 96.039062 C 279.664062 96.011719 279.65625 95.929688 279.578125 95.875 C 279.5 95.820312 279.332031 95.835938 279.242188 95.835938 C 278.996094 95.828125 278.746094 95.871094 278.507812 95.933594 C 278.050781 96.0625 277.613281 96.289062 277.234375 96.582031 C 276.613281 97.054688 276.089844 97.691406 276.015625 98.488281 C 276.003906 98.621094 276.039062 98.828125 276.21875 98.796875 C 276.28125 98.789062 276.332031 98.738281 276.375 98.6875 Z M 275.105469 103.144531 C 274.8125 102.4375 274.652344 101.671875 274.652344 100.863281 C 274.652344 97.578125 277.328125 94.902344 280.609375 94.902344 C 283.894531 94.902344 286.5625 97.578125 286.5625 100.863281 C 286.5625 104.148438 283.894531 106.824219 280.613281 106.824219 C 280.800781 107.074219 280.976562 107.324219 281.136719 107.59375 C 284.609375 107.320312 287.351562 104.40625 287.351562 100.863281 C 287.351562 97.140625 284.324219 94.113281 280.609375 94.113281 C 276.890625 94.113281 273.867188 97.140625 273.867188 100.863281 C 273.867188 101.59375 273.984375 102.296875 274.199219 102.953125 C 274.5 103.003906 274.800781 103.070312 275.105469 103.144531 Z M 261.953125 103.230469 C 261.808594 103.210938 261.683594 103.351562 261.660156 103.542969 C 261.648438 103.632812 261.664062 103.71875 261.699219 103.789062 C 261.738281 103.863281 261.796875 103.90625 261.867188 103.914062 C 261.878906 103.914062 261.882812 103.914062 261.890625 103.914062 C 262.019531 103.914062 262.136719 103.78125 262.160156 103.605469 C 262.179688 103.414062 262.089844 103.25 261.953125 103.230469 Z M 262.425781 102.4375 C 262.511719 102.296875 262.609375 102.15625 262.714844 102.03125 C 262.972656 101.730469 263.28125 101.472656 263.632812 101.289062 C 263.855469 101.171875 264.101562 101.082031 264.355469 101.011719 C 264.425781 100.992188 264.421875 100.9375 264.367188 100.898438 C 264.3125 100.863281 264.199219 100.867188 264.132812 100.867188 C 263.960938 100.863281 263.792969 100.894531 263.628906 100.9375 C 263.3125 101.027344 263.011719 101.1875 262.75 101.390625 C 262.324219 101.714844 261.957031 102.15625 261.910156 102.707031 C 261.902344 102.796875 261.925781 102.941406 262.050781 102.917969 C 262.09375 102.910156 262.128906 102.878906 262.160156 102.84375 C 262.273438 102.722656 262.34375 102.578125 262.425781 102.4375 Z M 260.464844 103.753906 C 260.464844 101.527344 262.277344 99.714844 264.5 99.714844 C 266.703125 99.714844 268.496094 101.488281 268.535156 103.683594 C 268.332031 103.773438 268.132812 103.871094 267.9375 103.96875 C 267.941406 103.894531 267.945312 103.820312 267.945312 103.746094 C 267.945312 101.84375 266.402344 100.300781 264.5 100.300781 C 262.601562 100.300781 261.054688 101.84375 261.054688 103.746094 C 261.054688 105.585938 262.5 107.09375 264.3125 107.191406 C 264.1875 107.375 264.070312 107.558594 263.957031 107.75 C 261.984375 107.488281 260.464844 105.792969 260.464844 103.753906 " fill-opacity="1" fill-rule="nonzero"/></g><g clip-path="url(#154b808d9c)"><path fill="#ffffff" d="M 118.585938 135.574219 C 118.585938 133.675781 117.019531 132.132812 115.09375 132.132812 C 113.164062 132.132812 111.597656 133.675781 111.597656 135.574219 C 111.597656 137.472656 113.164062 139.019531 115.09375 139.019531 C 117.019531 139.019531 118.585938 137.472656 118.585938 135.574219 Z M 119.761719 135.574219 C 119.761719 138.113281 117.664062 140.175781 115.09375 140.175781 C 112.519531 140.175781 110.425781 138.113281 110.425781 135.574219 C 110.425781 133.039062 112.519531 130.976562 115.09375 130.976562 C 117.664062 130.976562 119.761719 133.039062 119.761719 135.574219 Z M 108.410156 132.765625 C 108.410156 131.933594 108.246094 131.144531 107.953125 130.414062 C 107.910156 130.300781 107.863281 130.191406 107.8125 130.082031 C 107.796875 130.046875 107.777344 130.011719 107.757812 129.972656 C 107.660156 129.769531 107.550781 129.570312 107.429688 129.378906 C 107.414062 129.359375 107.402344 129.335938 107.390625 129.316406 C 107.320312 129.207031 107.246094 129.097656 107.167969 128.996094 C 107.167969 128.992188 107.164062 128.988281 107.160156 128.984375 C 106.527344 128.125 105.6875 127.425781 104.722656 126.960938 C 104.683594 126.9375 104.640625 126.917969 104.597656 126.902344 C 104.496094 126.851562 104.390625 126.804688 104.28125 126.761719 C 104.152344 126.710938 104.019531 126.664062 103.886719 126.621094 C 103.796875 126.589844 103.703125 126.566406 103.613281 126.539062 C 103.523438 126.515625 103.4375 126.492188 103.347656 126.472656 C 103.257812 126.453125 103.171875 126.429688 103.082031 126.414062 C 103.074219 126.414062 103.066406 126.410156 103.058594 126.410156 C 102.859375 126.375 102.660156 126.34375 102.464844 126.324219 C 102.257812 126.308594 102.050781 126.292969 101.84375 126.292969 C 101.621094 126.292969 101.402344 126.304688 101.1875 126.328125 C 101.089844 126.335938 100.988281 126.355469 100.890625 126.371094 C 100.777344 126.386719 100.667969 126.398438 100.558594 126.421875 C 100.429688 126.445312 100.304688 126.480469 100.179688 126.511719 C 100.105469 126.53125 100.027344 126.546875 99.953125 126.570312 C 99.8125 126.613281 99.671875 126.664062 99.535156 126.714844 C 99.480469 126.734375 99.425781 126.753906 99.371094 126.773438 C 99.222656 126.832031 99.082031 126.898438 98.941406 126.96875 C 98.898438 126.988281 98.855469 127.007812 98.816406 127.027344 C 98.667969 127.105469 98.527344 127.1875 98.386719 127.273438 C 98.355469 127.292969 98.320312 127.308594 98.292969 127.328125 C 98.148438 127.421875 98.007812 127.519531 97.871094 127.621094 C 97.847656 127.640625 97.820312 127.660156 97.796875 127.675781 C 97.660156 127.785156 97.527344 127.898438 97.398438 128.015625 C 97.378906 128.03125 97.359375 128.046875 97.339844 128.066406 C 97.210938 128.1875 97.085938 128.3125 96.964844 128.445312 C 96.949219 128.460938 96.933594 128.476562 96.921875 128.496094 C 96.800781 128.628906 96.683594 128.769531 96.578125 128.914062 C 96.566406 128.929688 96.550781 128.945312 96.542969 128.960938 C 96.429688 129.109375 96.328125 129.261719 96.230469 129.417969 C 96.222656 129.429688 96.214844 129.445312 96.207031 129.457031 C 96.109375 129.617188 96.019531 129.785156 95.933594 129.953125 C 95.929688 129.964844 95.925781 129.972656 95.921875 129.984375 C 95.835938 130.15625 95.757812 130.335938 95.6875 130.519531 C 95.6875 130.523438 95.683594 130.53125 95.683594 130.535156 C 95.46875 131.105469 95.335938 131.710938 95.296875 132.34375 L 95.289062 132.410156 C 95.285156 132.527344 95.273438 132.644531 95.273438 132.765625 C 95.273438 136.335938 98.21875 139.238281 101.84375 139.238281 C 105.464844 139.238281 108.410156 136.335938 108.410156 132.765625 Z M 94.191406 131.648438 C 94.191406 131.636719 94.195312 131.628906 94.195312 131.621094 C 94.230469 131.402344 94.269531 131.1875 94.324219 130.976562 C 94.324219 130.964844 94.328125 130.953125 94.332031 130.945312 C 94.714844 129.410156 95.566406 128.0625 96.730469 127.050781 C 96.753906 127.03125 96.773438 127.011719 96.792969 126.992188 C 96.933594 126.875 97.078125 126.765625 97.222656 126.65625 C 97.265625 126.625 97.308594 126.59375 97.355469 126.5625 C 97.492188 126.464844 97.628906 126.375 97.773438 126.289062 C 97.835938 126.25 97.894531 126.214844 97.957031 126.179688 C 98.089844 126.101562 98.226562 126.027344 98.367188 125.957031 C 98.445312 125.921875 98.519531 125.882812 98.597656 125.847656 C 98.730469 125.789062 98.863281 125.730469 99 125.675781 C 99.09375 125.640625 99.1875 125.609375 99.28125 125.574219 C 99.410156 125.53125 99.535156 125.488281 99.667969 125.449219 C 99.78125 125.417969 99.894531 125.390625 100.011719 125.363281 C 100.128906 125.335938 100.246094 125.304688 100.363281 125.28125 C 100.507812 125.253906 100.65625 125.234375 100.804688 125.214844 C 100.898438 125.203125 100.992188 125.183594 101.089844 125.175781 C 101.339844 125.152344 101.589844 125.136719 101.84375 125.136719 C 102.058594 125.136719 102.28125 125.148438 102.503906 125.167969 C 102.492188 125.019531 102.484375 124.871094 102.484375 124.726562 C 102.484375 124.542969 102.496094 124.363281 102.511719 124.183594 C 102.515625 124.136719 102.519531 124.09375 102.527344 124.046875 C 102.542969 123.890625 102.566406 123.738281 102.597656 123.585938 C 102.613281 123.507812 102.628906 123.433594 102.648438 123.359375 C 102.667969 123.28125 102.6875 123.203125 102.707031 123.125 C 102.753906 122.960938 102.804688 122.800781 102.863281 122.644531 C 102.875 122.613281 102.886719 122.582031 102.898438 122.546875 C 103.027344 122.222656 103.183594 121.90625 103.363281 121.609375 C 103.371094 121.601562 103.375 121.589844 103.382812 121.582031 C 103.503906 121.382812 103.636719 121.191406 103.78125 121.007812 C 103.785156 121.003906 103.789062 121 103.789062 120.996094 C 103.863281 120.90625 103.9375 120.816406 104.011719 120.730469 C 104.03125 120.707031 104.054688 120.6875 104.074219 120.664062 C 104.199219 120.527344 104.328125 120.398438 104.464844 120.273438 C 104.507812 120.230469 104.554688 120.1875 104.605469 120.148438 C 104.675781 120.085938 104.746094 120.027344 104.820312 119.96875 C 104.921875 119.890625 105.023438 119.8125 105.128906 119.738281 C 103.953125 115.699219 100.222656 112.910156 95.914062 112.910156 C 90.628906 112.910156 86.328125 117.148438 86.328125 122.355469 C 86.328125 126.945312 89.667969 130.839844 94.191406 131.648438 Z M 108.664062 119.796875 C 107.800781 119.796875 106.992188 120.011719 106.28125 120.390625 L 106.242188 120.414062 C 106.191406 120.441406 106.136719 120.476562 106.085938 120.507812 C 105.910156 120.609375 105.746094 120.722656 105.585938 120.84375 C 105.574219 120.855469 105.5625 120.863281 105.550781 120.871094 C 105.390625 120.996094 105.242188 121.128906 105.101562 121.269531 C 105.0625 121.304688 105.03125 121.347656 104.992188 121.382812 C 104.90625 121.476562 104.820312 121.574219 104.738281 121.675781 C 104.683594 121.742188 104.628906 121.8125 104.578125 121.886719 C 104.523438 121.960938 104.472656 122.042969 104.421875 122.121094 C 104.371094 122.203125 104.320312 122.28125 104.273438 122.363281 C 104.199219 122.496094 104.132812 122.628906 104.070312 122.769531 C 104.03125 122.859375 104 122.949219 103.964844 123.042969 C 103.929688 123.144531 103.890625 123.246094 103.859375 123.347656 C 103.839844 123.425781 103.820312 123.503906 103.800781 123.582031 C 103.769531 123.703125 103.746094 123.824219 103.726562 123.945312 C 103.71875 124.011719 103.703125 124.078125 103.695312 124.144531 C 103.675781 124.335938 103.660156 124.527344 103.660156 124.726562 C 103.660156 124.90625 103.675781 125.089844 103.695312 125.273438 C 103.699219 125.304688 103.707031 125.335938 103.710938 125.367188 C 103.796875 125.386719 103.878906 125.414062 103.964844 125.4375 C 104.09375 125.472656 104.222656 125.511719 104.347656 125.554688 C 104.449219 125.589844 104.550781 125.625 104.652344 125.664062 C 104.835938 125.738281 105.019531 125.816406 105.195312 125.902344 C 105.25 125.925781 105.304688 125.949219 105.355469 125.976562 C 105.480469 126.039062 105.597656 126.105469 105.71875 126.171875 C 105.730469 126.179688 105.746094 126.191406 105.757812 126.199219 C 105.992188 126.332031 106.214844 126.480469 106.433594 126.636719 C 106.449219 126.648438 106.460938 126.660156 106.476562 126.671875 C 107.039062 127.085938 107.542969 127.574219 107.972656 128.125 C 108 128.160156 108.027344 128.199219 108.058594 128.238281 C 108.1875 128.40625 108.304688 128.582031 108.421875 128.761719 C 108.457031 128.820312 108.496094 128.882812 108.53125 128.941406 C 108.601562 129.058594 108.667969 129.179688 108.730469 129.304688 C 108.792969 129.417969 108.847656 129.53125 108.902344 129.648438 C 111.550781 129.523438 113.667969 127.363281 113.667969 124.726562 C 113.667969 122.007812 111.421875 119.796875 108.664062 119.796875 Z M 109.308594 130.777344 C 109.484375 131.414062 109.585938 132.078125 109.585938 132.765625 C 109.585938 136.972656 106.113281 140.394531 101.84375 140.394531 C 97.585938 140.394531 94.121094 136.992188 94.101562 132.804688 C 88.960938 131.945312 85.152344 127.546875 85.152344 122.355469 C 85.152344 116.511719 89.980469 111.753906 95.914062 111.753906 C 100.65625 111.753906 104.769531 114.765625 106.171875 119.160156 C 106.933594 118.828125 107.777344 118.636719 108.664062 118.636719 C 112.070312 118.636719 114.839844 121.367188 114.839844 124.726562 C 114.839844 127.867188 112.414062 130.457031 109.308594 130.777344 Z M 102.542969 128.210938 C 101.136719 127.441406 99.292969 127.902344 98.429688 129.238281 C 98.160156 129.660156 98.191406 130.015625 98.519531 130.25 L 98.523438 130.25 C 98.539062 130.261719 98.558594 130.273438 98.574219 130.28125 C 98.871094 130.457031 99.230469 130.375 99.46875 130.082031 C 100.222656 129.148438 100.785156 129.003906 101.972656 129.4375 C 102.371094 129.582031 102.769531 129.46875 102.917969 129.167969 C 103.089844 128.8125 102.949219 128.445312 102.542969 128.210938 Z M 95.835938 115.828125 C 96.292969 115.945312 96.621094 115.808594 96.753906 115.441406 C 96.894531 115.054688 96.714844 114.71875 96.253906 114.527344 C 94.277344 113.703125 91.769531 114.671875 90.886719 116.605469 C 90.65625 117.117188 90.71875 117.460938 91.089844 117.65625 C 91.113281 117.667969 91.140625 117.679688 91.164062 117.691406 C 91.5 117.832031 91.84375 117.714844 92.03125 117.394531 C 92.984375 115.777344 94.015625 115.351562 95.835938 115.828125 Z M 109.488281 112.5 C 109.496094 113.371094 110.226562 114.089844 111.121094 114.097656 C 112.054688 114.097656 112.742188 113.4375 112.757812 112.527344 C 112.769531 111.632812 112.082031 110.90625 111.191406 110.878906 L 111.140625 110.878906 C 110.714844 110.878906 110.289062 111.058594 109.972656 111.371094 C 109.664062 111.679688 109.488281 112.089844 109.488281 112.5 Z M 109.109375 114.507812 C 108.554688 113.957031 108.253906 113.230469 108.261719 112.460938 C 108.277344 110.910156 109.566406 109.644531 111.132812 109.644531 L 111.179688 109.644531 C 112.757812 109.667969 114.035156 110.949219 114.03125 112.496094 C 114.023438 114.070312 112.722656 115.347656 111.128906 115.347656 L 111.117188 115.347656 C 110.363281 115.34375 109.648438 115.046875 109.109375 114.507812 Z M 122.082031 122.90625 C 122.09375 122.011719 121.40625 121.289062 120.515625 121.257812 L 120.464844 121.257812 C 120.039062 121.257812 119.613281 121.4375 119.296875 121.753906 C 118.988281 122.058594 118.8125 122.472656 118.8125 122.882812 C 118.820312 123.753906 119.550781 124.46875 120.445312 124.476562 C 121.378906 124.476562 122.066406 123.816406 122.082031 122.90625 Z M 123.355469 122.878906 C 123.347656 124.449219 122.046875 125.730469 120.453125 125.730469 L 120.441406 125.730469 C 119.6875 125.726562 118.972656 125.429688 118.433594 124.886719 C 117.878906 124.335938 117.578125 123.609375 117.585938 122.84375 C 117.601562 121.289062 118.890625 120.027344 120.457031 120.027344 L 120.503906 120.027344 C 122.082031 120.050781 123.359375 121.328125 123.355469 122.878906 Z M 115.578125 133.269531 C 114.59375 132.996094 113.359375 133.640625 113.046875 134.585938 C 112.941406 134.902344 112.941406 135.203125 113.285156 135.359375 C 113.566406 135.488281 113.824219 135.390625 113.976562 135.105469 C 114.296875 134.519531 114.726562 134.175781 115.460938 134.347656 C 115.8125 134.429688 116.058594 134.238281 116.105469 133.878906 C 116.15625 133.5 115.902344 133.34375 115.578125 133.269531 Z M 109.117188 120.914062 C 109.464844 121.042969 109.722656 121.246094 109.609375 121.65625 C 109.503906 122.042969 109.207031 122.222656 108.832031 122.082031 C 108.050781 121.789062 107.53125 122.101562 107.09375 122.703125 C 106.886719 122.992188 106.589844 123.0625 106.296875 122.878906 C 105.945312 122.660156 105.988281 122.332031 106.148438 122 C 106.628906 121.007812 108.078125 120.476562 109.117188 120.914062 " fill-opacity="1" fill-rule="nonzero"/></g><path fill="#d93746" d="M 183.355469 251.898438 C 183.355469 251.898438 163.375 248.265625 147.472656 254.933594 C 130.039062 262.242188 6.53125 305.492188 8.335938 326.925781 C 10.140625 348.359375 5.058594 357.035156 34.425781 357.886719 C 63.796875 358.734375 199.09375 374.871094 214.453125 370.5625 C 229.808594 366.257812 387.261719 315.949219 355.316406 295.113281 C 355.316406 295.113281 368.121094 270.144531 339.808594 265.253906 C 311.496094 260.359375 183.355469 251.898438 183.355469 251.898438 " fill-opacity="1" fill-rule="nonzero"/><path fill="#ef5365" d="M 50.203125 333.042969 C 40.660156 333.824219 30.871094 334.023438 21.539062 335.285156 C 48.71875 339.160156 76.660156 344.816406 104.726562 344.558594 C 97.460938 346.839844 89.445312 346.75 82.21875 347.253906 C 115.808594 351.203125 148.582031 355.734375 182.238281 356.726562 C 176.65625 355.476562 171.03125 356 165.441406 354.75 C 179.109375 353.136719 192.75 352.707031 206.429688 350.5 C 202.449219 349.265625 199.242188 349.230469 195.257812 347.996094 C 204.128906 345.734375 212.210938 342.871094 219.511719 338.8125 C 163.808594 349.925781 106.140625 341.101562 50.203125 333.042969 " fill-opacity="1" fill-rule="nonzero"/><path fill="#c42633" d="M 355.316406 295.113281 C 355.316406 295.113281 368.121094 270.144531 339.808594 265.253906 C 311.496094 260.359375 183.355469 251.898438 183.355469 251.898438 C 183.355469 251.898438 163.375 248.265625 147.472656 254.933594 C 131.03125 261.824219 20.285156 300.671875 9.210938 323.054688 C 11.550781 323.121094 13.882812 323.242188 16.183594 323.382812 C 39.378906 326.023438 62.5625 329.257812 85.773438 331.308594 C 130.570312 335.984375 174.738281 332.953125 218.828125 333.476562 C 233.269531 333.050781 247 328.480469 259.964844 322.121094 C 290.761719 307.089844 317.585938 290.234375 352.945312 286.507812 C 354.550781 286.527344 348.773438 294.15625 344.726562 295.882812 C 326.144531 302.179688 311.511719 311.480469 293.722656 318.375 C 309.765625 317.972656 326.640625 316.394531 341.195312 310.648438 C 330.597656 318.8125 317.632812 325.167969 303.875 330.929688 C 285.257812 338.996094 268.257812 346.492188 248.875 352.777344 C 241.609375 355.058594 227.027344 361.992188 228.730469 357.273438 C 233.96875 337.796875 265.34375 332.839844 288.046875 321.269531 C 288.859375 320.683594 290.503906 318.929688 289.742188 317.144531 C 286.480469 319.472656 282.4375 321.199219 278.402344 322.335938 C 253.371094 330.332031 221.179688 335.871094 212.675781 358.269531 C 211.8125 361.21875 207.726562 364.726562 203.703125 365.269531 C 170.746094 369.023438 140.347656 365.703125 107.5625 361.761719 C 75.585938 357.242188 45.175781 354.511719 14.84375 348.234375 C 13.253906 347.621094 19.730469 344.738281 22.964844 343.59375 C 18.335938 343.535156 13.722656 343.078125 9.167969 342.34375 C 10.0625 352.691406 13.488281 357.28125 34.425781 357.886719 C 63.796875 358.734375 199.09375 374.871094 214.453125 370.5625 C 229.808594 366.257812 387.261719 315.949219 355.316406 295.113281 " fill-opacity="1" fill-rule="nonzero"/><path fill="#ee6735" d="M 150.703125 257.429688 C 148.953125 258.160156 146.125 259.261719 142.476562 260.660156 C 157.984375 258.519531 173.558594 256.980469 189.175781 256.222656 C 186.265625 255.261719 183 254.59375 179.535156 254.234375 C 172.363281 253.6875 161.054688 253.089844 150.703125 257.429688 " fill-opacity="1" fill-rule="nonzero"/><path fill="#ee6735" d="M 327.84375 271.117188 C 328.90625 271.835938 330.648438 272.9375 332.902344 274.34375 C 322.589844 270.992188 312.113281 268.050781 301.457031 265.640625 C 303.65625 265.328125 306.050781 265.257812 308.519531 265.425781 C 313.589844 265.914062 321.535156 266.863281 327.84375 271.117188 " fill-opacity="1" fill-rule="nonzero"/><g clip-path="url(#f7085a531a)"><path fill="#a42728" d="M 146.898438 254.03125 C 144.347656 255.101562 139.355469 257.003906 133.039062 259.410156 C 69.960938 283.457031 5.675781 310.289062 7.082031 327 C 7.359375 330.316406 7.472656 333.371094 7.574219 336.0625 C 8.128906 350.769531 8.40625 358.152344 34.375 358.902344 C 45.089844 359.210938 69.675781 361.535156 98.144531 364.234375 C 148.164062 368.964844 204.859375 374.328125 214.859375 371.523438 C 216.253906 371.136719 354.9375 328.898438 360.652344 303.175781 C 360.75 302.738281 360.808594 302.308594 360.832031 301.890625 C 360.972656 299.234375 359.566406 296.882812 356.785156 294.851562 C 357.484375 293.316406 359.1875 289.15625 359.445312 284.285156 C 359.628906 280.789062 359.066406 276.941406 356.832031 273.488281 C 353.769531 268.753906 348.136719 265.648438 340.082031 264.253906 C 312.15625 259.433594 186.132812 251.058594 183.546875 250.886719 C 182.121094 250.636719 162.761719 247.378906 146.898438 254.03125 Z M 98.453125 362.210938 C 69.929688 359.511719 45.300781 357.179688 34.484375 356.867188 C 10.855469 356.183594 10.644531 350.683594 10.09375 335.988281 C 9.992188 333.277344 9.878906 330.207031 9.59375 326.847656 C 8.117188 309.273438 99.644531 274.382812 134.101562 261.25 C 140.691406 258.738281 145.453125 256.921875 148.046875 255.835938 C 163.339844 249.421875 182.871094 252.855469 183.070312 252.890625 L 183.15625 252.90625 L 183.238281 252.910156 C 184.523438 252.996094 311.625 261.421875 339.539062 266.246094 C 346.820312 267.507812 351.890625 270.261719 354.589844 274.433594 C 360.078125 282.910156 354.207031 294.613281 354.148438 294.730469 L 353.789062 295.433594 L 354.519531 295.90625 C 357.570312 297.898438 358.765625 300.164062 358.171875 302.828125 C 356.078125 312.25 332.347656 326.230469 289.546875 343.25 C 255.941406 356.613281 220.953125 367.667969 214.046875 369.605469 C 204.589844 372.253906 145.742188 366.6875 98.453125 362.210938 " fill-opacity="1" fill-rule="nonzero"/></g><path fill="#a42728" d="M 340.972656 286.007812 C 328.519531 287.714844 295.371094 308.914062 293.96875 309.816406 C 293.925781 309.84375 293.882812 309.875 293.84375 309.90625 C 293.679688 310.042969 277.238281 323.613281 260.964844 325.429688 C 249.003906 326.765625 241.957031 331.226562 235.144531 335.546875 C 232.019531 337.523438 229.070312 339.398438 225.644531 341.011719 C 213.992188 346.492188 212.917969 356.324219 212.875 356.734375 C 212.824219 357.296875 213.34375 357.78125 214.03125 357.824219 C 214.722656 357.863281 215.332031 357.441406 215.386719 356.882812 C 215.394531 356.792969 216.429688 347.695312 226.898438 342.765625 C 230.480469 341.082031 233.640625 339.082031 236.691406 337.144531 C 243.539062 332.804688 250.011719 328.703125 261.296875 327.449219 C 278.222656 325.558594 294.507812 312.265625 295.589844 311.367188 C 296.859375 310.558594 329.730469 289.609375 341.378906 288.015625 C 341.980469 287.929688 342.410156 287.523438 342.433594 287.050781 C 342.4375 286.980469 342.433594 286.914062 342.417969 286.839844 C 342.308594 286.289062 341.660156 285.914062 340.972656 286.007812 " fill-opacity="1" fill-rule="nonzero"/><path fill="#a42728" d="M 354.589844 294.285156 C 354.21875 294.496094 317.355469 315.40625 288.871094 313.964844 C 288.175781 313.929688 287.574219 314.355469 287.527344 314.914062 C 287.476562 315.476562 288 315.957031 288.691406 315.996094 C 318.078125 317.484375 354.5 296.824219 356.039062 295.941406 C 356.605469 295.613281 356.742188 294.980469 356.34375 294.523438 C 355.941406 294.066406 355.15625 293.957031 354.589844 294.285156 " fill-opacity="1" fill-rule="nonzero"/><path fill="#85599c" d="M 185.738281 207.015625 C 185.738281 207.015625 165.757812 203.382812 149.855469 210.050781 C 132.421875 217.359375 8.914062 260.609375 10.722656 282.042969 C 12.523438 303.476562 7.4375 312.152344 36.8125 313.003906 C 66.183594 313.851562 201.476562 329.988281 216.835938 325.683594 C 232.195312 321.375 389.644531 271.070312 357.695312 250.230469 C 357.695312 250.230469 370.507812 225.261719 342.191406 220.371094 C 313.878906 215.476562 185.738281 207.015625 185.738281 207.015625 " fill-opacity="1" fill-rule="nonzero"/><path fill="#7a4f91" d="M 125.347656 276.253906 C 138.105469 277.804688 150.246094 275.789062 162.96875 277.933594 C 175.722656 279.488281 187.644531 281.609375 200.464844 281.980469 C 242.828125 284.984375 276.195312 261.070312 311.613281 243.726562 C 326.34375 236.917969 341.96875 233.273438 357.039062 227.644531 C 354.304688 224.371094 349.6875 221.664062 342.191406 220.371094 C 313.878906 215.476562 185.738281 207.015625 185.738281 207.015625 C 185.738281 207.015625 165.757812 203.382812 149.855469 210.050781 C 134.800781 216.359375 40.675781 249.46875 16.414062 272.1875 C 52.339844 268.542969 88.855469 272.183594 125.347656 276.253906 " fill-opacity="1" fill-rule="nonzero"/><path fill="#7a4f91" d="M 306.679688 276.167969 C 317.988281 274.71875 327.023438 270.835938 336.792969 268.152344 C 344.128906 266 349.1875 261.402344 352.640625 256.765625 C 353.351562 255.585938 353.8125 254.214844 354.429688 252.882812 C 335.714844 262.5 313.058594 270.027344 290.109375 270.949219 C 289.308594 270.929688 287.578125 273.25 285.945312 273.792969 C 258.976562 283.082031 221.75 289.117188 216.421875 313.847656 C 232.085938 306.003906 250.054688 300.007812 267.929688 295.785156 C 283.402344 291.492188 290.503906 278.664062 306.679688 276.167969 " fill-opacity="1" fill-rule="nonzero"/><path fill="#7a4f91" d="M 228.472656 313.601562 C 223.570312 315.238281 218.511719 319.832031 214.539062 319.125 C 155.320312 316.222656 97.375 304.472656 37.039062 307.464844 C 33.804688 307.964844 27.550781 304.824219 30.113281 301.933594 C 32.675781 299.046875 39.082031 299.230469 43.917969 298.777344 C 32.070312 295.476562 21.511719 290.4375 10.957031 285.390625 C 12.078125 304.386719 9.023438 312.199219 36.8125 313.003906 C 66.183594 313.851562 201.476562 329.988281 216.835938 325.683594 C 230.878906 321.746094 363.691406 279.355469 361.941406 256.191406 C 329.703125 286.527344 276.402344 299.742188 228.472656 313.601562 " fill-opacity="1" fill-rule="nonzero"/><path fill="#9ab1c0" d="M 153.085938 212.546875 C 151.335938 213.28125 148.507812 214.378906 144.859375 215.78125 C 160.367188 213.636719 175.941406 212.101562 191.558594 211.335938 C 188.652344 210.382812 185.382812 209.710938 181.917969 209.351562 C 174.746094 208.804688 163.441406 208.207031 153.085938 212.546875 " fill-opacity="1" fill-rule="nonzero"/><path fill="#9ab1c0" d="M 330.226562 226.234375 C 331.292969 226.953125 333.03125 228.058594 335.285156 229.464844 C 324.972656 226.113281 314.496094 223.167969 303.839844 220.757812 C 306.039062 220.445312 308.433594 220.375 310.902344 220.546875 C 315.96875 221.03125 323.914062 221.980469 330.226562 226.234375 " fill-opacity="1" fill-rule="nonzero"/><path fill="#6f4484" d="M 149.28125 209.144531 C 146.730469 210.21875 141.738281 212.121094 135.417969 214.53125 C 72.347656 238.570312 8.054688 265.40625 9.464844 282.117188 C 9.742188 285.4375 9.859375 288.488281 9.957031 291.179688 C 10.511719 305.886719 10.789062 313.265625 36.757812 314.019531 C 47.472656 314.328125 72.058594 316.660156 100.527344 319.351562 C 150.546875 324.082031 207.238281 329.445312 217.242188 326.644531 C 218.632812 326.25 357.316406 284.011719 363.035156 258.296875 C 363.132812 257.859375 363.191406 257.429688 363.214844 257.007812 C 363.355469 254.351562 361.953125 252 359.167969 249.964844 C 359.867188 248.433594 361.570312 244.277344 361.828125 239.402344 C 362.011719 235.902344 361.449219 232.0625 359.214844 228.609375 C 356.152344 223.871094 350.515625 220.765625 342.464844 219.375 C 314.539062 214.550781 188.515625 206.179688 185.929688 206.007812 C 184.503906 205.753906 165.144531 202.496094 149.28125 209.144531 Z M 100.839844 317.332031 C 72.316406 314.628906 47.683594 312.296875 36.867188 311.988281 C 13.234375 311.304688 13.027344 305.800781 12.476562 291.105469 C 12.375 288.394531 12.257812 285.320312 11.976562 281.96875 C 10.5 264.394531 102.027344 229.503906 136.484375 216.367188 C 143.074219 213.855469 147.835938 212.039062 150.429688 210.953125 C 165.722656 204.542969 185.253906 207.972656 185.449219 208.007812 L 185.539062 208.023438 L 185.625 208.03125 C 186.902344 208.113281 314.007812 216.542969 341.921875 221.363281 C 349.207031 222.621094 354.269531 225.378906 356.976562 229.554688 C 362.464844 238.027344 356.589844 249.730469 356.53125 249.847656 L 356.171875 250.550781 L 356.898438 251.027344 C 359.953125 253.015625 361.152344 255.28125 360.554688 257.949219 C 358.460938 267.371094 334.730469 281.347656 291.929688 298.367188 C 258.324219 311.730469 223.332031 322.785156 216.429688 324.722656 C 206.976562 327.371094 148.125 321.804688 100.839844 317.332031 " fill-opacity="1" fill-rule="nonzero"/><path fill="#6f4484" d="M 343.355469 241.128906 C 330.902344 242.832031 297.753906 264.035156 296.351562 264.9375 C 296.308594 264.960938 296.265625 264.992188 296.230469 265.027344 C 296.0625 265.160156 279.621094 278.734375 263.347656 280.550781 C 251.386719 281.882812 244.34375 286.347656 237.527344 290.664062 C 234.402344 292.644531 231.453125 294.515625 228.023438 296.128906 C 216.375 301.613281 215.296875 311.441406 215.257812 311.855469 C 215.207031 312.414062 215.722656 312.898438 216.414062 312.941406 C 217.109375 312.980469 217.714844 312.5625 217.769531 312 C 217.777344 311.910156 218.816406 302.8125 229.28125 297.886719 C 232.863281 296.199219 236.019531 294.195312 239.078125 292.261719 C 245.921875 287.921875 252.390625 283.824219 263.675781 282.5625 C 280.605469 280.675781 296.886719 267.382812 297.96875 266.488281 C 299.242188 265.671875 332.113281 244.726562 343.757812 243.132812 C 344.359375 243.050781 344.792969 242.636719 344.816406 242.167969 C 344.820312 242.101562 344.816406 242.03125 344.800781 241.960938 C 344.6875 241.40625 344.042969 241.035156 343.355469 241.128906 " fill-opacity="1" fill-rule="nonzero"/><path fill="#6f4484" d="M 356.96875 249.402344 C 356.601562 249.617188 319.738281 270.523438 291.25 269.082031 C 290.558594 269.046875 289.957031 269.472656 289.910156 270.035156 C 289.859375 270.59375 290.382812 271.078125 291.078125 271.113281 C 320.460938 272.601562 356.882812 251.9375 358.421875 251.058594 C 358.988281 250.734375 359.128906 250.097656 358.726562 249.640625 C 358.324219 249.183594 357.542969 249.078125 356.96875 249.402344 " fill-opacity="1" fill-rule="nonzero"/><path fill="#d3a845" d="M 188.441406 156.054688 C 188.441406 156.054688 168.460938 152.421875 152.5625 159.085938 C 135.128906 166.398438 11.621094 209.648438 13.425781 231.082031 C 15.230469 252.511719 10.148438 261.191406 39.515625 262.042969 C 68.886719 262.890625 204.183594 279.027344 219.539062 274.71875 C 234.898438 270.414062 392.351562 220.105469 360.402344 199.269531 C 360.402344 199.269531 373.214844 174.300781 344.898438 169.40625 C 316.582031 164.515625 188.441406 156.054688 188.441406 156.054688 " fill-opacity="1" fill-rule="nonzero"/><path fill="#ba932e" d="M 360.402344 199.269531 C 360.402344 199.269531 373.214844 174.300781 344.898438 169.40625 C 316.582031 164.515625 188.441406 156.054688 188.441406 156.054688 C 188.441406 156.054688 168.460938 152.421875 152.5625 159.085938 C 136.039062 166.015625 24.300781 205.207031 14.160156 227.535156 C 13.601562 228.769531 13.332031 229.957031 13.425781 231.082031 C 15.230469 252.511719 10.148438 261.191406 39.515625 262.042969 C 68.886719 262.890625 204.183594 279.027344 219.539062 274.71875 C 234.898438 270.414062 392.351562 220.105469 360.402344 199.269531 Z M 303.847656 233.824219 C 283.757812 234.429688 268.554688 238.726562 252.765625 248.933594 C 246.136719 252.890625 230.960938 256.597656 225.84375 262.375 C 220.53125 267.785156 84.285156 258.554688 30.175781 250.390625 C 15.136719 248.121094 18.121094 245.285156 17.117188 244.480469 C 13.359375 240.722656 17.128906 234.214844 14.160156 227.535156 C 40.21875 229.445312 89.710938 227.246094 115.300781 228.761719 C 156.0625 231.714844 178.78125 242.050781 220.753906 237.34375 C 237.671875 236.058594 239.03125 230.566406 254.664062 223.316406 C 261.257812 219.953125 282.796875 212.277344 290.128906 210.125 C 309.703125 204.171875 329.851562 197.449219 347.914062 189.675781 C 337.765625 199.457031 323.785156 210.898438 315.210938 221.316406 C 326.425781 221.640625 347.109375 209.800781 357.652344 207.734375 C 346.765625 216.304688 319.101562 233.671875 303.847656 233.824219 " fill-opacity="1" fill-rule="nonzero"/><path fill="#f274ac" d="M 155.792969 161.585938 C 154.042969 162.316406 151.210938 163.417969 147.5625 164.8125 C 163.074219 162.675781 178.644531 161.136719 194.265625 160.375 C 191.355469 159.417969 188.089844 158.75 184.625 158.390625 C 177.453125 157.84375 166.144531 157.246094 155.792969 161.585938 " fill-opacity="1" fill-rule="nonzero"/><path fill="#f274ac" d="M 332.929688 175.273438 C 333.996094 175.992188 335.738281 177.09375 337.988281 178.5 C 327.675781 175.148438 317.203125 172.207031 306.542969 169.792969 C 308.746094 169.484375 311.136719 169.414062 313.609375 169.585938 C 318.675781 170.070312 326.625 171.023438 332.929688 175.273438 " fill-opacity="1" fill-rule="nonzero"/><path fill="#8c6721" d="M 151.988281 158.1875 C 149.4375 159.253906 144.445312 161.15625 138.125 163.566406 C 75.050781 187.609375 10.761719 214.441406 12.167969 231.15625 C 12.449219 234.472656 12.5625 237.527344 12.664062 240.21875 C 13.214844 254.925781 13.492188 262.304688 39.464844 263.054688 C 50.179688 263.367188 74.765625 265.695312 103.230469 268.386719 C 153.253906 273.121094 209.945312 278.488281 219.945312 275.679688 C 221.339844 275.292969 360.027344 233.050781 365.742188 207.332031 C 365.835938 206.894531 365.902344 206.46875 365.921875 206.042969 C 366.058594 203.390625 364.65625 201.042969 361.871094 199.003906 C 362.574219 197.472656 364.273438 193.316406 364.535156 188.4375 C 364.71875 184.941406 364.15625 181.097656 361.921875 177.648438 C 358.859375 172.910156 353.222656 169.804688 345.167969 168.414062 C 317.246094 163.585938 191.21875 155.214844 188.636719 155.046875 C 187.210938 154.792969 167.851562 151.535156 151.988281 158.1875 Z M 103.546875 266.367188 C 75.019531 263.667969 50.390625 261.339844 39.570312 261.023438 C 15.945312 260.339844 15.734375 254.84375 15.183594 240.144531 C 15.082031 237.433594 14.964844 234.359375 14.683594 231.003906 C 13.203125 213.429688 104.734375 178.539062 139.191406 165.40625 C 145.78125 162.890625 150.542969 161.078125 153.136719 159.992188 C 168.429688 153.578125 187.960938 157.011719 188.160156 157.046875 L 188.242188 157.058594 L 188.328125 157.070312 C 189.613281 157.152344 316.710938 165.578125 344.625 170.402344 C 351.910156 171.660156 356.976562 174.417969 359.679688 178.589844 C 365.167969 187.066406 359.296875 198.769531 359.238281 198.886719 L 358.878906 199.589844 L 359.605469 200.0625 C 362.65625 202.054688 363.855469 204.316406 363.261719 206.984375 C 361.164062 216.40625 337.4375 230.386719 294.632812 247.40625 C 261.027344 260.769531 226.042969 271.824219 219.136719 273.757812 C 209.679688 276.410156 150.832031 270.839844 103.546875 266.367188 " fill-opacity="1" fill-rule="nonzero"/><path fill="#8c6721" d="M 346.0625 190.164062 C 333.605469 191.871094 300.460938 213.070312 299.058594 213.972656 C 299.011719 214 298.972656 214.03125 298.933594 214.0625 C 298.769531 214.199219 282.328125 227.769531 266.054688 229.585938 C 254.09375 230.921875 247.046875 235.386719 240.234375 239.703125 C 237.105469 241.683594 234.15625 243.554688 230.730469 245.164062 C 219.082031 250.648438 218.003906 260.476562 217.964844 260.894531 C 217.910156 261.453125 218.429688 261.9375 219.121094 261.980469 C 219.816406 262.019531 220.421875 261.597656 220.476562 261.039062 C 220.484375 260.949219 221.519531 251.851562 231.988281 246.921875 C 235.566406 245.238281 238.726562 243.234375 241.78125 241.300781 C 248.628906 236.960938 255.101562 232.859375 266.382812 231.601562 C 283.308594 229.714844 299.59375 216.421875 300.675781 215.523438 C 301.945312 214.710938 334.820312 193.761719 346.464844 192.171875 C 347.066406 192.085938 347.496094 191.675781 347.523438 191.203125 C 347.527344 191.136719 347.519531 191.066406 347.507812 190.996094 C 347.394531 190.441406 346.75 190.070312 346.0625 190.164062 " fill-opacity="1" fill-rule="nonzero"/><path fill="#8c6721" d="M 359.675781 198.441406 C 359.308594 198.652344 322.445312 219.5625 293.960938 218.121094 C 293.265625 218.085938 292.660156 218.511719 292.617188 219.070312 C 292.566406 219.628906 293.089844 220.113281 293.78125 220.152344 C 323.167969 221.640625 359.585938 200.976562 361.125 200.097656 C 361.695312 199.773438 361.832031 199.136719 361.429688 198.679688 C 361.03125 198.222656 360.246094 198.117188 359.675781 198.441406 " fill-opacity="1" fill-rule="nonzero"/><path fill="#44adab" d="M 190.421875 118.761719 C 190.421875 118.761719 170.429688 115.390625 154.558594 121.445312 C 137.160156 128.089844 13.871094 167.332031 15.769531 186.941406 C 17.671875 206.546875 12.628906 214.46875 41.996094 215.316406 C 71.367188 216.167969 206.722656 231.257812 222.058594 227.359375 C 237.394531 223.457031 394.59375 177.839844 362.554688 158.707031 C 362.554688 158.707031 375.253906 135.90625 346.917969 131.363281 C 318.585938 126.820312 190.421875 118.761719 190.421875 118.761719 " fill-opacity="1" fill-rule="nonzero"/><path fill="#f08421" d="M 157.800781 123.738281 C 156.054688 124.40625 153.234375 125.402344 149.589844 126.671875 C 165.085938 124.757812 180.648438 123.386719 196.265625 122.730469 C 193.351562 121.847656 190.082031 121.226562 186.617188 120.890625 C 179.445312 120.375 168.132812 119.796875 157.800781 123.738281 " fill-opacity="1" fill-rule="nonzero"/><path fill="#f08421" d="M 334.980469 136.695312 C 336.046875 137.351562 337.796875 138.367188 340.050781 139.660156 C 329.722656 136.570312 319.242188 133.851562 308.570312 131.621094 C 310.769531 131.34375 313.164062 131.285156 315.632812 131.445312 C 320.703125 131.902344 328.652344 132.789062 334.980469 136.695312 " fill-opacity="1" fill-rule="nonzero"/><path fill="#5cc1c2" d="M 95.316406 207.246094 C 140.757812 212.710938 185.683594 212.824219 231.28125 215.332031 C 250.367188 203.441406 272.339844 197.5625 294.507812 188.128906 C 309.269531 182.039062 326.863281 183.140625 341.628906 177.050781 C 332.789062 177.390625 323.878906 178.90625 315.097656 178.0625 C 329.316406 166.082031 345.765625 157.109375 365.347656 148.824219 C 365.363281 148.5 365.378906 148.179688 365.382812 147.855469 C 357.59375 149.734375 349.476562 150.832031 341.285156 153.34375 C 329.046875 157.136719 318.257812 163.933594 307.496094 170.140625 C 304.609375 172.109375 301.167969 173.175781 297.632812 174.503906 C 293.59375 177.6875 289.707031 180.632812 284.632812 182.710938 C 274.710938 186.761719 261.246094 188.050781 251.542969 191.429688 C 244.742188 193.796875 239.847656 200.652344 232.550781 201.542969 C 227.785156 202.125 232.058594 205.324219 226.222656 204.914062 C 182.652344 201.875 117.453125 199.445312 76.972656 193.832031 C 57.519531 191.132812 15.605469 185.214844 15.769531 186.941406 C 16.324219 192.660156 16.289062 197.386719 16.691406 201.234375 C 43 201.289062 69.15625 204.269531 95.316406 207.246094 " fill-opacity="1" fill-rule="nonzero"/><path fill="#44adab" d="M 362.554688 158.707031 C 362.554688 158.707031 365.597656 153.226562 365.363281 147.101562 C 353.1875 159.429688 336.140625 170.394531 315.402344 175.226562 C 331.492188 174.488281 351.058594 174.652344 365.121094 169.148438 C 367.925781 165.210938 367.476562 161.648438 362.554688 158.707031 " fill-opacity="1" fill-rule="nonzero"/><path fill="#248e87" d="M 153.980469 120.621094 C 151.4375 121.59375 146.453125 123.320312 140.148438 125.507812 C 77.191406 147.339844 13.03125 171.71875 14.511719 187.007812 C 14.808594 190.042969 14.9375 192.832031 15.046875 195.296875 C 15.667969 208.746094 15.980469 215.496094 41.949219 216.246094 C 52.664062 216.558594 77.257812 218.746094 105.734375 221.28125 C 155.769531 225.730469 212.476562 230.777344 222.464844 228.234375 C 223.855469 227.882812 362.328125 189.597656 367.933594 166.09375 C 368.023438 165.695312 368.082031 165.300781 368.101562 164.917969 C 368.234375 162.492188 366.816406 160.339844 364.023438 158.46875 C 364.71875 157.070312 366.398438 153.273438 366.636719 148.816406 C 366.808594 145.617188 366.222656 142.101562 363.976562 138.9375 C 360.890625 134.601562 355.246094 131.746094 347.183594 130.453125 C 319.246094 125.972656 193.195312 118.003906 190.609375 117.839844 C 189.183594 117.605469 169.8125 114.578125 153.980469 120.621094 Z M 106.039062 219.433594 C 77.507812 216.890625 52.863281 214.703125 42.046875 214.390625 C 18.417969 213.703125 18.183594 208.675781 17.566406 195.230469 C 17.453125 192.753906 17.324219 189.945312 17.027344 186.875 C 15.46875 170.800781 106.828125 139.117188 141.21875 127.191406 C 147.796875 124.910156 152.550781 123.261719 155.136719 122.277344 C 170.402344 116.449219 189.945312 119.636719 190.140625 119.671875 L 190.226562 119.683594 L 190.316406 119.691406 C 191.59375 119.769531 318.71875 127.792969 346.652344 132.269531 C 353.941406 133.441406 359.019531 135.972656 361.742188 139.792969 C 367.265625 147.558594 361.449219 158.25 361.390625 158.355469 L 361.035156 158.996094 L 361.761719 159.429688 C 364.824219 161.261719 366.03125 163.335938 365.453125 165.769531 C 363.398438 174.382812 339.734375 187.105469 297.015625 202.566406 C 263.476562 214.703125 228.542969 224.726562 221.648438 226.480469 C 212.207031 228.878906 153.335938 223.644531 106.039062 219.433594 " fill-opacity="1" fill-rule="nonzero"/><path fill="#248e87" d="M 348.175781 150.347656 C 335.730469 151.875 302.683594 171.179688 301.285156 172.003906 C 301.242188 172.027344 301.199219 172.054688 301.160156 172.082031 C 301 172.210938 284.617188 184.578125 268.355469 186.199219 C 256.402344 187.390625 249.378906 191.457031 242.585938 195.386719 C 239.472656 197.191406 236.527344 198.894531 233.109375 200.359375 C 221.488281 205.347656 220.453125 214.332031 220.414062 214.707031 C 220.363281 215.222656 220.882812 215.667969 221.578125 215.707031 C 222.269531 215.746094 222.875 215.363281 222.929688 214.847656 C 222.9375 214.769531 223.929688 206.449219 234.375 201.96875 C 237.945312 200.4375 241.097656 198.613281 244.140625 196.851562 C 250.96875 192.898438 257.417969 189.167969 268.695312 188.039062 C 285.613281 186.359375 301.832031 174.246094 302.914062 173.425781 C 304.179688 172.683594 336.953125 153.609375 348.589844 152.183594 C 349.191406 152.109375 349.617188 151.734375 349.640625 151.300781 C 349.644531 151.238281 349.640625 151.175781 349.625 151.113281 C 349.507812 150.601562 348.863281 150.261719 348.175781 150.347656 " fill-opacity="1" fill-rule="nonzero"/><path fill="#248e87" d="M 361.828125 157.949219 C 361.460938 158.140625 324.695312 177.171875 296.207031 175.78125 C 295.511719 175.75 294.910156 176.136719 294.867188 176.648438 C 294.820312 177.160156 295.34375 177.605469 296.042969 177.636719 C 325.429688 179.074219 361.75 160.269531 363.28125 159.46875 C 363.851562 159.171875 363.984375 158.589844 363.582031 158.167969 C 363.183594 157.753906 362.394531 157.652344 361.828125 157.949219 " fill-opacity="1" fill-rule="nonzero"/><path fill="#248e87" d="M 124.78125 200.839844 C 123.355469 206.476562 118.226562 210.5 113.324219 209.828125 C 108.425781 209.148438 105.605469 204.027344 107.03125 198.390625 C 108.460938 192.75 113.589844 188.726562 118.488281 189.402344 C 123.390625 190.078125 126.207031 195.199219 124.78125 200.839844 " fill-opacity="1" fill-rule="nonzero"/><path fill="#248e87" d="M 111.695312 177.21875 C 111.445312 177.371094 86.898438 192.21875 97.351562 219.027344 C 97.546875 219.519531 98.242188 219.804688 98.910156 219.660156 C 99.578125 219.519531 99.964844 219.003906 99.773438 218.511719 C 89.796875 192.933594 113.03125 178.816406 113.265625 178.675781 C 113.808594 178.351562 113.898438 177.765625 113.460938 177.367188 C 113.027344 176.964844 112.234375 176.902344 111.695312 177.21875 " fill-opacity="1" fill-rule="nonzero"/><path fill="#2d9b97" d="M 122.253906 200.265625 C 120.828125 205.902344 115.699219 209.929688 110.800781 209.253906 C 105.898438 208.578125 103.082031 203.457031 104.507812 197.820312 C 105.929688 192.175781 111.0625 188.15625 115.960938 188.832031 C 120.863281 189.507812 123.679688 194.625 122.253906 200.265625 " fill-opacity="1" fill-rule="nonzero"/><path fill="#6bcace" d="M 120.105469 199.96875 C 119.023438 204.242188 115.136719 207.289062 111.425781 206.773438 C 107.710938 206.265625 105.578125 202.386719 106.65625 198.113281 C 107.738281 193.84375 111.625 190.792969 115.335938 191.304688 C 119.050781 191.820312 121.183594 195.695312 120.105469 199.96875 " fill-opacity="1" fill-rule="nonzero"/><path fill="#d8dade" d="M 193.488281 96.925781 C 225.375 106.597656 258.6875 96.222656 287.238281 82.621094 C 286.554688 82.570312 285.871094 82.515625 285.1875 82.460938 C 278.617188 83.179688 273.855469 93.476562 225.21875 87.773438 C 216.800781 86.785156 218.941406 82.648438 217.761719 77.640625 C 214.457031 77.417969 211.394531 77.214844 208.628906 77.035156 C 199.820312 81.84375 192.46875 89.007812 193.488281 96.925781 " fill-opacity="1" fill-rule="nonzero"/><path fill="#f2f3f5" d="M 364.824219 115.949219 C 364.824219 115.949219 377.523438 93.148438 349.191406 88.605469 C 338.566406 86.902344 313.90625 84.703125 287.238281 82.621094 C 258.6875 96.222656 225.375 106.597656 193.488281 96.925781 C 192.46875 89.007812 199.820312 81.84375 208.628906 77.035156 C 198.792969 76.386719 192.691406 76.003906 192.691406 76.003906 C 192.691406 76.003906 172.699219 72.632812 156.828125 78.691406 C 139.429688 85.332031 16.140625 124.578125 18.039062 144.183594 C 19.941406 163.785156 14.898438 171.707031 44.269531 172.558594 C 73.640625 173.410156 208.992188 188.5 224.328125 184.597656 C 239.664062 180.699219 396.867188 135.082031 364.824219 115.949219 " fill-opacity="1" fill-rule="nonzero"/><path fill="#b2b7be" d="M 285.007812 81.582031 C 284.164062 81.675781 283.378906 81.894531 282.617188 82.171875 C 281.277344 82.660156 279.96875 83.332031 278.320312 84.0625 C 275.851562 85.152344 272.636719 86.386719 267.648438 87.304688 C 262.664062 88.21875 255.90625 88.804688 246.4375 88.53125 C 240.546875 88.359375 233.609375 87.855469 225.40625 86.894531 C 223.433594 86.664062 222.207031 86.261719 221.429688 85.789062 C 220.84375 85.433594 220.46875 85.03125 220.183594 84.523438 C 219.757812 83.761719 219.589844 82.746094 219.476562 81.546875 C 219.363281 80.347656 219.292969 78.96875 218.945312 77.488281 L 216.574219 77.792969 C 216.855469 78.980469 216.945312 80.140625 217.039062 81.253906 C 217.113281 82.089844 217.191406 82.898438 217.382812 83.679688 C 217.523438 84.265625 217.734375 84.835938 218.066406 85.375 C 218.554688 86.191406 219.355469 86.9375 220.511719 87.488281 C 221.667969 88.050781 223.140625 88.429688 225.027344 88.648438 C 233.3125 89.621094 240.339844 90.132812 246.339844 90.304688 C 261.035156 90.734375 269.59375 89.125 275.15625 87.289062 C 277.933594 86.378906 279.949219 85.414062 281.554688 84.671875 C 282.359375 84.304688 283.054688 83.988281 283.679688 83.761719 C 284.300781 83.539062 284.84375 83.398438 285.359375 83.339844 L 285.007812 81.582031 " fill-opacity="1" fill-rule="nonzero"/><path fill="#ffffff" d="M 160.070312 80.980469 C 158.324219 81.648438 155.503906 82.648438 151.859375 83.917969 C 167.355469 81.996094 182.921875 80.628906 198.535156 79.972656 C 195.621094 79.089844 192.351562 78.46875 188.886719 78.132812 C 181.714844 77.613281 170.402344 77.039062 160.070312 80.980469 " fill-opacity="1" fill-rule="nonzero"/><path fill="#ffffff" d="M 185.761719 155.234375 C 192.621094 155.167969 203.722656 155.136719 218.027344 155.113281 C 157.589844 151.71875 96.980469 147.75 36.257812 143.050781 C 47.453125 144.933594 60.082031 146.675781 73.496094 148.203125 C 101.285156 151.183594 145.136719 155.640625 185.761719 155.234375 " fill-opacity="1" fill-rule="nonzero"/><path fill="#ffffff" d="M 334.4375 91.128906 C 335.65625 91.625 337.636719 92.375 340.1875 93.320312 C 329.246094 91.753906 318.25 90.574219 307.203125 89.898438 C 309.285156 89.3125 311.621094 88.917969 314.085938 88.726562 C 319.179688 88.453125 327.210938 88.199219 334.4375 91.128906 " fill-opacity="1" fill-rule="nonzero"/><path fill="#e4e6e9" d="M 286.191406 140.789062 C 274.710938 145.277344 261.8125 144.839844 252.472656 148.699219 C 242.742188 152.71875 232.644531 160.871094 226.929688 161.289062 C 163.300781 165.964844 17.875 142.460938 18.039062 144.183594 C 19.941406 163.785156 14.898438 171.707031 44.269531 172.558594 C 73.640625 173.410156 208.992188 188.5 224.328125 184.597656 C 239.664062 180.699219 396.867188 135.082031 364.824219 115.949219 C 364.824219 115.949219 368.429688 109.464844 367.496094 102.71875 C 340.832031 110.992188 319.289062 120.621094 310.640625 126.089844 C 302.796875 131.125 294.636719 137.480469 286.191406 140.789062 " fill-opacity="1" fill-rule="nonzero"/><path fill="#d8dade" d="M 248.304688 157.375 C 280.523438 150.652344 312.691406 146.296875 335.53125 128.210938 C 328.332031 127.535156 322.617188 132.203125 316.175781 133.3125 C 310.761719 133.949219 305.621094 133.476562 300.589844 132.8125 C 295.890625 135.925781 291.089844 138.871094 286.191406 140.789062 C 274.710938 145.277344 261.8125 144.839844 252.472656 148.699219 C 243.746094 152.304688 234.722656 159.230469 228.832031 160.921875 C 226.246094 165.082031 224.066406 169.390625 223.082031 174.25 C 228.859375 166.617188 237.03125 159.613281 248.304688 157.375 " fill-opacity="1" fill-rule="nonzero"/><path fill="#d8dade" d="M 364.824219 115.949219 C 364.824219 115.949219 367.644531 110.875 367.648438 105.039062 C 360.464844 114.402344 348.65625 120.445312 335.476562 125.332031 C 329.140625 128.578125 321.996094 131.023438 314.117188 132.40625 C 313.796875 132.507812 313.472656 132.609375 313.152344 132.710938 C 329.964844 131.644531 351.980469 132.421875 367.390625 126.394531 C 370.195312 122.453125 369.746094 118.886719 364.824219 115.949219 " fill-opacity="1" fill-rule="nonzero"/><g clip-path="url(#64c9d99d01)"><path fill="#b2b7be" d="M 366.296875 115.714844 C 366.988281 114.3125 368.667969 110.515625 368.910156 106.054688 C 369.078125 102.859375 368.496094 99.339844 366.246094 96.179688 C 363.164062 91.84375 357.515625 88.984375 349.453125 87.695312 C 339.222656 86.054688 315.835938 83.945312 290.171875 81.925781 C 286.890625 82.28125 283.601562 82.613281 280.367188 83.03125 C 309.542969 85.261719 337.507812 87.683594 348.921875 89.511719 C 356.210938 90.679688 361.289062 93.214844 364.011719 97.039062 C 369.535156 104.800781 363.71875 115.492188 363.660156 115.597656 L 363.304688 116.238281 L 364.035156 116.675781 C 367.097656 118.5 368.300781 120.574219 367.722656 123.011719 C 365.667969 131.625 342.003906 144.347656 299.285156 159.808594 C 265.746094 171.945312 230.8125 181.96875 223.917969 183.71875 C 214.476562 186.121094 155.605469 180.886719 108.308594 176.675781 C 79.773438 174.136719 55.132812 171.945312 44.316406 171.628906 C 20.6875 170.945312 20.457031 165.914062 19.835938 152.476562 C 19.722656 149.996094 19.59375 147.1875 19.296875 144.117188 C 17.738281 128.039062 109.097656 96.359375 143.488281 84.433594 C 150.066406 82.152344 154.820312 80.503906 157.40625 79.515625 C 172.671875 73.691406 192.214844 76.878906 192.410156 76.910156 L 192.496094 76.925781 L 192.582031 76.929688 C 192.9375 76.953125 203 77.589844 217.933594 78.589844 C 217.84375 77.949219 217.707031 77.3125 217.480469 76.691406 C 203.222656 75.734375 193.578125 75.125 192.878906 75.082031 C 191.453125 74.847656 172.082031 71.820312 156.25 77.863281 C 153.707031 78.835938 148.722656 80.5625 142.417969 82.75 C 79.460938 104.582031 15.300781 128.960938 16.78125 144.25 C 17.078125 147.28125 17.207031 150.074219 17.316406 152.539062 C 17.941406 165.988281 18.253906 172.738281 44.21875 173.492188 C 54.933594 173.800781 79.527344 175.988281 108.003906 178.519531 C 158.039062 182.972656 214.75 188.019531 224.738281 185.480469 C 226.128906 185.125 364.601562 146.84375 370.203125 123.335938 C 370.296875 122.9375 370.355469 122.546875 370.375 122.160156 C 370.503906 119.734375 369.085938 117.578125 366.296875 115.714844 " fill-opacity="1" fill-rule="nonzero"/></g><path fill="#b2b7be" d="M 350.445312 107.589844 C 338 109.117188 304.953125 128.425781 303.558594 129.246094 C 303.511719 129.269531 303.46875 129.296875 303.433594 129.328125 C 303.269531 129.453125 286.890625 141.824219 270.625 143.441406 C 258.671875 144.632812 251.648438 148.699219 244.855469 152.628906 C 241.742188 154.429688 238.800781 156.136719 235.382812 157.605469 C 223.757812 162.585938 222.726562 171.570312 222.683594 171.953125 C 222.636719 172.464844 223.152344 172.90625 223.847656 172.945312 C 224.539062 172.984375 225.144531 172.601562 225.199219 172.09375 C 225.207031 172.007812 226.199219 163.691406 236.648438 159.210938 C 240.21875 157.679688 243.367188 155.855469 246.410156 154.09375 C 253.238281 150.140625 259.6875 146.40625 270.964844 145.285156 C 287.882812 143.601562 304.105469 131.484375 305.179688 130.667969 C 306.449219 129.925781 339.222656 110.851562 350.859375 109.425781 C 351.460938 109.351562 351.890625 108.976562 351.910156 108.542969 C 351.914062 108.484375 351.910156 108.417969 351.894531 108.355469 C 351.78125 107.847656 351.132812 107.503906 350.445312 107.589844 " fill-opacity="1" fill-rule="nonzero"/><path fill="#b2b7be" d="M 364.097656 115.191406 C 363.730469 115.386719 326.964844 134.417969 298.476562 133.023438 C 297.785156 132.988281 297.183594 133.378906 297.136719 133.890625 C 297.089844 134.40625 297.613281 134.847656 298.3125 134.882812 C 327.699219 136.316406 364.019531 117.511719 365.550781 116.707031 C 366.121094 116.414062 366.253906 115.832031 365.851562 115.414062 C 365.453125 114.992188 364.667969 114.894531 364.097656 115.191406 " fill-opacity="1" fill-rule="nonzero"/><path fill="#b2b7be" d="M 175.933594 120.441406 C 155.152344 121.058594 138.226562 120.816406 138.164062 121.59375 C 138.082031 122.351562 155.054688 123.855469 176.089844 123.230469 C 197.171875 122.769531 213.894531 119.339844 213.546875 118.5 C 213.304688 117.855469 196.742188 119.984375 175.933594 120.441406 " fill-opacity="1" fill-rule="nonzero"/><path fill="#ccced4" d="M 200.320312 102.148438 C 230.242188 107.324219 281.304688 93.414062 309.664062 84.449219 C 301.742188 83.769531 293.242188 83.085938 284.574219 82.414062 C 267.796875 87.960938 229.820312 99.242188 208.4375 95.542969 C 187.71875 91.960938 206.742188 82.394531 218.042969 77.660156 C 214.976562 77.453125 212.121094 77.265625 209.503906 77.09375 C 192.40625 84.832031 171.707031 97.199219 200.320312 102.148438 " fill-opacity="1" fill-rule="nonzero"/><path fill="#b2b7be" d="M 208.847656 76.300781 C 191.902344 83.96875 183.867188 90.402344 184.960938 95.421875 C 185.730469 98.9375 190.660156 101.433594 200.03125 103.058594 C 230.382812 108.304688 282.058594 94.1875 310.164062 85.304688 C 310.6875 85.136719 311 84.730469 310.914062 84.3125 C 310.828125 83.894531 310.378906 83.570312 309.808594 83.523438 L 284.707031 81.488281 C 284.484375 81.472656 284.265625 81.496094 284.0625 81.566406 C 268.476562 86.71875 229.933594 98.308594 208.726562 94.636719 C 205.183594 94.023438 200.878906 92.878906 200.488281 90.886719 C 199.941406 88.0625 206.566406 83.539062 218.667969 78.46875 C 219.148438 78.269531 219.394531 77.859375 219.277344 77.460938 C 219.160156 77.066406 218.707031 76.769531 218.160156 76.734375 L 209.617188 76.164062 C 209.347656 76.148438 209.078125 76.195312 208.847656 76.300781 Z M 200.605469 101.242188 C 192.453125 99.835938 188.03125 97.773438 187.449219 95.125 C 187.390625 94.867188 187.371094 94.601562 187.386719 94.332031 C 187.601562 90.300781 195.488281 84.574219 209.820312 78.046875 C 210.222656 78.074219 211.953125 78.1875 214.050781 78.328125 C 203.5625 83.03125 198.121094 87.085938 197.945312 90.402344 C 197.929688 90.65625 197.949219 90.90625 197.996094 91.152344 C 198.476562 93.617188 201.800781 95.351562 208.152344 96.453125 C 229.96875 100.222656 268.765625 88.644531 284.773438 83.367188 C 285.292969 83.410156 298.53125 84.484375 304.714844 84.984375 C 276.167969 93.769531 228.742188 106.113281 200.605469 101.242188 " fill-opacity="1" fill-rule="nonzero"/><path fill="#9266a9" d="M 60.925781 282.25 C 51.386719 283.027344 41.597656 283.226562 32.261719 284.492188 C 59.441406 288.363281 87.378906 294.027344 115.449219 293.765625 C 108.183594 296.050781 100.167969 295.953125 92.941406 296.457031 C 126.535156 300.410156 159.308594 304.941406 192.960938 305.929688 C 187.378906 304.679688 181.753906 305.207031 176.167969 303.957031 C 189.832031 302.34375 203.476562 301.910156 217.152344 299.707031 C 213.171875 298.472656 209.964844 298.4375 205.980469 297.203125 C 214.847656 294.941406 222.933594 292.074219 230.234375 288.015625 C 174.53125 299.136719 116.863281 290.308594 60.925781 282.25 " fill-opacity="1" fill-rule="nonzero"/><path fill="#e2b553" d="M 59.523438 236.050781 C 49.980469 236.828125 40.191406 237.027344 30.859375 238.292969 C 58.039062 242.164062 85.980469 247.824219 114.046875 247.566406 C 106.78125 249.84375 98.765625 249.753906 91.539062 250.257812 C 125.128906 254.210938 202.070312 255.710938 215.75 253.503906 C 211.765625 252.273438 208.5625 252.234375 204.578125 251.003906 C 213.445312 248.742188 221.527344 245.875 228.832031 241.816406 C 173.128906 252.933594 115.460938 244.105469 59.523438 236.050781 " fill-opacity="1" fill-rule="nonzero"/></svg>