<svg xmlns="http://www.w3.org/2000/svg" xmlns:xlink="http://www.w3.org/1999/xlink" width="500" zoomAndPan="magnify" viewBox="0 0 375 374.999991" height="500" preserveAspectRatio="xMidYMid meet" version="1.0"><defs><g/><clipPath id="2541d5ae19"><path d="M 85.128906 333.804688 L 92.519531 333.804688 L 92.519531 341.195312 L 85.128906 341.195312 Z M 85.128906 333.804688 " clip-rule="nonzero"/></clipPath><clipPath id="19b51215eb"><path d="M 88.824219 333.804688 C 86.78125 333.804688 85.128906 335.460938 85.128906 337.5 C 85.128906 339.539062 86.78125 341.195312 88.824219 341.195312 C 90.863281 341.195312 92.519531 339.539062 92.519531 337.5 C 92.519531 335.460938 90.863281 333.804688 88.824219 333.804688 " clip-rule="nonzero"/></clipPath><clipPath id="91b27a1732"><path d="M 279.847656 333.804688 L 287.234375 333.804688 L 287.234375 341.195312 L 279.847656 341.195312 Z M 279.847656 333.804688 " clip-rule="nonzero"/></clipPath><clipPath id="391e83aa86"><path d="M 283.542969 333.804688 C 281.5 333.804688 279.847656 335.460938 279.847656 337.5 C 279.847656 339.539062 281.5 341.195312 283.542969 341.195312 C 285.582031 341.195312 287.234375 339.539062 287.234375 337.5 C 287.234375 335.460938 285.582031 333.804688 283.542969 333.804688 " clip-rule="nonzero"/></clipPath><clipPath id="a7055eee70"><path d="M 258.230469 94.070312 L 287.480469 94.070312 L 287.480469 128.570312 L 258.230469 128.570312 Z M 258.230469 94.070312 " clip-rule="nonzero"/></clipPath><clipPath id="5106199e8f"><path d="M 85.152344 109.644531 L 123.355469 109.644531 L 123.355469 140.394531 L 85.152344 140.394531 Z M 85.152344 109.644531 " clip-rule="nonzero"/></clipPath><clipPath id="1e21e5c61d"><path d="M 129 50.25 L 246 50.25 L 246 103 L 129 103 Z M 129 50.25 " clip-rule="nonzero"/></clipPath><clipPath id="9ee944d620"><path d="M 153 50.25 L 222 50.25 L 222 80 L 153 80 Z M 153 50.25 " clip-rule="nonzero"/></clipPath><clipPath id="483cfdf597"><path d="M 19 50.25 L 356 50.25 L 356 375 L 19 375 Z M 19 50.25 " clip-rule="nonzero"/></clipPath></defs><g fill="#ffffff" fill-opacity="1"><g transform="translate(100.769829, 342.374978)"><g><path d="M 5.890625 -11.6875 C 7.066406 -11.6875 8.101562 -11.421875 9 -10.890625 L 8.65625 -9.25 L 8.484375 -9.203125 C 7.671875 -9.828125 6.78125 -10.140625 5.8125 -10.140625 C 4.757812 -10.140625 3.953125 -9.78125 3.390625 -9.0625 C 2.835938 -8.34375 2.5625 -7.28125 2.5625 -5.875 C 2.5625 -4.414062 2.84375 -3.304688 3.40625 -2.546875 C 3.96875 -1.796875 4.769531 -1.421875 5.8125 -1.421875 C 6.3125 -1.421875 6.8125 -1.503906 7.3125 -1.671875 C 7.8125 -1.847656 8.269531 -2.09375 8.6875 -2.40625 L 8.875 -2.296875 L 8.734375 -0.609375 C 7.703125 -0.109375 6.679688 0.140625 5.671875 0.140625 C 4.046875 0.140625 2.796875 -0.359375 1.921875 -1.359375 C 1.046875 -2.367188 0.609375 -3.804688 0.609375 -5.671875 C 0.609375 -7.585938 1.066406 -9.066406 1.984375 -10.109375 C 2.898438 -11.160156 4.203125 -11.6875 5.890625 -11.6875 Z M 5.890625 -11.6875 "/></g></g></g><g fill="#ffffff" fill-opacity="1"><g transform="translate(111.047801, 342.374978)"><g><path d="M 7.578125 -1.390625 L 7.4375 0 L 1.5 0 L 1.625 -3.46875 L 1.5 -11.5625 L 3.40625 -11.5625 L 3.296875 -3.640625 L 3.328125 -1.546875 L 7.453125 -1.546875 Z M 7.578125 -1.390625 "/></g></g></g><g fill="#ffffff" fill-opacity="1"><g transform="translate(119.597783, 342.374978)"><g><path d="M 8.390625 -1.578125 L 8.5 -1.421875 L 8.375 0 L 1.546875 0 L 1.671875 -3.46875 L 1.546875 -11.5625 L 8.40625 -11.5625 L 8.515625 -11.390625 L 8.375 -9.96875 L 5.640625 -10.046875 L 3.4375 -10.03125 L 3.390625 -6.65625 L 5.46875 -6.625 L 7.375 -6.671875 L 7.5 -6.53125 L 7.359375 -5.109375 L 5.328125 -5.171875 L 3.359375 -5.125 L 3.34375 -3.640625 L 3.40625 -1.515625 L 5.59375 -1.5 Z M 8.390625 -1.578125 "/></g></g></g><g fill="#ffffff" fill-opacity="1"><g transform="translate(129.40776, 342.374978)"><g><path d="M 10.21875 0 L 8.3125 0 L 8.046875 -1.296875 L 7.546875 -2.890625 L 5.09375 -2.953125 L 2.875 -2.890625 L 2.34375 -1.390625 L 2.046875 0 L 0.203125 0 L 4.3125 -11.5625 L 6.5 -11.5625 Z M 7.078125 -4.40625 L 5.421875 -9.734375 L 5.296875 -9.734375 L 3.40625 -4.40625 L 5.21875 -4.375 Z M 7.078125 -4.40625 "/></g></g></g><g fill="#ffffff" fill-opacity="1"><g transform="translate(140.909724, 342.374978)"><g><path d="M 10.734375 -3.453125 L 10.78125 0 L 8.78125 0 L 3.34375 -8.65625 L 3.21875 -8.65625 L 3.203125 -3.875 L 3.265625 0 L 1.5625 0 L 1.65625 -3.421875 L 1.578125 -11.5625 L 3.546875 -11.5625 L 9 -2.890625 L 9.140625 -2.890625 L 9.109375 -11.46875 L 10.828125 -11.59375 Z M 10.734375 -3.453125 "/></g></g></g><g fill="#ffffff" fill-opacity="1"><g transform="translate(154.229682, 342.374978)"><g/></g></g><g fill="#ffffff" fill-opacity="1"><g transform="translate(158.045679, 342.374978)"><g><path d="M 4.984375 -5.40625 L 4.984375 -4.25 L 0.671875 -3.59375 L 0.5 -3.765625 L 0.5 -4.90625 L 4.828125 -5.546875 Z M 4.984375 -5.40625 "/></g></g></g><g fill="#ffffff" fill-opacity="1"><g transform="translate(164.489664, 342.374978)"><g/></g></g><g fill="#ffffff" fill-opacity="1"><g transform="translate(168.305662, 342.374978)"><g><path d="M 3.4375 -10.03125 L 3.390625 -6.390625 L 5.203125 -6.359375 L 7.109375 -6.40625 L 7.234375 -6.25 L 7.09375 -4.84375 L 5.046875 -4.890625 L 3.359375 -4.875 L 3.34375 -3.640625 L 3.4375 0 L 1.546875 0 L 1.671875 -3.46875 L 1.546875 -11.5625 L 8.015625 -11.5625 L 8.140625 -11.390625 L 7.984375 -9.9375 L 5.296875 -10.046875 Z M 3.4375 -10.03125 "/></g></g></g><g fill="#ffffff" fill-opacity="1"><g transform="translate(177.215642, 342.374978)"><g><path d="M 6.84375 -4.625 C 7.65625 -3.3125 8.617188 -1.914062 9.734375 -0.4375 L 9.71875 -0.21875 C 9.144531 -0.0195312 8.550781 0.101562 7.9375 0.15625 L 7.71875 0.015625 C 6.726562 -1.617188 5.925781 -3 5.3125 -4.125 L 3.34375 -4.125 L 3.34375 -3.640625 L 3.4375 0 L 1.546875 0 L 1.671875 -3.46875 L 1.546875 -11.5625 L 5.46875 -11.578125 C 6.632812 -11.578125 7.535156 -11.285156 8.171875 -10.703125 C 8.804688 -10.117188 9.125 -9.285156 9.125 -8.203125 C 9.125 -7.441406 8.921875 -6.75 8.515625 -6.125 C 8.117188 -5.507812 7.5625 -5.007812 6.84375 -4.625 Z M 3.390625 -5.640625 L 5.359375 -5.578125 C 6.578125 -5.953125 7.1875 -6.78125 7.1875 -8.0625 C 7.1875 -8.738281 7 -9.242188 6.625 -9.578125 C 6.257812 -9.910156 5.707031 -10.085938 4.96875 -10.109375 L 3.4375 -10.0625 Z M 3.390625 -5.640625 "/></g></g></g><g fill="#ffffff" fill-opacity="1"><g transform="translate(188.411614, 342.374978)"><g><path d="M 8.390625 -1.578125 L 8.5 -1.421875 L 8.375 0 L 1.546875 0 L 1.671875 -3.46875 L 1.546875 -11.5625 L 8.40625 -11.5625 L 8.515625 -11.390625 L 8.375 -9.96875 L 5.640625 -10.046875 L 3.4375 -10.03125 L 3.390625 -6.65625 L 5.46875 -6.625 L 7.375 -6.671875 L 7.5 -6.53125 L 7.359375 -5.109375 L 5.328125 -5.171875 L 3.359375 -5.125 L 3.34375 -3.640625 L 3.40625 -1.515625 L 5.59375 -1.5 Z M 8.390625 -1.578125 "/></g></g></g><g fill="#ffffff" fill-opacity="1"><g transform="translate(198.221586, 342.374978)"><g><path d="M 4.9375 -11.6875 C 5.84375 -11.6875 6.753906 -11.492188 7.671875 -11.109375 L 7.359375 -9.40625 L 7.078125 -9.3125 C 6.691406 -9.582031 6.296875 -9.796875 5.890625 -9.953125 C 5.484375 -10.109375 5.09375 -10.1875 4.71875 -10.1875 C 4.125 -10.1875 3.65625 -10.023438 3.3125 -9.703125 C 2.96875 -9.378906 2.796875 -9 2.796875 -8.5625 C 2.796875 -8.144531 2.96875 -7.800781 3.3125 -7.53125 C 3.65625 -7.257812 4.203125 -6.953125 4.953125 -6.609375 C 5.597656 -6.296875 6.117188 -6.007812 6.515625 -5.75 C 6.921875 -5.5 7.265625 -5.164062 7.546875 -4.75 C 7.835938 -4.34375 7.984375 -3.851562 7.984375 -3.28125 C 7.984375 -2.65625 7.8125 -2.082031 7.46875 -1.5625 C 7.132812 -1.039062 6.65625 -0.625 6.03125 -0.3125 C 5.414062 -0.0078125 4.710938 0.140625 3.921875 0.140625 C 3.390625 0.140625 2.84375 0.078125 2.28125 -0.046875 C 1.71875 -0.179688 1.1875 -0.375 0.6875 -0.625 L 0.921875 -2.46875 L 1.15625 -2.578125 C 1.59375 -2.148438 2.078125 -1.832031 2.609375 -1.625 C 3.148438 -1.414062 3.648438 -1.3125 4.109375 -1.3125 C 4.734375 -1.3125 5.226562 -1.472656 5.59375 -1.796875 C 5.96875 -2.128906 6.15625 -2.523438 6.15625 -2.984375 C 6.15625 -3.441406 5.972656 -3.8125 5.609375 -4.09375 C 5.253906 -4.375 4.703125 -4.691406 3.953125 -5.046875 C 3.316406 -5.335938 2.800781 -5.609375 2.40625 -5.859375 C 2.007812 -6.109375 1.671875 -6.4375 1.390625 -6.84375 C 1.109375 -7.25 0.96875 -7.738281 0.96875 -8.3125 C 0.96875 -8.9375 1.132812 -9.503906 1.46875 -10.015625 C 1.8125 -10.535156 2.28125 -10.941406 2.875 -11.234375 C 3.476562 -11.535156 4.164062 -11.6875 4.9375 -11.6875 Z M 4.9375 -11.6875 "/></g></g></g><g fill="#ffffff" fill-opacity="1"><g transform="translate(207.85156, 342.374978)"><g><path d="M 10.765625 -3.640625 L 10.8125 0 L 8.96875 0 L 9.046875 -3.46875 L 9.03125 -5.046875 L 6.078125 -5.0625 L 3.390625 -5.046875 L 3.359375 -3.640625 L 3.4375 0 L 1.609375 0 L 1.671875 -3.46875 L 1.609375 -11.5625 L 3.453125 -11.5625 L 3.40625 -6.59375 L 6.234375 -6.546875 L 9.015625 -6.59375 L 8.96875 -11.5625 L 10.859375 -11.5625 Z M 10.765625 -3.640625 "/></g></g></g><g fill="#ffffff" fill-opacity="1"><g transform="translate(221.189522, 342.374978)"><g/></g></g><g fill="#ffffff" fill-opacity="1"><g transform="translate(225.00552, 342.374978)"><g><path d="M 4.984375 -5.40625 L 4.984375 -4.25 L 0.671875 -3.59375 L 0.5 -3.765625 L 0.5 -4.90625 L 4.828125 -5.546875 Z M 4.984375 -5.40625 "/></g></g></g><g fill="#ffffff" fill-opacity="1"><g transform="translate(231.449504, 342.374978)"><g/></g></g><g fill="#ffffff" fill-opacity="1"><g transform="translate(235.265502, 342.374978)"><g><path d="M 3.4375 -10.03125 L 3.390625 -6.390625 L 5.203125 -6.359375 L 7.109375 -6.40625 L 7.234375 -6.25 L 7.09375 -4.84375 L 5.046875 -4.890625 L 3.359375 -4.875 L 3.34375 -3.640625 L 3.4375 0 L 1.546875 0 L 1.671875 -3.46875 L 1.546875 -11.5625 L 8.015625 -11.5625 L 8.140625 -11.390625 L 7.984375 -9.9375 L 5.296875 -10.046875 Z M 3.4375 -10.03125 "/></g></g></g><g fill="#ffffff" fill-opacity="1"><g transform="translate(244.175482, 342.374978)"><g><path d="M 10.21875 0 L 8.3125 0 L 8.046875 -1.296875 L 7.546875 -2.890625 L 5.09375 -2.953125 L 2.875 -2.890625 L 2.34375 -1.390625 L 2.046875 0 L 0.203125 0 L 4.3125 -11.5625 L 6.5 -11.5625 Z M 7.078125 -4.40625 L 5.421875 -9.734375 L 5.296875 -9.734375 L 3.40625 -4.40625 L 5.21875 -4.375 Z M 7.078125 -4.40625 "/></g></g></g><g fill="#ffffff" fill-opacity="1"><g transform="translate(255.677446, 342.374978)"><g><path d="M 4.9375 -11.6875 C 5.84375 -11.6875 6.753906 -11.492188 7.671875 -11.109375 L 7.359375 -9.40625 L 7.078125 -9.3125 C 6.691406 -9.582031 6.296875 -9.796875 5.890625 -9.953125 C 5.484375 -10.109375 5.09375 -10.1875 4.71875 -10.1875 C 4.125 -10.1875 3.65625 -10.023438 3.3125 -9.703125 C 2.96875 -9.378906 2.796875 -9 2.796875 -8.5625 C 2.796875 -8.144531 2.96875 -7.800781 3.3125 -7.53125 C 3.65625 -7.257812 4.203125 -6.953125 4.953125 -6.609375 C 5.597656 -6.296875 6.117188 -6.007812 6.515625 -5.75 C 6.921875 -5.5 7.265625 -5.164062 7.546875 -4.75 C 7.835938 -4.34375 7.984375 -3.851562 7.984375 -3.28125 C 7.984375 -2.65625 7.8125 -2.082031 7.46875 -1.5625 C 7.132812 -1.039062 6.65625 -0.625 6.03125 -0.3125 C 5.414062 -0.0078125 4.710938 0.140625 3.921875 0.140625 C 3.390625 0.140625 2.84375 0.078125 2.28125 -0.046875 C 1.71875 -0.179688 1.1875 -0.375 0.6875 -0.625 L 0.921875 -2.46875 L 1.15625 -2.578125 C 1.59375 -2.148438 2.078125 -1.832031 2.609375 -1.625 C 3.148438 -1.414062 3.648438 -1.3125 4.109375 -1.3125 C 4.734375 -1.3125 5.226562 -1.472656 5.59375 -1.796875 C 5.96875 -2.128906 6.15625 -2.523438 6.15625 -2.984375 C 6.15625 -3.441406 5.972656 -3.8125 5.609375 -4.09375 C 5.253906 -4.375 4.703125 -4.691406 3.953125 -5.046875 C 3.316406 -5.335938 2.800781 -5.609375 2.40625 -5.859375 C 2.007812 -6.109375 1.671875 -6.4375 1.390625 -6.84375 C 1.109375 -7.25 0.96875 -7.738281 0.96875 -8.3125 C 0.96875 -8.9375 1.132812 -9.503906 1.46875 -10.015625 C 1.8125 -10.535156 2.28125 -10.941406 2.875 -11.234375 C 3.476562 -11.535156 4.164062 -11.6875 4.9375 -11.6875 Z M 4.9375 -11.6875 "/></g></g></g><g fill="#ffffff" fill-opacity="1"><g transform="translate(265.30742, 342.374978)"><g><path d="M 8.59375 -11.390625 L 8.484375 -9.984375 L 6.390625 -10.09375 L 5.421875 -10.09375 L 5.328125 -3.640625 L 5.421875 0 L 3.546875 0 L 3.65625 -3.46875 L 3.5625 -10.09375 L 2.59375 -10.09375 L 0.46875 -9.984375 L 0.34375 -10.15625 L 0.484375 -11.5625 L 8.484375 -11.5625 Z M 8.59375 -11.390625 "/></g></g></g><g clip-path="url(#2541d5ae19)"><g clip-path="url(#19b51215eb)"><path fill="#ffffff" d="M 85.128906 333.804688 L 92.519531 333.804688 L 92.519531 341.195312 L 85.128906 341.195312 Z M 85.128906 333.804688 " fill-opacity="1" fill-rule="nonzero"/></g></g><g clip-path="url(#91b27a1732)"><g clip-path="url(#391e83aa86)"><path fill="#ffffff" d="M 279.847656 333.804688 L 287.234375 333.804688 L 287.234375 341.195312 L 279.847656 341.195312 Z M 279.847656 333.804688 " fill-opacity="1" fill-rule="nonzero"/></g></g><g clip-path="url(#a7055eee70)"><path fill="#ffffff" d="M 276.382812 122.878906 C 276.183594 122.878906 276.019531 123.105469 276.019531 123.386719 C 276.019531 123.671875 276.183594 123.898438 276.382812 123.898438 C 276.578125 123.898438 276.742188 123.671875 276.742188 123.386719 C 276.742188 123.105469 276.582031 122.878906 276.382812 122.878906 Z M 279.664062 118.785156 C 279.574219 118.742188 279.394531 118.777344 279.300781 118.785156 C 279.039062 118.816406 278.78125 118.890625 278.535156 118.988281 C 278.5 119.003906 278.464844 119.019531 278.425781 119.039062 C 277.996094 119.238281 277.597656 119.519531 277.257812 119.851562 C 277.164062 119.945312 277.070312 120.042969 276.980469 120.144531 C 276.636719 120.539062 276.367188 121 276.261719 121.507812 C 276.226562 121.679688 276.207031 121.859375 276.210938 122.042969 C 276.210938 122.101562 276.226562 122.167969 276.257812 122.230469 C 276.296875 122.3125 276.359375 122.371094 276.46875 122.339844 C 276.539062 122.320312 276.582031 122.257812 276.625 122.203125 C 276.664062 122.148438 276.699219 122.089844 276.734375 122.03125 C 276.816406 121.871094 276.882812 121.699219 276.957031 121.53125 C 277.03125 121.363281 277.113281 121.199219 277.207031 121.035156 C 277.246094 120.96875 277.28125 120.90625 277.320312 120.847656 C 277.65625 120.332031 278.09375 119.875 278.597656 119.527344 C 278.921875 119.300781 279.277344 119.117188 279.664062 118.960938 C 279.773438 118.917969 279.757812 118.835938 279.664062 118.785156 Z M 285.332031 122.929688 C 285.332031 120.480469 283.535156 118.445312 281.1875 118.070312 C 280.941406 118.03125 280.691406 118.011719 280.433594 118.011719 C 280.429688 118.011719 280.425781 118.011719 280.421875 118.011719 C 280.007812 118.011719 279.613281 118.0625 279.238281 118.15625 C 277.875 118.492188 276.738281 119.40625 276.089844 120.613281 C 275.902344 120.964844 275.753906 121.347656 275.652344 121.742188 C 275.59375 121.988281 275.554688 122.234375 275.53125 122.488281 C 275.515625 122.628906 275.511719 122.78125 275.511719 122.921875 C 275.511719 125.632812 277.710938 127.839844 280.421875 127.839844 C 283.128906 127.839844 285.332031 125.636719 285.332031 122.929688 Z M 286.019531 122.929688 C 286.019531 126.019531 283.507812 128.53125 280.421875 128.53125 C 277.332031 128.53125 274.820312 126.019531 274.820312 122.929688 C 274.820312 122.84375 274.828125 122.757812 274.828125 122.675781 C 274.835938 122.4375 274.863281 122.199219 274.902344 121.972656 C 274.960938 121.625 275.050781 121.292969 275.167969 120.96875 C 275.890625 119.027344 277.664062 117.589844 279.792969 117.359375 C 279.996094 117.332031 280.203125 117.324219 280.410156 117.324219 C 280.550781 117.324219 280.6875 117.328125 280.828125 117.339844 C 281.0625 117.359375 281.300781 117.386719 281.527344 117.433594 C 284.09375 117.957031 286.019531 120.222656 286.019531 122.929688 Z M 264.925781 96.136719 C 264.925781 96.777344 265.445312 97.296875 266.085938 97.296875 C 266.722656 97.296875 267.242188 96.777344 267.242188 96.136719 C 267.242188 95.496094 266.722656 94.976562 266.085938 94.976562 C 265.449219 94.976562 264.925781 95.496094 264.925781 96.136719 Z M 264.4375 96.136719 C 264.4375 95.226562 265.179688 94.480469 266.089844 94.480469 C 267 94.480469 267.742188 95.226562 267.742188 96.136719 C 267.742188 97.046875 267 97.792969 266.089844 97.792969 C 265.179688 97.792969 264.4375 97.054688 264.4375 96.136719 Z M 261.640625 118.566406 L 261.347656 118.566406 C 261.238281 118.566406 261.148438 118.65625 261.148438 118.765625 C 261.148438 118.875 261.238281 118.964844 261.347656 118.964844 L 261.640625 118.964844 C 261.75 118.964844 261.835938 118.875 261.835938 118.765625 C 261.835938 118.65625 261.75 118.566406 261.640625 118.566406 Z M 258.722656 118.566406 L 258.433594 118.566406 C 258.324219 118.566406 258.234375 118.65625 258.234375 118.765625 C 258.234375 118.875 258.324219 118.964844 258.433594 118.964844 L 258.722656 118.964844 C 258.832031 118.964844 258.921875 118.875 258.921875 118.765625 C 258.921875 118.65625 258.832031 118.566406 258.722656 118.566406 Z M 260.925781 118.011719 L 261.144531 117.792969 C 261.183594 117.753906 261.183594 117.695312 261.144531 117.65625 C 261.105469 117.617188 261.046875 117.617188 261.007812 117.65625 L 260.789062 117.875 C 260.75 117.914062 260.75 117.972656 260.789062 118.011719 C 260.808594 118.03125 260.832031 118.042969 260.859375 118.042969 C 260.882812 118.039062 260.90625 118.027344 260.925781 118.011719 Z M 259.082031 119.582031 L 258.921875 119.742188 C 258.882812 119.78125 258.882812 119.839844 258.921875 119.878906 C 258.941406 119.902344 258.964844 119.910156 258.992188 119.910156 C 259.015625 119.910156 259.039062 119.902344 259.058594 119.878906 L 259.21875 119.722656 C 259.257812 119.683594 259.257812 119.621094 259.21875 119.582031 C 259.179688 119.542969 259.121094 119.542969 259.082031 119.582031 Z M 260.992188 119.582031 C 260.953125 119.542969 260.890625 119.542969 260.851562 119.582031 C 260.8125 119.621094 260.8125 119.683594 260.851562 119.722656 L 261.011719 119.878906 C 261.03125 119.902344 261.054688 119.910156 261.078125 119.910156 C 261.105469 119.910156 261.128906 119.902344 261.148438 119.878906 C 261.1875 119.839844 261.1875 119.78125 261.148438 119.742188 Z M 259.058594 117.652344 C 259.019531 117.613281 258.960938 117.613281 258.921875 117.652344 C 258.882812 117.691406 258.882812 117.75 258.921875 117.789062 L 259.140625 118.007812 C 259.160156 118.027344 259.183594 118.039062 259.210938 118.039062 C 259.234375 118.039062 259.257812 118.027344 259.277344 118.007812 C 259.316406 117.96875 259.316406 117.910156 259.277344 117.867188 Z M 260.035156 119.878906 C 259.925781 119.878906 259.835938 119.96875 259.835938 120.078125 L 259.835938 120.371094 C 259.835938 120.480469 259.925781 120.570312 260.035156 120.570312 C 260.144531 120.570312 260.234375 120.480469 260.234375 120.371094 L 260.234375 120.078125 C 260.234375 119.96875 260.144531 119.878906 260.035156 119.878906 Z M 260.035156 116.960938 C 259.925781 116.960938 259.835938 117.050781 259.835938 117.160156 L 259.835938 117.460938 C 259.835938 117.570312 259.925781 117.660156 260.035156 117.660156 C 260.144531 117.660156 260.234375 117.570312 260.234375 117.460938 L 260.234375 117.160156 C 260.234375 117.050781 260.144531 116.960938 260.035156 116.960938 Z M 287.28125 110.105469 L 286.988281 110.105469 C 286.878906 110.105469 286.792969 110.195312 286.792969 110.304688 C 286.792969 110.410156 286.878906 110.5 286.988281 110.5 L 287.28125 110.5 C 287.390625 110.5 287.480469 110.410156 287.480469 110.304688 C 287.472656 110.195312 287.390625 110.105469 287.28125 110.105469 Z M 284.367188 110.105469 L 284.074219 110.105469 C 283.964844 110.105469 283.875 110.195312 283.875 110.304688 C 283.875 110.410156 283.964844 110.5 284.074219 110.5 L 284.367188 110.5 C 284.472656 110.5 284.5625 110.410156 284.5625 110.304688 C 284.5625 110.195312 284.472656 110.105469 284.367188 110.105469 Z M 286.566406 109.550781 L 286.785156 109.332031 C 286.824219 109.292969 286.824219 109.234375 286.785156 109.191406 C 286.746094 109.152344 286.6875 109.152344 286.648438 109.191406 L 286.429688 109.410156 C 286.390625 109.449219 286.390625 109.511719 286.429688 109.550781 C 286.449219 109.570312 286.472656 109.578125 286.5 109.578125 C 286.523438 109.578125 286.546875 109.570312 286.566406 109.550781 Z M 284.632812 111.445312 C 284.65625 111.445312 284.683594 111.4375 284.703125 111.417969 L 284.859375 111.257812 C 284.898438 111.21875 284.898438 111.160156 284.859375 111.121094 C 284.820312 111.082031 284.761719 111.082031 284.722656 111.121094 L 284.5625 111.277344 C 284.523438 111.320312 284.523438 111.378906 284.5625 111.417969 C 284.582031 111.4375 284.609375 111.445312 284.632812 111.445312 Z M 286.628906 111.121094 C 286.589844 111.082031 286.527344 111.082031 286.488281 111.121094 C 286.449219 111.160156 286.449219 111.21875 286.488281 111.257812 L 286.648438 111.417969 C 286.667969 111.4375 286.691406 111.445312 286.71875 111.445312 C 286.742188 111.445312 286.765625 111.4375 286.785156 111.417969 C 286.824219 111.378906 286.824219 111.320312 286.785156 111.277344 Z M 284.921875 109.410156 L 284.703125 109.191406 C 284.664062 109.152344 284.601562 109.152344 284.5625 109.191406 C 284.523438 109.234375 284.523438 109.292969 284.5625 109.332031 L 284.78125 109.550781 C 284.800781 109.570312 284.824219 109.578125 284.851562 109.578125 C 284.875 109.578125 284.898438 109.570312 284.921875 109.550781 C 284.960938 109.511719 284.960938 109.449219 284.921875 109.410156 Z M 285.675781 111.417969 C 285.570312 111.417969 285.480469 111.507812 285.480469 111.617188 L 285.480469 111.910156 C 285.480469 112.015625 285.570312 112.105469 285.675781 112.105469 C 285.785156 112.105469 285.875 112.015625 285.875 111.910156 L 285.875 111.617188 C 285.871094 111.507812 285.78125 111.417969 285.675781 111.417969 Z M 285.871094 108.699219 C 285.871094 108.589844 285.78125 108.5 285.671875 108.5 C 285.5625 108.5 285.472656 108.589844 285.472656 108.699219 L 285.472656 109 C 285.472656 109.109375 285.5625 109.199219 285.671875 109.199219 C 285.78125 109.199219 285.871094 109.109375 285.871094 109 Z M 266.199219 110.886719 C 266.054688 110.867188 265.910156 110.921875 265.792969 111.050781 C 265.679688 111.175781 265.601562 111.34375 265.570312 111.535156 C 265.511719 111.9375 265.695312 112.300781 265.980469 112.339844 C 266 112.34375 266.019531 112.34375 266.039062 112.34375 C 266.308594 112.34375 266.558594 112.066406 266.613281 111.695312 C 266.667969 111.292969 266.484375 110.933594 266.199219 110.886719 Z M 267.375 109.015625 C 267.585938 108.6875 267.828125 108.378906 268.085938 108.09375 C 268.707031 107.410156 269.46875 106.839844 270.316406 106.4375 C 270.855469 106.179688 271.441406 105.988281 272.054688 105.84375 C 272.21875 105.804688 272.207031 105.675781 272.085938 105.585938 C 271.960938 105.496094 271.683594 105.511719 271.535156 105.5 C 271.128906 105.480469 270.722656 105.53125 270.328125 105.625 C 269.566406 105.808594 268.84375 106.15625 268.203125 106.601562 C 268.148438 106.640625 268.097656 106.675781 268.046875 106.714844 C 267.699219 106.972656 267.371094 107.261719 267.089844 107.582031 C 266.589844 108.152344 266.226562 108.820312 266.140625 109.59375 C 266.113281 109.796875 266.164062 110.132812 266.460938 110.09375 C 266.566406 110.078125 266.652344 110.003906 266.726562 109.929688 C 266.996094 109.660156 267.179688 109.332031 267.375 109.015625 Z M 274.519531 104.605469 C 274.710938 104.648438 274.910156 104.699219 275.097656 104.757812 C 275.800781 104.976562 276.464844 105.285156 277.078125 105.667969 C 277.234375 105.765625 277.378906 105.863281 277.523438 105.972656 C 278.117188 106.398438 278.652344 106.894531 279.117188 107.453125 C 279.246094 107.605469 279.367188 107.765625 279.484375 107.925781 C 280.488281 109.320312 281.082031 111.03125 281.082031 112.878906 C 281.082031 114.222656 280.765625 115.496094 280.210938 116.625 C 280.28125 116.625 280.351562 116.621094 280.425781 116.621094 C 280.675781 116.621094 280.929688 116.636719 281.171875 116.664062 C 281.6875 115.503906 281.96875 114.226562 281.96875 112.878906 C 281.96875 111.101562 281.46875 109.4375 280.609375 108.011719 C 280.523438 107.878906 280.441406 107.746094 280.351562 107.613281 C 280.148438 107.316406 279.929688 107.03125 279.699219 106.761719 C 278.59375 105.480469 277.152344 104.5 275.515625 103.960938 C 275.179688 103.851562 274.832031 103.757812 274.480469 103.683594 C 274.328125 103.652344 274.167969 103.625 274.011719 103.597656 C 273.550781 103.53125 273.074219 103.488281 272.59375 103.488281 C 271.363281 103.488281 270.183594 103.726562 269.105469 104.164062 C 268.886719 104.253906 268.679688 104.347656 268.46875 104.445312 C 268.226562 104.566406 267.996094 104.695312 267.769531 104.832031 C 266.773438 105.433594 265.894531 106.210938 265.1875 107.125 C 265.027344 107.339844 264.871094 107.558594 264.722656 107.78125 C 264.601562 107.972656 264.480469 108.171875 264.367188 108.375 C 263.632812 109.714844 263.21875 111.246094 263.21875 112.875 C 263.21875 118.046875 267.425781 122.257812 272.59375 122.257812 C 273.132812 122.257812 273.660156 122.214844 274.171875 122.125 C 274.210938 121.804688 274.277344 121.492188 274.367188 121.183594 C 273.796875 121.308594 273.203125 121.371094 272.59375 121.371094 C 267.910156 121.371094 264.105469 117.5625 264.105469 112.875 C 264.105469 111.179688 264.605469 109.605469 265.460938 108.28125 C 265.640625 108.003906 265.832031 107.734375 266.039062 107.484375 C 266.605469 106.800781 267.269531 106.210938 268.015625 105.730469 C 268.292969 105.550781 268.578125 105.386719 268.882812 105.238281 C 270.003906 104.6875 271.261719 104.382812 272.59375 104.382812 C 273.257812 104.382812 273.902344 104.460938 274.519531 104.605469 Z M 269.753906 98.171875 C 269.753906 98.609375 270.105469 98.960938 270.539062 98.960938 C 270.976562 98.960938 271.328125 98.609375 271.328125 98.171875 C 271.328125 97.738281 270.976562 97.386719 270.539062 97.386719 C 270.105469 97.386719 269.753906 97.738281 269.753906 98.171875 Z M 269.257812 98.171875 C 269.257812 97.464844 269.832031 96.890625 270.539062 96.890625 C 271.246094 96.890625 271.820312 97.464844 271.820312 98.171875 C 271.820312 98.882812 271.246094 99.457031 270.539062 99.457031 C 269.832031 99.457031 269.257812 98.882812 269.257812 98.171875 Z M 266.40625 124.09375 C 266.40625 123.234375 265.707031 122.535156 264.851562 122.535156 C 263.996094 122.535156 263.296875 123.234375 263.296875 124.09375 C 263.296875 124.949219 263.996094 125.648438 264.851562 125.648438 C 265.707031 125.648438 266.40625 124.949219 266.40625 124.09375 Z M 266.996094 124.09375 C 266.996094 125.277344 266.035156 126.238281 264.847656 126.238281 C 263.664062 126.238281 262.703125 125.277344 262.703125 124.09375 C 262.703125 122.90625 263.664062 121.945312 264.847656 121.945312 C 266.03125 121.941406 266.996094 122.90625 266.996094 124.09375 Z M 276.070312 99.277344 C 275.875 99.253906 275.707031 99.441406 275.671875 99.710938 C 275.636719 99.976562 275.761719 100.199219 275.949219 100.222656 C 275.960938 100.222656 275.96875 100.222656 275.980469 100.222656 C 276.0625 100.222656 276.144531 100.183594 276.210938 100.105469 C 276.28125 100.027344 276.332031 99.914062 276.347656 99.789062 C 276.359375 99.664062 276.339844 99.546875 276.292969 99.453125 C 276.242188 99.351562 276.164062 99.289062 276.070312 99.277344 Z M 276.375 98.6875 C 276.535156 98.515625 276.636719 98.308594 276.757812 98.105469 C 276.882812 97.894531 277.019531 97.699219 277.179688 97.515625 C 277.550781 97.074219 278.003906 96.707031 278.515625 96.4375 C 278.839844 96.265625 279.191406 96.136719 279.5625 96.039062 C 279.664062 96.011719 279.65625 95.929688 279.578125 95.875 C 279.5 95.820312 279.332031 95.835938 279.242188 95.835938 C 278.996094 95.828125 278.746094 95.871094 278.507812 95.933594 C 278.050781 96.0625 277.613281 96.289062 277.234375 96.582031 C 276.613281 97.054688 276.089844 97.691406 276.015625 98.488281 C 276.003906 98.621094 276.039062 98.828125 276.21875 98.796875 C 276.28125 98.789062 276.332031 98.738281 276.375 98.6875 Z M 275.105469 103.144531 C 274.8125 102.4375 274.652344 101.671875 274.652344 100.863281 C 274.652344 97.578125 277.328125 94.902344 280.609375 94.902344 C 283.894531 94.902344 286.5625 97.578125 286.5625 100.863281 C 286.5625 104.148438 283.894531 106.824219 280.613281 106.824219 C 280.800781 107.074219 280.976562 107.324219 281.136719 107.59375 C 284.609375 107.320312 287.351562 104.40625 287.351562 100.863281 C 287.351562 97.140625 284.324219 94.113281 280.609375 94.113281 C 276.890625 94.113281 273.867188 97.140625 273.867188 100.863281 C 273.867188 101.59375 273.984375 102.296875 274.199219 102.953125 C 274.5 103.003906 274.800781 103.070312 275.105469 103.144531 Z M 261.953125 103.230469 C 261.808594 103.210938 261.683594 103.351562 261.660156 103.542969 C 261.648438 103.632812 261.664062 103.71875 261.699219 103.789062 C 261.738281 103.863281 261.796875 103.90625 261.867188 103.914062 C 261.878906 103.914062 261.882812 103.914062 261.890625 103.914062 C 262.019531 103.914062 262.136719 103.78125 262.160156 103.605469 C 262.179688 103.414062 262.089844 103.25 261.953125 103.230469 Z M 262.425781 102.4375 C 262.511719 102.296875 262.609375 102.15625 262.714844 102.03125 C 262.972656 101.730469 263.28125 101.472656 263.632812 101.289062 C 263.855469 101.171875 264.101562 101.082031 264.355469 101.011719 C 264.425781 100.992188 264.421875 100.9375 264.367188 100.898438 C 264.3125 100.863281 264.199219 100.867188 264.132812 100.867188 C 263.960938 100.863281 263.792969 100.894531 263.628906 100.9375 C 263.3125 101.027344 263.011719 101.1875 262.75 101.390625 C 262.324219 101.714844 261.957031 102.15625 261.910156 102.707031 C 261.902344 102.796875 261.925781 102.941406 262.050781 102.917969 C 262.09375 102.910156 262.128906 102.878906 262.160156 102.84375 C 262.273438 102.722656 262.34375 102.578125 262.425781 102.4375 Z M 260.464844 103.753906 C 260.464844 101.527344 262.277344 99.714844 264.5 99.714844 C 266.703125 99.714844 268.496094 101.488281 268.535156 103.683594 C 268.332031 103.773438 268.132812 103.871094 267.9375 103.96875 C 267.941406 103.894531 267.945312 103.820312 267.945312 103.746094 C 267.945312 101.84375 266.402344 100.300781 264.5 100.300781 C 262.601562 100.300781 261.054688 101.84375 261.054688 103.746094 C 261.054688 105.585938 262.5 107.09375 264.3125 107.191406 C 264.1875 107.375 264.070312 107.558594 263.957031 107.75 C 261.984375 107.488281 260.464844 105.792969 260.464844 103.753906 " fill-opacity="1" fill-rule="nonzero"/></g><g clip-path="url(#5106199e8f)"><path fill="#ffffff" d="M 118.585938 135.574219 C 118.585938 133.675781 117.019531 132.132812 115.09375 132.132812 C 113.164062 132.132812 111.597656 133.675781 111.597656 135.574219 C 111.597656 137.472656 113.164062 139.019531 115.09375 139.019531 C 117.019531 139.019531 118.585938 137.472656 118.585938 135.574219 Z M 119.761719 135.574219 C 119.761719 138.113281 117.664062 140.175781 115.09375 140.175781 C 112.519531 140.175781 110.425781 138.113281 110.425781 135.574219 C 110.425781 133.039062 112.519531 130.976562 115.09375 130.976562 C 117.664062 130.976562 119.761719 133.039062 119.761719 135.574219 Z M 108.410156 132.765625 C 108.410156 131.933594 108.246094 131.144531 107.953125 130.414062 C 107.910156 130.300781 107.863281 130.191406 107.8125 130.082031 C 107.796875 130.046875 107.777344 130.011719 107.757812 129.972656 C 107.660156 129.769531 107.550781 129.570312 107.429688 129.378906 C 107.414062 129.359375 107.402344 129.335938 107.390625 129.316406 C 107.320312 129.207031 107.246094 129.097656 107.167969 128.996094 C 107.167969 128.992188 107.164062 128.988281 107.160156 128.984375 C 106.527344 128.125 105.6875 127.425781 104.722656 126.960938 C 104.683594 126.9375 104.640625 126.917969 104.597656 126.902344 C 104.496094 126.851562 104.390625 126.804688 104.28125 126.761719 C 104.152344 126.710938 104.019531 126.664062 103.886719 126.621094 C 103.796875 126.589844 103.703125 126.566406 103.613281 126.539062 C 103.523438 126.515625 103.4375 126.492188 103.347656 126.472656 C 103.257812 126.453125 103.171875 126.429688 103.082031 126.414062 C 103.074219 126.414062 103.066406 126.410156 103.058594 126.410156 C 102.859375 126.375 102.660156 126.34375 102.464844 126.324219 C 102.257812 126.308594 102.050781 126.292969 101.84375 126.292969 C 101.621094 126.292969 101.402344 126.304688 101.1875 126.328125 C 101.089844 126.335938 100.988281 126.355469 100.890625 126.371094 C 100.777344 126.386719 100.667969 126.398438 100.558594 126.421875 C 100.429688 126.445312 100.304688 126.480469 100.179688 126.511719 C 100.105469 126.53125 100.027344 126.546875 99.953125 126.570312 C 99.8125 126.613281 99.671875 126.664062 99.535156 126.714844 C 99.480469 126.734375 99.425781 126.753906 99.371094 126.773438 C 99.222656 126.832031 99.082031 126.898438 98.941406 126.96875 C 98.898438 126.988281 98.855469 127.007812 98.816406 127.027344 C 98.667969 127.105469 98.527344 127.1875 98.386719 127.273438 C 98.355469 127.292969 98.320312 127.308594 98.292969 127.328125 C 98.148438 127.421875 98.007812 127.519531 97.871094 127.621094 C 97.847656 127.640625 97.820312 127.660156 97.796875 127.675781 C 97.660156 127.785156 97.527344 127.898438 97.398438 128.015625 C 97.378906 128.03125 97.359375 128.046875 97.339844 128.066406 C 97.210938 128.1875 97.085938 128.3125 96.964844 128.445312 C 96.949219 128.460938 96.933594 128.476562 96.921875 128.496094 C 96.800781 128.628906 96.683594 128.769531 96.578125 128.914062 C 96.566406 128.929688 96.550781 128.945312 96.542969 128.960938 C 96.429688 129.109375 96.328125 129.261719 96.230469 129.417969 C 96.222656 129.429688 96.214844 129.445312 96.207031 129.457031 C 96.109375 129.617188 96.019531 129.785156 95.933594 129.953125 C 95.929688 129.964844 95.925781 129.972656 95.921875 129.984375 C 95.835938 130.15625 95.757812 130.335938 95.6875 130.519531 C 95.6875 130.523438 95.683594 130.53125 95.683594 130.535156 C 95.46875 131.105469 95.335938 131.710938 95.296875 132.34375 L 95.289062 132.410156 C 95.285156 132.527344 95.273438 132.644531 95.273438 132.765625 C 95.273438 136.335938 98.21875 139.238281 101.84375 139.238281 C 105.464844 139.238281 108.410156 136.335938 108.410156 132.765625 Z M 94.191406 131.648438 C 94.191406 131.636719 94.195312 131.628906 94.195312 131.621094 C 94.230469 131.402344 94.269531 131.1875 94.324219 130.976562 C 94.324219 130.964844 94.328125 130.953125 94.332031 130.945312 C 94.714844 129.410156 95.566406 128.0625 96.730469 127.050781 C 96.753906 127.03125 96.773438 127.011719 96.792969 126.992188 C 96.933594 126.875 97.078125 126.765625 97.222656 126.65625 C 97.265625 126.625 97.308594 126.59375 97.355469 126.5625 C 97.492188 126.464844 97.628906 126.375 97.773438 126.289062 C 97.835938 126.25 97.894531 126.214844 97.957031 126.179688 C 98.089844 126.101562 98.226562 126.027344 98.367188 125.957031 C 98.445312 125.921875 98.519531 125.882812 98.597656 125.847656 C 98.730469 125.789062 98.863281 125.730469 99 125.675781 C 99.09375 125.640625 99.1875 125.609375 99.28125 125.574219 C 99.410156 125.53125 99.535156 125.488281 99.667969 125.449219 C 99.78125 125.417969 99.894531 125.390625 100.011719 125.363281 C 100.128906 125.335938 100.246094 125.304688 100.363281 125.28125 C 100.507812 125.253906 100.65625 125.234375 100.804688 125.214844 C 100.898438 125.203125 100.992188 125.183594 101.089844 125.175781 C 101.339844 125.152344 101.589844 125.136719 101.84375 125.136719 C 102.058594 125.136719 102.28125 125.148438 102.503906 125.167969 C 102.492188 125.019531 102.484375 124.871094 102.484375 124.726562 C 102.484375 124.542969 102.496094 124.363281 102.511719 124.183594 C 102.515625 124.136719 102.519531 124.09375 102.527344 124.046875 C 102.542969 123.890625 102.566406 123.738281 102.597656 123.585938 C 102.613281 123.507812 102.628906 123.433594 102.648438 123.359375 C 102.667969 123.28125 102.6875 123.203125 102.707031 123.125 C 102.753906 122.960938 102.804688 122.800781 102.863281 122.644531 C 102.875 122.613281 102.886719 122.582031 102.898438 122.546875 C 103.027344 122.222656 103.183594 121.90625 103.363281 121.609375 C 103.371094 121.601562 103.375 121.589844 103.382812 121.582031 C 103.503906 121.382812 103.636719 121.191406 103.78125 121.007812 C 103.785156 121.003906 103.789062 121 103.789062 120.996094 C 103.863281 120.90625 103.9375 120.816406 104.011719 120.730469 C 104.03125 120.707031 104.054688 120.6875 104.074219 120.664062 C 104.199219 120.527344 104.328125 120.398438 104.464844 120.273438 C 104.507812 120.230469 104.554688 120.1875 104.605469 120.148438 C 104.675781 120.085938 104.746094 120.027344 104.820312 119.96875 C 104.921875 119.890625 105.023438 119.8125 105.128906 119.738281 C 103.953125 115.699219 100.222656 112.910156 95.914062 112.910156 C 90.628906 112.910156 86.328125 117.148438 86.328125 122.355469 C 86.328125 126.945312 89.667969 130.839844 94.191406 131.648438 Z M 108.664062 119.796875 C 107.800781 119.796875 106.992188 120.011719 106.28125 120.390625 L 106.242188 120.414062 C 106.191406 120.441406 106.136719 120.476562 106.085938 120.507812 C 105.910156 120.609375 105.746094 120.722656 105.585938 120.84375 C 105.574219 120.855469 105.5625 120.863281 105.550781 120.871094 C 105.390625 120.996094 105.242188 121.128906 105.101562 121.269531 C 105.0625 121.304688 105.03125 121.347656 104.992188 121.382812 C 104.90625 121.476562 104.820312 121.574219 104.738281 121.675781 C 104.683594 121.742188 104.628906 121.8125 104.578125 121.886719 C 104.523438 121.960938 104.472656 122.042969 104.421875 122.121094 C 104.371094 122.203125 104.320312 122.28125 104.273438 122.363281 C 104.199219 122.496094 104.132812 122.628906 104.070312 122.769531 C 104.03125 122.859375 104 122.949219 103.964844 123.042969 C 103.929688 123.144531 103.890625 123.246094 103.859375 123.347656 C 103.839844 123.425781 103.820312 123.503906 103.800781 123.582031 C 103.769531 123.703125 103.746094 123.824219 103.726562 123.945312 C 103.71875 124.011719 103.703125 124.078125 103.695312 124.144531 C 103.675781 124.335938 103.660156 124.527344 103.660156 124.726562 C 103.660156 124.90625 103.675781 125.089844 103.695312 125.273438 C 103.699219 125.304688 103.707031 125.335938 103.710938 125.367188 C 103.796875 125.386719 103.878906 125.414062 103.964844 125.4375 C 104.09375 125.472656 104.222656 125.511719 104.347656 125.554688 C 104.449219 125.589844 104.550781 125.625 104.652344 125.664062 C 104.835938 125.738281 105.019531 125.816406 105.195312 125.902344 C 105.25 125.925781 105.304688 125.949219 105.355469 125.976562 C 105.480469 126.039062 105.597656 126.105469 105.71875 126.171875 C 105.730469 126.179688 105.746094 126.191406 105.757812 126.199219 C 105.992188 126.332031 106.214844 126.480469 106.433594 126.636719 C 106.449219 126.648438 106.460938 126.660156 106.476562 126.671875 C 107.039062 127.085938 107.542969 127.574219 107.972656 128.125 C 108 128.160156 108.027344 128.199219 108.058594 128.238281 C 108.1875 128.40625 108.304688 128.582031 108.421875 128.761719 C 108.457031 128.820312 108.496094 128.882812 108.53125 128.941406 C 108.601562 129.058594 108.667969 129.179688 108.730469 129.304688 C 108.792969 129.417969 108.847656 129.53125 108.902344 129.648438 C 111.550781 129.523438 113.667969 127.363281 113.667969 124.726562 C 113.667969 122.007812 111.421875 119.796875 108.664062 119.796875 Z M 109.308594 130.777344 C 109.484375 131.414062 109.585938 132.078125 109.585938 132.765625 C 109.585938 136.972656 106.113281 140.394531 101.84375 140.394531 C 97.585938 140.394531 94.121094 136.992188 94.101562 132.804688 C 88.960938 131.945312 85.152344 127.546875 85.152344 122.355469 C 85.152344 116.511719 89.980469 111.753906 95.914062 111.753906 C 100.65625 111.753906 104.769531 114.765625 106.171875 119.160156 C 106.933594 118.828125 107.777344 118.636719 108.664062 118.636719 C 112.070312 118.636719 114.839844 121.367188 114.839844 124.726562 C 114.839844 127.867188 112.414062 130.457031 109.308594 130.777344 Z M 102.542969 128.210938 C 101.136719 127.441406 99.292969 127.902344 98.429688 129.238281 C 98.160156 129.660156 98.191406 130.015625 98.519531 130.25 L 98.523438 130.25 C 98.539062 130.261719 98.558594 130.273438 98.574219 130.28125 C 98.871094 130.457031 99.230469 130.375 99.46875 130.082031 C 100.222656 129.148438 100.785156 129.003906 101.972656 129.4375 C 102.371094 129.582031 102.769531 129.46875 102.917969 129.167969 C 103.089844 128.8125 102.949219 128.445312 102.542969 128.210938 Z M 95.835938 115.828125 C 96.292969 115.945312 96.621094 115.808594 96.753906 115.441406 C 96.894531 115.054688 96.714844 114.71875 96.253906 114.527344 C 94.277344 113.703125 91.769531 114.671875 90.886719 116.605469 C 90.65625 117.117188 90.71875 117.460938 91.089844 117.65625 C 91.113281 117.667969 91.140625 117.679688 91.164062 117.691406 C 91.5 117.832031 91.84375 117.714844 92.03125 117.394531 C 92.984375 115.777344 94.015625 115.351562 95.835938 115.828125 Z M 109.488281 112.5 C 109.496094 113.371094 110.226562 114.089844 111.121094 114.097656 C 112.054688 114.097656 112.742188 113.4375 112.757812 112.527344 C 112.769531 111.632812 112.082031 110.90625 111.191406 110.878906 L 111.140625 110.878906 C 110.714844 110.878906 110.289062 111.058594 109.972656 111.371094 C 109.664062 111.679688 109.488281 112.089844 109.488281 112.5 Z M 109.109375 114.507812 C 108.554688 113.957031 108.253906 113.230469 108.261719 112.460938 C 108.277344 110.910156 109.566406 109.644531 111.132812 109.644531 L 111.179688 109.644531 C 112.757812 109.667969 114.035156 110.949219 114.03125 112.496094 C 114.023438 114.070312 112.722656 115.347656 111.128906 115.347656 L 111.117188 115.347656 C 110.363281 115.34375 109.648438 115.046875 109.109375 114.507812 Z M 122.082031 122.90625 C 122.09375 122.011719 121.40625 121.289062 120.515625 121.257812 L 120.464844 121.257812 C 120.039062 121.257812 119.613281 121.4375 119.296875 121.753906 C 118.988281 122.058594 118.8125 122.472656 118.8125 122.882812 C 118.820312 123.753906 119.550781 124.46875 120.445312 124.476562 C 121.378906 124.476562 122.066406 123.816406 122.082031 122.90625 Z M 123.355469 122.878906 C 123.347656 124.449219 122.046875 125.730469 120.453125 125.730469 L 120.441406 125.730469 C 119.6875 125.726562 118.972656 125.429688 118.433594 124.886719 C 117.878906 124.335938 117.578125 123.609375 117.585938 122.84375 C 117.601562 121.289062 118.890625 120.027344 120.457031 120.027344 L 120.503906 120.027344 C 122.082031 120.050781 123.359375 121.328125 123.355469 122.878906 Z M 115.578125 133.269531 C 114.59375 132.996094 113.359375 133.640625 113.046875 134.585938 C 112.941406 134.902344 112.941406 135.203125 113.285156 135.359375 C 113.566406 135.488281 113.824219 135.390625 113.976562 135.105469 C 114.296875 134.519531 114.726562 134.175781 115.460938 134.347656 C 115.8125 134.429688 116.058594 134.238281 116.105469 133.878906 C 116.15625 133.5 115.902344 133.34375 115.578125 133.269531 Z M 109.117188 120.914062 C 109.464844 121.042969 109.722656 121.246094 109.609375 121.65625 C 109.503906 122.042969 109.207031 122.222656 108.832031 122.082031 C 108.050781 121.789062 107.53125 122.101562 107.09375 122.703125 C 106.886719 122.992188 106.589844 123.0625 106.296875 122.878906 C 105.945312 122.660156 105.988281 122.332031 106.148438 122 C 106.628906 121.007812 108.078125 120.476562 109.117188 120.914062 " fill-opacity="1" fill-rule="nonzero"/></g><path fill="#000000" d="M 309.25 189.28125 C 309.25 188.617188 309.363281 187.96875 309.585938 187.339844 C 309.808594 186.707031 310.132812 186.136719 310.554688 185.617188 C 310.976562 185.101562 311.472656 184.667969 312.046875 184.324219 C 312.617188 183.980469 313.230469 183.738281 313.882812 183.605469 L 334.558594 179.46875 C 332.871094 177.378906 330.972656 175.5 328.863281 173.832031 C 326.753906 172.167969 324.484375 170.757812 322.058594 169.601562 C 319.628906 168.445312 317.105469 167.574219 314.480469 166.984375 C 311.859375 166.394531 309.203125 166.105469 306.515625 166.109375 L 251.316406 166.109375 L 251.316406 177.695312 L 262.902344 177.695312 C 263.976562 177.695312 264.96875 177.972656 265.886719 178.523438 L 293.476562 195.078125 L 309.25 195.078125 Z M 309.25 189.28125 " fill-opacity="1" fill-rule="nonzero"/><path fill="#000000" d="M 297.664062 206.664062 L 309.25 206.664062 L 309.25 218.25 L 297.664062 218.25 Z M 297.664062 206.664062 " fill-opacity="1" fill-rule="nonzero"/><g clip-path="url(#1e21e5c61d)"><path fill="#000000" d="M 187.589844 102.386719 C 189.367188 102.382812 191.140625 102.300781 192.90625 102.136719 C 194.675781 101.972656 196.429688 101.726562 198.175781 101.398438 C 199.921875 101.074219 201.648438 100.667969 203.355469 100.183594 C 205.066406 99.699219 206.746094 99.136719 208.402344 98.496094 C 210.058594 97.855469 211.683594 97.144531 213.273438 96.355469 C 214.867188 95.566406 216.417969 94.707031 217.929688 93.777344 C 219.441406 92.84375 220.90625 91.847656 222.328125 90.78125 C 223.746094 89.714844 225.117188 88.589844 226.433594 87.398438 C 227.75 86.207031 229.007812 84.957031 230.210938 83.652344 C 231.414062 82.34375 232.554688 80.984375 233.628906 79.574219 C 234.707031 78.160156 235.71875 76.703125 236.660156 75.199219 C 237.605469 73.695312 238.476562 72.152344 239.277344 70.566406 C 240.082031 68.984375 240.808594 67.367188 241.460938 65.714844 C 242.113281 64.0625 242.6875 62.386719 243.1875 60.683594 C 243.6875 58.976562 244.105469 57.253906 244.449219 55.511719 C 244.789062 53.769531 245.050781 52.015625 245.230469 50.25 L 233.539062 50.25 C 233.363281 51.632812 233.128906 53.007812 232.832031 54.371094 C 232.53125 55.734375 232.175781 57.082031 231.753906 58.414062 C 231.335938 59.746094 230.855469 61.054688 230.316406 62.34375 C 229.777344 63.632812 229.183594 64.894531 228.53125 66.128906 C 227.878906 67.363281 227.171875 68.566406 226.410156 69.734375 C 225.648438 70.90625 224.839844 72.039062 223.972656 73.136719 C 223.109375 74.234375 222.199219 75.289062 221.242188 76.300781 C 220.28125 77.316406 219.277344 78.285156 218.230469 79.210938 C 217.183594 80.132812 216.097656 81.007812 214.972656 81.832031 C 213.847656 82.660156 212.6875 83.433594 211.492188 84.152344 C 210.292969 84.875 209.070312 85.539062 207.8125 86.148438 C 206.558594 86.757812 205.277344 87.308594 203.96875 87.804688 C 202.664062 88.296875 201.339844 88.730469 199.996094 89.105469 C 198.648438 89.480469 197.289062 89.792969 195.917969 90.042969 C 194.542969 90.292969 193.160156 90.480469 191.769531 90.609375 C 190.378906 90.734375 188.988281 90.796875 187.589844 90.796875 C 186.195312 90.796875 184.800781 90.734375 183.410156 90.609375 C 182.023438 90.480469 180.640625 90.292969 179.265625 90.042969 C 177.894531 89.792969 176.535156 89.480469 175.1875 89.105469 C 173.84375 88.730469 172.519531 88.296875 171.210938 87.804688 C 169.90625 87.308594 168.625 86.757812 167.371094 86.148438 C 166.113281 85.539062 164.886719 84.875 163.691406 84.152344 C 162.496094 83.433594 161.335938 82.660156 160.210938 81.832031 C 159.085938 81.007812 157.996094 80.132812 156.953125 79.210938 C 155.90625 78.285156 154.902344 77.316406 153.941406 76.300781 C 152.984375 75.289062 152.070312 74.234375 151.207031 73.136719 C 150.34375 72.039062 149.53125 70.90625 148.773438 69.734375 C 148.011719 68.566406 147.304688 67.363281 146.652344 66.128906 C 146 64.894531 145.402344 63.632812 144.867188 62.34375 C 144.328125 61.054688 143.847656 59.746094 143.429688 58.414062 C 143.007812 57.082031 142.648438 55.734375 142.351562 54.371094 C 142.054688 53.007812 141.820312 51.632812 141.644531 50.25 L 129.953125 50.25 C 130.132812 52.015625 130.394531 53.769531 130.734375 55.511719 C 131.074219 57.253906 131.496094 58.976562 131.996094 60.683594 C 132.492188 62.386719 133.070312 64.0625 133.722656 65.714844 C 134.375 67.367188 135.101562 68.984375 135.90625 70.566406 C 136.707031 72.152344 137.578125 73.695312 138.523438 75.199219 C 139.464844 76.703125 140.476562 78.160156 141.554688 79.574219 C 142.628906 80.984375 143.769531 82.34375 144.972656 83.652344 C 146.175781 84.957031 147.433594 86.207031 148.75 87.398438 C 150.066406 88.589844 151.433594 89.714844 152.855469 90.78125 C 154.277344 91.847656 155.742188 92.84375 157.253906 93.777344 C 158.765625 94.707031 160.316406 95.566406 161.910156 96.355469 C 163.5 97.144531 165.125 97.855469 166.78125 98.496094 C 168.4375 99.136719 170.117188 99.699219 171.828125 100.183594 C 173.535156 100.667969 175.261719 101.074219 177.007812 101.398438 C 178.75 101.726562 180.507812 101.972656 182.277344 102.136719 C 184.042969 102.300781 185.816406 102.382812 187.589844 102.386719 Z M 187.589844 102.386719 " fill-opacity="1" fill-rule="nonzero"/></g><g clip-path="url(#9ee944d620)"><path fill="#000000" d="M 187.589844 79.214844 C 188.609375 79.210938 189.621094 79.164062 190.632812 79.074219 C 191.644531 78.984375 192.652344 78.851562 193.652344 78.671875 C 194.652344 78.492188 195.640625 78.269531 196.621094 78.003906 C 197.601562 77.738281 198.570312 77.429688 199.523438 77.082031 C 200.476562 76.730469 201.414062 76.339844 202.332031 75.90625 C 203.253906 75.472656 204.152344 75.003906 205.03125 74.492188 C 205.90625 73.980469 206.761719 73.433594 207.589844 72.847656 C 208.421875 72.261719 209.222656 71.640625 210 70.984375 C 210.777344 70.328125 211.519531 69.636719 212.234375 68.917969 C 212.953125 68.195312 213.632812 67.445312 214.285156 66.664062 C 214.933594 65.882812 215.546875 65.074219 216.125 64.238281 C 216.703125 63.402344 217.246094 62.542969 217.75 61.664062 C 218.253906 60.78125 218.714844 59.878906 219.140625 58.953125 C 219.566406 58.03125 219.949219 57.089844 220.289062 56.132812 C 220.632812 55.179688 220.933594 54.207031 221.1875 53.226562 C 221.445312 52.242188 221.660156 51.25 221.828125 50.25 L 153.351562 50.25 C 153.523438 51.25 153.738281 52.242188 153.996094 53.226562 C 154.25 54.207031 154.550781 55.179688 154.894531 56.132812 C 155.234375 57.089844 155.617188 58.03125 156.042969 58.953125 C 156.46875 59.878906 156.929688 60.78125 157.433594 61.664062 C 157.9375 62.542969 158.480469 63.402344 159.058594 64.238281 C 159.636719 65.074219 160.25 65.882812 160.898438 66.664062 C 161.550781 67.445312 162.230469 68.195312 162.945312 68.917969 C 163.660156 69.636719 164.40625 70.328125 165.183594 70.984375 C 165.957031 71.640625 166.761719 72.261719 167.589844 72.847656 C 168.421875 73.433594 169.277344 73.980469 170.152344 74.492188 C 171.03125 75.003906 171.929688 75.472656 172.851562 75.90625 C 173.769531 76.339844 174.707031 76.730469 175.660156 77.082031 C 176.613281 77.429688 177.582031 77.738281 178.5625 78.003906 C 179.542969 78.269531 180.53125 78.492188 181.53125 78.671875 C 182.53125 78.851562 183.539062 78.984375 184.550781 79.074219 C 185.5625 79.164062 186.574219 79.210938 187.589844 79.214844 Z M 187.589844 79.214844 " fill-opacity="1" fill-rule="nonzero"/></g><path fill="#000000" d="M 340.023438 295.5 L 331.050781 284.730469 L 257.109375 342.726562 L 257.109375 374.664062 C 257.125 375.925781 257.34375 377.152344 257.765625 378.339844 L 346.1875 305.800781 C 344.625 302.070312 342.570312 298.640625 340.023438 295.5 Z M 340.023438 295.5 " fill-opacity="1" fill-rule="nonzero"/><path fill="#000000" d="M 266.652344 386.039062 C 267.328125 386.171875 268.007812 386.242188 268.695312 386.25 L 338.214844 386.25 C 338.976562 386.25 339.730469 386.175781 340.476562 386.027344 C 341.222656 385.878906 341.945312 385.65625 342.648438 385.367188 C 343.351562 385.074219 344.019531 384.71875 344.652344 384.296875 C 345.285156 383.875 345.871094 383.394531 346.410156 382.855469 C 346.945312 382.316406 347.425781 381.730469 347.851562 381.097656 C 348.273438 380.464844 348.628906 379.800781 348.921875 379.097656 C 349.210938 378.394531 349.429688 377.667969 349.578125 376.921875 C 349.726562 376.175781 349.800781 375.421875 349.800781 374.664062 L 349.800781 322.523438 C 349.75 321.054688 349.625 319.59375 349.421875 318.140625 Z M 266.652344 386.039062 " fill-opacity="1" fill-rule="nonzero"/><path fill="#000000" d="M 284.738281 274.101562 L 266.894531 295.535156 C 265.328125 297.414062 263.9375 299.417969 262.71875 301.539062 C 261.503906 303.660156 260.476562 305.875 259.640625 308.171875 C 258.808594 310.472656 258.179688 312.828125 257.753906 315.238281 C 257.328125 317.648438 257.113281 320.078125 257.109375 322.523438 L 257.109375 328 L 323.628906 275.828125 L 322.175781 274.089844 C 321.453125 273.21875 321.019531 272.222656 320.882812 271.097656 L 315.722656 229.835938 L 291.191406 229.835938 L 286.03125 271.105469 C 285.894531 272.230469 285.460938 273.226562 284.738281 274.101562 Z M 284.738281 274.101562 " fill-opacity="1" fill-rule="nonzero"/><g clip-path="url(#483cfdf597)"><path fill="#000000" d="M 352.519531 134.5625 L 305.5 67.226562 C 304.671875 65.929688 303.765625 64.691406 302.785156 63.507812 C 301.800781 62.324219 300.746094 61.207031 299.621094 60.15625 C 298.496094 59.105469 297.3125 58.128906 296.066406 57.226562 C 294.820312 56.324219 293.519531 55.503906 292.171875 54.765625 C 290.820312 54.027344 289.429688 53.375 288 52.8125 C 286.566406 52.246094 285.105469 51.773438 283.613281 51.394531 C 282.125 51.011719 280.617188 50.726562 279.089844 50.535156 C 277.5625 50.34375 276.027344 50.246094 274.492188 50.25 L 256.816406 50.25 C 256.640625 52.398438 256.363281 54.535156 255.988281 56.65625 C 255.613281 58.78125 255.140625 60.882812 254.570312 62.960938 C 254 65.042969 253.332031 67.089844 252.570312 69.109375 C 251.808594 71.125 250.957031 73.101562 250.011719 75.039062 C 249.066406 76.980469 248.03125 78.867188 246.910156 80.710938 C 245.789062 82.550781 244.582031 84.335938 243.296875 86.066406 C 242.007812 87.796875 240.640625 89.460938 239.199219 91.066406 C 237.753906 92.667969 236.242188 94.199219 234.65625 95.660156 C 233.070312 97.121094 231.417969 98.503906 229.703125 99.8125 C 227.988281 101.121094 226.21875 102.34375 224.390625 103.488281 C 222.558594 104.628906 220.683594 105.6875 218.753906 106.652344 C 216.828125 107.621094 214.859375 108.496094 212.851562 109.28125 C 210.84375 110.066406 208.800781 110.753906 206.730469 111.347656 C 204.65625 111.945312 202.558594 112.441406 200.441406 112.839844 C 198.320312 113.238281 196.1875 113.539062 194.042969 113.738281 C 191.894531 113.9375 189.742188 114.039062 187.585938 114.039062 C 185.429688 114.039062 183.277344 113.9375 181.128906 113.738281 C 178.984375 113.539062 176.851562 113.238281 174.730469 112.839844 C 172.613281 112.441406 170.515625 111.945312 168.441406 111.347656 C 166.371094 110.753906 164.328125 110.066406 162.320312 109.28125 C 160.3125 108.496094 158.34375 107.621094 156.417969 106.652344 C 154.488281 105.6875 152.613281 104.628906 150.78125 103.488281 C 148.953125 102.34375 147.183594 101.121094 145.46875 99.8125 C 143.753906 98.503906 142.101562 97.121094 140.515625 95.660156 C 138.929688 94.199219 137.417969 92.667969 135.972656 91.066406 C 134.53125 89.460938 133.164062 87.796875 131.875 86.066406 C 130.589844 84.335938 129.382812 82.550781 128.261719 80.710938 C 127.140625 78.867188 126.105469 76.980469 125.160156 75.039062 C 124.214844 73.101562 123.359375 71.125 122.601562 69.109375 C 121.839844 67.089844 121.171875 65.042969 120.601562 62.960938 C 120.03125 60.882812 119.558594 58.78125 119.183594 56.65625 C 118.808594 54.535156 118.53125 52.398438 118.355469 50.25 L 100.691406 50.25 C 99.164062 50.246094 97.636719 50.335938 96.121094 50.523438 C 94.601562 50.710938 93.097656 50.996094 91.617188 51.371094 C 90.132812 51.746094 88.679688 52.210938 87.253906 52.769531 C 85.828125 53.328125 84.445312 53.972656 83.097656 54.703125 C 81.753906 55.433594 80.460938 56.246094 79.21875 57.140625 C 77.976562 58.03125 76.792969 59 75.671875 60.039062 C 74.550781 61.082031 73.5 62.1875 72.515625 63.359375 C 71.53125 64.53125 70.625 65.761719 69.796875 67.046875 L 22.664062 134.5625 C 22.070312 135.410156 21.5625 136.300781 21.132812 137.242188 C 20.703125 138.179688 20.363281 139.152344 20.109375 140.152344 C 19.855469 141.152344 19.695312 142.167969 19.625 143.199219 C 19.558594 144.230469 19.582031 145.257812 19.699219 146.285156 C 19.816406 147.3125 20.027344 148.320312 20.328125 149.304688 C 20.625 150.292969 21.015625 151.246094 21.488281 152.164062 C 21.960938 153.082031 22.511719 153.953125 23.144531 154.769531 C 23.773438 155.585938 24.472656 156.34375 25.242188 157.03125 L 70.890625 198.117188 L 83.3125 181.5625 L 83.3125 154.523438 L 94.898438 154.523438 L 94.898438 363.078125 L 233.9375 363.078125 L 233.9375 374.664062 L 94.898438 374.664062 L 94.898438 386.25 L 248.746094 386.25 C 246.621094 382.679688 245.546875 378.816406 245.523438 374.664062 L 245.523438 322.523438 C 245.527344 319.402344 245.796875 316.304688 246.339844 313.230469 C 246.878906 310.15625 247.683594 307.148438 248.746094 304.214844 C 249.808594 301.277344 251.113281 298.457031 252.667969 295.746094 C 254.21875 293.039062 255.996094 290.484375 257.992188 288.085938 L 274.746094 267.980469 L 280.328125 223.324219 C 280.375 222.976562 280.449219 222.636719 280.550781 222.300781 C 280.65625 221.96875 280.792969 221.644531 280.957031 221.335938 C 281.117188 221.027344 281.308594 220.734375 281.527344 220.460938 C 281.742188 220.183594 281.980469 219.929688 282.242188 219.699219 C 282.507812 219.46875 282.789062 219.261719 283.085938 219.082031 C 283.386719 218.898438 283.699219 218.746094 284.027344 218.625 C 284.355469 218.5 284.691406 218.40625 285.035156 218.34375 C 285.378906 218.28125 285.726562 218.25 286.078125 218.25 L 286.078125 204.148438 L 273.660156 196.699219 C 272.859375 202.164062 271.46875 207.472656 269.492188 212.628906 C 267.511719 217.785156 264.992188 222.660156 261.929688 227.257812 L 252.289062 220.828125 C 255.324219 216.238281 257.714844 211.339844 259.464844 206.125 C 261.214844 200.910156 262.261719 195.558594 262.609375 190.070312 L 261.300781 189.28125 L 245.523438 189.28125 C 245.144531 189.28125 244.765625 189.246094 244.394531 189.171875 C 244.019531 189.097656 243.660156 188.988281 243.308594 188.84375 C 242.957031 188.695312 242.621094 188.519531 242.304688 188.308594 C 241.988281 188.09375 241.695312 187.855469 241.425781 187.585938 C 241.160156 187.316406 240.917969 187.023438 240.707031 186.707031 C 240.496094 186.390625 240.316406 186.058594 240.171875 185.707031 C 240.027344 185.355469 239.917969 184.992188 239.84375 184.621094 C 239.769531 184.246094 239.730469 183.871094 239.730469 183.488281 L 239.730469 160.316406 C 239.730469 159.9375 239.769531 159.558594 239.84375 159.1875 C 239.917969 158.8125 240.027344 158.453125 240.171875 158.101562 C 240.316406 157.75 240.496094 157.414062 240.707031 157.097656 C 240.917969 156.78125 241.160156 156.488281 241.425781 156.222656 C 241.695312 155.953125 241.988281 155.710938 242.304688 155.5 C 242.621094 155.289062 242.957031 155.109375 243.308594 154.964844 C 243.660156 154.820312 244.019531 154.710938 244.394531 154.636719 C 244.765625 154.5625 245.144531 154.523438 245.523438 154.523438 L 306.515625 154.523438 C 309.472656 154.523438 312.40625 154.796875 315.316406 155.34375 C 318.222656 155.890625 321.054688 156.703125 323.808594 157.78125 C 326.566406 158.859375 329.195312 160.1875 331.703125 161.757812 C 334.210938 163.328125 336.546875 165.121094 338.71875 167.128906 L 349.941406 157.03125 C 350.710938 156.34375 351.410156 155.585938 352.039062 154.769531 C 352.671875 153.953125 353.222656 153.082031 353.695312 152.164062 C 354.167969 151.246094 354.554688 150.292969 354.855469 149.308594 C 355.15625 148.320312 355.367188 147.3125 355.484375 146.285156 C 355.601562 145.257812 355.625 144.230469 355.558594 143.199219 C 355.488281 142.167969 355.328125 141.152344 355.074219 140.152344 C 354.820312 139.152344 354.480469 138.179688 354.050781 137.242188 C 353.621094 136.300781 353.109375 135.410156 352.519531 134.5625 Z M 187.589844 166.109375 L 210.765625 166.109375 L 210.765625 177.695312 L 187.589844 177.695312 Z M 211.238281 266.515625 C 210.242188 267.507812 209.355469 268.589844 208.570312 269.757812 C 207.789062 270.921875 207.128906 272.15625 206.589844 273.457031 C 206.054688 274.753906 205.648438 276.09375 205.375 277.472656 C 205.101562 278.851562 204.96875 280.242188 204.972656 281.648438 L 204.972656 310.109375 C 204.972656 311.25 204.867188 312.382812 204.65625 313.507812 C 204.445312 314.628906 204.132812 315.722656 203.714844 316.785156 C 203.300781 317.847656 202.789062 318.863281 202.179688 319.832031 C 201.570312 320.796875 200.878906 321.699219 200.101562 322.535156 C 199.324219 323.371094 198.476562 324.128906 197.554688 324.804688 C 196.636719 325.480469 195.660156 326.066406 194.628906 326.558594 C 193.601562 327.054688 192.53125 327.445312 191.429688 327.738281 C 190.324219 328.03125 189.203125 328.21875 188.0625 328.300781 C 186.925781 328.378906 185.789062 328.355469 184.652344 328.222656 C 183.519531 328.089844 182.40625 327.851562 181.316406 327.511719 C 180.226562 327.167969 179.179688 326.726562 178.171875 326.1875 C 177.167969 325.648438 176.21875 325.019531 175.332031 324.300781 C 174.441406 323.585938 173.628906 322.789062 172.890625 321.917969 C 172.152344 321.046875 171.5 320.117188 170.9375 319.125 C 170.371094 318.128906 169.90625 317.09375 169.539062 316.011719 C 169.171875 314.929688 168.90625 313.824219 168.746094 312.695312 L 166.140625 294.441406 C 166.070312 293.980469 165.964844 293.53125 165.816406 293.09375 C 165.667969 292.652344 165.484375 292.230469 165.261719 291.824219 C 165.039062 291.417969 164.78125 291.035156 164.492188 290.671875 C 164.199219 290.3125 163.878906 289.980469 163.53125 289.675781 C 163.179688 289.371094 162.804688 289.101562 162.40625 288.863281 C 162.007812 288.628906 161.59375 288.425781 161.160156 288.265625 C 160.726562 288.101562 160.28125 287.976562 159.824219 287.894531 C 159.367188 287.8125 158.910156 287.769531 158.445312 287.765625 C 157.414062 287.765625 156.421875 287.960938 155.46875 288.355469 C 154.515625 288.753906 153.675781 289.316406 152.949219 290.046875 L 138.308594 304.6875 C 137.246094 305.757812 136.058594 306.660156 134.746094 307.398438 C 133.429688 308.132812 132.039062 308.675781 130.574219 309.019531 C 129.105469 309.367188 127.621094 309.503906 126.117188 309.433594 C 124.609375 309.363281 123.144531 309.085938 121.714844 308.605469 C 120.882812 308.324219 120.066406 308 119.269531 307.625 C 118.472656 307.25 117.703125 306.832031 116.957031 306.363281 C 116.210938 305.898438 115.492188 305.390625 114.808594 304.839844 C 114.121094 304.289062 113.46875 303.699219 112.855469 303.070312 C 112.238281 302.445312 111.660156 301.78125 111.125 301.085938 C 110.585938 300.390625 110.089844 299.664062 109.640625 298.910156 C 109.1875 298.152344 108.78125 297.375 108.421875 296.574219 C 108.0625 295.769531 107.753906 294.949219 107.488281 294.109375 C 107.226562 293.269531 107.015625 292.414062 106.855469 291.550781 C 106.695312 290.6875 106.585938 289.816406 106.527344 288.9375 C 106.46875 288.058594 106.464844 287.179688 106.507812 286.300781 C 106.554688 285.421875 106.652344 284.550781 106.804688 283.683594 C 106.953125 282.816406 107.152344 281.960938 107.40625 281.117188 C 107.65625 280.277344 107.957031 279.449219 108.304688 278.644531 C 108.652344 277.835938 109.050781 277.050781 109.492188 276.289062 C 109.933594 275.53125 110.417969 274.796875 110.945312 274.09375 L 115.875 266.335938 C 116.59375 265.210938 117.140625 264.007812 117.511719 262.726562 C 117.886719 261.445312 118.070312 260.136719 118.066406 258.800781 C 118.0625 257.464844 117.875 256.160156 117.496094 254.878906 C 117.117188 253.597656 116.566406 252.398438 115.84375 251.273438 L 110.050781 242.261719 C 108.886719 240.667969 108 238.933594 107.390625 237.054688 C 106.78125 235.179688 106.480469 233.253906 106.484375 231.28125 C 106.488281 230.667969 106.519531 230.050781 106.578125 229.4375 C 106.640625 228.824219 106.730469 228.214844 106.851562 227.613281 C 106.972656 227.007812 107.121094 226.410156 107.300781 225.820312 C 107.480469 225.230469 107.6875 224.652344 107.925781 224.082031 C 108.160156 223.511719 108.425781 222.957031 108.714844 222.414062 C 109.007812 221.867188 109.324219 221.339844 109.667969 220.828125 C 110.007812 220.316406 110.375 219.820312 110.765625 219.34375 C 111.15625 218.867188 111.570312 218.414062 112.007812 217.976562 C 112.441406 217.539062 112.898438 217.128906 113.375 216.734375 C 113.851562 216.34375 114.347656 215.976562 114.859375 215.636719 C 115.371094 215.292969 115.898438 214.976562 116.441406 214.683594 C 116.988281 214.394531 117.542969 214.132812 118.113281 213.894531 C 118.683594 213.660156 119.261719 213.449219 119.851562 213.269531 C 120.441406 213.09375 121.039062 212.941406 121.640625 212.820312 C 122.246094 212.699219 122.855469 212.609375 123.46875 212.546875 C 124.082031 212.488281 124.699219 212.457031 125.3125 212.457031 C 127.359375 212.460938 129.371094 212.726562 131.347656 213.25 C 133.324219 213.773438 135.203125 214.539062 136.980469 215.546875 C 138.761719 216.554688 140.382812 217.773438 141.851562 219.199219 C 143.316406 220.621094 144.578125 222.210938 145.636719 223.960938 C 145.734375 224.140625 145.832031 224.3125 145.921875 224.492188 L 153.898438 241.578125 C 154.292969 242.417969 154.792969 243.1875 155.40625 243.886719 C 156.019531 244.582031 156.71875 245.179688 157.5 245.679688 C 158.28125 246.179688 159.117188 246.558594 160.011719 246.820312 C 160.902344 247.082031 161.808594 247.210938 162.738281 247.214844 C 164.21875 247.21875 165.628906 246.898438 166.964844 246.257812 C 168.300781 245.613281 169.429688 244.714844 170.351562 243.554688 L 184.15625 226.296875 C 184.84375 225.429688 185.597656 224.625 186.410156 223.878906 C 187.222656 223.128906 188.089844 222.449219 189.007812 221.835938 C 189.925781 221.222656 190.886719 220.679688 191.890625 220.214844 C 192.890625 219.75 193.925781 219.367188 194.988281 219.058594 C 196.046875 218.753906 197.128906 218.53125 198.222656 218.394531 C 199.320312 218.253906 200.421875 218.199219 201.523438 218.230469 C 202.628906 218.261719 203.726562 218.378906 204.8125 218.582031 C 205.898438 218.78125 206.964844 219.0625 208.007812 219.429688 C 209.050781 219.796875 210.058594 220.238281 211.03125 220.761719 C 212.007812 221.28125 212.933594 221.875 213.816406 222.539062 C 214.699219 223.207031 215.527344 223.933594 216.296875 224.726562 C 217.066406 225.519531 217.769531 226.367188 218.410156 227.269531 C 219.046875 228.171875 219.613281 229.117188 220.105469 230.105469 C 220.597656 231.09375 221.011719 232.117188 221.34375 233.167969 C 221.679688 234.222656 221.929688 235.296875 222.101562 236.386719 C 222.269531 237.480469 222.351562 238.578125 222.351562 239.683594 C 222.34375 242.171875 222.097656 244.640625 221.609375 247.082031 C 221.121094 249.523438 220.398438 251.894531 219.445312 254.195312 C 218.492188 256.5 217.324219 258.683594 215.945312 260.757812 C 214.5625 262.832031 212.996094 264.75 211.238281 266.515625 Z M 209.066406 210.757812 L 200.875 202.566406 L 224.046875 179.394531 L 232.238281 187.585938 Z M 224.046875 164.414062 L 200.875 141.242188 L 209.066406 133.050781 L 232.238281 156.222656 Z M 224.046875 164.414062 " fill-opacity="1" fill-rule="nonzero"/></g><path fill="#000000" d="M 200.914062 229.835938 C 199.417969 229.828125 197.992188 230.152344 196.636719 230.800781 C 195.285156 231.449219 194.144531 232.363281 193.210938 233.535156 L 179.410156 250.789062 C 179.128906 251.140625 178.835938 251.484375 178.53125 251.820312 C 178.230469 252.152344 177.914062 252.476562 177.589844 252.789062 C 177.265625 253.105469 176.929688 253.410156 176.585938 253.703125 C 176.242188 253.996094 175.890625 254.277344 175.53125 254.546875 C 175.167969 254.816406 174.796875 255.074219 174.417969 255.324219 C 174.042969 255.570312 173.65625 255.804688 173.261719 256.027344 C 172.871094 256.25 172.46875 256.460938 172.0625 256.65625 C 171.65625 256.855469 171.246094 257.039062 170.828125 257.210938 C 170.410156 257.378906 169.988281 257.539062 169.558594 257.683594 C 169.132812 257.828125 168.699219 257.957031 168.261719 258.074219 C 167.828125 258.191406 167.386719 258.292969 166.945312 258.382812 C 166.5 258.472656 166.054688 258.546875 165.609375 258.605469 C 165.160156 258.667969 164.710938 258.714844 164.261719 258.746094 C 163.8125 258.777344 163.359375 258.796875 162.910156 258.796875 C 162.457031 258.800781 162.003906 258.789062 161.554688 258.765625 C 161.105469 258.742188 160.652344 258.699219 160.207031 258.648438 C 159.757812 258.59375 159.3125 258.527344 158.867188 258.445312 C 158.421875 258.363281 157.980469 258.265625 157.542969 258.15625 C 157.105469 258.046875 156.671875 257.921875 156.242188 257.785156 C 155.8125 257.644531 155.386719 257.496094 154.964844 257.332031 C 154.542969 257.164062 154.128906 256.988281 153.71875 256.796875 C 153.3125 256.605469 152.910156 256.402344 152.511719 256.1875 C 152.117188 255.96875 151.726562 255.742188 151.34375 255.5 C 150.964844 255.257812 150.589844 255.003906 150.222656 254.738281 C 149.859375 254.476562 149.5 254.199219 149.152344 253.910156 C 148.804688 253.625 148.464844 253.324219 148.136719 253.015625 C 147.808594 252.707031 147.488281 252.386719 147.179688 252.058594 C 146.871094 251.730469 146.570312 251.390625 146.285156 251.042969 C 145.996094 250.691406 145.722656 250.335938 145.457031 249.96875 C 145.191406 249.605469 144.9375 249.230469 144.699219 248.847656 C 144.457031 248.46875 144.226562 248.078125 144.011719 247.679688 C 143.796875 247.285156 143.589844 246.882812 143.402344 246.472656 L 135.566406 229.671875 C 135.019531 228.808594 134.371094 228.03125 133.625 227.332031 C 132.878906 226.632812 132.058594 226.035156 131.164062 225.542969 C 130.265625 225.050781 129.324219 224.679688 128.332031 224.425781 C 127.34375 224.167969 126.335938 224.042969 125.3125 224.042969 C 124.640625 224.039062 123.980469 224.132812 123.332031 224.316406 C 122.6875 224.496094 122.074219 224.765625 121.503906 225.121094 C 120.929688 225.472656 120.417969 225.898438 119.964844 226.394531 C 119.507812 226.890625 119.132812 227.441406 118.832031 228.042969 C 118.53125 228.644531 118.316406 229.273438 118.191406 229.9375 C 118.066406 230.597656 118.035156 231.261719 118.097656 231.933594 C 118.15625 232.601562 118.308594 233.25 118.550781 233.878906 C 118.792969 234.507812 119.117188 235.089844 119.519531 235.628906 L 125.605469 244.976562 C 126.265625 246 126.847656 247.0625 127.355469 248.171875 C 127.863281 249.277344 128.292969 250.414062 128.636719 251.578125 C 128.980469 252.746094 129.242188 253.929688 129.417969 255.136719 C 129.59375 256.339844 129.683594 257.550781 129.6875 258.765625 C 129.691406 259.984375 129.609375 261.195312 129.4375 262.398438 C 129.265625 263.605469 129.011719 264.792969 128.671875 265.960938 C 128.332031 267.128906 127.910156 268.265625 127.410156 269.375 C 126.90625 270.484375 126.328125 271.550781 125.671875 272.578125 L 120.488281 280.6875 C 119.726562 281.65625 119.136719 282.71875 118.726562 283.878906 C 118.3125 285.042969 118.09375 286.238281 118.074219 287.46875 C 118.074219 288.59375 118.246094 289.6875 118.589844 290.753906 C 118.933594 291.824219 119.433594 292.8125 120.089844 293.722656 C 120.746094 294.632812 121.527344 295.417969 122.429688 296.085938 C 123.335938 296.75 124.320312 297.257812 125.382812 297.613281 C 125.789062 297.753906 126.210938 297.832031 126.640625 297.851562 C 127.066406 297.871094 127.492188 297.832031 127.910156 297.734375 C 128.328125 297.636719 128.726562 297.480469 129.101562 297.269531 C 129.476562 297.058594 129.8125 296.800781 130.117188 296.496094 L 144.757812 281.851562 C 145.386719 281.21875 146.0625 280.632812 146.773438 280.09375 C 147.488281 279.554688 148.234375 279.066406 149.015625 278.628906 C 149.796875 278.195312 150.605469 277.8125 151.441406 277.488281 C 152.273438 277.164062 153.125 276.902344 153.996094 276.695312 C 154.867188 276.488281 155.75 276.34375 156.640625 276.261719 C 157.53125 276.175781 158.421875 276.15625 159.316406 276.195312 C 160.210938 276.234375 161.097656 276.335938 161.976562 276.5 C 162.855469 276.664062 163.71875 276.886719 164.566406 277.167969 C 165.417969 277.453125 166.242188 277.792969 167.042969 278.191406 C 167.84375 278.585938 168.613281 279.039062 169.355469 279.542969 C 170.09375 280.046875 170.792969 280.597656 171.457031 281.199219 C 172.117188 281.800781 172.738281 282.445312 173.308594 283.132812 C 173.882812 283.820312 174.40625 284.542969 174.878906 285.300781 C 175.351562 286.0625 175.769531 286.847656 176.132812 287.667969 C 176.496094 288.484375 176.800781 289.324219 177.050781 290.183594 C 177.296875 291.042969 177.484375 291.914062 177.609375 292.800781 L 180.222656 311.054688 C 180.28125 311.464844 180.378906 311.863281 180.515625 312.253906 C 180.648438 312.648438 180.820312 313.023438 181.027344 313.382812 C 181.230469 313.742188 181.46875 314.078125 181.738281 314.394531 C 182.003906 314.707031 182.300781 314.996094 182.625 315.253906 C 182.945312 315.511719 183.289062 315.742188 183.65625 315.933594 C 184.019531 316.128906 184.402344 316.289062 184.796875 316.414062 C 185.191406 316.535156 185.59375 316.621094 186.007812 316.667969 C 186.417969 316.71875 186.828125 316.726562 187.242188 316.695312 C 187.65625 316.667969 188.0625 316.597656 188.460938 316.492188 C 188.863281 316.386719 189.25 316.246094 189.621094 316.066406 C 189.996094 315.886719 190.347656 315.675781 190.683594 315.429688 C 191.015625 315.1875 191.324219 314.914062 191.605469 314.609375 C 191.890625 314.308594 192.140625 313.980469 192.363281 313.628906 C 192.582031 313.28125 192.769531 312.914062 192.921875 312.527344 C 193.074219 312.144531 193.1875 311.746094 193.265625 311.339844 C 193.34375 310.933594 193.382812 310.523438 193.386719 310.109375 L 193.386719 281.648438 C 193.378906 279.480469 193.585938 277.335938 194.007812 275.210938 C 194.425781 273.085938 195.050781 271.019531 195.882812 269.019531 C 196.710938 267.019531 197.726562 265.117188 198.933594 263.316406 C 200.140625 261.515625 201.511719 259.851562 203.046875 258.324219 C 204.269531 257.097656 205.355469 255.765625 206.316406 254.324219 C 207.273438 252.882812 208.085938 251.363281 208.746094 249.765625 C 209.410156 248.167969 209.910156 246.519531 210.25 244.824219 C 210.589844 243.125 210.761719 241.414062 210.765625 239.683594 C 210.765625 239.035156 210.703125 238.394531 210.574219 237.761719 C 210.449219 237.128906 210.261719 236.511719 210.015625 235.914062 C 209.765625 235.316406 209.464844 234.75 209.105469 234.210938 C 208.746094 233.675781 208.335938 233.175781 207.878906 232.71875 C 207.421875 232.261719 206.925781 231.855469 206.386719 231.496094 C 205.851562 231.136719 205.28125 230.832031 204.683594 230.585938 C 204.085938 230.335938 203.472656 230.148438 202.835938 230.023438 C 202.203125 229.898438 201.5625 229.835938 200.914062 229.835938 Z M 200.914062 229.835938 " fill-opacity="1" fill-rule="nonzero"/></svg>