<svg xmlns="http://www.w3.org/2000/svg" xmlns:xlink="http://www.w3.org/1999/xlink" width="1500" zoomAndPan="magnify" viewBox="0 0 1125 749.999995" height="1000" preserveAspectRatio="xMidYMid meet" version="1.0"><defs><clipPath id="1a4cc2e8c7"><path d="M 57.449219 2 L 1067.699219 2 L 1067.699219 728 L 57.449219 728 Z M 57.449219 2 " clip-rule="nonzero"/></clipPath></defs><g clip-path="url(#1a4cc2e8c7)"><path fill="#067381" d="M 694.96875 585.261719 C 706.667969 585.261719 717.835938 584.726562 728.46875 583.132812 C 740.699219 581.539062 750.269531 573.03125 753.457031 561.335938 C 756.648438 549.640625 753.457031 537.414062 743.886719 529.4375 L 696.566406 489.035156 C 690.183594 483.71875 686.464844 476.277344 685.929688 467.769531 C 685.398438 459.261719 688.058594 451.820312 693.375 445.441406 L 750.800781 381.113281 C 756.648438 374.734375 763.5625 371.542969 772.070312 371.011719 C 780.574219 370.480469 788.019531 373.140625 794.398438 378.988281 L 851.824219 430.554688 C 860.332031 438 871.5 440.65625 882.132812 436.933594 C 892.765625 433.214844 900.210938 424.707031 902.335938 413.542969 C 910.3125 368.886719 906.589844 319.445312 890.640625 279.039062 C 821.515625 101.476562 569.488281 94.035156 497.707031 277.445312 C 466.335938 357.191406 481.753906 456.605469 541.835938 519.871094 C 581.714844 562.398438 634.886719 585.261719 694.96875 585.261719 Z M 74.464844 415.136719 L 240.359375 415.136719 C 249.929688 415.136719 257.371094 422.582031 257.371094 432.148438 C 257.371094 441.71875 249.929688 449.164062 240.359375 449.164062 L 74.464844 449.164062 C 64.894531 449.164062 57.449219 441.71875 57.449219 432.148438 C 57.449219 422.582031 64.894531 415.136719 74.464844 415.136719 Z M 178.148438 483.1875 L 206.328125 483.1875 C 215.898438 483.1875 223.34375 490.628906 223.34375 500.199219 C 223.34375 509.769531 215.898438 517.210938 206.328125 517.210938 L 178.148438 517.210938 C 168.578125 517.210938 161.132812 509.769531 161.132812 500.199219 C 161.132812 491.160156 168.578125 483.1875 178.148438 483.1875 Z M 324.367188 687.863281 L 412.101562 687.863281 C 421.671875 687.863281 429.113281 695.308594 429.113281 704.875 C 429.113281 714.445312 421.671875 721.890625 412.101562 721.890625 L 324.367188 721.890625 C 314.796875 721.890625 307.351562 714.445312 307.351562 704.875 C 306.820312 695.839844 314.796875 687.863281 324.367188 687.863281 Z M 253.652344 551.765625 L 321.179688 551.765625 C 330.75 551.765625 338.191406 559.210938 338.191406 568.777344 C 338.191406 578.347656 330.75 585.792969 321.179688 585.792969 L 253.652344 585.792969 C 244.078125 585.792969 236.636719 578.347656 236.636719 568.777344 C 236.636719 559.210938 244.078125 551.765625 253.652344 551.765625 Z M 234.507812 278.507812 L 275.984375 278.507812 C 285.554688 278.507812 292.996094 285.953125 292.996094 295.519531 C 292.996094 305.089844 285.554688 312.535156 275.984375 312.535156 L 234.507812 312.535156 C 224.9375 312.535156 217.496094 305.089844 217.496094 295.519531 C 217.496094 285.953125 225.46875 278.507812 234.507812 278.507812 Z M 175.488281 346.558594 L 254.714844 346.558594 C 264.285156 346.558594 271.730469 354 271.730469 363.570312 C 271.730469 373.140625 264.285156 380.582031 254.714844 380.582031 L 175.488281 380.582031 C 165.917969 380.582031 158.472656 373.140625 158.472656 363.570312 C 158.472656 354.53125 166.449219 346.558594 175.488281 346.558594 Z M 373.285156 619.816406 L 436.027344 619.816406 C 445.597656 619.816406 453.042969 612.371094 453.042969 602.804688 C 453.042969 593.234375 445.597656 585.792969 436.027344 585.792969 L 370.628906 585.792969 C 361.054688 585.792969 353.613281 578.347656 353.613281 568.78125 C 353.613281 559.210938 361.054688 551.765625 370.628906 551.765625 L 410.503906 551.765625 C 420.074219 551.765625 427.519531 544.324219 427.519531 534.753906 C 427.519531 525.1875 420.074219 517.742188 410.503906 517.742188 L 333.9375 517.742188 C 324.367188 517.742188 316.925781 510.300781 316.925781 500.730469 C 316.925781 491.160156 324.367188 483.71875 333.9375 483.71875 L 472.183594 483.71875 C 481.753906 483.71875 489.199219 476.277344 489.199219 466.707031 C 489.199219 457.136719 481.753906 449.695312 472.183594 449.695312 L 305.757812 449.695312 C 296.1875 449.695312 288.742188 442.25 288.742188 432.683594 C 288.742188 423.113281 296.1875 415.671875 305.757812 415.671875 L 358.398438 415.671875 C 367.96875 415.671875 375.414062 408.226562 375.414062 398.65625 C 375.414062 389.089844 367.96875 381.644531 358.398438 381.644531 L 303.101562 381.644531 C 293.527344 381.644531 286.085938 374.203125 286.085938 364.632812 C 286.085938 355.0625 293.527344 347.621094 303.101562 347.621094 L 359.992188 347.621094 C 369.5625 347.621094 377.007812 340.179688 377.007812 330.609375 C 377.007812 321.039062 369.5625 313.597656 359.992188 313.597656 L 323.835938 313.597656 C 314.796875 313.066406 307.351562 305.621094 307.351562 296.585938 C 307.351562 287.015625 314.796875 279.574219 324.367188 279.574219 L 428.050781 279.574219 C 437.621094 279.574219 445.066406 272.128906 445.066406 262.558594 C 445.066406 252.992188 437.621094 245.546875 428.050781 245.546875 L 300.441406 245.546875 C 290.871094 245.546875 283.425781 238.105469 283.425781 228.535156 C 283.425781 218.964844 290.871094 211.523438 300.441406 211.523438 L 405.1875 211.523438 C 414.757812 211.523438 422.203125 204.082031 422.203125 194.511719 C 422.203125 186.003906 415.824219 179.09375 407.847656 177.5 L 359.992188 177.5 C 350.421875 177.5 342.976562 170.058594 342.976562 160.488281 C 342.976562 150.917969 350.421875 143.476562 359.992188 143.476562 L 473.246094 143.476562 C 474.84375 143.476562 475.90625 143.476562 477.5 144.007812 C 486.539062 143.476562 493.453125 136.03125 493.453125 126.996094 C 493.453125 118.488281 487.070312 111.578125 479.097656 109.984375 L 423.265625 109.984375 C 413.695312 109.984375 406.25 102.539062 406.25 92.96875 C 406.25 83.402344 413.695312 75.957031 423.265625 75.957031 L 518.441406 75.957031 C 528.011719 75.957031 535.457031 68.515625 535.457031 58.945312 C 535.457031 50.441406 529.078125 43.527344 521.101562 41.933594 L 474.308594 41.933594 C 464.738281 41.933594 457.296875 34.492188 457.296875 24.921875 C 457.296875 15.351562 464.738281 7.910156 474.308594 7.910156 C 548.75 7.910156 622.65625 2.0625 694.96875 2.0625 C 902.871094 0.464844 1067.699219 152.511719 1067.699219 364.101562 C 1067.699219 428.429688 1050.683594 490.097656 1018.78125 544.324219 C 1011.339844 557.082031 1013.996094 573.5625 1025.164062 583.132812 L 1053.34375 607.058594 C 1059.722656 612.371094 1063.445312 619.816406 1063.976562 628.320312 C 1064.507812 636.828125 1061.851562 644.269531 1056 650.648438 L 999.109375 713.914062 C 987.941406 726.140625 968.269531 727.203125 956.039062 716.039062 L 918.289062 682.015625 C 908.1875 672.980469 894.363281 671.382812 882.664062 678.296875 C 756.117188 749.535156 612.023438 721.890625 470.589844 721.890625 C 461.019531 721.890625 453.574219 714.445312 453.574219 704.875 C 453.574219 695.308594 461.019531 687.863281 470.589844 687.863281 L 518.972656 687.863281 C 527.480469 686.800781 534.394531 679.890625 534.394531 670.851562 C 534.394531 661.28125 526.949219 653.839844 517.378906 653.839844 L 373.285156 653.839844 C 363.714844 653.839844 356.269531 646.398438 356.269531 636.828125 C 356.269531 627.257812 364.246094 619.816406 373.285156 619.816406 Z M 359.992188 74.363281 L 375.414062 74.363281 C 384.984375 74.363281 392.425781 81.804688 392.425781 91.375 C 392.425781 100.945312 384.984375 108.386719 375.414062 108.386719 L 359.992188 108.386719 C 350.421875 108.386719 342.976562 100.945312 342.976562 91.375 C 342.976562 81.804688 350.421875 74.363281 359.992188 74.363281 Z M 369.5625 6.3125 L 431.773438 6.3125 C 441.34375 6.3125 448.789062 13.757812 448.789062 23.328125 C 448.789062 32.894531 441.34375 40.339844 431.773438 40.339844 L 369.5625 40.339844 C 359.992188 40.339844 352.550781 32.894531 352.550781 23.328125 C 352.550781 13.757812 360.523438 6.3125 369.5625 6.3125 Z M 232.914062 141.878906 L 312.671875 141.878906 C 322.242188 141.878906 329.683594 149.324219 329.683594 158.890625 C 329.683594 168.460938 322.242188 175.90625 312.671875 175.90625 L 232.914062 175.90625 C 223.34375 175.90625 215.898438 168.460938 215.898438 158.890625 C 215.898438 149.855469 223.34375 141.878906 232.914062 141.878906 Z M 264.816406 483.1875 L 286.617188 483.1875 C 296.1875 483.1875 303.632812 490.628906 303.632812 500.199219 C 303.632812 509.769531 296.1875 517.210938 286.617188 517.210938 L 264.816406 517.210938 C 255.246094 517.210938 247.800781 509.769531 247.800781 500.199219 C 247.800781 491.160156 255.777344 483.1875 264.816406 483.1875 Z M 264.816406 483.1875 " fill-opacity="1" fill-rule="evenodd"/></g></svg>