<svg xmlns="http://www.w3.org/2000/svg" xmlns:xlink="http://www.w3.org/1999/xlink" width="559" zoomAndPan="magnify" viewBox="0 0 419.25 297.75" height="396" preserveAspectRatio="xMidYMid meet" version="1.0"><defs><g/><clipPath id="2c3b77c438"><path d="M 0 0.140625 L 418.5 0.140625 L 418.5 297.359375 L 0 297.359375 Z M 0 0.140625 " clip-rule="nonzero"/></clipPath></defs><g clip-path="url(#2c3b77c438)"><path fill="#ffffff" d="M 0 0.140625 L 421.246094 0.140625 L 421.246094 305.957031 L 0 305.957031 Z M 0 0.140625 " fill-opacity="1" fill-rule="nonzero"/><path fill="#ffffff" d="M 0 0.140625 L 418.996094 0.140625 L 418.996094 297.710938 L 0 297.710938 Z M 0 0.140625 " fill-opacity="1" fill-rule="nonzero"/><path fill="#ffffff" d="M 0 0.140625 L 418.996094 0.140625 L 418.996094 297.710938 L 0 297.710938 Z M 0 0.140625 " fill-opacity="1" fill-rule="nonzero"/></g><g fill="#000000" fill-opacity="1"><g transform="translate(11.54286, 131.723169)"><g><path d="M 13.765625 9.125 L 11.390625 5.546875 C 11.503906 5.398438 11.644531 5.222656 11.8125 5.015625 C 11.988281 4.804688 12.359375 4.410156 12.921875 3.828125 C 13.484375 3.242188 14.03125 2.734375 14.5625 2.296875 C 15.09375 1.859375 15.707031 1.460938 16.40625 1.109375 C 17.113281 0.753906 17.765625 0.578125 18.359375 0.578125 L 18.359375 0.375 C 13.222656 -0.613281 9.082031 -3.144531 5.9375 -7.21875 C 2.789062 -11.300781 1.21875 -16.160156 1.21875 -21.796875 C 1.21875 -28.128906 3.328125 -33.46875 7.546875 -37.8125 C 11.765625 -42.15625 16.882812 -44.328125 22.90625 -44.328125 C 28.945312 -44.328125 34.0625 -42.15625 38.25 -37.8125 C 42.4375 -33.46875 44.53125 -28.128906 44.53125 -21.796875 C 44.53125 -16.617188 43.140625 -12.0625 40.359375 -8.125 C 37.585938 -4.1875 33.929688 -1.53125 29.390625 -0.15625 L 29.390625 0.046875 C 29.597656 0.046875 30.53125 0.210938 32.1875 0.546875 C 33.84375 0.890625 35.160156 1.0625 36.140625 1.0625 C 37.484375 1.0625 38.695312 0.820312 39.78125 0.34375 C 40.875 -0.132812 41.628906 -0.601562 42.046875 -1.0625 L 42.6875 -1.796875 L 45.796875 4.90625 C 45.722656 5.082031 45.609375 5.300781 45.453125 5.5625 C 45.296875 5.832031 44.9375 6.300781 44.375 6.96875 C 43.8125 7.632812 43.1875 8.226562 42.5 8.75 C 41.8125 9.28125 40.894531 9.753906 39.75 10.171875 C 38.613281 10.597656 37.394531 10.8125 36.09375 10.8125 C 33.945312 10.8125 31.328125 10.125 28.234375 8.75 C 25.140625 7.382812 22.460938 6.703125 20.203125 6.703125 C 18.972656 6.703125 17.820312 6.90625 16.75 7.3125 C 15.675781 7.71875 14.910156 8.128906 14.453125 8.546875 Z M 11.921875 -21.796875 C 11.921875 -20.109375 12.113281 -18.53125 12.5 -17.0625 C 12.882812 -15.601562 13.488281 -14.273438 14.3125 -13.078125 C 15.144531 -11.890625 16.289062 -10.953125 17.75 -10.265625 C 19.21875 -9.578125 20.9375 -9.234375 22.90625 -9.234375 C 26.59375 -9.234375 29.332031 -10.425781 31.125 -12.8125 C 32.925781 -15.207031 33.828125 -18.203125 33.828125 -21.796875 C 33.828125 -25.347656 32.910156 -28.328125 31.078125 -30.734375 C 29.242188 -33.140625 26.519531 -34.34375 22.90625 -34.34375 C 19.3125 -34.34375 16.582031 -33.128906 14.71875 -30.703125 C 12.851562 -28.273438 11.921875 -25.304688 11.921875 -21.796875 Z M 11.921875 -21.796875 "/></g></g></g><g fill="#000000" fill-opacity="1"><g transform="translate(54.648469, 131.723169)"><g><path d="M 36.625 -43.53125 L 36.625 -15.453125 C 36.625 -10.109375 35.179688 -6.0625 32.296875 -3.3125 C 29.410156 -0.570312 25.1875 0.796875 19.625 0.796875 C 14.070312 0.796875 9.851562 -0.570312 6.96875 -3.3125 C 4.082031 -6.0625 2.640625 -10.109375 2.640625 -15.453125 L 2.640625 -43.53125 L 12.5625 -43.53125 L 12.5625 -18.359375 C 12.5625 -14.835938 13.113281 -12.390625 14.21875 -11.015625 C 15.320312 -9.648438 17.125 -8.96875 19.625 -8.96875 C 22.125 -8.96875 23.925781 -9.648438 25.03125 -11.015625 C 26.144531 -12.390625 26.703125 -14.835938 26.703125 -18.359375 L 26.703125 -43.53125 Z M 36.625 -43.53125 "/></g></g></g><g fill="#000000" fill-opacity="1"><g transform="translate(91.264494, 131.723169)"><g><path d="M 13.078125 -43.53125 L 13.078125 0 L 3.171875 0 L 3.171875 -43.53125 Z M 13.078125 -43.53125 "/></g></g></g><g fill="#000000" fill-opacity="1"><g transform="translate(104.87679, 131.723169)"><g><path d="M 26.328125 -8.96875 C 27.835938 -8.96875 29.304688 -9.195312 30.734375 -9.65625 C 32.160156 -10.113281 33.207031 -10.550781 33.875 -10.96875 L 34.875 -11.65625 L 39.09375 -3.21875 C 38.957031 -3.113281 38.765625 -2.972656 38.515625 -2.796875 C 38.273438 -2.617188 37.703125 -2.289062 36.796875 -1.8125 C 35.898438 -1.34375 34.941406 -0.929688 33.921875 -0.578125 C 32.898438 -0.222656 31.5625 0.09375 29.90625 0.375 C 28.257812 0.65625 26.554688 0.796875 24.796875 0.796875 C 20.753906 0.796875 16.921875 -0.195312 13.296875 -2.1875 C 9.671875 -4.175781 6.75 -6.910156 4.53125 -10.390625 C 2.320312 -13.878906 1.21875 -17.644531 1.21875 -21.6875 C 1.21875 -24.75 1.867188 -27.6875 3.171875 -30.5 C 4.472656 -33.3125 6.203125 -35.71875 8.359375 -37.71875 C 10.523438 -39.726562 13.050781 -41.332031 15.9375 -42.53125 C 18.820312 -43.726562 21.773438 -44.328125 24.796875 -44.328125 C 27.609375 -44.328125 30.203125 -43.988281 32.578125 -43.3125 C 34.953125 -42.644531 36.632812 -41.976562 37.625 -41.3125 L 39.09375 -40.3125 L 34.875 -31.875 C 34.632812 -32.082031 34.265625 -32.332031 33.765625 -32.625 C 33.273438 -32.925781 32.289062 -33.320312 30.8125 -33.8125 C 29.332031 -34.3125 27.835938 -34.5625 26.328125 -34.5625 C 23.929688 -34.5625 21.785156 -34.171875 19.890625 -33.390625 C 17.992188 -32.617188 16.488281 -31.597656 15.375 -30.328125 C 14.269531 -29.066406 13.425781 -27.707031 12.84375 -26.25 C 12.269531 -24.789062 11.984375 -23.304688 11.984375 -21.796875 C 11.984375 -18.484375 13.222656 -15.515625 15.703125 -12.890625 C 18.179688 -10.273438 21.722656 -8.96875 26.328125 -8.96875 Z M 26.328125 -8.96875 "/></g></g></g><g fill="#000000" fill-opacity="1"><g transform="translate(141.967654, 131.723169)"><g><path d="M 42.796875 0 L 29.125 0 L 13.078125 -18.46875 L 13.078125 0 L 3.171875 0 L 3.171875 -43.53125 L 13.078125 -43.53125 L 13.078125 -25.75 L 28.015625 -43.53125 L 40.046875 -43.53125 L 22.53125 -22.90625 Z M 42.796875 0 "/></g></g></g><g fill="#000000" fill-opacity="1"><g transform="translate(180.852394, 131.723169)"><g/></g></g><g fill="#000000" fill-opacity="1"><g transform="translate(192.618065, 131.723169)"><g><path d="M 26.328125 -8.96875 C 27.835938 -8.96875 29.304688 -9.195312 30.734375 -9.65625 C 32.160156 -10.113281 33.207031 -10.550781 33.875 -10.96875 L 34.875 -11.65625 L 39.09375 -3.21875 C 38.957031 -3.113281 38.765625 -2.972656 38.515625 -2.796875 C 38.273438 -2.617188 37.703125 -2.289062 36.796875 -1.8125 C 35.898438 -1.34375 34.941406 -0.929688 33.921875 -0.578125 C 32.898438 -0.222656 31.5625 0.09375 29.90625 0.375 C 28.257812 0.65625 26.554688 0.796875 24.796875 0.796875 C 20.753906 0.796875 16.921875 -0.195312 13.296875 -2.1875 C 9.671875 -4.175781 6.75 -6.910156 4.53125 -10.390625 C 2.320312 -13.878906 1.21875 -17.644531 1.21875 -21.6875 C 1.21875 -24.75 1.867188 -27.6875 3.171875 -30.5 C 4.472656 -33.3125 6.203125 -35.71875 8.359375 -37.71875 C 10.523438 -39.726562 13.050781 -41.332031 15.9375 -42.53125 C 18.820312 -43.726562 21.773438 -44.328125 24.796875 -44.328125 C 27.609375 -44.328125 30.203125 -43.988281 32.578125 -43.3125 C 34.953125 -42.644531 36.632812 -41.976562 37.625 -41.3125 L 39.09375 -40.3125 L 34.875 -31.875 C 34.632812 -32.082031 34.265625 -32.332031 33.765625 -32.625 C 33.273438 -32.925781 32.289062 -33.320312 30.8125 -33.8125 C 29.332031 -34.3125 27.835938 -34.5625 26.328125 -34.5625 C 23.929688 -34.5625 21.785156 -34.171875 19.890625 -33.390625 C 17.992188 -32.617188 16.488281 -31.597656 15.375 -30.328125 C 14.269531 -29.066406 13.425781 -27.707031 12.84375 -26.25 C 12.269531 -24.789062 11.984375 -23.304688 11.984375 -21.796875 C 11.984375 -18.484375 13.222656 -15.515625 15.703125 -12.890625 C 18.179688 -10.273438 21.722656 -8.96875 26.328125 -8.96875 Z M 26.328125 -8.96875 "/></g></g></g><g fill="#000000" fill-opacity="1"><g transform="translate(229.708934, 131.723169)"><g><path d="M 13.078125 -43.53125 L 13.078125 -8.703125 L 28.078125 -8.703125 L 28.078125 0 L 3.171875 0 L 3.171875 -43.53125 Z M 13.078125 -43.53125 "/></g></g></g><g fill="#000000" fill-opacity="1"><g transform="translate(256.88076, 131.723169)"><g><path d="M 28.078125 -43.53125 L 28.078125 -34.828125 L 13.078125 -34.828125 L 13.078125 -26.171875 L 27.4375 -26.171875 L 27.4375 -17.46875 L 13.078125 -17.46875 L 13.078125 -8.703125 L 28.078125 -8.703125 L 28.078125 0 L 3.171875 0 L 3.171875 -43.53125 Z M 28.078125 -43.53125 "/></g></g></g><g fill="#000000" fill-opacity="1"><g transform="translate(284.844011, 131.723169)"><g><path d="M 25.28125 -43.53125 L 42.84375 0 L 32.1875 0 L 28.96875 -8.703125 L 12.40625 -8.703125 L 9.1875 0 L -1.484375 0 L 16.09375 -43.53125 Z M 25.59375 -17.40625 L 20.734375 -30.078125 L 20.625 -30.078125 L 15.78125 -17.40625 Z M 25.59375 -17.40625 "/></g></g></g><g fill="#000000" fill-opacity="1"><g transform="translate(323.570464, 131.723169)"><g><path d="M 13.078125 -27.015625 L 13.078125 0 L 3.171875 0 L 3.171875 -43.53125 L 13.078125 -43.53125 L 30.390625 -16.515625 L 30.5 -16.515625 L 30.5 -43.53125 L 40.421875 -43.53125 L 40.421875 0 L 30.5 0 L 13.1875 -27.015625 Z M 13.078125 -27.015625 "/></g></g></g><g fill="#000000" fill-opacity="1"><g transform="translate(364.512873, 131.723169)"><g><path d="M 9.1875 -11.296875 C 10.875 -11.296875 12.304688 -10.703125 13.484375 -9.515625 C 14.660156 -8.335938 15.25 -6.90625 15.25 -5.21875 C 15.25 -0.0195312 12.296875 5.023438 6.390625 9.921875 L 3.6875 7.703125 C 3.9375 7.492188 4.242188 7.175781 4.609375 6.75 C 4.984375 6.332031 5.53125 5.476562 6.25 4.1875 C 6.96875 2.90625 7.453125 1.613281 7.703125 0.3125 C 6.367188 0 5.28125 -0.65625 4.4375 -1.65625 C 3.59375 -2.664062 3.171875 -3.851562 3.171875 -5.21875 C 3.171875 -6.90625 3.757812 -8.335938 4.9375 -9.515625 C 6.113281 -10.703125 7.53125 -11.296875 9.1875 -11.296875 Z M 9.1875 -11.296875 "/></g></g></g><g fill="#000000" fill-opacity="1"><g transform="translate(29.74587, 170.385511)"><g><path d="M 5.78125 0 L 0.921875 0 C 0.785156 0 0.71875 -0.0625 0.71875 -0.1875 L 0.71875 -0.953125 C 0.71875 -1.066406 0.785156 -1.125 0.921875 -1.125 L 2.0625 -1.125 L 2.0625 -9.6875 L 0.921875 -9.6875 C 0.785156 -9.6875 0.71875 -9.742188 0.71875 -9.859375 L 0.71875 -10.640625 C 0.71875 -10.753906 0.785156 -10.8125 0.921875 -10.8125 L 5.765625 -10.8125 C 6.773438 -10.8125 7.554688 -10.546875 8.109375 -10.015625 C 8.671875 -9.484375 8.953125 -8.785156 8.953125 -7.921875 C 8.953125 -6.910156 8.503906 -6.15625 7.609375 -5.65625 C 8.890625 -5.28125 9.53125 -4.425781 9.53125 -3.09375 C 9.53125 -2.144531 9.21875 -1.390625 8.59375 -0.828125 C 7.96875 -0.273438 7.03125 0 5.78125 0 Z M 3.375 -1.125 L 5.671875 -1.125 C 6.472656 -1.125 7.09375 -1.289062 7.53125 -1.625 C 7.976562 -1.96875 8.203125 -2.488281 8.203125 -3.1875 C 8.203125 -4.445312 7.390625 -5.078125 5.765625 -5.078125 L 3.375 -5.078125 Z M 3.375 -6.0625 L 5.671875 -6.0625 C 6.203125 -6.070312 6.660156 -6.222656 7.046875 -6.515625 C 7.429688 -6.804688 7.625 -7.265625 7.625 -7.890625 C 7.625 -8.515625 7.421875 -8.96875 7.015625 -9.25 C 6.609375 -9.539062 6.109375 -9.6875 5.515625 -9.6875 L 3.375 -9.6875 Z M 3.375 -6.0625 "/></g></g></g><g fill="#000000" fill-opacity="1"><g transform="translate(40.751311, 170.385511)"><g><path d="M 8.921875 0 L 0.921875 0 C 0.785156 0 0.71875 -0.0625 0.71875 -0.1875 L 0.71875 -0.953125 C 0.71875 -1.066406 0.785156 -1.125 0.921875 -1.125 L 2.0625 -1.125 L 2.0625 -9.6875 L 0.921875 -9.6875 C 0.785156 -9.6875 0.71875 -9.742188 0.71875 -9.859375 L 0.71875 -10.640625 C 0.71875 -10.753906 0.785156 -10.8125 0.921875 -10.8125 L 8.921875 -10.8125 C 9.046875 -10.8125 9.109375 -10.753906 9.109375 -10.640625 L 9.109375 -8.203125 C 9.109375 -8.078125 9.046875 -8.015625 8.921875 -8.015625 L 8.109375 -8.015625 C 7.984375 -8.015625 7.921875 -8.078125 7.921875 -8.203125 L 7.921875 -9.6875 L 3.375 -9.6875 L 3.375 -5.953125 L 7.1875 -5.953125 C 7.3125 -5.953125 7.375 -5.890625 7.375 -5.765625 L 7.375 -5 C 7.375 -4.875 7.3125 -4.8125 7.1875 -4.8125 L 3.375 -4.8125 L 3.375 -1.125 L 7.90625 -1.125 L 7.90625 -2.609375 C 7.90625 -2.722656 7.972656 -2.78125 8.109375 -2.78125 L 8.921875 -2.78125 C 9.046875 -2.78125 9.109375 -2.722656 9.109375 -2.609375 L 9.109375 -0.1875 C 9.109375 -0.0625 9.046875 0 8.921875 0 Z M 8.921875 0 "/></g></g></g><g fill="#000000" fill-opacity="1"><g transform="translate(51.335204, 170.385511)"><g><path d="M 7.53125 0 L 3.90625 0 C 3.78125 0 3.71875 -0.0625 3.71875 -0.1875 L 3.71875 -0.953125 C 3.71875 -1.066406 3.78125 -1.125 3.90625 -1.125 L 5.0625 -1.125 L 5.0625 -4.359375 L 4.453125 -5.390625 C 3.148438 -7.710938 2.3125 -9.144531 1.9375 -9.6875 L 0.921875 -9.6875 C 0.785156 -9.6875 0.71875 -9.742188 0.71875 -9.859375 L 0.71875 -10.640625 C 0.71875 -10.753906 0.785156 -10.8125 0.921875 -10.8125 L 4.3125 -10.8125 C 4.425781 -10.8125 4.484375 -10.753906 4.484375 -10.640625 L 4.484375 -9.859375 C 4.484375 -9.742188 4.425781 -9.6875 4.3125 -9.6875 L 3.3125 -9.6875 L 5.671875 -5.5 L 5.765625 -5.5 L 8.125 -9.6875 L 7.125 -9.6875 C 7 -9.6875 6.9375 -9.742188 6.9375 -9.859375 L 6.9375 -10.640625 C 6.9375 -10.753906 7 -10.8125 7.125 -10.8125 L 10.53125 -10.8125 C 10.644531 -10.8125 10.703125 -10.753906 10.703125 -10.640625 L 10.703125 -9.859375 C 10.703125 -9.742188 10.644531 -9.6875 10.53125 -9.6875 L 9.484375 -9.6875 C 8.992188 -8.957031 8.351562 -7.890625 7.5625 -6.484375 C 6.78125 -5.085938 6.382812 -4.382812 6.375 -4.375 L 6.375 -1.125 L 7.53125 -1.125 C 7.65625 -1.125 7.71875 -1.066406 7.71875 -0.953125 L 7.71875 -0.1875 C 7.71875 -0.0625 7.65625 0 7.53125 0 Z M 7.53125 0 "/></g></g></g><g fill="#000000" fill-opacity="1"><g transform="translate(63.514962, 170.385511)"><g><path d="M 11.203125 -5.453125 C 11.203125 -3.804688 10.707031 -2.46875 9.71875 -1.4375 C 8.726562 -0.40625 7.484375 0.109375 5.984375 0.109375 C 4.484375 0.109375 3.226562 -0.410156 2.21875 -1.453125 C 1.21875 -2.492188 0.71875 -3.832031 0.71875 -5.46875 C 0.71875 -7.113281 1.234375 -8.429688 2.265625 -9.421875 C 3.304688 -10.410156 4.546875 -10.90625 5.984375 -10.90625 C 7.421875 -10.90625 8.648438 -10.410156 9.671875 -9.421875 C 10.691406 -8.429688 11.203125 -7.109375 11.203125 -5.453125 Z M 3.28125 -2.265625 C 4.050781 -1.492188 4.945312 -1.109375 5.96875 -1.109375 C 7 -1.109375 7.894531 -1.492188 8.65625 -2.265625 C 9.425781 -3.035156 9.8125 -4.085938 9.8125 -5.421875 C 9.8125 -6.765625 9.421875 -7.816406 8.640625 -8.578125 C 7.859375 -9.335938 6.96875 -9.71875 5.96875 -9.71875 C 4.976562 -9.71875 4.09375 -9.335938 3.3125 -8.578125 C 2.53125 -7.816406 2.140625 -6.765625 2.140625 -5.421875 C 2.140625 -4.085938 2.519531 -3.035156 3.28125 -2.265625 Z M 3.28125 -2.265625 "/></g></g></g><g fill="#000000" fill-opacity="1"><g transform="translate(76.206598, 170.385511)"><g><path d="M 10.09375 0 L 9.28125 0 C 9.09375 0 8.941406 -0.0351562 8.828125 -0.109375 C 8.710938 -0.179688 8.609375 -0.300781 8.515625 -0.46875 L 4.15625 -7.28125 L 3.40625 -8.546875 L 3.375 -8.546875 L 3.375 -1.125 L 4.53125 -1.125 C 4.664062 -1.125 4.734375 -1.066406 4.734375 -0.953125 L 4.734375 -0.1875 C 4.734375 -0.0625 4.664062 0 4.53125 0 L 0.921875 0 C 0.785156 0 0.71875 -0.0625 0.71875 -0.1875 L 0.71875 -0.953125 C 0.71875 -1.066406 0.785156 -1.125 0.921875 -1.125 L 2.0625 -1.125 L 2.0625 -9.6875 L 0.921875 -9.6875 C 0.785156 -9.6875 0.71875 -9.742188 0.71875 -9.859375 L 0.71875 -10.640625 C 0.71875 -10.753906 0.785156 -10.8125 0.921875 -10.8125 L 3.03125 -10.8125 C 3.320312 -10.8125 3.578125 -10.640625 3.796875 -10.296875 L 8.09375 -3.578125 L 8.953125 -2.125 L 8.984375 -2.125 L 8.984375 -9.6875 L 7.8125 -9.6875 C 7.695312 -9.6875 7.640625 -9.742188 7.640625 -9.859375 L 7.640625 -10.640625 C 7.640625 -10.753906 7.695312 -10.8125 7.8125 -10.8125 L 11.453125 -10.8125 C 11.566406 -10.8125 11.625 -10.753906 11.625 -10.640625 L 11.625 -9.859375 C 11.625 -9.742188 11.566406 -9.6875 11.453125 -9.6875 L 10.28125 -9.6875 L 10.28125 -0.1875 C 10.28125 -0.0625 10.21875 0 10.09375 0 Z M 10.09375 0 "/></g></g></g><g fill="#000000" fill-opacity="1"><g transform="translate(89.304733, 170.385511)"><g><path d="M 5.15625 0 L 0.828125 0 C 0.703125 0 0.640625 -0.0625 0.640625 -0.1875 L 0.640625 -0.953125 C 0.640625 -1.066406 0.703125 -1.125 0.828125 -1.125 L 1.984375 -1.125 L 1.984375 -9.6875 L 0.828125 -9.6875 C 0.703125 -9.6875 0.640625 -9.742188 0.640625 -9.859375 L 0.640625 -10.640625 C 0.640625 -10.753906 0.703125 -10.8125 0.828125 -10.8125 L 4.890625 -10.8125 C 6.554688 -10.8125 7.878906 -10.332031 8.859375 -9.375 C 9.847656 -8.414062 10.34375 -7.097656 10.34375 -5.421875 C 10.34375 -3.742188 9.875 -2.421875 8.9375 -1.453125 C 8.007812 -0.484375 6.75 0 5.15625 0 Z M 3.296875 -1.125 L 4.796875 -1.125 C 7.585938 -1.144531 8.984375 -2.566406 8.984375 -5.390625 C 8.984375 -6.742188 8.625 -7.796875 7.90625 -8.546875 C 7.1875 -9.304688 6.132812 -9.6875 4.75 -9.6875 L 3.296875 -9.6875 Z M 3.296875 -1.125 "/></g></g></g><g fill="#000000" fill-opacity="1"><g transform="translate(101.19844, 170.385511)"><g/></g></g><g fill="#000000" fill-opacity="1"><g transform="translate(106.663528, 170.385511)"><g><path d="M 5.78125 0 L 0.921875 0 C 0.785156 0 0.71875 -0.0625 0.71875 -0.1875 L 0.71875 -0.953125 C 0.71875 -1.066406 0.785156 -1.125 0.921875 -1.125 L 2.0625 -1.125 L 2.0625 -9.6875 L 0.921875 -9.6875 C 0.785156 -9.6875 0.71875 -9.742188 0.71875 -9.859375 L 0.71875 -10.640625 C 0.71875 -10.753906 0.785156 -10.8125 0.921875 -10.8125 L 5.765625 -10.8125 C 6.773438 -10.8125 7.554688 -10.546875 8.109375 -10.015625 C 8.671875 -9.484375 8.953125 -8.785156 8.953125 -7.921875 C 8.953125 -6.910156 8.503906 -6.15625 7.609375 -5.65625 C 8.890625 -5.28125 9.53125 -4.425781 9.53125 -3.09375 C 9.53125 -2.144531 9.21875 -1.390625 8.59375 -0.828125 C 7.96875 -0.273438 7.03125 0 5.78125 0 Z M 3.375 -1.125 L 5.671875 -1.125 C 6.472656 -1.125 7.09375 -1.289062 7.53125 -1.625 C 7.976562 -1.96875 8.203125 -2.488281 8.203125 -3.1875 C 8.203125 -4.445312 7.390625 -5.078125 5.765625 -5.078125 L 3.375 -5.078125 Z M 3.375 -6.0625 L 5.671875 -6.0625 C 6.203125 -6.070312 6.660156 -6.222656 7.046875 -6.515625 C 7.429688 -6.804688 7.625 -7.265625 7.625 -7.890625 C 7.625 -8.515625 7.421875 -8.96875 7.015625 -9.25 C 6.609375 -9.539062 6.109375 -9.6875 5.515625 -9.6875 L 3.375 -9.6875 Z M 3.375 -6.0625 "/></g></g></g><g fill="#000000" fill-opacity="1"><g transform="translate(117.66897, 170.385511)"><g><path d="M 8.890625 -3.921875 L 8.890625 -9.6875 L 7.734375 -9.6875 C 7.609375 -9.6875 7.546875 -9.742188 7.546875 -9.859375 L 7.546875 -10.640625 C 7.546875 -10.753906 7.609375 -10.8125 7.734375 -10.8125 L 11.359375 -10.8125 C 11.472656 -10.8125 11.53125 -10.753906 11.53125 -10.640625 L 11.53125 -9.859375 C 11.53125 -9.742188 11.472656 -9.6875 11.359375 -9.6875 L 10.203125 -9.6875 L 10.203125 -4.046875 C 10.203125 -2.691406 9.847656 -1.660156 9.140625 -0.953125 C 8.429688 -0.242188 7.429688 0.109375 6.140625 0.109375 C 4.847656 0.109375 3.84375 -0.242188 3.125 -0.953125 C 2.414062 -1.660156 2.0625 -2.691406 2.0625 -4.046875 L 2.0625 -9.6875 L 0.921875 -9.6875 C 0.785156 -9.6875 0.71875 -9.742188 0.71875 -9.859375 L 0.71875 -10.640625 C 0.71875 -10.753906 0.785156 -10.8125 0.921875 -10.8125 L 4.53125 -10.8125 C 4.664062 -10.8125 4.734375 -10.753906 4.734375 -10.640625 L 4.734375 -9.859375 C 4.734375 -9.742188 4.664062 -9.6875 4.53125 -9.6875 L 3.375 -9.6875 L 3.375 -4 C 3.375 -2.070312 4.296875 -1.109375 6.140625 -1.109375 C 7.085938 -1.109375 7.78125 -1.359375 8.21875 -1.859375 C 8.664062 -2.359375 8.890625 -3.046875 8.890625 -3.921875 Z M 8.890625 -3.921875 "/></g></g></g><g fill="#000000" fill-opacity="1"><g transform="translate(130.676771, 170.385511)"><g><path d="M 1.765625 0 L 0.921875 0 C 0.785156 0 0.71875 -0.0625 0.71875 -0.1875 L 0.71875 -3.703125 C 0.71875 -3.835938 0.785156 -3.90625 0.921875 -3.90625 L 1.875 -3.90625 C 1.988281 -3.90625 2.046875 -3.835938 2.046875 -3.703125 L 2.046875 -3.390625 C 2.046875 -3.203125 2.160156 -2.945312 2.390625 -2.625 C 2.617188 -2.3125 2.847656 -2.050781 3.078125 -1.84375 C 3.316406 -1.644531 3.628906 -1.472656 4.015625 -1.328125 C 4.398438 -1.179688 4.816406 -1.109375 5.265625 -1.109375 C 6.046875 -1.109375 6.648438 -1.269531 7.078125 -1.59375 C 7.515625 -1.914062 7.734375 -2.363281 7.734375 -2.9375 C 7.734375 -3.269531 7.609375 -3.550781 7.359375 -3.78125 C 7.117188 -4.019531 6.800781 -4.207031 6.40625 -4.34375 C 6.019531 -4.488281 5.585938 -4.617188 5.109375 -4.734375 C 4.628906 -4.859375 4.148438 -5 3.671875 -5.15625 C 3.203125 -5.3125 2.769531 -5.5 2.375 -5.71875 C 1.988281 -5.9375 1.671875 -6.238281 1.421875 -6.625 C 1.171875 -7.007812 1.046875 -7.460938 1.046875 -7.984375 C 1.046875 -8.828125 1.363281 -9.523438 2 -10.078125 C 2.644531 -10.628906 3.503906 -10.90625 4.578125 -10.90625 C 5.929688 -10.90625 6.925781 -10.507812 7.5625 -9.71875 L 7.53125 -10.65625 C 7.53125 -10.769531 7.597656 -10.828125 7.734375 -10.828125 L 8.578125 -10.828125 C 8.691406 -10.828125 8.75 -10.769531 8.75 -10.65625 L 8.75 -7.359375 C 8.75 -7.242188 8.691406 -7.1875 8.578125 -7.1875 L 7.625 -7.1875 C 7.5 -7.1875 7.4375 -7.242188 7.4375 -7.359375 L 7.4375 -7.78125 C 7.4375 -8.195312 7.207031 -8.613281 6.75 -9.03125 C 6.289062 -9.457031 5.613281 -9.671875 4.71875 -9.671875 C 4.050781 -9.671875 3.515625 -9.507812 3.109375 -9.1875 C 2.703125 -8.875 2.5 -8.472656 2.5 -7.984375 C 2.5 -7.628906 2.625 -7.328125 2.875 -7.078125 C 3.125 -6.828125 3.445312 -6.625 3.84375 -6.46875 C 4.25 -6.320312 4.691406 -6.1875 5.171875 -6.0625 C 5.660156 -5.9375 6.144531 -5.796875 6.625 -5.640625 C 7.101562 -5.492188 7.546875 -5.316406 7.953125 -5.109375 C 8.359375 -4.898438 8.6875 -4.609375 8.9375 -4.234375 C 9.1875 -3.867188 9.3125 -3.4375 9.3125 -2.9375 C 9.3125 -2.050781 8.992188 -1.320312 8.359375 -0.75 C 7.722656 -0.175781 6.78125 0.109375 5.53125 0.109375 C 4.601562 0.109375 3.835938 -0.078125 3.234375 -0.453125 C 2.628906 -0.828125 2.191406 -1.226562 1.921875 -1.65625 L 1.9375 -0.1875 C 1.9375 -0.0625 1.878906 0 1.765625 0 Z M 1.765625 0 "/></g></g></g><g fill="#000000" fill-opacity="1"><g transform="translate(141.456385, 170.385511)"><g><path d="M 4.53125 0 L 0.921875 0 C 0.785156 0 0.71875 -0.0625 0.71875 -0.1875 L 0.71875 -0.953125 C 0.71875 -1.066406 0.785156 -1.125 0.921875 -1.125 L 2.0625 -1.125 L 2.0625 -9.6875 L 0.921875 -9.6875 C 0.785156 -9.6875 0.71875 -9.742188 0.71875 -9.859375 L 0.71875 -10.640625 C 0.71875 -10.753906 0.785156 -10.8125 0.921875 -10.8125 L 4.53125 -10.8125 C 4.664062 -10.8125 4.734375 -10.753906 4.734375 -10.640625 L 4.734375 -9.859375 C 4.734375 -9.742188 4.664062 -9.6875 4.53125 -9.6875 L 3.375 -9.6875 L 3.375 -1.125 L 4.53125 -1.125 C 4.664062 -1.125 4.734375 -1.066406 4.734375 -0.953125 L 4.734375 -0.1875 C 4.734375 -0.0625 4.664062 0 4.53125 0 Z M 4.53125 0 "/></g></g></g><g fill="#000000" fill-opacity="1"><g transform="translate(147.659184, 170.385511)"><g><path d="M 10.09375 0 L 9.28125 0 C 9.09375 0 8.941406 -0.0351562 8.828125 -0.109375 C 8.710938 -0.179688 8.609375 -0.300781 8.515625 -0.46875 L 4.15625 -7.28125 L 3.40625 -8.546875 L 3.375 -8.546875 L 3.375 -1.125 L 4.53125 -1.125 C 4.664062 -1.125 4.734375 -1.066406 4.734375 -0.953125 L 4.734375 -0.1875 C 4.734375 -0.0625 4.664062 0 4.53125 0 L 0.921875 0 C 0.785156 0 0.71875 -0.0625 0.71875 -0.1875 L 0.71875 -0.953125 C 0.71875 -1.066406 0.785156 -1.125 0.921875 -1.125 L 2.0625 -1.125 L 2.0625 -9.6875 L 0.921875 -9.6875 C 0.785156 -9.6875 0.71875 -9.742188 0.71875 -9.859375 L 0.71875 -10.640625 C 0.71875 -10.753906 0.785156 -10.8125 0.921875 -10.8125 L 3.03125 -10.8125 C 3.320312 -10.8125 3.578125 -10.640625 3.796875 -10.296875 L 8.09375 -3.578125 L 8.953125 -2.125 L 8.984375 -2.125 L 8.984375 -9.6875 L 7.8125 -9.6875 C 7.695312 -9.6875 7.640625 -9.742188 7.640625 -9.859375 L 7.640625 -10.640625 C 7.640625 -10.753906 7.695312 -10.8125 7.8125 -10.8125 L 11.453125 -10.8125 C 11.566406 -10.8125 11.625 -10.753906 11.625 -10.640625 L 11.625 -9.859375 C 11.625 -9.742188 11.566406 -9.6875 11.453125 -9.6875 L 10.28125 -9.6875 L 10.28125 -0.1875 C 10.28125 -0.0625 10.21875 0 10.09375 0 Z M 10.09375 0 "/></g></g></g><g fill="#000000" fill-opacity="1"><g transform="translate(160.757318, 170.385511)"><g><path d="M 8.921875 0 L 0.921875 0 C 0.785156 0 0.71875 -0.0625 0.71875 -0.1875 L 0.71875 -0.953125 C 0.71875 -1.066406 0.785156 -1.125 0.921875 -1.125 L 2.0625 -1.125 L 2.0625 -9.6875 L 0.921875 -9.6875 C 0.785156 -9.6875 0.71875 -9.742188 0.71875 -9.859375 L 0.71875 -10.640625 C 0.71875 -10.753906 0.785156 -10.8125 0.921875 -10.8125 L 8.921875 -10.8125 C 9.046875 -10.8125 9.109375 -10.753906 9.109375 -10.640625 L 9.109375 -8.203125 C 9.109375 -8.078125 9.046875 -8.015625 8.921875 -8.015625 L 8.109375 -8.015625 C 7.984375 -8.015625 7.921875 -8.078125 7.921875 -8.203125 L 7.921875 -9.6875 L 3.375 -9.6875 L 3.375 -5.953125 L 7.1875 -5.953125 C 7.3125 -5.953125 7.375 -5.890625 7.375 -5.765625 L 7.375 -5 C 7.375 -4.875 7.3125 -4.8125 7.1875 -4.8125 L 3.375 -4.8125 L 3.375 -1.125 L 7.90625 -1.125 L 7.90625 -2.609375 C 7.90625 -2.722656 7.972656 -2.78125 8.109375 -2.78125 L 8.921875 -2.78125 C 9.046875 -2.78125 9.109375 -2.722656 9.109375 -2.609375 L 9.109375 -0.1875 C 9.109375 -0.0625 9.046875 0 8.921875 0 Z M 8.921875 0 "/></g></g></g><g fill="#000000" fill-opacity="1"><g transform="translate(171.341213, 170.385511)"><g><path d="M 1.765625 0 L 0.921875 0 C 0.785156 0 0.71875 -0.0625 0.71875 -0.1875 L 0.71875 -3.703125 C 0.71875 -3.835938 0.785156 -3.90625 0.921875 -3.90625 L 1.875 -3.90625 C 1.988281 -3.90625 2.046875 -3.835938 2.046875 -3.703125 L 2.046875 -3.390625 C 2.046875 -3.203125 2.160156 -2.945312 2.390625 -2.625 C 2.617188 -2.3125 2.847656 -2.050781 3.078125 -1.84375 C 3.316406 -1.644531 3.628906 -1.472656 4.015625 -1.328125 C 4.398438 -1.179688 4.816406 -1.109375 5.265625 -1.109375 C 6.046875 -1.109375 6.648438 -1.269531 7.078125 -1.59375 C 7.515625 -1.914062 7.734375 -2.363281 7.734375 -2.9375 C 7.734375 -3.269531 7.609375 -3.550781 7.359375 -3.78125 C 7.117188 -4.019531 6.800781 -4.207031 6.40625 -4.34375 C 6.019531 -4.488281 5.585938 -4.617188 5.109375 -4.734375 C 4.628906 -4.859375 4.148438 -5 3.671875 -5.15625 C 3.203125 -5.3125 2.769531 -5.5 2.375 -5.71875 C 1.988281 -5.9375 1.671875 -6.238281 1.421875 -6.625 C 1.171875 -7.007812 1.046875 -7.460938 1.046875 -7.984375 C 1.046875 -8.828125 1.363281 -9.523438 2 -10.078125 C 2.644531 -10.628906 3.503906 -10.90625 4.578125 -10.90625 C 5.929688 -10.90625 6.925781 -10.507812 7.5625 -9.71875 L 7.53125 -10.65625 C 7.53125 -10.769531 7.597656 -10.828125 7.734375 -10.828125 L 8.578125 -10.828125 C 8.691406 -10.828125 8.75 -10.769531 8.75 -10.65625 L 8.75 -7.359375 C 8.75 -7.242188 8.691406 -7.1875 8.578125 -7.1875 L 7.625 -7.1875 C 7.5 -7.1875 7.4375 -7.242188 7.4375 -7.359375 L 7.4375 -7.78125 C 7.4375 -8.195312 7.207031 -8.613281 6.75 -9.03125 C 6.289062 -9.457031 5.613281 -9.671875 4.71875 -9.671875 C 4.050781 -9.671875 3.515625 -9.507812 3.109375 -9.1875 C 2.703125 -8.875 2.5 -8.472656 2.5 -7.984375 C 2.5 -7.628906 2.625 -7.328125 2.875 -7.078125 C 3.125 -6.828125 3.445312 -6.625 3.84375 -6.46875 C 4.25 -6.320312 4.691406 -6.1875 5.171875 -6.0625 C 5.660156 -5.9375 6.144531 -5.796875 6.625 -5.640625 C 7.101562 -5.492188 7.546875 -5.316406 7.953125 -5.109375 C 8.359375 -4.898438 8.6875 -4.609375 8.9375 -4.234375 C 9.1875 -3.867188 9.3125 -3.4375 9.3125 -2.9375 C 9.3125 -2.050781 8.992188 -1.320312 8.359375 -0.75 C 7.722656 -0.175781 6.78125 0.109375 5.53125 0.109375 C 4.601562 0.109375 3.835938 -0.078125 3.234375 -0.453125 C 2.628906 -0.828125 2.191406 -1.226562 1.921875 -1.65625 L 1.9375 -0.1875 C 1.9375 -0.0625 1.878906 0 1.765625 0 Z M 1.765625 0 "/></g></g></g><g fill="#000000" fill-opacity="1"><g transform="translate(182.12082, 170.385511)"><g><path d="M 1.765625 0 L 0.921875 0 C 0.785156 0 0.71875 -0.0625 0.71875 -0.1875 L 0.71875 -3.703125 C 0.71875 -3.835938 0.785156 -3.90625 0.921875 -3.90625 L 1.875 -3.90625 C 1.988281 -3.90625 2.046875 -3.835938 2.046875 -3.703125 L 2.046875 -3.390625 C 2.046875 -3.203125 2.160156 -2.945312 2.390625 -2.625 C 2.617188 -2.3125 2.847656 -2.050781 3.078125 -1.84375 C 3.316406 -1.644531 3.628906 -1.472656 4.015625 -1.328125 C 4.398438 -1.179688 4.816406 -1.109375 5.265625 -1.109375 C 6.046875 -1.109375 6.648438 -1.269531 7.078125 -1.59375 C 7.515625 -1.914062 7.734375 -2.363281 7.734375 -2.9375 C 7.734375 -3.269531 7.609375 -3.550781 7.359375 -3.78125 C 7.117188 -4.019531 6.800781 -4.207031 6.40625 -4.34375 C 6.019531 -4.488281 5.585938 -4.617188 5.109375 -4.734375 C 4.628906 -4.859375 4.148438 -5 3.671875 -5.15625 C 3.203125 -5.3125 2.769531 -5.5 2.375 -5.71875 C 1.988281 -5.9375 1.671875 -6.238281 1.421875 -6.625 C 1.171875 -7.007812 1.046875 -7.460938 1.046875 -7.984375 C 1.046875 -8.828125 1.363281 -9.523438 2 -10.078125 C 2.644531 -10.628906 3.503906 -10.90625 4.578125 -10.90625 C 5.929688 -10.90625 6.925781 -10.507812 7.5625 -9.71875 L 7.53125 -10.65625 C 7.53125 -10.769531 7.597656 -10.828125 7.734375 -10.828125 L 8.578125 -10.828125 C 8.691406 -10.828125 8.75 -10.769531 8.75 -10.65625 L 8.75 -7.359375 C 8.75 -7.242188 8.691406 -7.1875 8.578125 -7.1875 L 7.625 -7.1875 C 7.5 -7.1875 7.4375 -7.242188 7.4375 -7.359375 L 7.4375 -7.78125 C 7.4375 -8.195312 7.207031 -8.613281 6.75 -9.03125 C 6.289062 -9.457031 5.613281 -9.671875 4.71875 -9.671875 C 4.050781 -9.671875 3.515625 -9.507812 3.109375 -9.1875 C 2.703125 -8.875 2.5 -8.472656 2.5 -7.984375 C 2.5 -7.628906 2.625 -7.328125 2.875 -7.078125 C 3.125 -6.828125 3.445312 -6.625 3.84375 -6.46875 C 4.25 -6.320312 4.691406 -6.1875 5.171875 -6.0625 C 5.660156 -5.9375 6.144531 -5.796875 6.625 -5.640625 C 7.101562 -5.492188 7.546875 -5.316406 7.953125 -5.109375 C 8.359375 -4.898438 8.6875 -4.609375 8.9375 -4.234375 C 9.1875 -3.867188 9.3125 -3.4375 9.3125 -2.9375 C 9.3125 -2.050781 8.992188 -1.320312 8.359375 -0.75 C 7.722656 -0.175781 6.78125 0.109375 5.53125 0.109375 C 4.601562 0.109375 3.835938 -0.078125 3.234375 -0.453125 C 2.628906 -0.828125 2.191406 -1.226562 1.921875 -1.65625 L 1.9375 -0.1875 C 1.9375 -0.0625 1.878906 0 1.765625 0 Z M 1.765625 0 "/></g></g></g></svg>