<svg xmlns="http://www.w3.org/2000/svg" viewBox="0 0 512 512"><defs><style>.cls-1{fill:#6798d1;}.cls-2{fill:#2f3b71;}.cls-3{fill:#87bce7;}.cls-4{fill:#cd458f;}.cls-5{fill:#b7177d;}.cls-6{fill:#e1aa54;}.cls-7{fill:#db9932;}.cls-8{fill:#c88a34;}.cls-9{fill:#a37133;}.cls-10{fill:#b88135;}.cls-11{fill:#c5a139;}.cls-12{fill:#e5be3d;}.cls-13{fill:#cf4849;}.cls-14{fill:#fff;}.cls-15{fill:#51649d;}.cls-16{fill:#adadad;}.cls-17{fill:#bdbebf;}.cls-18{fill:#9d3f4a;}.cls-19{fill:#722a2a;}.cls-20{fill:#8f2f2f;}</style></defs><title>Gifts</title><g id="BULINE"><circle class="cls-1" cx="256" cy="256" r="256"/></g><g id="Icons"><path class="cls-2" d="M480.87,378.44a256.08,256.08,0,0,1-449.74,0Z"/><path class="cls-3" d="M455.51,95.58a211.23,211.23,0,0,1-27,96.82q-4,7.09-8.48,13.83a211.9,211.9,0,0,1-13.41,18q-4.17,5-8.66,9.79a213.06,213.06,0,0,1-37.71,31.8,211.27,211.27,0,0,1-54.43,25.75c-1.92.59-3.85,1.16-5.79,1.69Q290,296,279.53,297.84c-2.75.48-5.51.9-8.3,1.26A214.56,214.56,0,0,1,202.44,297,210.83,210.83,0,0,1,145,276.88c-1.21-.63-2.4-1.27-3.59-1.92q-3.92-2.15-7.73-4.46a213.15,213.15,0,0,1-61.3-55.83,211.24,211.24,0,0,1-37.89-87,256,256,0,0,1,421.06-32.1Z"/><path class="cls-4" d="M271.23,175.37V325.29a10,10,0,0,1-10,10H82.33a10,10,0,0,1-10-10V175.37Z"/><path class="cls-5" d="M283.9,129.89v38.32a7.17,7.17,0,0,1-7.18,7.16H66.83a7.15,7.15,0,0,1-7.16-7.16V129.89a7.15,7.15,0,0,1,7.16-7.16H276.72A7.17,7.17,0,0,1,283.9,129.89Z"/><path class="cls-4" d="M283.9,129.89v38.32a7.17,7.17,0,0,1-7.18,7.16H128.14a7.15,7.15,0,0,1-7.16-7.16V129.89a7.15,7.15,0,0,1,7.16-7.16H276.72A7.17,7.17,0,0,1,283.9,129.89Z"/><rect class="cls-6" x="144.96" y="122.73" width="57.47" height="52.63"/><path class="cls-5" d="M271.23,189.86V175.37H72.34V325.29a10,10,0,0,0,10,10h61.31a10,10,0,0,1-10-10V189.86Z"/><rect class="cls-7" x="144.96" y="175.37" width="57.47" height="159.92"/><rect class="cls-8" x="144.96" y="175.37" width="57.47" height="14.49"/><path class="cls-9" d="M173.69,122.73H78.16c1-27,13.86-40.13,21.43-45.57a15.64,15.64,0,0,1,10.68-2.82,97.87,97.87,0,0,1,15.37,2.78C167.18,88.21,173.69,122.73,173.69,122.73Z"/><path class="cls-10" d="M173.69,122.73H104.15c1-27,13.85-40.13,21.43-45.57l.06,0C167.18,88.21,173.69,122.73,173.69,122.73Z"/><path class="cls-9" d="M173.69,122.73h95.53c-1-27-13.85-40.13-21.43-45.57a15.6,15.6,0,0,0-10.67-2.82,97.66,97.66,0,0,0-15.37,2.78C180.21,88.21,173.69,122.73,173.69,122.73Z"/><path class="cls-10" d="M173.69,122.73h69.55c-1-27-13.86-40.13-21.43-45.57l-.06,0C180.21,88.21,173.69,122.73,173.69,122.73Z"/><path class="cls-7" d="M191.26,122.73a17.57,17.57,0,1,0-35.14,0Z"/><path class="cls-11" d="M456.34,261.8v90.13H279.53V196.21a23.38,23.38,0,0,1,23.38-23.38H404.64A23.39,23.39,0,0,1,426,186.71l27.56,62A32.2,32.2,0,0,1,456.34,261.8Z"/><path class="cls-12" d="M456.34,261.8v90.13H300.06V196.21a23.38,23.38,0,0,1,23.38-23.38h81.2A23.39,23.39,0,0,1,426,186.71l27.56,62A32.2,32.2,0,0,1,456.34,261.8Z"/><path class="cls-13" d="M279.53,351.93H462.88a14,14,0,0,1,14,14v3.94a14,14,0,0,1-14,14H279.53a0,0,0,0,1,0,0V351.93A0,0,0,0,1,279.53,351.93Z"/><path class="cls-2" d="M398.35,265.8H311.84c-3.35,0-6.08-4-6.08-8.84V213.61c0-4.88,2.73-8.84,6.08-8.84h71.32c2.2,0,4.24,1.72,5.31,4.52l.08.2L394,223.68h0l10.42,27C407,257.45,403.67,265.8,398.35,265.8Z"/><path class="cls-2" d="M406.86,204.77h9.55a5.29,5.29,0,0,1,4.83,3.13l22.63,50.43A5.3,5.3,0,0,1,439,265.8H426.11a5.31,5.31,0,0,1-5.19-4.23l-19.25-50.42A5.3,5.3,0,0,1,406.86,204.77Z"/><rect class="cls-14" x="305.76" y="280.06" width="46.77" height="18.25" rx="8"/><path class="cls-14" d="M456.34,275v38.72a19.39,19.39,0,0,1,0-38.72Z"/><path class="cls-15" d="M374.21,204.77l-61,61h-1.33c-3.35,0-6.08-4-6.08-8.84V244.17l39.4-39.4Z"/><polygon class="cls-15" points="394.01 223.68 394.01 223.69 351.89 265.8 332.24 265.8 388.55 209.49 394.01 223.68"/><path class="cls-16" d="M279.53,351.93v31.94H49.09a16,16,0,0,1,0-31.94Z"/><path class="cls-17" d="M279.53,275v77H49.09v-67a10,10,0,0,1,10-10Z"/><path class="cls-17" d="M279.53,351.93v31.94h-170a16,16,0,0,1,0-31.94Z"/><path class="cls-14" d="M279.53,275v77h-170v-67a10,10,0,0,1,10-10Z"/><path class="cls-16" d="M143.9,338.11q-2.55-.93-5.17-1.67a66.19,66.19,0,0,0-81.9,47.43h128.3A66.3,66.3,0,0,0,143.9,338.11Z"/><path class="cls-18" d="M374.89,339.27c-1.65-.61-3.33-1.16-5-1.63A64.52,64.52,0,0,0,290,383.87H415.06A64.59,64.59,0,0,0,374.89,339.27Z"/><path class="cls-11" d="M369.85,337.64a64.34,64.34,0,0,0-60.53,14.29h86.42a64.15,64.15,0,0,0-20.86-12.66C373.24,338.66,371.56,338.11,369.85,337.64Z"/><path class="cls-19" d="M167.19,395.27a46.2,46.2,0,1,1-33.82-44.51A46.22,46.22,0,0,1,167.19,395.27Z"/><ellipse class="cls-20" cx="133.37" cy="395.27" rx="33.81" ry="44.51"/><circle class="cls-14" cx="120.98" cy="395.27" r="16.83"/><path class="cls-19" d="M398.16,395.27a46.18,46.18,0,1,1-33.8-44.51A46.21,46.21,0,0,1,398.16,395.27Z"/><path class="cls-20" d="M398.16,395.27a46.21,46.21,0,0,1-33.8,44.52,46.21,46.21,0,0,1,0-89A46.21,46.21,0,0,1,398.16,395.27Z"/><circle class="cls-14" cx="352.53" cy="395.27" r="16.83"/></g></svg>